<?xml version="1.0" encoding="UTF-8" standalone="no"?>
<!-- Created with Inkscape (http://www.inkscape.org/) -->

<svg
   version="1.1"
   id="svg1"
   width="2048"
   height="2048"
   viewBox="0 0 2048 2048"
   xmlns="http://www.w3.org/2000/svg"
   xmlns:svg="http://www.w3.org/2000/svg">
  <defs
     id="defs1" />
  <g
     id="g1">
    <g
       id="g2">
      <path
         style="fill:#2b5326;stroke-width:1.4748"
         d="M 991.66526,248.35497 V 380.2981 l -72.59964,72.69747 -84.78363,82.2706 -139.7603,-9.57314 c 0,0 -108.19788,-8.51808 -147.3289,7.69231 -39.13101,16.21038 -49.07282,37.45077 -74.71544,69.80366 -25.64263,32.35289 -67.71905,111.4446 -67.71905,111.4446 0,0 28.88375,-0.55168 39.54027,-0.19844 10.65653,0.35323 29.55532,1.65318 29.55532,1.65318 l 52.81042,-86.40112 c 0,0 15.68296,-30.13185 40.99599,-40.5362 25.31303,-10.40435 103.94344,-7.85327 103.94344,-7.85327 58.60486,-0.0147 109.16516,8.31218 109.16516,8.92378 0,0.61174 -30.69693,31.80376 -68.21539,69.3156 l -68.21538,68.20345 H 510.64931 c 0,0 -105.62933,-7.76502 -128.6415,2.64498 -8.93299,2.53104 -17.44001,10.99692 -17.44001,10.99692 -6.77209,7.54267 -29.27227,32.22438 -49.90289,54.9363 -50.23265,55.30028 -84.43493,92.79751 -92.81918,101.7612 -3.79356,4.0557 -18.09531,19.65171 -31.78169,34.6578 l -24.8843,27.2838 124.55067,0.7374 124.55069,0.7374 0.7374,145.70732 0.7374,145.7074 21.3846,-14.5184 c 11.76153,-7.9849 33.33048,-22.7257 47.931,-32.7572 14.60052,-10.0314 45.46071,-31.189 68.5782,-47.0169 49.59986,-33.9598 107.81936,-87.1096 124.21884,-112.2104 19.92061,-29.3365 13.73941,-92.56345 12.67551,-131.71253 -1.0639,-39.14908 -1.19327,-143.44849 -1.19327,-143.44849 l 70.78067,-70.78848 70.78073,-70.78849 4.30769,104.33748 c 0,0 10.96015,79.28936 -4.30769,114.18364 -8.05949,18.41977 -25.92885,31.52634 -42.72719,42.57438 -25.8697,17.01416 -86.26644,34.44723 -86.26644,34.44723 1.74755,11.41196 1.81759,47.76693 0.96279,61.06791 -0.24858,3.86799 86.59188,-20.803 119.3213,-41.10121 24.02657,-15.51164 58.1111,-41.06442 72.12596,-72.01287 22.41704,-49.50266 13.14956,-109.57852 10.46754,-162.68916 C 902.3651,662.33692 894.3406,566.24998 894.3406,566.24998 l 48.22786,-48.2997 c 26.52531,-26.56483 48.42369,-48.2997 48.66305,-48.2997 0.23938,0 0.43523,117.99019 0.43523,262.20056 v 262.20039 l -62.2746,62.25547 -62.27348,62.2555 h -89.45082 c -102.72697,-4.225 -139.36618,46.7839 -179.02653,137.2706 -25.29855,61.3211 -35.57221,108.9685 -38.32803,177.7586 l -0.89262,22.2814 6.90671,0.9467 c 10.40156,1.4257 44.44696,1.1275 67.69923,-0.593 56.87147,-4.2082 115.80771,-18.0151 161.4906,-37.8322 100.33229,-35.531 113.97893,-68.9381 119.4588,-166.2827 v -92.9711 l 37.22786,-37.2494 c 20.47531,-20.4871 37.73043,-37.2493 38.34467,-37.2493 0.61441,0 1.11702,61.9174 1.11702,137.5944 v 137.5944 l -31.33945,30.243 c -17.23673,16.6336 -38.30793,36.8195 -46.8249,44.8577 -13.79188,13.0163 -56.00696,53.4439 -100.25832,96.0133 -8.53242,8.2081 -21.11299,20.154 -27.95681,26.5464 -50.89375,37.8202 -67.48973,77.9421 -73.83247,140.1546 0,49.5426 0.7581,68.7026 1.68935,69.3671 0.32344,0.2307 57.95528,-8.893 75.73765,-12.8479 33.47594,-7.4456 86.95154,-26.4108 106.70108,-37.8418 3.52806,-2.042 6.89912,-3.1483 7.49122,-2.4585 0.59211,0.6898 1.94369,5.8999 3.00353,11.5779 4.41775,23.6679 16.90682,59.5394 30.29449,87.0132 19.47221,39.9601 40.28473,69.1046 75.47278,105.6868 l 10.869,11.2996 13.7862,-14.2492 c 23.1929,-23.9718 32.6843,-36.053 51.7012,-65.8078 25.1576,-39.3629 43.5471,-85.8254 53.2927,-134.6483 0.6138,-3.0742 0.9192,-3.1677 3.952,-1.2105 6.3086,4.071 38.8148,18.2456 55.8481,24.3528 33.8579,12.1397 63.212,19.3017 106.5047,25.9852 12.8612,1.9855 23.9775,3.61 24.7029,3.61 0.7573,0 6.9379,-58.4671 -5.6964,-117.4171 -23.1152,-52.175 -41.9966,-65.9628 -49.4492,-76.8669 -7.4526,-10.9041 -59.6768,-56.6187 -63.7325,-60.5032 -4.0557,-3.8846 -22.6382,-21.6042 -41.2944,-39.3769 -18.6562,-17.7728 -53,-50.6074 -76.3194,-72.9661 l -42.3992,-40.652 v -137.5251 c -8e-4,-75.6388 0.5136,-137.5251 1.1432,-137.5251 0.6294,0 17.8846,16.7873 38.3448,37.3052 l 37.2006,37.3052 c 0,0 -13.4377,77.3294 -5.1339,114.8974 8.3038,37.5679 34.268,81.6351 63.2006,103.1158 45.3971,33.7048 133.3556,68.073 195.5989,76.2002 25.3283,3.3068 76.4729,5.1398 91.4376,3.2765 l 9.5862,-1.1934 -0.2981,-22.1054 c -0.6953,-51.5349 -10.4427,-105.6159 -27.2482,-151.1783 -13.3699,-36.2484 -33.2203,-88.6222 -57.8164,-111.3474 -44.0385,-40.6886 -72.5148,-48.4159 -132.846,-52.3539 h -90.0245 l -61.5729,-62.1294 -61.5729,-62.12896 V 731.61773 468.92842 l 49.4058,49.39061 49.4058,49.38928 c 0,0 -14.654,99.55838 -14.7692,149.70076 -0.1209,52.59253 -7.6135,109.49316 14.7692,157.08522 14.7928,31.45383 73.74,73.72894 73.74,73.72894 l 115.5862,102.03667 -2.4616,-59.0351 -3.6923,-36.8812 -78.4615,-63.6122 c 0,0 -34.0642,-24.5244 -42.7692,-42.68897 -16.5328,-34.49881 -12.5001,-75.85008 -12.3077,-114.10533 0.176,-34.99397 12.3077,-104.25931 12.3077,-104.25931 l 71.5126,71.50125 c 39.3319,39.32569 71.4408,72.1742 71.353,72.99685 -0.088,0.82264 -6.2348,61.74466 -6.1388,141.3992 0,0 -0.1811,85.83471 6.944,134.98041 1.6356,12.7371 21.1379,29.8491 21.1379,29.8491 11.9643,8.2941 33.3673,23.1597 47.5623,33.0348 61.279,42.6307 76.7269,53.2845 116.4508,80.3111 23.0854,15.7064 50.8276,34.7425 61.6496,42.3023 27.3358,19.0958 25.4016,18.412 25.5227,9.0258 0.057,-4.2871 0.2214,-69.8468 0.3687,-145.6884 l 0.268,-137.89377 124.9639,-0.7374 124.9638,-0.7374 -13.6164,-14.80389 c -7.4891,-8.14223 -26.5579,-29.02879 -42.3751,-46.41462 -15.8173,-17.38597 -36.7368,-40.25702 -46.4881,-50.8247 -19.9273,-21.59579 -71.2766,-77.97518 -83.3174,-91.47919 -4.3396,-4.86684 -13.5255,-13.16447 -20.1468,-17.93341 -6.0665,-4.36943 -10.654,-6.2382 -14.6498,-6.90891 -43.2439,-7.25854 -84.1625,-3.26349 -126.2665,-3.91628 -44.6211,-0.69182 -133.8794,0 -133.8794,0 l -68.4931,-68.9469 -68.4929,-68.9469 104.0649,-4.68598 c 0,0 56.1295,-5.68897 82.5267,2.08326 26.0553,7.67152 49.2607,24.38361 69.5752,42.41273 27.3118,24.23928 67.7291,86.10505 67.7291,86.10505 l 26.6156,-1.23077 c 23.7519,-1.09834 32.1497,-1.09853 35.3805,-3.8455 1.3776,-1.17132 -84.6922,-135.03179 -152.4033,-169.50473 -44.0864,-22.44519 -64.7522,-15.21709 -147.6215,-15.31232 l -150.6713,-0.17476 -72.3826,-72.6339 -72.3827,-72.6339 -0.015,-131.9946 c 0,0 -1.529,-112.94792 -3.5809,-127.66051 -13.6737,-8.94825 -18.8707,-7.10409 -25.5539,-8.0411 -7.914,-0.32162 -28.11287,3.82466 -28.50337,6.75443 -5.10505,38.30108 -4.30677,128.87074 -4.30677,128.87074 z m -412.2716,543.1771 c -0.39042,1.01747 -77.7015,80.1974 -89.12538,90.57565 -19.14932,19.15397 -33.82611,16.70971 -99.98116,16.70971 -45.61097,0 -82.92902,-0.424 -82.92902,-0.94225 0,-0.51824 4.81315,-5.99344 10.69591,-12.1671 5.88274,-6.17366 16.33539,-17.55336 23.2281,-25.2884 6.8927,-7.73488 24.03593,-26.8151 38.09607,-42.4005 0,0 10.72191,-13.66811 29.87158,-22.1831 19.14968,-8.515 83.27303,-6.15385 83.27303,-6.15385 69.61954,0 87.43516,0.37932 86.87087,1.84984 z m 1075.93164,14.19731 c 7.7058,8.69763 29.5757,33.03478 48.5999,54.08224 l 34.5892,38.26841 -83.1356,5.93695 c -40.7303,2.90867 -59.409,5.07849 -85.316,-6.87278 -23.4348,-10.81081 -26.0377,-25.6411 -54.8206,-54.67431 l -52.3324,-52.78766 89.2024,0.11651 c 0,0 61.0359,-2.12129 89.4201,7.29636 5.1482,1.70815 13.793,8.63428 13.793,8.63428 z M 628.06343,933.20658 c -0.6936,59.4911 4.13648,93.97772 -54.51619,135.54232 -26.76088,18.976 -54.96091,38.7371 -62.66674,43.913 -7.70583,5.1761 -17.89965,12.2714 -22.65294,15.7673 -4.75328,3.496 -9.23299,6.3562 -9.9549,6.3562 -0.75205,0 -1.31256,-37.1579 -1.31256,-87.0132 v -87.01317 c 32.76219,-3.94315 60.49415,-41.49544 85.5384,-62.679 34.46629,-34.47345 63.00074,-62.67915 63.40989,-62.67944 0.40914,-1.5e-4 2.78613,43.67718 2.15504,97.80599 z m 854.71027,-35.12655 c 0,0 35.9379,43.22579 59.2813,58.06362 3.7113,2.35906 8.7061,2.16722 12.3593,4.61538 2.904,1.94613 5.7151,4.49497 7.1286,7.69231 10.7297,24.27041 6.7692,79.32086 6.7692,79.32086 0,47.8573 -0.3797,87.0132 -0.8435,87.0132 -1.0544,0 -48.4918,-32.9135 -104.6047,-72.5775 0,0 -34.8856,-23.2392 -43.3846,-41.3086 -12.8405,-27.29957 -6.2758,-90.28788 -6.2758,-90.28788 -0.4056,-54.05835 5.7511,-95.21083 6.1538,-95.21068 0.4091,1.4e-4 28.9436,28.20584 63.4098,62.67929 z M 802.88575,1182.2729 c 0.002,0.5674 -18.93346,19.7865 -42.08077,42.7092 0,0 -27.53613,26.0725 -29.03162,43.4182 -0.63668,7.3845 3.48668,15.3882 9.0134,20.3271 5.29701,4.7336 13.27316,7.2431 20.32713,6.4026 17.66996,-2.1056 45.7243,-27.5543 45.7243,-27.5543 l 43.98371,-43.2194 1.10741,10.8882 c 17.72173,105.6516 -79.88937,132.9739 -167.23149,151.5808 -23.21162,4.5548 -56.68565,8.639 -58.22104,7.1035 -1.29281,-1.2928 3.58803,-28.7184 9.11126,-51.1966 26.63782,-100.7484 58.2588,-175.7228 167.29771,-160.4593 z m 605.86925,155.2975 c 5.0204,19.5672 10.6023,47.5588 10.6023,53.1677 0,4.4375 -1.6887,4.5245 -26.1023,1.3463 -40.1841,-5.2313 -80.0481,-15.4666 -114.8376,-29.4849 -63.9201,-18.969 -94.0283,-73.5678 -83.4918,-137.8513 0.6669,0 12.2237,11.1163 25.6816,24.7029 13.4579,13.5866 37.0049,34.6689 42.1101,39.7329 5.1052,5.064 13.183,12.08 21.3334,11.9533 7.8531,-0.122 15.4447,-5.8903 20.1875,-12.1506 4.5913,-6.0603 7.154,-14.4769 6.0335,-21.997 -2.4103,-16.1771 -26.2098,-41.4805 -26.2098,-41.4805 -23.2155,-22.8144 -41.8212,-42.1077 -41.3461,-42.874 105.5332,-17.8628 139.9438,62.3873 166.0392,154.9352 z m -417.1154,147.1113 c -0.0177,24.7007 -0.65526,38.734 -2.06118,45.3655 -14.58356,68.7869 -92.61603,131.2893 -198.85462,159.2781 l -15.8541,4.1769 c -2.69524,-27.1964 13.0408,-41.6277 26.85855,-64.8989 14.77221,-14.063 35.8443,-34.1965 46.82688,-44.7413 10.98258,-10.5448 31.88413,-30.4546 46.44791,-44.244 14.56379,-13.7894 41.77297,-39.8141 60.46483,-57.8325 18.69188,-18.0185 34.48293,-32.785 35.09129,-32.8143 0.60835,-0.029 1.0946,16.0404 1.08044,35.7105 z m 91.7883,-9.3314 c 14.8273,14.1325 33.9272,32.3361 42.4442,40.4525 8.5169,8.1163 23.1261,22.1044 32.4645,31.0846 17.0997,16.4433 34.5123,33.097 67.0926,64.1685 41.029,30.2268 51.3242,75.835 45.6007,81.5597 -1.1968,1.1968 -22.93,-4.8567 -46.3462,-12.9092 -63.2492,-21.7504 -115.5521,-56.3888 -143.063,-94.7458 -11.0587,-15.4183 -22.5999,-38.7481 -25.714,-51.9792 -2.6415,-11.2233 -3.403,-84.6883 -0.8687,-83.8178 0.7871,0.2704 13.5625,12.0544 28.3899,26.1867 z m -53.8262,144.464 c 10.6419,14.6651 27.3761,32.8872 40.7964,44.4243 l 12.8665,11.061 -0.7936,11.061 c -1.9039,26.5383 -14.262,67.588 -29.685,98.605 -10.1213,20.3545 -27.5464,48.875 -29.8615,48.875 -0.5796,0 -5.9185,-7.329 -11.864,-16.2867 -20.56859,-30.9891 -37.42311,-72.4253 -45.09707,-110.8691 -6.18294,-30.9742 -6.86969,-28.1385 10.61556,-43.8326 13.35294,-11.985 35.09991,-36.4797 42.30541,-47.6507 1.4389,-2.2306 3.0376,-4.0364 3.5526,-4.0127 0.5152,0.023 3.7392,3.9052 7.1647,8.6255 z"
         id="path2" />
    </g>
  </g>
</svg>
