<?xml version="1.0" encoding="UTF-8" standalone="no"?>
<!-- Created with Inkscape (http://www.inkscape.org/) -->

<svg
   width="512"
   height="512"
   viewBox="0 0 512 512"
   version="1.1"
   id="svg1"
   xmlns="http://www.w3.org/2000/svg"
   xmlns:svg="http://www.w3.org/2000/svg">
  <defs
     id="defs1" />
  <g
     id="layer1">
    <g
       id="g2"
       transform="matrix(2.8026217,0,0,2.8026217,-36.606832,-120.68952)">
      <path
         style="fill:#7bb853"
         d="m 104.30219,199.84861 c -0.11679,-0.63059 -0.54335,-2.33715 -0.94792,-3.79236 -0.40458,-1.4552 -0.88451,-3.43958 -1.06652,-4.40972 -0.18202,-0.97014 -0.49502,-2.55764 -0.69556,-3.52778 -1.47567,-7.13859 -2.094484,-14.61508 -2.102322,-25.4 -0.0069,-9.54169 0.111332,-11.61627 1.085992,-19.05 1.43676,-10.95819 5.07374,-23.00075 9.429,-31.22083 1.24917,-2.35767 4.98137,-8.50495 5.35455,-8.81945 0.11512,-0.097 0.59088,-0.73201 1.05726,-1.41111 0.46637,-0.6791 0.94044,-1.3141 1.0535,-1.41111 0.11305,-0.097 0.5704,-0.65264 1.01633,-1.234723 1.3612,-1.776791 5.1169,-5.594321 7.13389,-7.251331 1.04983,-0.862463 1.98815,-1.659403 2.08517,-1.77098 0.53327,-0.613317 4.79095,-3.244962 7.24619,-4.478818 2.94209,-1.478519 8.29681,-3.225669 12.00143,-3.915851 2.71672,-0.506133 11.15815,-0.516874 13.62199,-0.01733 4.21488,0.854564 6.46178,1.573878 9.64011,3.086151 2.43241,1.157356 6.99853,3.93945 6.79677,4.141207 -0.0569,0.05688 -2.018,0.738878 -4.35804,1.515551 -6.10452,2.02612 -10.53499,4.049752 -15.77768,7.206504 -3.16834,1.907734 -3.5862,2.06571 -4.93889,1.867265 -3.39336,-0.497831 -10.93252,-0.63013 -13.05348,-0.229065 -2.78891,0.52737 -6.16967,1.61769 -8.98238,2.89688 -1.21753,0.55372 -2.32878,1.01029 -2.46944,1.01461 -0.14066,0.004 -0.65263,0.33659 -1.13769,0.73839 -0.71666,0.59363 -0.74972,0.68445 -0.17639,0.48458 4.10126,-1.42977 7.42361,-1.93738 12.52361,-1.91344 4.76706,0.0224 9.10709,0.62899 8.86936,1.23967 -0.0696,0.17869 -1.18082,1.18673 -2.46945,2.24009 -4.52819,3.70143 -11.53935,11.04127 -14.97424,15.67621 -0.73832,0.99626 -1.5547,2.07109 -1.81419,2.38851 -1.52555,1.86614 -5.23354,7.7103 -7.35594,11.5937 -0.58324,1.06715 -1.32593,2.33715 -1.65043,2.82222 -0.5771,0.86265 -0.96843,1.66473 -3.44241,7.05556 -3.38171,7.36877 -7.44326,18.16759 -6.99981,18.61104 0.0677,0.0677 0.99078,-1.51238 2.05125,-3.51132 4.20125,-7.91921 12.77191,-21.1503 15.52304,-23.96393 0.2605,-0.26642 0.70526,-0.81889 0.98837,-1.22769 1.67287,-2.4157 5.86143,-7.05895 10.70211,-11.86387 4.45773,-4.42481 6.43292,-6.06739 6.72592,-5.5933 0.28507,0.46125 0.81097,3.07722 1.42492,7.08796 0.66361,4.33518 0.66779,9.22076 0.0117,13.60904 -0.49762,3.32804 -1.75515,8.72777 -2.20035,9.44812 -0.11393,0.18435 -0.0239,0.22191 0.20014,0.0835 0.224,-0.13845 0.40728,-0.39397 0.40728,-0.56784 0,-0.17386 0.45975,-1.31543 1.02167,-2.53682 2.2175,-4.81994 3.4187,-8.61787 4.27278,-13.50959 0.42993,-2.46245 0.29517,-13.98857 -0.1962,-16.78041 l -0.22144,-1.25819 3.47062,-2.31246 c 6.02471,-4.01423 9.14975,-5.75143 15.28868,-8.49893 2.91479,-1.30452 9.43626,-3.434986 12.52361,-4.091276 0.97014,-0.206225 2.42317,-0.517699 3.22895,-0.692164 0.80578,-0.174465 1.61629,-0.218939 1.80115,-0.09883 0.44345,0.288128 2.90722,4.38306 3.84582,6.39199 4.2517,9.10012 4.75735,20.34048 1.35686,30.1625 -2.54257,7.34399 -7.79516,13.98411 -14.85374,18.77749 -3.78824,2.57255 -9.11113,5.37596 -13.72348,7.22775 -2.46009,0.9877 -6.94746,2.65621 -10.23056,3.80398 -7.95415,2.78076 -13.82847,5.10576 -17.28611,6.84168 -2.85565,1.43369 -8.31876,4.66934 -8.64305,5.11905 -0.097,0.13453 -0.73202,0.62091 -1.41112,1.08084 -2.96012,2.0048 -8.92668,7.62155 -11.50922,10.83445 -0.75194,0.93548 -1.45491,1.78024 -1.56216,1.87726 -0.10724,0.097 -0.90099,1.20826 -1.76389,2.46944 -0.86289,1.26118 -1.65725,2.37243 -1.76524,2.46945 -0.10799,0.097 -0.90174,1.40132 -1.76389,2.89846 -0.86215,1.49714 -1.66583,2.72746 -1.78597,2.73403 -0.12013,0.007 -0.31398,-0.50399 -0.43077,-1.13458 z"
         id="path4" />
      <path
         style="fill:#45a44c"
         d="m 96.979826,189.26528 c -2.983267,-3.88373 -12.379082,-12.37762 -15.528036,-14.03746 -0.463138,-0.24412 -0.921444,-0.53916 -1.018458,-0.65563 -0.553874,-0.66498 -8.902593,-4.80009 -12.964583,-6.42135 -0.436563,-0.17425 -1.150938,-0.46756 -1.5875,-0.65182 -0.436563,-0.18426 -1.508126,-0.57282 -2.381251,-0.86347 -0.873125,-0.29065 -3.413125,-1.18381 -5.644444,-1.98479 -2.23132,-0.80099 -4.45382,-1.58408 -4.938889,-1.74022 -0.810951,-0.26102 -4.86071,-1.80357 -6.526389,-2.48589 -3.423137,-1.40223 -12.471775,-6.21967 -13.229168,-7.04314 -0.09701,-0.10547 -0.811389,-0.65511 -1.5875,-1.22141 -2.00526,-1.46317 -7.238056,-6.78796 -8.517995,-8.66774 -3.612028,-5.30479 -5.623177,-11.10345 -6.468011,-18.64893 -0.909069,-8.11918 1.355247,-17.37135 6.08467,-24.862439 l 1.077825,-1.707204 1.6187,0.239126 c 0.890285,0.13152 2.452138,0.463199 3.470783,0.737065 1.018646,0.273866 2.764896,0.742024 3.880556,1.040352 1.944595,0.51998 5.126056,1.60357 6.614584,2.25288 0.388055,0.16927 1.340555,0.57975 2.116666,0.91217 5.454053,2.33606 14.053182,7.30028 17.362518,9.93939 1.119812,0.98036 1.129703,1.01663 0.751864,2.75731 -0.210581,0.97014 -0.401456,4.78014 -0.424165,8.46667 -0.04465,7.24741 0.200367,8.89284 2.230451,14.97916 1.180821,3.54018 3.772813,9.50339 4.436639,10.20705 0.264185,0.28004 0.0419,-0.8591 -0.516294,-2.64583 -1.697313,-5.43296 -1.969768,-7.54084 -1.955901,-15.13205 0.0097,-5.3025 0.161523,-7.72364 0.611106,-9.74443 0.708081,-3.18268 0.936906,-3.83751 1.34099,-3.83751 0.347422,0 10.789235,10.31401 12.872431,12.71488 1.250964,1.44173 3.568008,4.30244 6.702685,8.2754 1.371694,1.73851 8.511609,12.46709 9.743169,14.64028 0.884452,1.56068 0.903105,1.7454 1.104343,10.93611 0.212979,9.72693 0.51688,13.23538 1.825813,21.07847 0.429051,2.57087 0.738329,4.67431 0.687284,4.67431 -0.05104,0 -0.611067,-0.67469 -1.244493,-1.49931 z m -1.891524,-40.70263 c -0.717234,-1.91636 -5.311981,-11.06287 -6.810211,-13.5567 -0.531075,-0.88399 -1.430717,-2.39211 -1.999203,-3.35139 -1.009853,-1.70405 -3.486766,-5.42362 -4.32659,-6.49722 -0.231722,-0.29622 -1.17933,-1.57046 -2.105796,-2.83165 -0.926466,-1.26118 -1.768751,-2.37243 -1.871743,-2.46944 -0.102993,-0.097 -1.219135,-1.36421 -2.480316,-2.816 -2.929704,-3.37248 -7.405998,-7.84822 -9.884997,-9.88378 -2.490805,-2.04525 -3.734071,-3.17206 -3.516954,-3.18753 0.09503,-0.007 1.442784,-0.24177 2.995007,-0.52222 6.165942,-1.11406 13.572672,-0.31313 19.667361,2.12676 0.339549,0.13593 0.617362,0.0962 0.617362,-0.0882 0,-0.72402 -8.56965,-4.4155 -13.052779,-5.622648 -2.461118,-0.662691 -10.963113,-0.72668 -14.057696,-0.105803 -1.308514,0.262531 -2.335181,0.316961 -2.469445,0.13092 -0.675433,-0.93591 -9.790296,-5.737608 -14.340916,-7.554776 -3.279563,-1.309605 -7.868132,-2.810843 -8.63878,-2.82634 -0.380329,-0.0076 -0.330928,-0.125566 0.172113,-0.410823 0.388056,-0.220052 0.784931,-0.493534 0.881945,-0.607736 0.09701,-0.114203 0.970139,-0.689244 1.940278,-1.277869 10.696683,-6.49014 24.632646,-7.19155 36.865279,-1.855464 5.066876,2.210259 11.236181,6.547934 15.028862,10.566881 1.214803,1.287277 2.58775,2.929656 5.564488,6.656488 2.586406,3.23813 8.178859,13.25598 9.176589,16.43815 0.13976,0.44578 -0.11378,1.72735 -0.62813,3.175 -0.86652,2.43878 -2.101106,6.60462 -2.444481,8.24832 -0.101332,0.48507 -0.500317,2.3107 -0.886633,4.05695 -0.821661,3.71413 -1.684698,8.94999 -1.99555,12.10659 -0.120718,1.22584 -0.340143,2.55497 -0.487611,2.95362 -0.227899,0.61606 -0.36464,0.46692 -0.911453,-0.99409 z"
         id="path3" />
    </g>
  </g>
</svg>
