<?xml version="1.0" encoding="UTF-8" standalone="no"?>
<!-- Created with Inkscape (http://www.inkscape.org/) -->

<svg
   width="512"
   height="512"
   viewBox="0 0 512 512"
   version="1.1"
   id="svg1"
   xmlns="http://www.w3.org/2000/svg"
   xmlns:svg="http://www.w3.org/2000/svg">
  <defs
     id="defs1">
    <linearGradient
       id="swatch1">
      <stop
         style="stop-color:#000000;stop-opacity:1;"
         offset="0"
         id="stop1" />
    </linearGradient>
    <clipPath
       clipPathUnits="userSpaceOnUse"
       id="clipPath5">
      <path
         style="fill:#d1a546;fill-opacity:1;stroke-width:0.999999"
         d="m 96.979825,189.26528 c -2.983267,-3.88373 -12.379081,-12.37762 -15.528036,-14.03746 -0.463138,-0.24412 -0.921444,-0.53916 -1.018457,-0.65563 -0.553874,-0.66498 -8.902593,-4.80009 -12.964582,-6.42135 -0.436563,-0.17425 -1.150941,-0.46756 -1.5875,-0.65182 -0.436562,-0.18426 -1.508127,-0.57282 -2.381252,-0.86347 -0.873125,-0.29065 -3.413126,-1.18381 -5.644444,-1.98479 -2.231321,-0.80099 -4.453819,-1.58408 -4.93889,-1.74022 -0.810951,-0.26102 -4.860709,-1.80357 -6.526388,-2.48589 -3.423137,-1.40223 -12.471775,-6.21967 -13.229168,-7.04314 -0.09701,-0.10547 -0.811389,-0.65511 -1.5875,-1.22141 -2.00526,-1.46317 -7.238056,-6.78796 -8.517995,-8.66774 -3.612028,-5.30479 -5.623177,-11.10345 -6.468011,-18.64893 -0.909069,-8.11918 1.355247,-17.37135 6.08467,-24.862441 l 1.077825,-1.707201 1.6187,0.239126 c 0.890285,0.13152 2.452138,0.463198 3.470783,0.737063 1.018646,0.273865 2.764896,0.742023 3.880556,1.040353 1.944595,0.51998 5.126056,1.60357 6.614584,2.25288 0.388055,0.16927 1.340555,0.57975 2.116666,0.91217 5.454053,2.33606 14.05318,7.30028 17.362517,9.93939 1.119813,0.98036 1.129703,1.01663 0.751864,2.75731 -0.210581,0.97014 -0.401456,4.78014 -0.424163,8.46667 -0.04465,7.24741 0.200366,8.89284 2.230451,14.97916 1.180819,3.54018 3.772813,9.50339 4.436638,10.20705 0.264185,0.28004 0.0419,-0.8591 -0.516295,-2.64583 -1.697311,-5.43296 -1.969766,-7.54084 -1.955901,-15.13205 0.0097,-5.3025 0.161524,-7.72364 0.611107,-9.74443 0.70808,-3.18268 0.936905,-3.83751 1.340991,-3.83751 0.347421,0 10.789233,10.31401 12.872429,12.71488 1.250964,1.44173 3.568009,4.30244 6.702685,8.2754 1.371694,1.73851 8.511609,12.46709 9.74317,14.64028 0.88445,1.56068 0.903104,1.7454 1.104345,10.93611 0.212979,9.72693 0.516876,13.23538 1.825811,21.07847 0.429052,2.57087 0.738331,4.67431 0.687285,4.67431 -0.05104,0 -0.611067,-0.67469 -1.244495,-1.49931 z m -1.891522,-40.70263 c -0.717235,-1.91636 -5.311983,-11.06287 -6.810213,-13.5567 -0.531074,-0.88399 -1.430717,-2.39211 -1.999203,-3.35139 -1.009851,-1.70405 -3.486763,-5.42362 -4.326588,-6.49722 -0.231722,-0.29622 -1.179331,-1.57046 -2.105796,-2.83165 -0.926468,-1.26118 -1.768751,-2.37243 -1.871744,-2.46944 -0.102993,-0.097 -1.219133,-1.36421 -2.480317,-2.816 -2.929703,-3.37248 -7.405998,-7.84822 -9.884994,-9.88378 -2.490807,-2.04525 -3.734072,-3.17206 -3.516957,-3.18753 0.09503,-0.007 1.442785,-0.24177 2.99501,-0.52222 6.165941,-1.11406 13.57267,-0.31313 19.66736,2.12676 0.33955,0.13593 0.617361,0.0962 0.617361,-0.0882 0,-0.72402 -8.569651,-4.4155 -13.052778,-5.622648 -2.461117,-0.66269 -10.963114,-0.72668 -14.057699,-0.105804 -1.308514,0.262532 -2.335177,0.316962 -2.469445,0.13092 -0.675431,-0.935909 -9.790294,-5.737606 -14.340914,-7.554776 -3.279563,-1.309603 -7.868132,-2.810843 -8.63878,-2.82634 -0.380329,-0.0076 -0.330928,-0.125564 0.172113,-0.410822 0.388056,-0.220051 0.784931,-0.493534 0.881945,-0.607735 0.09701,-0.114203 0.970139,-0.689244 1.940278,-1.277871 10.696683,-6.490137 24.632646,-7.191549 36.865278,-1.855463 5.066878,2.210259 11.236183,6.547934 15.028864,10.566881 1.214802,1.287277 2.587749,2.929657 5.564487,6.656488 2.586406,3.23813 8.178859,13.25598 9.176589,16.43815 0.13976,0.44578 -0.11378,1.72735 -0.62813,3.175 -0.86652,2.43878 -2.101107,6.60462 -2.444482,8.24832 -0.10133,0.48507 -0.500317,2.3107 -0.88663,4.05695 -0.821663,3.71413 -1.684702,8.94999 -1.995553,12.10659 -0.120716,1.22584 -0.340143,2.55497 -0.487612,2.95362 -0.227897,0.61606 -0.364637,0.46692 -0.91145,-0.99409 z"
         id="path6" />
    </clipPath>
    <clipPath
       clipPathUnits="userSpaceOnUse"
       id="clipPath6">
      <path
         style="fill:#d1a546;fill-opacity:1;stroke-width:2.80262"
         d="m 235.19093,409.74946 c -8.36097,-10.88463 -34.69388,-34.68979 -43.51921,-39.34169 -1.298,-0.68418 -2.58246,-1.51106 -2.85435,-1.83748 -1.5523,-1.86369 -24.9506,-13.45284 -36.33482,-17.99662 -1.22352,-0.48835 -3.22565,-1.31039 -4.44916,-1.8268 -1.22352,-0.51641 -4.22671,-1.6054 -6.67375,-2.41998 -2.44704,-0.81458 -9.5657,-3.31777 -15.81924,-5.56262 -6.25355,-2.24487 -12.48237,-4.43957 -13.84184,-4.87718 -2.27279,-0.73154 -13.622731,-5.05472 -18.290999,-6.967 C 83.813803,324.99017 58.453894,311.4887 56.331208,309.18083 56.059326,308.88524 54.057191,307.3448 51.882046,305.75768 46.262061,301.65697 31.596513,286.73359 28.009328,281.46528 17.88618,266.59796 12.24969,250.34651 9.8819404,229.19939 7.3341639,206.4444 13.680185,180.51406 26.934968,159.51937 l 3.020736,-4.78464 4.536604,0.67018 c 2.495132,0.3686 6.872415,1.29817 9.727292,2.06571 2.854879,0.76754 7.748957,2.07961 10.87573,2.91572 5.449964,1.4573 14.366396,4.4942 18.538177,6.31397 1.087571,0.4744 3.757068,1.62482 5.932214,2.55646 15.285647,6.5471 39.385749,20.45993 48.660569,27.85635 3.13841,2.74758 3.16613,2.84923 2.10719,7.7277 -0.59018,2.71894 -1.12513,13.39692 -1.18877,23.72887 -0.12514,20.31175 0.56155,24.92327 6.25111,41.98092 3.30939,9.92179 10.57377,26.63441 12.43422,28.6065 0.74041,0.78485 0.11743,-2.40773 -1.44698,-7.41526 -4.75692,-15.22653 -5.52051,-21.13412 -5.48165,-42.40941 0.0272,-14.8609 0.45269,-21.64644 1.7127,-27.30995 1.98448,-8.91985 2.62579,-10.75509 3.75829,-10.75509 0.97369,0 30.23814,28.90627 36.07655,35.635 3.50598,4.04062 9.99978,12.05811 18.78509,23.19281 3.84434,4.87239 23.85482,34.94054 27.30642,41.03117 2.47878,4.374 2.53106,4.8917 3.09506,30.64978 0.5969,27.2609 1.44861,37.09376 5.11706,59.07498 1.20247,7.20517 2.06926,13.10032 1.9262,13.10032 -0.14305,0 -1.71259,-1.8909 -3.48785,-4.202 z m -5.30122,-114.07407 c -2.01014,-5.37084 -14.88748,-31.00504 -19.08645,-37.9943 -1.4884,-2.47749 -4.00976,-6.70418 -5.60301,-9.39268 -2.83023,-4.77581 -9.77208,-15.20036 -12.12579,-18.20925 -0.64943,-0.8302 -3.30522,-4.40141 -5.90175,-7.93605 -2.59654,-3.53461 -4.95714,-6.64902 -5.24579,-6.9209 -0.28865,-0.27186 -3.41677,-3.82337 -6.95139,-7.89219 -8.21085,-9.45178 -20.75621,-21.99559 -27.7039,-27.70049 -6.98079,-5.73206 -10.46519,-8.89009 -9.8567,-8.93344 0.26634,-0.0196 4.04358,-0.67759 8.39388,-1.46359 17.2808,-3.12229 38.03906,-0.87758 55.12017,5.96051 0.95163,0.38096 1.73023,0.26961 1.73023,-0.2472 0,-2.02915 -24.01749,-12.37497 -36.582,-15.75815 -6.89758,-1.85727 -30.72546,-2.03661 -39.39841,-0.29653 -3.66727,0.73578 -6.54462,0.88833 -6.92092,0.36692 -1.89298,-2.623 -27.438493,-16.08034 -40.192159,-21.17318 -9.191375,-3.67032 -22.051398,-7.87773 -24.211232,-7.92116 -1.065919,-0.0213 -0.927466,-0.35191 0.482367,-1.15138 1.087574,-0.61672 2.199865,-1.38319 2.471758,-1.70325 0.271883,-0.32007 2.718933,-1.93169 5.437866,-3.58139 29.978756,-18.1894 69.03599,-20.15519 103.31943,-5.20016 14.20054,6.19452 31.49077,18.35138 42.12022,29.61497 3.40463,3.60775 7.25248,8.21072 15.59515,18.65562 7.24872,9.07525 22.92225,37.15149 25.71851,46.06991 0.39169,1.24936 -0.31888,4.84111 -1.76041,8.89833 -2.42853,6.83497 -5.88861,18.51025 -6.85096,23.11692 -0.28399,1.35947 -1.4022,6.47602 -2.48489,11.37009 -2.30281,10.4093 -4.72158,25.08344 -5.59278,33.9302 -0.33832,3.43556 -0.95329,7.16061 -1.36659,8.27787 -0.63871,1.72659 -1.02194,1.30861 -2.55445,-2.78605 z"
         id="path7" />
    </clipPath>
    <clipPath
       clipPathUnits="userSpaceOnUse"
       id="clipPath9">
      <path
         style="fill:#8baf71;fill-opacity:1;stroke-width:0.999999"
         d="m 104.30219,199.84861 c -0.11679,-0.63059 -0.54335,-2.33715 -0.94792,-3.79236 -0.40458,-1.4552 -0.88451,-3.43958 -1.06652,-4.40972 -0.18202,-0.97014 -0.49502,-2.55764 -0.69556,-3.52778 -1.47567,-7.13859 -2.094483,-14.61508 -2.102322,-25.4 -0.0069,-9.54169 0.111331,-11.61627 1.085992,-19.05 1.43676,-10.95819 5.07374,-23.00075 9.429,-31.22083 1.24917,-2.35767 4.98137,-8.50495 5.35455,-8.81945 0.11512,-0.097 0.59088,-0.73201 1.05726,-1.41111 0.46637,-0.6791 0.94044,-1.3141 1.0535,-1.41111 0.11305,-0.097 0.5704,-0.65264 1.01633,-1.234724 1.3612,-1.77679 5.1169,-5.594319 7.13389,-7.251332 1.04983,-0.86246 1.98815,-1.6594 2.08517,-1.770977 0.53327,-0.613319 4.79095,-3.244962 7.24619,-4.478817 2.94209,-1.478519 8.29681,-3.225669 12.00143,-3.915852 2.71672,-0.506133 11.15815,-0.516876 13.62199,-0.01734 4.21488,0.854565 6.46178,1.573877 9.64011,3.08615 2.43241,1.157356 6.99853,3.939451 6.79677,4.141208 -0.0569,0.05688 -2.018,0.738876 -4.35804,1.515549 -6.10452,2.026121 -10.53499,4.049755 -15.77768,7.206506 -3.16834,1.907732 -3.5862,2.065709 -4.93889,1.867266 -3.39336,-0.497834 -10.93252,-0.630131 -13.05348,-0.229068 -2.78891,0.527371 -6.16967,1.617691 -8.98238,2.896881 -1.77028,0.82752 -7.45744,3.51835 -3.78352,2.23758 4.10126,-1.42977 7.42361,-1.93738 12.52361,-1.91344 4.76706,0.0224 9.10709,0.62899 8.86936,1.23967 -0.0696,0.17869 -1.18082,1.18673 -2.46945,2.24009 -4.52819,3.70143 -11.53935,11.04127 -14.97424,15.67621 -0.73832,0.99626 -1.5547,2.07109 -1.81419,2.38851 -1.52555,1.86614 -5.23354,7.7103 -7.35594,11.5937 -0.58324,1.06715 -1.32593,2.33715 -1.65043,2.82222 -0.5771,0.86265 -0.96843,1.66473 -3.44241,7.05556 -3.38171,7.36877 -7.44326,18.16759 -6.99981,18.61104 0.0677,0.0677 0.99078,-1.51238 2.05125,-3.51132 4.20125,-7.91921 12.77191,-21.1503 15.52304,-23.96393 0.2605,-0.26642 0.70526,-0.81889 0.98837,-1.22769 1.67287,-2.4157 5.86143,-7.05895 10.70211,-11.86387 4.45773,-4.42481 6.43292,-6.06739 6.72592,-5.5933 0.28507,0.46125 0.81097,3.07722 1.42492,7.08796 0.66361,4.33518 0.66779,9.22076 0.0117,13.60904 -0.49762,3.32804 -1.98804,8.65014 -2.20035,9.44812 -0.15843,0.59547 1.26403,-2.16676 1.62909,-3.02116 2.2175,-4.81994 3.4187,-8.61787 4.27278,-13.50959 0.42993,-2.46245 0.29517,-13.98857 -0.1962,-16.78041 l -0.22144,-1.25819 3.47062,-2.31246 c 6.02471,-4.01423 9.14975,-5.75143 15.28868,-8.49893 2.91479,-1.30452 9.43626,-3.434985 12.52362,-4.091274 0.97013,-0.206225 2.42316,-0.517701 3.22894,-0.692167 0.80578,-0.174465 1.61629,-0.218938 1.80115,-0.09883 0.44346,0.288127 2.90722,4.383061 3.84582,6.391991 4.2517,9.10012 4.75735,20.34048 1.35686,30.1625 -2.54256,7.34399 -7.79516,13.98411 -14.85374,18.77749 -3.78824,2.57255 -9.11113,5.37596 -13.72348,7.22775 -2.46009,0.9877 -6.94746,2.65621 -10.23056,3.80398 -7.95415,2.78076 -13.82847,5.10576 -17.28611,6.84168 -2.85565,1.43369 -8.31876,4.66934 -8.64305,5.11905 -0.097,0.13453 -0.73202,0.62091 -1.41112,1.08084 -2.96012,2.0048 -8.92668,7.62155 -11.50922,10.83445 -0.75193,0.93548 -1.45491,1.78024 -1.56215,1.87726 -0.10725,0.097 -0.901,1.20826 -1.7639,2.46944 -0.86289,1.26118 -1.65725,2.37243 -1.76524,2.46945 -0.10799,0.097 -0.90174,1.40132 -1.76389,2.89846 -0.86215,1.49714 -1.66583,2.72746 -1.78597,2.73403 -0.12012,0.007 -0.31398,-0.50399 -0.43077,-1.13458 z"
         id="path10" />
    </clipPath>
  </defs>
  <g
     id="layer1">
    <g
       id="g2"
       transform="matrix(2.8026217,0,0,2.8026217,-36.606832,-120.68952)">
      <path
         style="fill:#8baf71;fill-opacity:1"
         d="m 104.30219,199.84861 c -0.11679,-0.63059 -0.54335,-2.33715 -0.94792,-3.79236 -0.40458,-1.4552 -0.88451,-3.43958 -1.06652,-4.40972 -0.18202,-0.97014 -0.49502,-2.55764 -0.69556,-3.52778 -1.47567,-7.13859 -2.094484,-14.61508 -2.102322,-25.4 -0.0069,-9.54169 0.111332,-11.61627 1.085992,-19.05 1.43676,-10.95819 5.07374,-23.00075 9.429,-31.22083 1.24917,-2.35767 4.98137,-8.50495 5.35455,-8.81945 0.11512,-0.097 0.59088,-0.73201 1.05726,-1.41111 0.46637,-0.6791 0.94044,-1.3141 1.0535,-1.41111 0.11305,-0.097 0.5704,-0.65264 1.01633,-1.234723 1.3612,-1.776791 5.1169,-5.594321 7.13389,-7.251331 1.04983,-0.862463 1.98815,-1.659403 2.08517,-1.77098 0.53327,-0.613317 4.79095,-3.244962 7.24619,-4.478818 2.94209,-1.478519 8.29681,-3.225669 12.00143,-3.915851 2.71672,-0.506133 11.15815,-0.516874 13.62199,-0.01733 4.21488,0.854564 6.46178,1.573878 9.64011,3.086151 2.43241,1.157356 6.99853,3.93945 6.79677,4.141207 -0.0569,0.05688 -2.018,0.738878 -4.35804,1.515551 -6.10452,2.02612 -10.53499,4.049752 -15.77768,7.206504 -3.16834,1.907734 -3.5862,2.06571 -4.93889,1.867265 -3.39336,-0.497831 -10.93252,-0.63013 -13.05348,-0.229065 -2.78891,0.52737 -6.16967,1.61769 -8.98238,2.89688 -1.77028,0.82752 -7.45744,3.51835 -3.78352,2.23758 4.10126,-1.42977 7.42361,-1.93738 12.52361,-1.91344 4.76706,0.0224 9.10709,0.62899 8.86936,1.23967 -0.0696,0.17869 -1.18082,1.18673 -2.46945,2.24009 -4.52819,3.70143 -11.53935,11.04127 -14.97424,15.67621 -0.73832,0.99626 -1.5547,2.07109 -1.81419,2.38851 -1.52555,1.86614 -5.23354,7.7103 -7.35594,11.5937 -0.58324,1.06715 -1.32593,2.33715 -1.65043,2.82222 -0.5771,0.86265 -0.96843,1.66473 -3.44241,7.05556 -3.38171,7.36877 -7.44326,18.16759 -6.99981,18.61104 0.0677,0.0677 0.99078,-1.51238 2.05125,-3.51132 4.20125,-7.91921 12.77191,-21.1503 15.52304,-23.96393 0.2605,-0.26642 0.70526,-0.81889 0.98837,-1.22769 1.67287,-2.4157 5.86143,-7.05895 10.70211,-11.86387 4.45773,-4.42481 6.43292,-6.06739 6.72592,-5.5933 0.28507,0.46125 0.81097,3.07722 1.42492,7.08796 0.66361,4.33518 0.66779,9.22076 0.0117,13.60904 -0.49762,3.32804 -1.98804,8.65014 -2.20035,9.44812 -0.15843,0.59547 1.26403,-2.16676 1.62909,-3.02116 2.2175,-4.81994 3.4187,-8.61787 4.27278,-13.50959 0.42993,-2.46245 0.29517,-13.98857 -0.1962,-16.78041 l -0.22144,-1.25819 3.47062,-2.31246 c 6.02471,-4.01423 9.14975,-5.75143 15.28868,-8.49893 2.91479,-1.30452 9.43626,-3.434986 12.52361,-4.091276 0.97014,-0.206225 2.42317,-0.517699 3.22895,-0.692164 0.80578,-0.174465 1.61629,-0.218939 1.80115,-0.09883 0.44345,0.288128 2.90722,4.38306 3.84582,6.39199 4.2517,9.10012 4.75735,20.34048 1.35686,30.1625 -2.54257,7.34399 -7.79516,13.98411 -14.85374,18.77749 -3.78824,2.57255 -9.11113,5.37596 -13.72348,7.22775 -2.46009,0.9877 -6.94746,2.65621 -10.23056,3.80398 -7.95415,2.78076 -13.82847,5.10576 -17.28611,6.84168 -2.85565,1.43369 -8.31876,4.66934 -8.64305,5.11905 -0.097,0.13453 -0.73202,0.62091 -1.41112,1.08084 -2.96012,2.0048 -8.92668,7.62155 -11.50922,10.83445 -0.75194,0.93548 -1.45491,1.78024 -1.56216,1.87726 -0.10724,0.097 -0.90099,1.20826 -1.76389,2.46944 -0.86289,1.26118 -1.65725,2.37243 -1.76524,2.46945 -0.10799,0.097 -0.90174,1.40132 -1.76389,2.89846 -0.86215,1.49714 -1.66583,2.72746 -1.78597,2.73403 -0.12013,0.007 -0.31398,-0.50399 -0.43077,-1.13458 z"
         id="path4" />
      <path
         style="fill:#d1a546;fill-opacity:1"
         d="m 96.979826,189.26528 c -2.983267,-3.88373 -12.379082,-12.37762 -15.528036,-14.03746 -0.463138,-0.24412 -0.921444,-0.53916 -1.018458,-0.65563 -0.553874,-0.66498 -8.902593,-4.80009 -12.964583,-6.42135 -0.436563,-0.17425 -1.150938,-0.46756 -1.5875,-0.65182 -0.436563,-0.18426 -1.508126,-0.57282 -2.381251,-0.86347 -0.873125,-0.29065 -3.413125,-1.18381 -5.644444,-1.98479 -2.23132,-0.80099 -4.45382,-1.58408 -4.938889,-1.74022 -0.810951,-0.26102 -4.86071,-1.80357 -6.526389,-2.48589 -3.423137,-1.40223 -12.471775,-6.21967 -13.229168,-7.04314 -0.09701,-0.10547 -0.811389,-0.65511 -1.5875,-1.22141 -2.00526,-1.46317 -7.238056,-6.78796 -8.517995,-8.66774 -3.612028,-5.30479 -5.623177,-11.10345 -6.468011,-18.64893 -0.909069,-8.11918 1.355247,-17.37135 6.08467,-24.862439 l 1.077825,-1.707204 1.6187,0.239126 c 0.890285,0.13152 2.452138,0.463199 3.470783,0.737065 1.018646,0.273866 2.764896,0.742024 3.880556,1.040352 1.944595,0.51998 5.126056,1.60357 6.614584,2.25288 0.388055,0.16927 1.340555,0.57975 2.116666,0.91217 5.454053,2.33606 14.053182,7.30028 17.362518,9.93939 1.119812,0.98036 1.129703,1.01663 0.751864,2.75731 -0.210581,0.97014 -0.401456,4.78014 -0.424165,8.46667 -0.04465,7.24741 0.200367,8.89284 2.230451,14.97916 1.180821,3.54018 3.772813,9.50339 4.436639,10.20705 0.264185,0.28004 0.0419,-0.8591 -0.516294,-2.64583 -1.697313,-5.43296 -1.969768,-7.54084 -1.955901,-15.13205 0.0097,-5.3025 0.161523,-7.72364 0.611106,-9.74443 0.708081,-3.18268 0.936906,-3.83751 1.34099,-3.83751 0.347422,0 10.789235,10.31401 12.872431,12.71488 1.250964,1.44173 3.568008,4.30244 6.702685,8.2754 1.371694,1.73851 8.511609,12.46709 9.743169,14.64028 0.884452,1.56068 0.903105,1.7454 1.104343,10.93611 0.212979,9.72693 0.51688,13.23538 1.825813,21.07847 0.429051,2.57087 0.738329,4.67431 0.687284,4.67431 -0.05104,0 -0.611067,-0.67469 -1.244493,-1.49931 z m -1.891524,-40.70263 c -0.717234,-1.91636 -5.311981,-11.06287 -6.810211,-13.5567 -0.531075,-0.88399 -1.430717,-2.39211 -1.999203,-3.35139 -1.009853,-1.70405 -3.486766,-5.42362 -4.32659,-6.49722 -0.231722,-0.29622 -1.17933,-1.57046 -2.105796,-2.83165 -0.926466,-1.26118 -1.768751,-2.37243 -1.871743,-2.46944 -0.102993,-0.097 -1.219135,-1.36421 -2.480316,-2.816 -2.929704,-3.37248 -7.405998,-7.84822 -9.884997,-9.88378 -2.490805,-2.04525 -3.734071,-3.17206 -3.516954,-3.18753 0.09503,-0.007 1.442784,-0.24177 2.995007,-0.52222 6.165942,-1.11406 13.572672,-0.31313 19.667361,2.12676 0.339549,0.13593 0.617362,0.0962 0.617362,-0.0882 0,-0.72402 -8.56965,-4.4155 -13.052779,-5.622648 -2.461118,-0.662691 -10.963113,-0.72668 -14.057696,-0.105803 -1.308514,0.262531 -2.335181,0.316961 -2.469445,0.13092 -0.675433,-0.93591 -9.790296,-5.737608 -14.340916,-7.554776 -3.279563,-1.309605 -7.868132,-2.810843 -8.63878,-2.82634 -0.380329,-0.0076 -0.330928,-0.125566 0.172113,-0.410823 0.388056,-0.220052 0.784931,-0.493534 0.881945,-0.607736 0.09701,-0.114203 0.970139,-0.689244 1.940278,-1.277869 10.696683,-6.49014 24.632646,-7.19155 36.865279,-1.855464 5.066876,2.210259 11.236181,6.547934 15.028862,10.566881 1.214803,1.287277 2.58775,2.929656 5.564488,6.656488 2.586406,3.23813 8.178859,13.25598 9.176589,16.43815 0.13976,0.44578 -0.11378,1.72735 -0.62813,3.175 -0.86652,2.43878 -2.101106,6.60462 -2.444481,8.24832 -0.101332,0.48507 -0.500317,2.3107 -0.886633,4.05695 -0.821661,3.71413 -1.684698,8.94999 -1.99555,12.10659 -0.120718,1.22584 -0.340143,2.55497 -0.487611,2.95362 -0.227899,0.61606 -0.36464,0.46692 -0.911453,-0.99409 z"
         id="path3" />
      <path
         style="fill:#ff0000;fill-opacity:0;stroke:#ffffff;stroke-width:3;stroke-dasharray:none;stroke-opacity:1"
         d="m 29.154557,153.17021 c 0,0 -2.471264,2.24204 -0.363319,2.81067 2.902248,0.7829 5.759923,0.84423 9.596351,1.66166 7.293861,1.55412 20.754384,5.43056 24.055378,6.29745 9.430147,2.47652 18.504872,7.17967 26.866111,11.06349 11.683042,5.42681 31.879312,18.22636 34.489002,20.59314 2.60969,2.36678 4.29859,2.62032 5.32503,4.44041 1.02644,1.8201 -0.46224,4.86445 -1.01144,12.81821 -0.54921,7.95376 -0.98498,25.00064 -0.0227,33.42616 1.5051,13.1782 7.95729,30.32319 7.95729,30.32319 0,0 3.89144,10.01304 5.85137,13.86861 1.95993,3.85557 5.61571,9.34008 5.61571,9.34008 0,0 1.94439,2.62819 1.63952,-1.56033 -0.30487,-4.18852 -3.78772,-12.83437 -5.25791,-21.65608 -1.47019,-8.82171 -1.66175,-23.40433 -1.52301,-32.93293 0.13875,-9.52861 0.87107,-18.65149 2.23945,-23.96743 1.36838,-5.31594 0.57123,-9.37869 1.57239,-8.57314 0.34934,0.28109 2.09612,3.22911 6.19644,7.40913 7.65056,7.79925 21.20709,20.03851 29.96642,30.16471 8.95137,10.34821 20.97498,26.04269 30.0075,39.42507 4.54334,6.73131 9.40106,14.29841 11.66512,18.14348 6.76518,11.48938 9.41835,12.51808 9.41835,12.51808"
         id="path1"
         transform="matrix(0.35680877,0,0,0.35680877,13.061639,43.063079)"
         clip-path="url(#clipPath6)" />
      <path
         style="fill:#ff0000;fill-opacity:0;stroke:#ffffff;stroke-width:1.07043;stroke-dasharray:none;stroke-opacity:1"
         d="m 32.274419,89.063965 c 0,0 7.155249,1.927428 9.804369,2.989751 2.64912,1.062323 4.115008,1.816021 6.464133,3.035231 2.349125,1.21921 6.116006,3.2744 7.280875,4.171514 0.931153,0.717119 0.404149,0.300022 0.823406,0.276823 0.419256,-0.0232 1.29065,-0.253662 2.497661,-0.400334 1.207011,-0.146672 2.596111,-0.266781 4.501279,-0.301916 1.905168,-0.03513 4.20867,-0.06625 5.818727,0.137236 1.610057,0.203492 2.858072,0.350025 4.034687,0.686167 1.176615,0.33614 2.380001,0.784583 4.144469,1.482133 1.764468,0.69755 6.097869,2.79563 7.177348,3.55436 1.079478,0.75874 0.427271,0.6527 0.425425,0.64843 -0.0071,-0.0164 0.501654,-0.31658 0.315637,0.49748 -0.186016,0.81406 -1.828527,-0.17638 -2.97798,-0.52836 -1.149453,-0.35198 -2.844605,-0.843 -4.473832,-1.12532 -1.629227,-0.28232 -4.103844,-0.63205 -6.25098,-0.71556 -2.147136,-0.0835 -4.413048,0.11472 -6.142238,0.3327 -0.81481,0.10271 -1.812761,0.33833 -2.301874,0.47313 -0.666261,0.18362 -1.188492,-1.04182 -1.38875,-0.39218 -0.212963,0.69086 0.705273,0.1915 1.329589,0.79712 0.342266,0.33202 0.703389,0.55724 1.195518,1.01437 1.347469,1.25162 4.225425,3.60343 5.791282,5.13256 1.565857,1.52913 2.464286,2.44746 3.952343,4.08958 1.488057,1.64212 3.391065,3.79633 5.022771,5.84617 1.631706,2.04984 3.469127,4.60779 4.912982,6.75192 1.443855,2.14413 2.696754,4.12608 3.97979,6.34022 1.283036,2.21414 2.564971,4.6359 3.677875,6.83425 1.112904,2.19835 2.34544,4.6326 2.991704,6.06576 0.646264,1.43316 0.716653,1.96917 0.988085,2.38787 0.271432,0.4187 0.137235,1.53702 0.137235,1.53702"
         id="path2"
         clip-path="url(#clipPath5)" />
      <path
         style="fill:#ff0000;fill-opacity:0;stroke:#ffffff;stroke-width:1.07043;stroke-dasharray:none;stroke-opacity:1"
         d="m 177.6013,88.593869 c 0,0 -11.10133,3.975106 -14.55589,5.589456 -3.45456,1.61435 -5.88964,3.297905 -7.39771,4.034073 -1.50807,0.736168 1.88134,-1.008704 -1.9455,1.040554 -1.28046,0.555488 -3.68966,0.06427 -6.53514,-0.175451 -3.11685,-0.262586 -5.81372,-0.08945 -8.59826,0.304076 -2.78453,0.393526 -4.8885,1.057533 -7.15816,1.997053 -2.21144,1.05597 -6.92064,2.80247 -7.47202,4.34736 -0.37672,0.88503 3.12153,-0.75967 5.10426,-1.31974 1.98273,-0.56006 6.71011,-0.96575 9.12168,-1.0092 2.41157,-0.0434 4.98642,0.11334 6.48222,0.40757 1.4958,0.29423 2.20585,-0.10884 2.56184,0.11644 0.35599,0.22528 0.56299,-1.19519 -0.4074,0.44345 -0.30111,0.50847 -0.81954,0.63554 -1.82852,1.43556 -1.90438,1.51 -4.50668,3.91235 -6.41774,5.89897 -2.92357,3.03917 -6.02043,6.16618 -9.11031,10.3477 -3.08988,4.18152 -6.82819,10.49434 -9.27569,14.46065 -2.4475,3.96631 -3.45872,6.64983 -4.94446,9.64513 -1.48574,2.9953 -2.48923,5.40033 -3.58046,8.4022 -1.09123,3.00187 -3.70732,8.48746 -3.29738,10.37678 1.33946,-0.33376 2.34162,-2.43813 3.69916,-5.06258 1.00515,-1.94319 2.36633,-4.29551 3.3614,-5.77756 2.33899,-3.48367 3.90402,-6.58133 6.26229,-9.97919 2.35827,-3.39786 6.34017,-8.4247 8.66256,-11.12873 2.32239,-2.70403 3.55086,-4.04577 5.97291,-6.46613 2.42205,-2.42036 6.96784,-7.27189 8.512,-7.67138 1.54416,-0.39949 -0.74916,-0.59442 -0.53174,-0.33879 0.21741,0.25563 0.21016,0.66028 0.65711,2.45676 0.44695,1.79648 1.01496,5.46832 1.14174,8.24695 0.12678,2.77863 0.17513,5.20946 -0.1733,8.11914 -0.34844,2.90968 -1.28107,7.19076 -1.68475,9.05071 -0.40368,1.85995 -0.56102,1.64275 -0.25993,2.44385 1.08331,-0.0772 2.16046,-2.92069 3.11548,-5.46676 0.95502,-2.54607 2.65833,-7.13593 3.15154,-10.11011 0.49321,-2.97418 0.42055,-4.79851 0.46578,-7.69963 0.0452,-2.90112 -0.25445,-7.86476 -0.66733,-9.90936 -0.41288,-2.0446 0.17861,-0.75133 -0.80457,-1.78082 2.06341,-0.0963 7.23395,-3.99934 10.01997,-5.63412 2.78602,-1.63478 4.56682,-2.51874 7.30676,-3.75375 2.73994,-1.23501 6.26992,-2.52652 9.53534,-3.5436 3.26542,-1.017078 10.9884,-2.868457 10.9884,-2.868457"
         id="path8"
         clip-path="url(#clipPath9)" />
    </g>
  </g>
</svg>
