<?xml version="1.0" encoding="UTF-8" standalone="no"?>
<!-- Created with Inkscape (http://www.inkscape.org/) -->

<svg
   width="512"
   height="512"
   viewBox="0 0 512 512"
   version="1.1"
   id="svg1"
   xmlns="http://www.w3.org/2000/svg"
   xmlns:svg="http://www.w3.org/2000/svg">
  <defs
     id="defs1" />
  <g
     id="layer1">
    <path
       d="m 172.61479,438.67159 c -27.01034,-2.21456 -48.72167,-7.73023 -66.80836,-16.97252 l -7.987956,-4.08184 0.191639,-3.93676 c 0.23383,-4.80381 3.196707,-17.60974 6.119207,-26.44827 4.87665,-14.74822 11.02221,-20.13683 32.17657,-28.21323 6.02147,-2.29894 7.41275,-3.10347 6.66312,-3.85318 -0.30616,-0.30614 -1.2271,-0.13789 -2.04645,0.37385 -4.33411,2.70668 -44.654402,2.77486 -63.80015,0.1079 C 50.471907,351.9351 20.658245,343.27464 6.3200859,335.08023 l -2.9047125,-1.66003 0.1114723,-5.40895 c 0.069682,-3.3906 0.9501948,-8.60978 2.3592007,-13.9872 5.3082876,-20.25861 10.3879006,-25.88402 29.6777226,-32.86664 3.882509,-1.40539 7.374698,-2.87088 7.76037,-3.25656 0.385674,-0.38567 0.606504,-2.01383 0.490678,-3.6181 -0.253508,-3.51085 2.385204,-8.49433 5.776164,-10.90894 1.404354,-1.00002 3.11581,-3.51629 4.600843,-6.76456 1.300512,-2.84473 3.244127,-6.21187 4.319161,-7.48246 2.431896,-2.87443 10.241937,-7.30789 14.399377,-8.17393 9.205682,-1.91776 9.061899,-1.69461 5.688514,-8.82756 -1.578203,-3.33716 -2.592818,-4.62242 -3.793916,-4.80569 -2.179695,-0.33267 -5.522437,-3.5967 -6.907766,-6.74518 -2.038236,-4.63244 -4.571942,-13.39819 -4.572087,-15.81768 -1.45e-4,-3.64127 1.830041,-7.42001 3.59378,-7.42001 1.991325,0 1.90658,-1.08905 -0.723709,-9.30016 -2.419551,-7.55333 -3.574536,-14.90139 -3.034188,-19.30391 0.25881,-2.10889 0.0472,-2.99214 -0.833942,-3.48543 -0.649275,-0.36338 -1.180547,-1.15253 -1.180547,-1.75373 0,-1.37669 5.023988,-8.78536 7.54397,-11.12482 1.043009,-0.96828 1.89634,-2.31149 1.89634,-2.98495 0,-0.67339 0.818184,-2.43008 1.818204,-3.90372 1.457293,-2.14738 1.730555,-3.22771 1.376469,-5.44168 -0.424668,-2.65614 -0.351397,-2.78054 1.903458,-3.2315 1.289837,-0.25793 3.893764,-0.46903 5.786547,-0.46903 3.18211,0 3.589569,-0.21393 5.40908,-2.83943 1.082223,-1.56164 2.730211,-3.03077 3.662186,-3.26467 0.931977,-0.23391 2.214987,-0.62503 2.851193,-0.86917 0.813245,-0.31212 1.156728,-0.0254 1.156728,0.96509 0,2.17301 0.586461,2.32166 3.488558,0.88463 5.384166,-2.66609 12.508846,-4.40071 16.040176,-3.90532 1.8402,0.25825 3.69755,0.90961 4.12738,1.44758 1.1353,1.42083 13.5671,3.95041 19.41465,3.95041 5.00706,0 5.01375,0 4.55153,1.84434 -0.47586,1.8959 -0.58529,1.75495 6.46087,8.32213 1.50436,1.40211 2.96805,1.89809 6.42879,2.17854 4.24037,0.34362 4.47027,0.45852 4.28263,2.1399 -0.10907,0.97722 -0.73235,2.36691 -1.38511,3.08821 -1.10437,1.22035 -1.0592,1.55098 0.65051,4.7588 1.01062,1.89605 2.05021,4.42771 2.3104,5.62592 0.26012,1.19819 1.3462,4.86473 2.41346,8.14793 1.06733,3.28319 1.72337,6.18666 1.45787,6.45209 -0.26549,0.26549 -1.22826,0.5203 -2.13962,0.56619 -1.47835,0.0744 -1.74194,0.6312 -2.44656,5.16677 -0.43432,2.79577 -1.34829,7.2073 -2.03104,9.80339 l -1.24126,4.72016 1.90368,1.52286 c 2.47888,1.98297 3.00724,5.91195 1.74813,12.99858 -1.33465,7.51159 -5.2051,14.77119 -8.90584,16.7042 -2.25646,1.17858 -3.05554,2.20518 -4.23958,5.44633 -0.80243,2.19669 -1.5119,4.81093 -1.57653,5.80943 -0.10334,1.5959 0.20856,1.84252 2.57909,2.03924 2.43444,0.20202 3.09918,-0.17864 6.83471,-3.91417 4.46788,-4.46795 14.07333,-9.61619 20.96809,-11.2384 3.86937,-0.91041 6.75657,-1.9044 19.9699,-6.8748 20.095,-7.55914 23.37798,-9.47466 35.05186,-20.45156 l 3.46315,-3.25632 -0.4869,-4.83903 c -0.32947,-3.27434 -1.0417,-5.66084 -2.20265,-7.38065 -0.94366,-1.3979 -2.53856,-5.23756 -3.54418,-8.53259 -1.24045,-4.06436 -2.18245,-5.99096 -2.92911,-5.99096 -1.36224,0 -4.57616,-3.36948 -5.54117,-5.80943 -1.85473,-4.68958 -4.3111,-13.79113 -4.60352,-17.05792 -0.42214,-4.71485 0.60518,-7.64955 3.30722,-9.44757 1.34684,-0.89625 2.02829,-1.85878 1.77965,-2.51388 -1.11672,-2.94203 -1.92953,-13.6554 -1.62861,-21.46625 0.28756,-7.46524 0.62074,-9.40001 2.21992,-12.89313 6.10723,-13.340041 14.95339,-20.719603 29.84686,-24.898829 6.47169,-1.816024 28.98728,-0.979828 27.75661,1.030808 -0.15771,0.257728 0.80985,0.492428 2.15022,0.521688 3.411,0.07437 10.49283,4.581018 12.30537,7.830811 0.7988,1.432169 2.75947,3.464888 4.35707,4.517041 6.84328,4.507095 9.96286,9.757216 11.72697,19.736491 1.05862,5.98799 0.98396,7.86168 -0.98543,24.73377 -0.31327,2.68358 -0.15867,3.18828 1.07496,3.51091 6.50039,1.69985 1.84812,27.54305 -5.79496,32.19111 -1.92176,1.1687 -2.50169,2.22776 -3.65834,6.68083 -0.75603,2.91059 -1.59701,5.46064 -1.8689,5.6668 -1.53041,1.16058 -3.1418,5.64348 -3.53248,9.82773 l -0.44711,4.7879 4.28423,4.16274 c 5.58946,5.43094 11.91651,10.06584 16.14517,11.82734 1.86389,0.77643 4.36921,1.87063 5.56739,2.43152 1.1982,0.56091 4.3026,1.82983 6.89869,2.81989 23.76345,9.06271 29.64469,11.80802 33.80183,15.77819 1.21722,1.16246 2.40423,2.1136 2.63784,2.1136 1.04091,0 1.3178,-11.24762 0.47377,-19.2437 -2.75811,-26.12825 1.26906,-46.46565 12.25563,-61.89155 3.79086,-5.32273 8.33063,-9.48388 13.52919,-12.40086 7.03899,-3.94968 10.17738,-4.57064 24.22181,-4.7922 13.491,-0.21285 19.98135,0.5625 24.41932,2.91705 1.26906,0.67331 3.61455,1.89236 5.21214,2.70887 4.86248,2.48534 12.7084,11.03667 16.09572,17.543 8.15026,15.65495 10.23345,30.62633 8.11628,58.33146 -0.76213,9.97332 -0.71812,11.69146 0.42343,16.53362 0.70062,2.97203 2.38658,7.50039 3.74642,10.063 2.95315,5.56477 2.92069,5.62461 -5.10452,9.4329 -5.82532,2.76441 -11.33324,3.88956 -20.55199,4.19846 -7.20252,0.2414 -7.72915,1.22261 -2.81685,5.24788 2.96253,2.42755 15.40246,7.60729 23.51909,9.79287 1.62569,0.43774 4.20878,1.33951 5.74007,2.00396 1.53129,0.66445 3.60111,1.33436 4.59961,1.48867 3.49444,0.54013 14.7966,7.08248 18.56727,10.74786 2.07332,2.01537 4.67535,5.44655 5.78234,7.62486 2.39857,4.71987 5.71677,16.86548 6.96353,25.48891 0.86394,5.97507 0.83655,6.30097 -0.74375,8.85806 -0.90242,1.46006 -2.03823,2.6547 -2.52412,2.6547 -0.48589,0 -3.64534,1.35418 -7.02104,3.00928 -23.01839,11.28596 -49.82074,16.91609 -83.29397,17.49682 l -10.34803,0.1795 v 2.59254 c 0,1.92916 0.55407,3.12336 2.16524,4.66698 1.74384,1.67065 1.99692,2.27724 1.30052,3.1164 -0.66642,0.80293 -2.06685,0.9505 -6.10454,0.64303 -6.75884,-0.51471 -11.60005,-2.93876 -16.92176,-8.47289 -3.94664,-4.10422 -4.15454,-4.21372 -8.97483,-4.72749 -2.71402,-0.28932 -5.11723,-0.34334 -5.34046,-0.12012 -0.22322,0.22315 -0.0999,1.32369 0.27414,2.44562 0.50593,1.51772 1.50115,2.3253 3.88809,3.15497 1.76447,0.61324 3.24899,1.51305 3.29888,1.99951 0.05,0.4864 0.13166,1.2112 0.18155,1.6106 0.0501,0.3994 0.64339,0.72618 1.31881,0.72618 1.07089,0 1.04765,-0.13645 -0.18155,-1.06618 -2.49252,-1.88523 0.0393,-1.18803 6.46379,1.78022 3.44353,1.59092 8.30928,3.57991 10.81263,4.41989 11.60026,3.89231 19.4819,10.23402 24.0813,19.37623 2.74255,5.45156 6.35586,19.89015 6.49566,25.95679 l 0.11713,5.08092 -4.72016,2.35485 c -6.76174,3.37338 -20.56455,8.46389 -26.8945,9.91864 -2.98124,0.68522 -7.44898,1.71807 -9.9283,2.2953 -2.47932,0.57724 -10.15865,1.57545 -17.06518,2.21819 -13.66724,1.27197 -36.32384,1.0693 -46.32454,-0.41444 -13.21368,-1.96046 -16.00089,-2.47401 -22.47513,-4.14152 -3.77424,-0.97208 -10.20505,-3.07436 -14.29067,-4.6718 l -7.42836,-2.90436 -4.95304,2.48499 c -10.80843,5.42259 -32.72302,12.14968 -46.70827,14.33787 -15.02135,2.35035 -40.65447,3.47404 -54.10022,2.37163 z m 42.1183,-4.60012 c 12.93504,-1.61285 19.97699,-2.71984 23.23768,-3.65282 1.1982,-0.34283 3.56735,-0.98114 5.2648,-1.41837 l 3.08625,-0.79502 v -8.96451 c 0,-8.63332 0.0595,-8.98007 1.60216,-9.38354 0.88122,-0.23041 1.66803,-0.35023 1.74842,-0.26621 0.0805,0.0839 0.25808,3.82877 0.39483,8.32178 0.2384,7.83575 0.3132,8.16913 1.83294,8.1695 2.02321,5.8e-4 11.16252,-3.3715 19.13812,-7.06113 l 6.19894,-2.86776 -0.43446,-4.65719 c -0.23899,-2.56145 -0.97351,-5.89235 -1.63231,-7.40193 -0.65879,-1.50958 -1.56556,-4.77738 -2.01507,-7.26178 -1.08004,-5.96954 -4.56032,-14.88127 -7.275,-18.62885 -1.19942,-1.65576 -1.95362,-3.40607 -1.67601,-3.88963 0.27762,-0.48355 0.24363,-0.64317 -0.0756,-0.3548 -0.31916,0.28844 -1.56186,-0.30151 -2.76151,-1.31104 -2.94385,-2.47707 -7.62531,-4.78342 -20.12537,-9.91479 -13.94842,-5.726 -12.65597,-5.54961 -13.73927,-1.8758 -1.49629,5.07431 -9.30554,20.89859 -10.5489,21.37569 -1.46223,0.56112 -3.22996,-0.63098 -9.40806,-6.34461 -7.26258,-6.71664 -7.43913,-6.81612 -8.57232,-4.83083 -0.69067,1.20981 -1.00242,6.83907 -1.16719,21.07309 -0.26091,22.5381 0.77948,20.36515 -9.57857,20.00562 l -6.17252,-0.21429 -0.19838,-12.90527 c -0.19251,-12.5241 -0.14095,-13.04868 1.74305,-17.75795 l 1.94136,-4.85267 -2.01362,-3.84585 c -1.10742,-2.11521 -2.51671,-3.84583 -3.13171,-3.84583 -1.93172,0 -7.59765,4.10617 -12.48017,9.04446 -2.58453,2.6141 -5.06015,4.75291 -5.50131,4.75291 -2.90856,0 -8.41574,-10.91656 -12.37507,-24.53057 -0.20552,-0.70679 -0.92704,-0.59968 -3.00791,0.4463 -1.50559,0.75683 -7.0668,3.08662 -12.3581,5.17729 -19.84504,7.84098 -23.37529,11.83132 -29.57561,33.43053 -1.31852,4.59308 -2.62658,10.68367 -2.90675,13.53472 l -0.50955,5.18375 8.23507,4.00008 c 8.21394,3.98991 17.80195,7.53329 18.49879,6.83653 0.20211,-0.20217 0.38459,-3.82347 0.4055,-8.04744 0.0269,-5.47697 0.31582,-7.91047 1.00663,-8.48378 2.10047,-1.74326 2.5897,0.0898 2.40662,9.01767 l -0.18089,8.82103 5.57698,1.60042 c 19.46206,5.58489 53.02339,7.57542 77.10308,4.57289 z m 152.8604,-5.87442 c 6.92578,-0.72538 24.52928,-3.72942 27.86476,-4.75508 1.25999,-0.38742 1.32244,-0.98601 0.85507,-8.19637 -0.42598,-6.5727 -0.32896,-7.92368 0.62574,-8.71602 0.96212,-0.7985 1.23944,-0.64949 1.86802,1.00394 0.406,1.06792 0.73823,3.67687 0.73823,5.79759 0,4.99812 0.69749,8.39396 1.72468,8.39687 0.44936,0 5.80034,-1.99438 11.89116,-4.43492 13.13314,-5.26217 12.44393,-3.72239 8.54144,-19.08221 -4.58857,-18.06004 -10.02467,-24.52273 -25.49689,-30.31159 -2.56537,-0.95979 -3.76356,-1.73855 -3.20564,-2.08334 0.69945,-0.43229 0.70076,-0.66808 0.008,-1.09747 -0.48966,-0.3026 -1.14983,-0.11837 -1.47791,0.41254 -0.46673,0.75522 -0.98499,0.78086 -2.43451,0.12047 -2.06112,-0.93917 -2.0686,-0.93226 -3.35676,3.10012 -1.20154,3.76146 -5.25237,10.10367 -8.19979,12.8381 -5.60833,5.20314 -12.55154,7.32366 -18.62485,5.68829 -3.48508,-0.93843 -8.54661,-5.24852 -10.56502,-8.99646 l -1.34815,-2.50336 -1.95508,3.02228 c -2.69812,4.17088 -4.62191,6.04463 -7.94874,7.74186 -6.19685,3.16141 -14.46692,0.86341 -21.20041,-5.89098 -2.31933,-2.32667 -4.21705,-4.39395 -4.21705,-4.59409 0,-0.20014 -0.81695,-2.14992 -1.81544,-4.33288 -0.9985,-2.18289 -1.81544,-4.46076 -1.81544,-5.06189 0,-0.60113 -0.2451,-1.23422 -0.54465,-1.40683 -0.70911,-0.40869 -13.22717,4.40993 -18.23126,7.01779 -5.12348,2.67008 -9.73659,7.51782 -12.36477,12.99364 -1.64618,3.42995 -1.98059,4.83024 -1.47256,6.16648 1.00642,2.64691 4.30857,15.95913 5.26305,21.21696 l 0.85057,4.68536 5.20887,1.98777 c 8.10364,3.09257 7.70257,3.22749 7.86044,-2.6443 0.18903,-7.0342 0.91869,-9.94166 2.42267,-9.65359 1.02058,0.19548 1.23546,1.46462 1.40894,8.32265 0.22903,9.0571 -0.0822,8.57949 6.33088,9.71343 1.997,0.35313 4.44784,0.79457 5.44634,0.98098 16.45577,3.07232 41.69357,4.19601 57.36804,2.55426 z m 58.8204,-15.91171 c 0,-0.3994 -0.3461,-0.72618 -0.76903,-0.72618 -0.42299,0 -0.56707,0.32678 -0.32024,0.72618 0.24682,0.39939 0.59293,0.72618 0.76903,0.72618 0.17617,0 0.32024,-0.32679 0.32024,-0.72618 z m -229.83525,-1.45236 c 0.57143,-0.92456 -1.11098,-0.92456 -2.54162,0 -0.88558,0.57231 -0.79175,0.70599 0.50179,0.71507 0.87505,0.008 1.79301,-0.31567 2.03983,-0.71507 z m -5.56848,-2.1781 3.38994,3.7e-4 -0.16614,-14.60874 c -0.15075,-13.25702 0.0889,-16.37553 1.65387,-21.5194 0.86124,-2.83086 -0.74266,-1.79213 -4.62865,2.99745 -5.76571,7.10629 -6.18414,8.50621 -6.41063,21.44416 -0.10769,6.15385 -0.0116,11.48633 0.2127,11.84985 0.22467,0.36359 0.8924,0.47543 1.48372,0.24849 0.59141,-0.22693 2.60074,-0.4124 4.46519,-0.41218 z m -3.83936,-6.4337 c -0.92778,-2.92324 1.42214,-5.09226 4.01409,-3.70504 1.69649,0.90786 1.79365,2.37888 0.25866,3.91396 -1.54734,1.54725 -3.74954,1.43956 -4.27275,-0.20892 z m 0.62923,-14.2612 c -0.68603,-2.73318 0.0767,-3.93516 2.38622,-3.76058 2.6838,0.20296 3.16518,2.77647 0.82581,4.41502 -2.22981,1.56185 -2.67873,1.47036 -3.21203,-0.65444 z m 180.88272,-3.2694 c 0.56803,-0.91904 -0.39328,-0.91904 -1.81544,0 -0.93872,0.60665 -0.91955,0.70548 0.13872,0.71507 0.67533,0.008 1.4299,-0.31566 1.67672,-0.71507 z m -10.16647,-0.72618 c -0.24683,-0.39939 -0.83801,-0.72116 -1.31366,-0.71506 -0.51965,0.008 -0.43011,0.29208 0.22439,0.71506 1.39506,0.90156 1.64646,0.90156 1.08927,0 z m -20.62556,-2.36007 c 2.52928,-1.93301 6.35914,-7.48355 6.44461,-9.34003 0.011,-0.24443 -1.75626,-0.80126 -3.92789,-1.23733 -5.53225,-1.11106 -11.97177,-4.54972 -15.92683,-8.50478 -1.84934,-1.84935 -3.36249,-3.66755 -3.36249,-4.04044 0,-0.3729 -2.28745,0.47397 -5.08324,1.88188 -3.76152,1.89431 -5.08325,2.93986 -5.08325,4.02121 0,2.33866 4.72902,11.01778 7.37689,13.53871 6.85227,6.52391 14.06605,7.88121 19.5622,3.68078 z m 34.5389,-1.10299 c 2.43532,-1.6538 4.59816,-2.83653 4.80636,-2.62833 0.20819,0.20827 0.62516,-0.0203 0.9266,-0.5081 0.35016,-0.56656 0.24537,-0.69961 -0.2904,-0.36854 -1.17213,0.72444 -1.05208,-0.66475 0.1432,-1.6567 0.53984,-0.44805 2.04441,-3.1206 3.34348,-5.93898 2.31279,-5.01759 2.33392,-5.15572 1.01548,-6.62374 -0.74064,-0.82459 -2.95402,-2.2065 -4.91869,-3.07094 l -3.57216,-1.57168 -4.93248,4.86445 c -5.18331,5.11186 -9.81864,7.48944 -16.34575,8.38402 -1.74145,0.23869 -3.16621,0.56598 -3.16621,0.72734 0,0.16129 0.61994,1.50565 1.37771,2.98749 4.76155,9.31185 12.87186,11.33955 21.61286,5.40371 z m -97.09737,0.0137 c 3.67091,-6.91692 10.50235,-11.96088 21.85185,-16.13421 12.87891,-4.73571 24.71256,-10.4407 25.82688,-12.45113 0.52822,-0.95289 0.97199,-3.28944 0.98614,-5.19217 0.0225,-3.01479 -0.37449,-3.95091 -3.08661,-7.28072 -1.71182,-2.10164 -3.59081,-4.95638 -4.17553,-6.34382 -1.05579,-2.50509 -1.0661,-2.47365 -1.47675,4.51915 -0.35736,6.08523 -0.73692,7.66349 -2.79433,11.61884 -2.91124,5.5968 -4.47318,7.34006 -8.73621,9.75017 -6.44432,3.64331 -14.84496,5.09805 -16.679,2.88823 -0.66067,-0.79604 -0.43025,-1.62076 1.06502,-3.81244 1.70404,-2.49747 1.87085,-3.30135 1.55983,-7.51673 -0.19157,-2.59609 -0.73939,-6.84422 -1.21744,-9.44031 -1.07459,-5.83557 -0.45139,-12.87913 1.55148,-17.53487 1.43362,-3.33258 5.45693,-7.71723 9.53,-10.38602 1.85516,-1.21554 1.88602,-1.36775 1.4705,-7.25538 -0.35575,-5.04105 -0.2087,-6.37896 0.90896,-8.27102 0.73337,-1.24147 1.13458,-2.45608 0.8916,-2.69906 -0.24305,-0.24297 -3.82042,0.0508 -7.94983,0.65277 -15.09636,2.2009 -31.46499,2.95067 -43.54344,1.99459 -6.14135,-0.48618 -11.69073,-1.03496 -12.33193,-1.21962 -0.90178,-0.25961 -1.68612,1.11875 -3.46307,6.08646 -2.45907,6.87443 -5.33233,10.52848 -8.98689,11.42894 -1.09834,0.27065 -1.997,0.95399 -1.997,1.51859 0,1.98886 -4.18692,10.12437 -7.5203,14.61244 -3.22022,4.33586 -4.54419,8.57158 -2.42499,7.75834 1.26587,-0.48575 5.55897,2.48411 6.9862,4.83293 0.62901,1.03523 2.19421,3.27419 3.47816,4.9754 1.28403,1.7013 2.52362,3.68892 2.75476,4.41713 0.38205,1.20364 10.46125,5.96177 19.04263,8.98942 3.83008,1.35135 10.69246,4.91848 15.06224,7.82951 2.47459,1.64849 4.8749,4.29032 7.62487,8.39221 2.20743,3.29249 4.08852,5.98843 4.18024,5.99097 0.0917,0 0.81709,-1.22085 1.61196,-2.71859 z m -108.56683,-6.53558 c 2.13263,-2.29654 5.21025,-4.99247 6.83921,-5.99096 1.62896,-0.9985 2.88961,-2.0145 2.80138,-2.2577 -0.0882,-0.24326 -2.18819,-2.12211 -4.66672,-4.17515 -4.25031,-3.5208 -9.05049,-10.30802 -11.09686,-15.69031 -0.71819,-1.88908 -2.18812,-1.9474 -2.18812,-0.0868 0,0.51813 -1.18265,2.49094 -2.62818,4.384 -2.28615,2.99411 -2.58367,3.83699 -2.28615,6.47686 0.62676,5.56041 7.35691,21.51563 9.07562,21.51563 0.14981,0 2.01725,-1.87899 4.14982,-4.17552 z m 52.52393,-2.54162 c 4.12207,-9.39166 6.1171,-15.64979 5.55431,-17.42298 -0.26237,-0.82645 -1.90556,-3.44331 -3.65165,-5.81522 -3.09577,-4.20522 -3.1917,-4.26804 -3.85543,-2.5223 -1.27414,3.3513 -7.91803,12.49584 -11.93851,16.43202 l -4.00835,3.92433 2.6777,1.99961 c 1.47276,1.09979 4.6384,3.81206 7.03478,6.02727 2.39639,2.21527 4.55545,4.0427 4.79801,4.06108 0.24246,0.0181 1.76758,-2.98938 3.38914,-6.68381 z m -50.25978,2.17853 2.13285,-2.36008 -2.36007,2.13286 c -2.19996,1.98813 -2.6939,2.5873 -2.13286,2.5873 0.12498,0 1.187,-1.06204 2.36008,-2.36008 z m 115.87233,-0.36309 c 0.90321,-1.1518 0.87758,-1.17743 -0.27421,-0.2742 -0.69895,0.54818 -1.27081,1.12006 -1.27081,1.27081 0,0.59771 0.59634,0.21298 1.54502,-0.99661 z m -93.4065,-3.47418 c 0.3994,-0.43193 3.14579,-2.809 6.10316,-5.28221 2.95736,-2.47329 7.16317,-6.47061 9.3462,-8.88297 l 3.96922,-4.38612 -0.31139,-6.51243 c -0.34661,-7.25039 -1.17924,-9.01448 -2.96687,-6.28616 -1.35011,2.06053 -7.32583,5.01382 -12.75154,6.30206 -7.54811,1.79213 -18.9223,-0.88151 -24.25884,-5.70239 -1.09413,-0.9884 -2.1518,-1.63469 -2.35034,-1.43616 -0.19853,0.19854 -0.64739,2.95235 -0.99733,6.11958 -0.50224,4.54413 -0.41639,6.19393 0.40673,7.82274 1.33798,2.64751 8.43251,9.49254 12.19215,11.76329 1.70609,1.03044 3.93459,3.40475 5.40037,5.7538 2.43089,3.89557 2.53443,3.96703 3.99398,2.75584 0.82406,-0.68384 1.82511,-1.59686 2.2245,-2.02887 z m 98.39709,0.42329 c 0.59908,-0.40666 0.71702,-0.74441 0.262,-0.7505 -0.45503,-0.008 -1.59875,0.66089 -2.54163,1.48227 -1.34727,1.17357 -1.40341,1.33428 -0.26201,0.75043 0.79881,-0.40856 1.94253,-1.07554 2.54164,-1.4822 z m 116.91461,0.69074 c 0,-0.39939 -0.5095,-0.72618 -1.13212,-0.72618 -0.6227,0 -0.93016,0.32679 -0.68333,0.72618 0.24683,0.3994 0.75631,0.72618 1.13211,0.72618 0.37588,0 0.68334,-0.32678 0.68334,-0.72618 z m -49.93257,-4.28532 c 5.40436,-2.10403 10.83109,-5.85227 12.03436,-8.31212 0.84107,-1.71945 0.77745,-2.16903 -0.54463,-3.84983 -0.89894,-1.14279 -1.49695,-2.97596 -1.49695,-4.58879 0,-1.47719 -0.17653,-2.86231 -0.39235,-3.07812 -0.21581,-0.21575 -2.59986,0.70882 -5.2979,2.05472 -5.69345,2.84015 -12.09216,4.21822 -16.29165,3.50874 -3.99827,-0.67557 -12.49272,-3.61099 -14.48274,-5.00482 -2.33931,-1.63855 -2.52972,-1.49694 -3.09984,2.30526 -0.28372,1.89191 -1.00379,4.38335 -1.60021,5.53658 -1.06732,2.06417 -1.02971,2.15226 2.41251,5.64706 4.9932,5.06944 12.47261,8.00466 19.50848,7.65588 2.97392,-0.14741 6.81264,-0.9253 9.25092,-1.87456 z M 334.855,366.9976 c -0.16642,-0.1456 -1.11954,-0.65385 -2.11804,-1.12935 -1.71181,-0.81529 -1.73497,-0.80011 -0.40586,0.26469 1.15681,0.92682 3.52043,1.73651 2.5239,0.86466 z m 27.33493,-0.86466 c 1.32913,-1.0648 1.30597,-1.07998 -0.40586,-0.26469 -2.22282,1.05862 -2.63479,1.39404 -1.71218,1.39404 0.3896,0 1.3427,-0.50818 2.11804,-1.12935 z m -236.00775,-0.72618 c 1.32911,-1.06479 1.30595,-1.07998 -0.40586,-0.26469 -2.22283,1.05862 -2.6348,1.39404 -1.71218,1.39404 0.38959,0 1.3427,-0.50818 2.11804,-1.12935 z m 175.69223,-0.323 c 0.24684,-0.3994 0.122,-0.72618 -0.2774,-0.72618 -0.39939,0 -0.92812,0.32678 -1.17494,0.72618 -0.24684,0.39939 -0.122,0.72618 0.27739,0.72618 0.3994,0 0.92813,-0.32679 1.17495,-0.72618 z m -0.72618,-9.00511 c 4.94012,-2.69079 7.62,-6.06352 9.47452,-11.92421 1.00213,-3.16701 1.12971,-5.35323 0.70693,-12.11874 l -0.51573,-8.25468 -3.10535,-2.7679 c -1.70789,-1.52229 -3.33287,-3.50308 -3.61099,-4.40172 -0.67476,-2.1805 -1.09196,-2.09045 -5.04687,1.08926 -4.00995,3.22401 -6.92417,8.79322 -7.49495,14.32313 -0.26099,2.52884 0.1464,6.32494 1.21373,11.31008 1.52041,7.10128 1.56783,9.07293 0.33782,14.04848 -0.50077,2.02582 -0.4434,2.08326 1.58213,1.58575 1.15593,-0.28394 4.06238,-1.58422 6.45876,-2.88945 z m 100.04565,-3.25844 c -0.28386,-4.14153 -0.0371,-7.17754 0.88993,-10.96144 1.10532,-4.51021 1.16415,-5.9503 0.42584,-10.42093 -1.07279,-6.49617 -3.22467,-10.86522 -6.90138,-14.01233 -3.3031,-2.82729 -4.41748,-3.02445 -5.51416,-0.97533 -0.43345,0.80998 -1.07598,1.29486 -1.42774,1.07744 -0.35175,-0.21742 -0.87599,-0.0124 -1.16501,0.45495 -0.32816,0.53098 -0.21066,0.65566 0.31292,0.33208 1.69024,-1.04461 0.7675,0.36373 -1.86533,2.84712 l -2.70364,2.55012 -0.0196,10.70102 c -0.0182,9.93891 0.10196,10.90778 1.68525,13.60567 0.93757,1.59759 2.40807,3.67475 3.26779,4.61595 2.39836,2.62557 8.55917,5.89918 11.11626,5.90679 l 2.29146,0.008 z m -258.79397,-0.43832 c 4.15053,-0.59881 8.04626,-1.49876 8.65719,-1.99981 0.61094,-0.50115 2.5531,-3.13549 4.31589,-5.85409 2.12269,-3.27368 4.05012,-5.34597 5.70746,-6.13627 3.38183,-1.61269 3.96705,-4.07117 1.44183,-6.05749 -2.28426,-1.79677 -7.21748,-10.50213 -8.45386,-14.91801 -0.48734,-1.74065 -1.20269,-3.16491 -1.58968,-3.16491 -0.38698,0 -1.85727,-0.54745 -3.26736,-1.21656 -2.10032,-0.99667 -3.06215,-2.2765 -5.32115,-7.08023 -1.51662,-3.22502 -2.98305,-7.09897 -3.25886,-8.60883 -0.37841,-2.07186 -0.79219,-2.66203 -1.68728,-2.40635 -0.65218,0.18635 -2.62193,0.75226 -4.37718,1.25767 l -3.19126,0.91891 0.45757,10.20156 c 0.25169,5.61089 0.61602,11.18198 0.80961,12.38017 1.01303,6.26902 1.8318,20.02123 1.41264,23.72612 -0.39373,3.47962 -0.72023,4.23172 -1.83738,4.23172 -0.91099,0 -1.37385,-0.53824 -1.40501,-1.6339 -0.16629,-5.84791 -1.40167,-23.22657 -2.11935,-29.81388 -0.47019,-4.31589 -0.74708,-10.11696 -0.61536,-12.89132 0.14501,-3.05257 -0.0471,-5.03111 -0.48661,-5.01099 -0.39939,0.0181 -2.11499,0.30195 -3.81243,0.63033 -2.88373,0.55785 -3.08626,0.49118 -3.08626,-1.01586 0,-1.33014 0.66271,-1.79047 3.7799,-2.62564 l 3.77997,-1.0128 1.05071,-4.35707 c 1.10205,-4.56968 1.82975,-5.57428 3.55762,-4.91128 0.81346,0.31218 0.93858,1.24583 0.56619,4.22592 l -0.47789,3.82528 3.48878,-0.88999 c 3.27433,-0.83533 3.5168,-1.06205 3.94372,-3.68856 0.28859,-1.77543 1.10365,-3.27114 2.22944,-4.09121 l 1.77449,-1.2926 -1.06923,-5.52235 -1.06922,-5.52244 -2.97079,2.82113 c -1.63398,1.55154 -7.219,6.36923 -12.41118,10.70588 -5.19216,4.33666 -9.88175,8.49672 -10.42131,9.24461 -0.53954,0.74789 -1.80229,1.67202 -2.80609,2.0537 -1.64428,0.62517 -2.33851,0.20623 -7.00696,-4.22795 -2.85003,-2.70704 -9.429996,-8.31088 -14.622167,-12.45299 -14.793256,-11.80164 -18.78629,-16.82903 -18.373893,-23.13349 0.194107,-2.96818 0.449795,-3.41644 2.216439,-3.8857 2.202498,-0.58509 2.399654,-0.15591 1.169146,2.54481 -0.6386,1.40153 -0.604978,2.35493 0.14698,4.17022 0.990868,2.39225 4.776941,7.15242 5.68873,7.15242 1.902586,0 3.20012,-20.1128 1.502171,-23.28539 -0.89073,-1.66441 -2.851772,-1.77544 -6.848873,-0.38786 -1.610952,0.55923 -4.323225,1.39092 -6.027275,1.84819 -1.704048,0.45729 -4.236593,1.83084 -5.627877,3.05241 -2.388398,2.09707 -2.529566,2.47758 -2.529566,6.81867 0,2.5287 0.349436,5.51677 0.776574,6.6401 2.111289,5.55315 10.161041,13.30554 19.011768,18.30947 4.32417,2.44476 4.55081,2.71685 3.561683,4.27575 -0.812882,1.28112 -2.304089,0.6203 -9.58954,-4.24953 -10.642424,-7.11378 -17.391375,-16.08315 -17.391375,-23.113 0,-3.80473 -0.683405,-3.33664 -2.540387,1.74014 -0.834886,2.28238 -2.754827,5.08738 -5.169586,7.55261 -2.112814,2.1569 -4.04343,4.84121 -4.290259,5.96505 -0.614926,2.7997 0.957538,5.66563 4.012279,7.3126 1.39789,0.75371 2.451866,1.70965 2.342068,2.12444 -0.109726,0.41472 0.08148,0.58036 0.424885,0.36817 0.34341,-0.21226 3.063599,0.56119 6.044849,1.71887 5.367397,2.08412 28.362904,8.72552 30.211825,8.72552 0.699308,0 0.904453,-1.03415 0.756314,-3.81242 -0.159542,-2.99301 0.0305,-3.81244 0.884629,-3.81244 1.17009,0 3.323716,3.82965 3.982068,7.0811 0.349147,1.72439 0.998858,2.16307 4.74746,3.20527 3.73539,1.03859 4.34305,1.44677 4.34305,2.91772 0,1.81385 -0.79429,1.84224 -5.974917,0.2135 -1.089485,-0.34248 -2.100105,-0.39715 -2.24585,-0.12149 -0.14567,0.27572 -0.33179,5.19499 -0.413557,10.93174 -0.08177,5.73672 -0.459962,12.07183 -0.840407,14.07797 -0.380444,2.0062 -0.691756,8.16644 -0.691756,13.68946 0,9.19384 -0.118947,10.10549 -1.408276,10.7955 -2.931362,1.56884 -3.222778,-1.80629 -1.816388,-21.03556 0.569541,-7.78825 1.037998,-17.49848 1.040903,-21.57822 0.0073,-6.33183 -0.180818,-7.51462 -1.265584,-8.07915 -0.698945,-0.36375 -5.280908,-1.69738 -10.1821,-2.96347 C 69.388836,290.80914 56.60012,286.32448 51.09228,283.26124 l -4.607888,-2.56267 -8.100221,3.08938 c -10.838711,4.13383 -13.982988,5.77252 -18.182619,9.47611 -4.567875,4.02824 -8.434191,11.90358 -10.5459159,21.48084 -3.7138918,16.84369 -3.7108384,16.03045 -0.067539,18.02686 5.0349529,2.75911 20.3133699,8.77607 25.4951549,10.04056 l 1.894382,0.46229 0.507888,-8.02666 c 0.518417,-8.19231 0.871994,-10.10396 1.86889,-10.10396 1.034005,0 1.43943,3.1951 1.449379,11.42342 0.0095,7.86922 0.06754,8.16761 1.643848,8.49562 0.898645,0.187 5.391869,1.18382 9.984943,2.21529 15.545432,3.49088 18.553405,3.96972 34.130353,5.43347 4.593074,0.43157 9.331383,0.9171 10.529576,1.07895 4.857109,0.65597 38.177119,-0.38007 45.307609,-1.40885 z m 24.90164,0.19949 c -0.52103,-0.52104 -0.85928,-0.56396 -0.85928,-0.10894 0,0.96932 0.85877,1.82809 1.34343,1.34343 0.20638,-0.2063 -0.0116,-0.76183 -0.48415,-1.23449 z m 182.68213,-2.54134 c -1.09834,-0.16637 -2.89563,-0.16637 -3.99397,0 -1.09835,0.16644 -0.19969,0.30253 1.99699,0.30253 2.19669,0 3.09533,-0.13609 1.99698,-0.30253 z m 64.99291,-0.68696 c -0.49925,-0.20144 -1.3162,-0.20144 -1.81544,0 -0.49925,0.20144 -0.0907,0.36629 0.90771,0.36629 0.9985,0 1.40698,-0.16485 0.90773,-0.36629 z m -61.10829,-1.27473 c 1.83702,-0.55757 4.95311,-1.83114 6.92469,-2.8302 4.78848,-2.42653 13.47429,-11.61726 15.16643,-16.04817 0.93583,-2.45027 1.48795,-3.14319 1.96207,-2.4621 0.44391,0.63757 0.51464,0.42953 0.21618,-0.63579 -0.24393,-0.8709 0.0414,-3.48513 0.63453,-5.80941 1.4175,-5.55614 2.61867,-16.7962 2.61867,-24.50472 0,-5.28752 -0.19512,-6.27999 -1.35686,-6.90174 -0.7463,-0.39939 -1.548,-0.53504 -1.7816,-0.30151 -0.23362,0.23361 -1.54683,0.21422 -2.9183,-0.0428 -2.14004,-0.4015 -2.71402,-0.98013 -4.048,-4.08119 -0.85493,-1.98733 -1.7063,-3.61332 -1.89191,-3.61332 -0.18555,0 -0.25816,1.55221 -0.16136,3.44935 l 0.1761,3.44934 -7.51885,0.20776 c -4.94366,0.13667 -7.86799,-0.082 -8.53832,-0.63831 -0.56076,-0.46534 -1.87876,-3.60205 -2.92897,-6.97037 -1.08519,-3.48064 -2.1826,-5.85117 -2.54228,-5.4915 -0.34805,0.34806 -0.77025,3.34093 -0.93822,6.65085 -0.16796,3.30985 -0.42169,6.13425 -0.56394,6.2765 -0.14219,0.14219 -7.38152,0.35343 -16.08745,0.46933 -8.70592,0.11589 -16.19761,0.43853 -16.64813,0.71703 -0.54921,0.33941 -0.78979,3.69123 -0.73024,10.17208 0.24893,27.05839 9.66295,43.36384 28.17547,48.8011 4.65597,1.36746 8.58981,1.40995 12.78029,0.13804 z M 340.56241,336.2182 c -0.29971,-1.14758 0.30819,-1.25927 6.26937,-1.1518 3.63068,0.0654 6.88635,0.14719 7.23477,0.18155 0.34849,0.0342 0.22678,0.55269 -0.27043,1.15178 -0.67005,0.80737 -2.45644,1.08927 -6.9029,1.08927 -5.10271,0 -6.04848,-0.18982 -6.33081,-1.2708 z m -2.50408,-5.06756 c -3.13694,-0.28496 -5.34127,-1.92228 -4.165,-3.09373 0.39272,-0.39113 3.87475,-0.34255 8.61574,0.12024 6.01762,0.58733 9.17031,0.55974 12.93642,-0.11328 5.19819,-0.929 6.05885,-0.77374 5.38904,0.97185 -0.82204,2.14221 -11.52996,3.1365 -22.7762,2.11492 z m 2.98691,-11.40114 c -1.31722,-0.96938 -1.32593,-1.06981 -0.13333,-1.53216 0.702,-0.2721 2.33829,-0.29549 3.63627,-0.0522 1.29796,0.24348 3.46568,0.12563 4.81717,-0.26201 2.48302,-0.71209 4.30717,-0.2644 4.35212,1.06814 0.0393,1.15346 -2.12356,1.70942 -6.86282,1.76439 -2.74429,0.032 -4.93016,-0.33927 -5.80941,-0.98636 z m 8.39381,-14.57541 c 0,-4.79182 0.22628,-6.1725 1.01157,-6.1725 1.39383,0 1.89314,1.62795 1.89314,6.1725 0,4.54457 -0.49931,6.17251 -1.89314,6.17251 -0.78529,0 -1.01157,-1.38068 -1.01157,-6.17251 z M 327.23769,304.274 c -0.42858,-0.30376 -1.00371,-1.15956 -1.27822,-1.90171 -0.46627,-1.26086 -0.61616,-1.27277 -2.28157,-0.18155 -2.34272,1.535 -2.97472,1.47327 -2.97472,-0.29047 0,-2.12436 6.87414,-4.61116 10.89928,-3.94286 3.82804,0.63556 6.94393,2.2529 6.94393,3.60446 0,1.16188 -1.00111,1.28657 -3.25676,0.40564 -1.08107,-0.4222 -1.62977,-0.18255 -2.1951,0.9587 -0.77802,1.57066 -4.37478,2.39836 -5.85684,1.34779 z m 34.85653,0 c -0.42859,-0.30376 -0.99558,-1.13821 -1.26006,-1.85438 -0.38371,-1.03908 -0.76684,-1.14909 -1.89628,-0.54462 -1.94288,1.03981 -2.73347,0.9513 -3.23758,-0.36236 -0.31182,-0.81267 0.48015,-1.50981 2.88722,-2.54163 4.04727,-1.73483 6.27918,-1.77949 11.10114,-0.2222 2.80087,0.9046 3.71426,1.55045 3.71426,2.62629 0,1.4143 -0.70374,1.46085 -3.63598,0.2405 -0.71099,-0.29591 -1.34684,0.12034 -1.81544,1.18847 -0.74258,1.69286 -4.28764,2.58257 -5.85728,1.46993 z m -43.02421,-10.13366 c 0.15279,-0.79336 1.85495,-1.74784 4.79248,-2.68752 4.01875,-1.28548 5.04135,-1.35526 8.67885,-0.59234 3.97168,0.83307 6.78453,2.52041 5.8161,3.48892 -0.25613,0.25605 -2.68752,0.14349 -5.40313,-0.25024 -3.77213,-0.54682 -5.70877,-0.48312 -8.20529,0.26999 -4.45576,1.34416 -5.97013,1.28316 -5.67901,-0.22881 z m 36.52906,0.48399 c -0.86756,-1.40384 1.26362,-2.8146 5.47153,-3.62188 5.94268,-1.14018 14.51085,0.80177 14.51085,3.28871 0,1.36245 -0.49707,1.3512 -5.83149,-0.13187 -4.25511,-1.18302 -7.81396,-0.94055 -12.431,0.84687 -0.65858,0.25495 -1.43253,0.0832 -1.71989,-0.38183 z m 72.43827,52.62936 c 7.01167,-0.50069 6.7963,-0.35981 11.97742,-7.834 2.27614,-3.28355 3.97263,-4.18431 4.93823,-2.62201 0.25867,0.41857 -0.70236,2.46378 -2.13568,4.54493 -3.05715,4.43883 -3.1416,4.86089 -0.97215,4.85936 3.05787,0 23.85051,-4.17828 31.22565,-6.27163 1.12136,-0.31829 1.27081,-1.40522 1.27081,-9.24373 0,-8.91521 0.52481,-10.93624 2.63014,-10.12837 0.77258,0.2965 1.00075,2.35296 1.00075,9.02051 0,4.75 0.29635,8.63643 0.65856,8.63643 0.93431,0 14.97307,-5.9439 19.31133,-8.17625 3.93646,-2.02559 3.89136,-2.08674 -2.54163,-3.44948 -6.23576,-1.321 -6.5356,-1.45621 -6.5356,-2.94677 0,-1.9985 2.25079,-1.80774 8.90578,0.75479 8.20972,3.16135 8.69568,2.66369 6.71706,-6.87836 -0.92486,-4.4601 -1.44008,-5.43935 -4.20297,-7.98794 -3.71005,-3.4224 -4.64731,-5.30415 -2.96368,-5.95023 0.73192,-0.2809 1.62134,0.14944 2.37563,1.14946 0.66313,0.87912 1.41335,1.3907 1.66715,1.13691 0.62981,-0.62974 -1.10887,-5.36601 -3.87495,-10.55572 -3.00986,-5.64719 -10.07637,-12.2422 -10.07637,-9.40407 0,0.98665 -7.68528,6.55846 -9.04621,6.55846 -2.39777,0 -1.00163,-2.67785 2.69215,-5.16355 2.09684,-1.41104 3.91025,-3.07312 4.02979,-3.69349 0.16185,-0.84019 -2.06113,-1.96097 -8.71414,-4.39352 -4.9123,-1.79606 -9.99322,-3.49669 -11.29083,-3.77917 -2.07869,-0.45248 -2.30315,-0.35554 -1.88661,0.81477 0.25997,0.73053 0.94185,1.87587 1.51531,2.54511 1.18643,1.38475 0.99429,3.59887 -0.3511,4.04684 -0.49685,0.16542 -1.21795,-0.52684 -1.60254,-1.5384 -0.38457,-1.01157 -1.55764,-3.19896 -2.60683,-4.8609 l -1.90752,-3.02177 -2.38854,3.53112 c -3.64483,5.38823 -9.1107,10.44831 -15.18822,14.06061 -5.95968,3.54222 -6.54207,4.66896 -4.47718,8.66206 0.96887,1.87348 0.94098,2.16408 -0.31625,3.30186 -1.49012,1.34852 -1.45171,1.42215 -3.34289,-6.40248 -0.43041,-1.78088 -0.75908,-2.00324 -2.40031,-1.62388 -13.1391,3.03658 -25.57379,2.09749 -37.24703,-2.81286 -0.83264,-0.3503 -1.47422,-0.0269 -2.03817,1.02675 -0.66938,1.25069 -0.53569,2.00272 0.71587,4.02781 1.4764,2.38884 1.98748,7.66329 1.30124,13.42754 -0.17385,1.46004 0.1392,1.86345 1.59926,2.06068 0.9985,0.13485 2.59078,0.9518 3.53838,1.81544 3.154,2.87436 7.69727,9.53376 7.75956,11.3736 0.13893,4.10074 1.25063,11.61885 1.71807,11.61885 0.49416,0 5.13843,6.25436 5.13843,6.9199 0,0.18808 -0.9279,0.34188 -2.06198,0.34188 -1.54073,0 -2.29014,-0.50084 -2.96463,-1.98116 -1.02005,-2.23873 -1.69503,-1.58349 -2.56471,2.48985 l -0.49626,2.32413 4.58843,0.28313 c 4.67121,0.28822 7.65324,0.19164 18.91998,-0.61304 z m 33.34926,-14.61018 c -3.15036,-2.80623 -4.47325,-4.50441 -4.47325,-5.74211 0,-0.96654 0.25388,-1.75741 0.5641,-1.75741 0.66235,0 10.32857,9.62882 10.32857,10.28855 0,1.73724 -2.6122,0.60237 -6.41942,-2.78903 z m -41.66139,-1.09863 c -1.12826,-0.86692 -0.81666,-1.42114 3.39481,-6.03781 4.13232,-4.52982 4.75719,-4.96466 5.73986,-3.99397 0.98397,0.97198 0.61856,1.62192 -3.39481,6.03781 -3.96683,4.36461 -4.64413,4.83589 -5.73986,3.99397 z m 21.98184,-11.45728 c -0.66345,-0.41006 0.0305,-1.78167 2.53109,-5.00147 4.26941,-5.49775 6.36321,-7.03557 7.58107,-5.56811 0.68152,0.82116 0.0159,1.94332 -3.38274,5.70209 -4.67841,5.17424 -5.39471,5.69237 -6.72942,4.86749 z m 6.42145,-7.6014 c -0.19107,-0.19106 -0.78,0.37303 -1.30873,1.25352 -0.91854,1.52955 -0.90307,1.54502 0.34734,0.34734 0.71978,-0.68944 1.15244,-1.4098 0.96139,-1.60086 z m 28.37176,2.10417 c -0.7842,-0.9449 -0.19717,-1.83642 3.88221,-5.89583 3.16447,-3.149 5.18599,-4.63687 5.91827,-4.35584 0.61167,0.2347 1.11208,0.70482 1.11208,1.04468 0,0.79044 -8.72198,10.32029 -9.4454,10.32029 -0.29883,0 -0.95906,-0.50099 -1.46716,-1.1133 z m -66.81075,-6.34279 c -4.00704,-4.19093 -5.44844,-7.06746 -3.54135,-7.06746 0.98768,0 10.09924,9.04149 10.09924,10.02154 0,0.39366 -0.50186,0.90831 -1.11534,1.14373 -0.74048,0.28415 -2.56957,-1.09298 -5.44255,-4.09781 z m 50.58336,-9.66267 c -2.76718,-2.98663 -4.11423,-4.99712 -3.83516,-5.72431 0.23651,-0.61646 0.69415,-1.1208 1.01694,-1.1208 0.32279,0 2.82411,2.2545 5.55845,5.00991 4.67812,4.7142 4.88333,5.0571 3.47759,5.80941 -0.82166,0.43978 -1.59708,0.76126 -1.72322,0.71443 -0.12606,-0.0471 -2.14861,-2.15668 -4.4946,-4.68864 z m -302.86258,45.25815 c 0.59474,-1.09835 0.93618,-1.99698 0.75878,-1.99698 -0.46882,0 -3.34767,4.77591 -3.33454,5.53202 0.0124,0.73046 0.99908,-0.62336 2.57576,-3.53504 z m 5.99626,-1.9784 c -0.16702,-1.03168 -0.51906,-1.2541 -1.2557,-0.79321 -0.88064,0.55103 -0.88064,0.97932 0,3.0676 0.9107,2.15936 1.04925,2.24687 1.2557,0.79327 0.12759,-0.89863 0.12759,-2.2791 0,-3.06766 z m 216.47278,1.61531 c -0.34776,-1.49773 -0.64013,-4.83975 -0.64964,-7.42676 l -0.0174,-4.70361 -2.60059,3.97743 c -1.43034,2.18761 -3.55441,4.9733 -4.72015,6.19052 -1.16581,1.21722 -2.11956,2.43327 -2.11956,2.7024 0,0.75682 4.38611,1.84493 7.72994,1.91769 l 3.00979,0.0654 z m -162.68269,-0.68471 c 0.44544,-0.29366 -1.47617,-2.40155 -2.18934,-2.40155 -0.35054,0 -0.6373,1.02035 -0.6373,2.26743 0,2.04593 0.12417,2.17242 1.27081,1.29476 0.69894,-0.53497 1.39906,-1.05723 1.55583,-1.16064 z m -25.1566,0.7484 c -0.49925,-0.20144 -1.3162,-0.20144 -1.81545,0 -0.49925,0.20144 -0.0907,0.36628 0.90772,0.36628 0.9985,0 1.40697,-0.16484 0.90773,-0.36628 z m 276.29551,-0.68398 c -0.24131,-0.24132 -0.86764,-0.26709 -1.39187,-0.0573 -0.57927,0.23181 -0.40724,0.4039 0.43876,0.43876 0.76546,0.0312 1.19442,-0.14014 0.95311,-0.38145 z M 197.0776,340.41107 c 11.1148,-3.433 19.9823,-13.09945 23.70397,-25.83958 2.0603,-7.05292 3.75491,-18.6486 3.75491,-25.69377 0,-5.10154 -0.2705,-6.41803 -1.88442,-9.17206 -1.03648,-1.7686 -2.17171,-3.21559 -2.52274,-3.21559 -1.43456,0 -7.77926,-10.28333 -8.97578,-14.54766 l -1.25018,-4.45575 -4.41851,4.4185 c -3.96369,3.9637 -6.54874,5.75263 -5.23051,3.61978 0.34689,-0.56126 0.0363,-0.55371 -1.04642,0.0255 -1.76549,0.94483 -2.07652,1.65954 -0.45074,1.03568 0.5991,-0.22991 1.08927,-0.22628 1.08927,0.008 0,0.89 -5.97232,3.41891 -10.61912,4.49656 -5.33101,1.2364 -6.7621,0.76329 -5.39855,-1.7845 1.02252,-1.91058 0.35386,-1.9238 -3.95223,-0.078 -3.70902,1.58989 -4.96234,1.84915 -3.26779,0.67601 0.90627,-0.62742 0.85398,-0.71703 -0.31146,-0.53353 -0.77041,0.12135 -1.35447,0.5474 -1.29789,0.94678 0.13027,0.92023 -1.80253,1.69847 -4.38162,1.7644 -1.91645,0.0494 -2.95431,-1.3408 -1.08927,-1.4586 0.56773,-0.0356 0.61122,-0.18001 0.11619,-0.38486 -1.217,-0.50369 -9.90064,3.67016 -11.69959,5.62336 -3.29584,3.57869 -4.88522,8.52352 -4.73447,14.72994 0.25707,10.58222 3.57934,25.56726 7.27414,32.80958 2.10198,4.12026 7.50314,9.90368 11.95788,12.80425 8.39208,5.46427 16.22833,6.80197 24.63493,4.20545 z m -13.046,-11.80546 c -3.03383,-1.4618 -1.30806,-2.24477 4.56947,-2.07318 6.5149,0.19026 7.68159,0.59263 5.77028,1.99016 -1.58837,1.16146 -7.99493,1.21287 -10.33975,0.083 z m -1.46195,-5.65512 c -4.86516,-0.7089 -8.13943,-2.0529 -8.13943,-3.34092 0,-1.27488 1.11686,-1.25927 6.28965,0.0881 5.24205,1.36536 10.08574,1.36398 16.54697,-0.008 3.96217,-0.83932 5.16385,-0.87693 5.59768,-0.175 0.80235,1.29832 0.029,1.78864 -4.80455,3.04696 -4.57687,1.19151 -9.17452,1.30595 -15.49032,0.38559 z m 1.84552,-11.75108 c -2.6841,-0.71288 -3.61607,-2.2595 -1.78503,-2.96215 0.51596,-0.19796 1.50806,0.0567 2.20469,0.56612 0.8945,0.65407 2.05878,0.74209 3.96354,0.29963 4.01751,-0.93322 6.69101,-0.8081 6.69101,0.31319 0,1.01281 -4.59736,2.71243 -6.98293,2.5815 -0.75246,-0.0415 -2.59354,-0.40049 -4.09128,-0.79829 z m -17.03635,-18.00725 c -0.44115,-1.68705 -0.3185,-1.6514 -2.64293,-0.76764 -1.4029,0.53338 -1.89765,0.43281 -2.23836,-0.45509 -0.6914,-1.80195 0.84745,-2.99134 4.97997,-3.84925 3.16121,-0.65632 4.4485,-0.58509 7.38749,0.40861 3.3158,1.12116 4.61035,2.06816 4.63737,3.39256 0.0166,0.81804 -2.49283,0.65494 -3.36656,-0.21879 -0.5339,-0.53389 -1.12863,-0.20624 -1.97747,1.08926 -1.5845,2.41832 -6.18078,2.68976 -6.77951,0.40034 z m 36.159,0.0603 c -0.82108,-0.82109 -1.97215,-1.291 -2.58562,-1.05558 -0.65357,0.25076 -1.11033,0.021 -1.11686,-0.56111 -0.009,-0.76039 -0.17189,-0.73664 -0.71507,0.10384 -0.62197,0.9624 -0.70526,0.9595 -0.71508,-0.0247 -0.0188,-1.91479 3.87656,-3.60591 8.30654,-3.60591 4.29062,0 8.38444,1.5456 8.38444,3.1654 0,1.65707 -0.83996,1.87675 -2.6475,0.69242 -0.96522,-0.63243 -1.8264,-1.02391 -1.91376,-0.86995 -0.0874,0.15395 -0.51864,0.93349 -0.95834,1.73229 -1.11504,2.02582 -4.2188,2.24352 -6.03875,0.42358 z m 9.01674,-8.92313 c -3.20216,-1.28083 -4.15527,-1.35781 -8.07169,-0.65189 -5.8604,1.0563 -6.08878,1.03371 -6.08878,-0.60048 0,-1.11744 0.8277,-1.57268 4.09034,-2.25007 3.99507,-0.82928 5.85879,-0.70257 11.11981,0.75625 3.59111,0.99581 4.52032,1.7275 3.98048,3.13426 -0.55284,1.44073 -0.4352,1.44981 -5.03016,-0.38807 z m -52.6479,-0.18903 c 0,-1.4854 1.90688,-2.35092 7.31915,-3.32204 3.00137,-0.5386 5.95654,-0.61275 8.29369,-0.20827 3.04565,0.52714 3.67046,0.90583 3.87618,2.34955 0.21255,1.49099 0.0181,1.65888 -1.45235,1.25622 -4.37407,-1.19769 -7.11284,-1.23813 -11.25031,-0.16601 -5.51532,1.42919 -6.78636,1.44611 -6.78636,0.0906 z M 19.391283,338.94139 c -0.246828,-0.39939 -1.164789,-0.70324 -2.039833,-0.67513 -1.533979,0.0494 -1.538917,0.0734 -0.1387,0.67513 1.998804,0.85892 2.709369,0.85892 2.178533,0 z m 463.664467,-0.72618 c 0,-0.39939 -0.14407,-0.72618 -0.32024,-0.72618 -0.17611,0 -0.5222,0.32679 -0.76903,0.72618 -0.24682,0.39941 -0.10274,0.72618 0.32025,0.72618 0.42292,0 0.76902,-0.32677 0.76902,-0.72618 z m -266.87031,-9.44032 c 0.24683,-0.39939 0.10276,-0.72617 -0.32024,-0.72617 -0.42293,0 -0.76903,0.32678 -0.76903,0.72617 0,0.39941 0.14408,0.72619 0.32025,0.72619 0.17609,0 0.52219,-0.32678 0.76902,-0.72619 z m 94.69329,-14.19407 c -1.73906,-11.78122 -2.1033,-13.61214 -2.89862,-14.57047 -1.19354,-1.43804 -1.76315,-1.2621 -2.72135,0.84091 -1.26927,2.78569 -1.01577,6.92614 0.60963,9.95888 0.79879,1.49034 1.45236,3.1381 1.45236,3.66167 0,0.96146 3.66502,5.79687 4.07952,5.38237 0.12308,-0.1231 -0.11162,-2.4961 -0.52154,-5.27336 z m 74.717,2.03061 c 2.6751,-3.81846 4.6609,-10.43649 4.15127,-13.83492 -0.50441,-3.36381 -2.03919,-4.61943 -3.6261,-2.96643 -0.5317,0.55384 -1.44248,4.43817 -2.024,8.63185 -0.58146,4.19367 -1.29978,8.19673 -1.5962,8.89568 -0.88813,2.09386 1.51421,1.5302 3.09503,-0.72618 z m -233.29018,-8.00647 c -0.46091,-1.2011 -1.69366,-8.64791 -2.34461,-14.16353 -0.29933,-2.53595 -0.89966,-3.85635 -2.22856,-4.9017 -3.5614,-2.80144 -5.05196,-1.02187 -4.18387,4.99502 0.44485,3.08335 4.60577,13.05878 6.31302,15.13485 0.97205,1.182 2.97181,0.31088 2.44402,-1.06464 z m 75.86182,0.56314 c 0.7988,-0.79879 1.45235,-1.82038 1.45235,-2.27024 0,-0.44987 0.98035,-2.74706 2.17855,-5.10497 3.73887,-7.35762 2.73667,-16.38568 -1.40304,-12.63926 -1.51569,1.3716 -1.8098,2.41614 -3.28459,11.66343 -0.57332,3.59458 -1.26173,7.27086 -1.52983,8.1695 -0.61377,2.05696 0.62422,2.14389 2.58656,0.18154 z m 44.1283,-12.86388 c -1.09115,-0.16571 -3.05183,-0.16905 -4.35707,-0.008 -1.30515,0.16157 -0.41239,0.29715 1.98399,0.30121 2.39639,0.008 3.46431,-0.12817 2.37308,-0.29382 z m 37.37296,-4.61863 c 0.57447,-5.97934 0.6492,-6.00795 17.45433,-6.69288 8.08018,-0.32933 15.0997,-0.73301 15.59895,-0.89706 0.51188,-0.16817 0.91055,-1.49563 0.91419,-3.04413 0.008,-3.43359 2.50517,-18.20774 3.1938,-18.89645 0.2803,-0.28024 0.8136,-0.029 1.1852,0.55872 0.3715,0.58748 0.7051,0.74143 0.74135,0.34203 0.0363,-0.3994 1.01098,2.79753 2.16626,7.10428 1.15528,4.30673 2.74626,9.29013 3.53539,11.0742 l 1.43486,3.24377 h 5.13045 5.13044 l -0.50178,-4.17553 c -0.53506,-4.45213 -0.56912,-5.2271 -0.36658,-8.35104 0.0936,-1.44328 0.51769,-1.99699 1.52969,-1.99699 1.03255,0 1.79395,1.05259 2.9002,4.00936 0.82509,2.20519 2.32457,5.63638 3.33222,7.62487 1.72779,3.40964 1.99415,3.6155 4.67731,3.6155 1.56491,0 3.68347,0.31872 4.70796,0.70817 1.56483,0.59495 1.86271,1.16617 1.86271,3.57156 0,6.19974 2.29546,7.09657 3.65529,1.4281 1.40443,-5.85437 0.5503,-18.74504 -1.63492,-24.6753 -3.4192,-9.27888 -7.91672,-15.13623 -15.42183,-20.08448 -6.01783,-3.96769 -9.5292,-4.72074 -23.27051,-4.99073 -9.82307,-0.19294 -13.05617,-0.008 -15.82632,0.9099 -11.61681,3.84548 -20.43007,13.10105 -24.82198,26.0676 -1.68495,4.97454 -2.26017,15.85348 -1.13974,21.55615 1.03204,5.25325 1.21989,5.67552 2.52491,5.67552 0.61602,0 1.07947,-1.30545 1.30815,-3.68514 z M 260.8742,275.58238 c 0.0181,-12.09419 0.36788,-20.99445 0.95638,-24.3483 0.65951,-3.75869 0.70185,-5.47349 0.1464,-5.93447 -0.42961,-0.35654 -1.23066,-2.22595 -1.78001,-4.15417 -0.54943,-1.92822 -1.57007,-4.97634 -2.26829,-6.77364 -0.69815,-1.79729 -1.67965,-4.63461 -2.18114,-6.30519 -0.89429,-2.97899 -0.94476,-3.01582 -2.62718,-1.91348 -0.94337,0.61812 -1.7153,1.40356 -1.7153,1.74538 0,0.61398 -4.3058,7.22314 -5.16348,7.92564 -0.24379,0.19971 -0.95754,1.36725 -1.58598,2.59449 -1.98863,3.88339 -3.08313,4.34101 -5.23494,2.18921 -1.03342,-1.03342 -1.99641,-1.87898 -2.13997,-1.87898 -1.57464,0 5.57283,31.72707 11.3198,50.24764 1.65706,5.34024 1.53238,5.26464 9.15863,5.55186 l 3.08625,0.11618 z m 17.85316,17.97065 c 0.44928,-0.13499 0.99376,-1.17009 1.21002,-2.30017 0.42265,-2.2086 3.77612,-15.32815 6.1866,-24.20306 2.67429,-9.84625 5.97484,-26.23608 5.45331,-27.07996 -0.21212,-0.3432 -1.17619,0.11865 -2.14245,1.02637 -1.73804,1.63281 -1.77085,1.63534 -3.07355,0.23615 -0.72428,-0.7778 -3.06533,-4.19185 -5.20233,-7.58674 -4.47137,-7.10311 -5.62984,-8.44508 -6.51062,-7.54187 -0.34501,0.35372 -1.99714,4.56454 -3.67148,9.35731 -1.67428,4.79278 -3.71854,10.51144 -4.54275,12.70812 -1.34459,3.58347 -1.52999,6.01827 -1.80332,23.68973 -0.21626,13.9771 -0.0625,20.14852 0.52975,21.25492 0.78136,1.46014 1.21294,1.53137 6.79223,1.12195 3.2768,-0.2405 6.32537,-0.54768 6.77459,-0.68275 z m -33.2108,-2.38352 c -2.0712,-5.44532 -8.27835,-30.18054 -10.75019,-42.83919 -2.63313,-13.48396 -3.15393,-17.03925 -5.21018,-35.56231 -0.45444,-4.09382 -1.11628,-7.44331 -1.47065,-7.44331 -0.35438,0 -0.64435,0.27172 -0.64435,0.60389 0,0.33215 -1.62751,1.65844 -3.61664,2.94734 -3.6444,2.36152 -5.5146,5.43397 -10.93603,17.96643 l -1.29775,3.00012 2.691,2.62776 c 1.48009,1.44523 3.37977,2.62774 4.2215,2.62774 1.92814,0 8.88601,5.13343 10.56805,7.79697 6.14579,9.73245 7.6709,21.51025 4.61211,35.61779 l -0.98965,4.56423 2.27541,2.55775 c 1.2515,1.40682 2.4388,3.60103 2.6385,4.87606 0.34194,2.18341 0.57439,2.34062 3.99398,2.70131 4.58458,0.48356 4.82747,0.35685 3.91489,-2.04258 z M 20.02618,290.32786 c -0.171669,-0.17756 -1.038362,0.44137 -1.925896,1.37538 l -1.613713,1.69817 1.925897,-1.37546 c 1.059202,-0.75646 1.785381,-1.52061 1.613712,-1.69809 z m 95.85059,-0.14197 c 1.65046,-1.65344 7.65747,-6.75317 13.34889,-11.33272 5.69141,-4.57957 10.34803,-8.57755 10.34803,-8.88436 0,-0.3068 -0.50426,-1.98704 -1.12056,-3.73385 -0.6163,-1.74676 -1.31932,-6.20193 -1.56223,-9.90042 l -0.44174,-6.7244 -4.06557,3.87292 c -8.13369,7.74832 -12.90019,9.54784 -22.49256,8.49199 -6.24491,-0.68741 -10.273232,-2.59304 -16.009019,-7.57309 -2.564424,-2.22653 -4.846074,-3.86479 -5.070318,-3.64055 -0.224243,0.22417 -0.308407,2.41134 -0.186991,4.86031 0.129551,2.61439 -0.305793,6.48236 -1.054556,9.36914 -1.541965,5.94523 -2.116008,5.08477 9.88524,14.81911 4.593074,3.72558 9.821554,8.21881 11.618844,9.98503 1.79729,1.76628 3.38791,3.25319 3.53475,3.30424 0.1469,0.0508 1.61741,-1.25984 3.26779,-2.91335 z m 181.39135,1.80767 4.10784,-0.42596 0.28598,-9.89882 c 0.2572,-8.9036 0.52677,-10.5924 2.68089,-16.79752 2.29291,-6.60473 6.92622,-14.13548 10.92121,-17.75091 2.0683,-1.87178 1.92845,-2.27902 -1.5692,-4.56874 -4.10893,-2.68998 -5.68808,-4.32555 -5.25803,-5.4462 0.19635,-0.51164 2.30997,-1.85246 4.69691,-2.97964 2.38702,-1.1271 4.48815,-2.28906 4.66925,-2.58199 0.18105,-0.29302 -1.12964,-3.45284 -2.91269,-7.02186 -1.78305,-3.56901 -3.62007,-7.7356 -4.08236,-9.25906 -0.63969,-2.10838 -1.7474,-3.372 -4.63788,-5.29063 -2.08863,-1.38635 -4.19469,-2.99919 -4.68014,-3.58405 -1.63295,-1.96765 -2.15711,-1.08818 -2.15711,3.61948 0,8.01817 -3.33969,30.12455 -6.86223,45.4233 -3.98787,17.31948 -8.19194,33.52675 -9.49281,36.59586 -0.62582,1.47639 -0.25874,1.47553 14.29037,-0.0334 z m 130.24579,0.40899 c 5.03654,-0.93103 13.20676,-4.88078 17.72643,-8.56947 2.9668,-2.42138 9.49448,-10.4402 9.49448,-11.66337 0,-0.53417 -3.68848,-2.44882 -3.97016,-2.06082 -0.0834,0.11482 -1.1804,1.73164 -2.43792,3.59306 -4.52076,6.69165 -11.32133,11.15096 -20.77878,13.62513 -10.16068,2.65809 -22.18916,1.51959 -29.8955,-2.82956 -2.142,-1.20894 -4.24603,-2.198 -4.67557,-2.198 -0.45713,0 -0.68754,1.11447 -0.55567,2.68766 0.27726,3.30622 2.35891,4.69017 10.10723,6.71926 6.1675,1.61516 18.20027,1.95043 24.98546,0.69611 z m 5.98021,0.28909 c -0.69895,-0.1827 -1.84267,-0.1827 -2.54162,0 -0.69895,0.18264 -0.12708,0.33207 1.27081,0.33207 1.39789,0 1.96975,-0.14943 1.27081,-0.33207 z M 84.913716,292.02726 c -0.241308,-0.24131 -0.867637,-0.26709 -1.391864,-0.0573 -0.579272,0.23179 -0.407242,0.4039 0.438756,0.43876 0.765464,0.0312 1.194417,-0.14015 0.953108,-0.38147 z M 230.73427,276.12477 c 2.30597,-13.46748 0.22454,-25.30606 -5.61575,-31.94093 -2.75984,-3.13535 -8.74536,-6.90732 -10.96085,-6.90732 -0.54282,0 -1.75924,-0.82211 -2.7032,-1.827 -4.06929,-4.33158 -14.75027,-8.3395 -22.22431,-8.3395 -6.84372,0 -15.53861,2.09641 -21.87167,5.27351 -17.26473,8.66105 -24.59354,25.33481 -20.18455,45.92202 0.59881,2.79579 1.09435,5.32833 1.10126,5.62788 0.008,0.29955 0.46569,0.54464 1.01947,0.54464 0.6444,0 1.19289,-1.24156 1.5238,-3.44935 0.73504,-4.9038 6.2601,-10.42435 12.14367,-12.1337 4.42838,-1.28664 12.62438,-5.13583 13.31504,-6.25334 0.22955,-0.3713 0.929,-0.67513 1.55446,-0.67513 0.87628,0 1.0372,0.49991 0.70149,2.17854 -0.23965,1.19819 -0.28568,2.17853 -0.10232,2.17853 1.59403,0 9.93796,-4.94185 11.84882,-7.01772 2.16082,-2.34737 2.53145,-2.50742 3.51885,-1.52002 0.98738,0.98745 0.90852,1.51131 -0.74877,4.97425 -1.01883,2.12878 -1.75314,3.96979 -1.63194,4.09105 0.12127,0.12121 2.68766,-1.26245 5.70304,-3.07484 5.04636,-3.0331 9.27343,-7.13826 11.3039,-10.97786 1.1979,-2.26531 3.69509,-2.72519 4.07081,-0.7497 2.22487,11.69822 2.89694,13.17896 9.44589,20.81045 2.61607,3.04848 4.48531,6.07846 5.27817,8.55553 1.5092,4.7155 1.90294,4.12286 3.51469,-5.28999 z m 198.91691,6.91292 c 6.68717,-2.44707 8.37771,-3.5097 13.60023,-8.54806 l 4.85566,-4.68442 -4.49258,-3.01161 c -5.44088,-3.64737 -7.5818,-7.41362 -8.24377,-14.50249 -0.24902,-2.66645 -0.53259,-4.84812 -0.63025,-4.84812 -0.0977,0 -2.37309,1.28295 -5.05639,2.85105 -9.3756,5.4788 -16.38111,5.7127 -26.12075,0.87222 -3.18835,-1.58453 -6.05022,-2.7244 -6.35987,-2.53305 -0.30956,0.19134 -0.56286,1.2496 -0.56286,2.35172 0,3.37651 -2.0468,9.12958 -4.40761,12.38852 -1.92647,2.65947 -2.13721,3.36866 -1.49178,5.0205 0.41334,1.05804 0.95848,3.42182 1.2114,5.25289 0.60556,4.38457 0.70912,4.51079 5.77726,7.03905 7.80133,3.89166 10.69587,4.48553 20.33298,4.1716 5.18185,-0.16884 8.501,-0.69001 11.58833,-1.8198 z m 19.63731,-0.73817 c 0.72291,-0.79879 1.15099,-1.45235 0.95129,-1.45235 -0.1997,0 -0.95456,0.65356 -1.67747,1.45235 -0.72291,0.79881 -1.15099,1.45237 -0.95129,1.45237 0.19969,0 0.95455,-0.65356 1.67747,-1.45237 z M 171.04776,267.44984 c 0.26985,-0.70329 0.0545,-0.91831 -0.64848,-0.64846 -0.57877,0.22213 -1.05231,0.6956 -1.05231,1.05229 0,1.04396 1.26,0.74484 1.70079,-0.40383 z m -28.24359,-10.15609 c 0.6415,-2.76609 2.15282,-6.97044 3.3585,-9.34301 1.20567,-2.37257 2.09531,-4.39149 1.97708,-4.48647 -0.11828,-0.0951 -1.44582,-0.36272 -2.95009,-0.59488 -4.08693,-0.63083 -5.00678,1.21308 -4.98877,9.99961 0.0124,6.2155 0.52539,10.3656 1.19733,9.69361 0.13179,-0.13181 0.76452,-2.50279 1.40595,-5.26886 z m 247.66791,2.48984 c 1.54778,-1.71029 1.45985,-1.84644 -1.61879,-2.50589 l -2.3409,-0.50136 0.7781,2.23198 c 0.91316,2.61961 1.40428,2.73922 3.18159,0.77527 z m -273.62855,-1.4021 c 5.36579,-0.77622 8.68218,-2.86768 15.88049,-10.01508 10.70298,-10.62711 15.48727,-25.33373 15.77403,-48.48806 l 0.15287,-12.34502 -2.54163,-4.14828 c -1.39789,-2.28158 -2.71503,-4.16056 -2.92707,-4.17553 -0.21197,-0.0153 -0.75544,0.95312 -1.20771,2.15131 -1.24161,3.28944 -3.25698,2.81873 -6.34715,-1.48257 -1.44663,-2.01361 -2.94778,-3.4648 -3.33593,-3.22495 -0.38813,0.23992 -0.70569,2.0508 -0.70569,4.02418 0,2.05545 -0.33056,3.58805 -0.7739,3.58805 -1.33731,0 -3.76354,-1.56085 -5.70586,-3.67076 -2.42377,-2.63282 -7.31632,-6.49573 -8.22716,-6.49573 -0.39039,0 -0.23259,0.73526 0.35075,1.6339 1.47138,2.26655 1.97136,5.48308 0.98019,6.30569 -0.90604,0.75196 -9.92583,-3.03317 -15.75145,-6.61003 -3.949966,-2.42529 -4.587768,-2.5414 -3.576131,-0.65109 0.413487,0.77251 0.75174,2.07963 0.75174,2.90471 0,1.18614 -0.46076,1.50007 -2.201844,1.50007 -2.734567,0 -7.068977,-1.76615 -9.16349,-3.73379 -1.52018,-1.42818 -1.608992,-1.43392 -2.284047,-0.14691 -0.386254,0.73649 -0.928782,2.4828 -1.205527,3.8807 -0.923191,4.66271 -1.204875,5.08512 -4.343414,6.5149 -3.865299,1.76083 -4.12469,2.79063 -3.610121,14.33432 0.79139,17.75568 3.851284,31.16609 9.079473,39.79257 5.194712,8.57122 12.877526,15.50694 19.845711,17.91581 4.26455,1.47429 5.03016,1.51859 11.09287,0.64159 z m -10.05138,-15.0549 c -0.70323,-0.18699 -1.05936,-0.82305 -0.86765,-1.54966 0.27726,-1.05108 1.38867,-1.23901 7.54688,-1.27575 5.38911,-0.032 7.22169,0.19164 7.22169,0.88216 0,1.62438 -2.66986,2.43117 -7.75869,2.34453 -2.72216,-0.0465 -5.48621,-0.22693 -6.14223,-0.40128 z m -7.400265,-7.2604 c -0.266291,-0.26622 -0.484143,-0.88732 -0.484143,-1.38017 0,-0.6805 3.408018,-0.89342 14.160458,-0.88478 11.00422,0.009 14.16048,0.21815 14.16048,0.93938 0,0.51051 -0.51689,1.12653 -1.14867,1.36893 -1.56753,0.60156 -26.083077,0.5617 -26.688125,-0.0436 z m 17.488755,-0.74258 c -0.69894,-0.18271 -1.84268,-0.18271 -2.54162,0 -0.69894,0.18262 -0.12708,0.33207 1.27081,0.33207 1.39789,0 1.96976,-0.14945 1.27081,-0.33207 z m -12.69432,-0.70193 c -0.49161,-0.19897 -1.47195,-0.21103 -2.17853,-0.0269 -0.7065,0.18414 -0.30426,0.34688 0.89393,0.3617 1.19819,0.0146 1.7763,-0.13587 1.2846,-0.33477 z m 4.89132,-9.97696 c -1.90192,-0.50708 -3.35646,-1.34844 -3.485,-2.01587 -0.35474,-1.84187 1.56557,-2.02937 5.00293,-0.48864 2.95271,1.32353 3.3471,1.34641 5.12631,0.29708 2.59289,-1.52912 5.14925,-1.50007 4.84288,0.0552 -0.13719,0.6964 -1.59287,1.59723 -3.50258,2.1675 -3.78026,1.12884 -3.69348,1.12898 -7.98454,-0.0153 z m 10.16307,-1.82379 c 0,-0.362 -0.65355,-0.48726 -1.45235,-0.27834 -0.79879,0.20884 -1.45235,0.50505 -1.45235,0.65812 0,0.15315 0.65356,0.27843 1.45235,0.27843 0.7988,0 1.45235,-0.29622 1.45235,-0.65821 z m -3.76791,-11.87714 c -0.4893,-5.89999 0.1708,-13.71663 1.13138,-13.39791 0.532,0.17653 0.89313,3.25567 1.02566,8.74579 0.16659,6.89826 0.0145,8.47334 -0.81775,8.47334 -0.70941,0 -1.11941,-1.16989 -1.33929,-3.82122 z m -24.281132,-8.19798 c -0.848829,-1.29549 -1.443569,-1.62315 -1.977455,-1.08926 -1.148958,1.14896 -3.37767,0.91695 -3.37767,-0.35162 0,-1.35272 5.79911,-3.96819 8.798441,-3.96819 3.110002,0 9.418526,3.34912 8.892186,4.72073 -0.52212,1.36071 -0.82035,1.36064 -2.18158,-5.8e-4 -1.22528,-1.22528 -2.437848,-1.43166 -2.437848,-0.41494 0,1.37597 -2.348096,2.95657 -4.392214,2.95657 -1.460561,0 -2.483527,-0.5702 -3.32386,-1.85271 z m 37.242972,0.77643 c -0.59199,-0.59198 -1.22615,-1.49062 -1.40936,-1.99698 -0.26725,-0.73889 -0.63657,-0.7415 -1.87043,-0.0132 -2.00308,1.18273 -3.00943,1.14969 -3.00943,-0.0989 0,-1.18927 3.6444,-3.03122 7.3564,-3.71796 3.75978,-0.69561 10.79805,1.57885 10.79805,3.4895 0,1.396 -0.70752,1.43449 -3.68311,0.20007 -0.78171,-0.32433 -1.40616,0.10739 -1.98137,1.36999 -0.97279,2.13497 -4.40797,2.56 -6.20075,0.76722 z m -46.592074,-9.09021 c -0.686093,-1.11018 0.175952,-2.04811 3.498578,-3.80641 6.64184,-3.51477 24.819736,-0.62066 20.875506,3.32357 -0.4848,0.48479 -1.66898,0.44435 -3.5574,-0.12142 -3.965731,-1.18816 -13.144544,-1.05658 -16.822707,0.24117 -3.664292,1.29282 -3.432424,1.27176 -3.993977,0.36309 z m 17.256669,-4.14205 c -0.893127,-0.17239 -2.527025,-0.17683 -3.630889,-0.0102 -1.10379,0.16694 -0.373038,0.30797 1.623952,0.31341 1.996988,0.008 2.900131,-0.13115 2.006937,-0.30346 z m 40.111375,3.29097 c -3.8767,-1.2743 -4.87753,-1.3369 -9.07722,-0.5678 -8.87776,1.62569 -10.89268,1.6954 -10.89268,0.37695 0,-1.71159 6.03723,-4.12214 11.48138,-4.58436 6.74684,-0.57281 15.42925,2.57699 14.4118,5.22834 -0.51602,1.34466 -0.43534,1.35084 -5.92328,-0.45313 z m -2.60212,-3.23229 c 0.59722,-0.54021 -6.87698,-0.11569 -8.65364,0.49147 -1.14642,0.39184 0.0581,0.46599 3.2678,0.2013 2.79579,-0.23049 5.21941,-0.54231 5.38584,-0.69277 z m 173.54624,65.49571 c -0.19106,-0.19106 -0.78,0.37303 -1.30872,1.25352 -0.91855,1.52955 -0.90308,1.54503 0.34734,0.34733 0.71978,-0.68943 1.15244,-1.4098 0.96138,-1.60085 z M 453.812,254.9922 c -0.24131,-0.24132 -0.86765,-0.26709 -1.39187,-0.0573 -0.57927,0.23179 -0.40724,0.4039 0.43876,0.43875 0.76546,0.0312 1.19441,-0.14015 0.95311,-0.38146 z m 8.1846,-1.08295 c 1.20822,-0.70091 -2.80574,-0.0792 -5.80942,0.89973 -1.19057,0.38808 -0.69067,0.44383 1.45235,0.16201 1.79729,-0.23636 3.75797,-0.71412 4.35707,-1.06174 z m -68.95863,-3.92463 c 0.26229,-5.98254 0.0882,-6.59965 -2.87269,-10.18269 -1.5644,-1.89321 -3.85629,-5.44168 -5.09299,-7.88548 -2.68793,-5.31155 -6.58614,-20.23698 -6.58614,-25.21689 0,-3.87517 -1.09448,-4.73417 -1.98311,-1.55641 -0.62161,2.22275 -0.7619,14.81526 -0.19541,17.54228 0.51537,2.48091 -1.02348,2.67516 -2.12197,0.26787 -1.39818,-3.06403 -1.79824,-11.60816 -0.81608,-17.43087 1.04845,-6.21616 4.69715,-13.92213 8.57312,-18.10644 1.53971,-1.66222 6.04848,-5.0534 10.0195,-7.53606 6.77771,-4.23738 15.23674,-10.80436 16.49484,-12.80541 0.30834,-0.49046 1.05143,-1.38258 1.65134,-1.98247 1.24944,-1.24939 4.66895,-8.33172 4.67955,-9.69208 0.008,-1.03421 0.17182,-1.07757 1.76316,-0.46692 0.63178,0.24239 1.15585,1.14104 1.16464,1.99698 0.0573,5.57197 6.97225,13.48244 18.44565,21.10055 4.42409,2.93753 9.02616,6.27736 10.22669,7.42183 5.16725,4.92595 9.44429,14.0861 10.2712,21.99773 0.49532,4.73874 -0.84339,13.37816 -2.25451,14.54919 -0.7107,0.58988 -0.82718,-0.78521 -0.55145,-6.51105 0.24705,-5.13139 0.1082,-7.25888 -0.47376,-7.25888 -0.45277,0 -0.82326,1.04062 -0.82326,2.31244 0,2.36821 -1.36457,8.29964 -3.39401,14.75274 -1.47225,4.68144 -5.62831,12.40057 -8.34066,15.49141 -1.98422,2.26094 -2.10998,2.76259 -1.91173,7.62486 l 0.21211,5.20466 5.35585,0.21517 5.35592,0.21524 -0.42647,-2.03069 c -1.85408,-8.82785 -2.09241,-11.28748 -1.15035,-11.86974 1.33203,-0.8232 2.12081,-0.17551 2.12081,1.74145 0,2.01724 2.07353,10.10288 2.76063,10.76486 0.47238,0.45517 8.15577,-0.64477 8.77506,-1.25622 0.15395,-0.15199 -0.22293,-1.04374 -0.83743,-1.98159 -3.44752,-5.26159 -5.9829,-23.04568 -3.36205,-23.58298 0.95789,-0.19637 1.24771,0.76234 1.6389,5.42193 0.26135,3.11327 0.81717,6.96761 1.23509,8.56519 0.91773,3.5086 3.63205,10.52958 4.07066,10.52958 0.87184,0 4.59975,-2.29813 4.59975,-2.83557 0,-0.34087 -0.80214,-2.3749 -1.78261,-4.52004 -3.24595,-7.10193 -4.14257,-15.14442 -3.21922,-28.87622 1.79118,-26.63867 -1.05826,-43.12052 -9.86876,-57.082 -3.44245,-5.45506 -5.67326,-7.89406 -9.81944,-10.73575 -1.79729,-1.23173 -3.4312,-2.46065 -3.63089,-2.73086 -0.77273,-1.04549 -4.9245,-2.739 -9.48672,-3.86966 -5.24713,-1.30036 -9.80006,-1.47414 -13.86636,-0.52916 -1.58452,0.36824 -4.17603,0.31712 -6.42051,-0.12672 -4.71035,-0.93132 -14.03221,0.87861 -18.74256,3.63903 -10.86966,6.37003 -19.84144,19.57266 -23.32404,34.323 -2.19733,9.30647 -2.71503,17.40394 -2.02684,31.70333 0.59315,12.32628 0.34051,24.086 -0.62342,29.01819 -0.3853,1.97122 -0.21131,2.32225 1.3446,2.71271 0.98295,0.24677 3.50598,1.63093 5.60681,3.07603 2.73072,1.8784 3.97445,2.37685 4.36281,1.74848 0.74397,-1.20378 1.57406,-8.65197 1.05738,-9.48802 -0.22998,-0.37209 0.28074,-0.6765 1.13487,-0.6765 1.50146,0 1.54575,0.25162 1.33211,7.56902 -0.25134,8.60986 0.60294,10.52406 4.75646,10.65782 1.2361,0.04 3.06447,0.31713 4.06296,0.61623 2.42776,0.72727 2.74641,0.29738 2.93297,-3.95643 z m 58.42906,-64.71384 c -2.3964,-2.2062 -7.46148,-6.24512 -11.25576,-8.97548 -7.98432,-5.74544 -12.29173,-10.01806 -14.44761,-14.33082 -1.71689,-3.43461 -2.01782,-6.16227 -0.62058,-5.62563 0.8327,0.31988 5.26479,8.03298 5.26479,9.16226 0,0.2689 0.29744,0.76125 0.66104,1.09413 0.39127,0.35815 0.41994,0.18954 0.0705,-0.41326 -0.32489,-0.56011 2.21069,1.07379 5.63463,3.63087 3.42399,2.5571 7.46481,5.46624 8.97955,6.46473 4.81833,3.17601 10.43379,9.22558 10.43379,11.24037 0,1.00691 -0.0816,1.8158 -0.18155,1.7975 -0.0998,-0.0181 -2.14221,-1.83846 -4.5386,-4.04467 z m -26.20653,63.2604 c 5.5119,-2.60756 12.88856,-9.60305 16.39659,-15.54935 4.35743,-7.38596 7.3272,-18.25219 7.80052,-28.54162 0.34146,-7.42351 0.2228,-8.76722 -0.93009,-10.52958 -2.83238,-4.33005 -8.83118,-9.85256 -14.11848,-12.99771 -7.05308,-4.19542 -14.71803,-11.27769 -16.99431,-15.70236 l -1.77086,-3.44222 -1.63084,3.36881 c -2.92425,6.04078 -7.19846,9.94311 -18.46169,16.85552 -12.09231,7.42118 -14.16628,9.61322 -14.14791,14.95354 0.04,11.66051 2.9774,25.27271 7.31711,33.91002 1.1356,2.26015 3.92928,6.12328 6.20818,8.5848 10.28013,11.10376 19.9497,14.00165 30.33178,9.09015 z m -13.11259,-9.58853 c -2.19618,-0.28313 -5.26631,-2.70893 -4.4551,-3.52007 0.21597,-0.21596 2.47416,-0.0116 5.01825,0.45473 3.86581,0.70817 5.25186,0.6606 8.43804,-0.28989 3.44267,-1.02703 3.81243,-1.02797 3.81243,-0.01 0,0.72095 -0.40658,0.97177 -1.12695,0.69532 -0.61986,-0.23783 -0.93749,-0.12579 -0.70585,0.24899 0.94476,1.52861 -6.00912,3.06143 -10.98082,2.42043 z m -3.16228,-5.7652 c -1.79729,-0.16092 -3.99754,-0.66379 -4.88936,-1.11758 -1.52425,-0.77549 -1.38308,-0.92196 2.35085,-2.43952 3.17856,-1.29188 5.09923,-1.56993 9.60959,-1.39129 5.80862,0.23005 13.26189,1.72394 13.26189,2.65818 0,1.90273 -10.92048,3.1328 -20.33297,2.29021 z m 11.25575,-1.71036 c 1.49709,-0.38096 0.24777,-0.55131 -3.99398,-0.54463 -4.47943,0.008 -5.47538,0.15642 -3.63089,0.54463 3.25938,0.68609 4.92872,0.68609 7.62487,0 z m -7.80416,-10.43431 c -1.89597,-0.45182 -3.44818,-1.06654 -3.44934,-1.36607 v -1.17925 c 0,-0.34907 2.85932,-0.51587 6.35405,-0.37071 3.49472,0.14516 6.62638,0.26738 6.95918,0.27152 0.33288,0.008 0.48479,0.36875 0.33768,0.81005 -0.23543,0.70636 -5.43516,2.92918 -6.38914,2.73123 -0.19969,-0.0414 -1.91428,-0.44494 -3.81018,-0.89677 z m 4.73169,-0.93465 c -0.49161,-0.19897 -1.47195,-0.21103 -2.17853,-0.0269 -0.70649,0.18416 -0.30426,0.3469 0.89394,0.36172 1.19818,0.0145 1.7763,-0.13587 1.28459,-0.33477 z m 3.23891,-0.68864 c -0.2413,-0.24131 -0.86764,-0.26709 -1.39186,-0.0573 -0.57928,0.23179 -0.40724,0.40391 0.43876,0.43876 0.76545,0.0312 1.19441,-0.14016 0.9531,-0.38147 z m -3.41405,-9.34032 c -1.15782,-1.39506 -0.0705,-13.56914 1.25062,-14.00579 0.68572,-0.22664 0.90772,1.47995 0.90772,6.97937 0,7.28342 -0.52545,8.99393 -2.15834,7.02642 z m -21.81662,-8.55691 c -0.008,-0.49924 -0.31168,-1.38279 -0.67899,-1.96344 -0.57223,-0.9046 -0.93415,-0.91317 -2.52942,-0.0595 -2.06358,1.10437 -2.84153,0.80039 -2.20395,-0.86109 1.15608,-3.01269 10.56515,-3.83539 14.20702,-1.24214 1.15999,0.82596 2.10911,1.96969 2.10911,2.54162 0,1.4687 -0.64688,1.2942 -2.20257,-0.59408 l -1.34612,-1.63391 -0.8383,2.36009 c -0.75174,2.11623 -1.13109,2.36008 -3.672,2.36008 -1.77687,0 -2.83782,-0.33855 -2.84478,-0.90773 z m 34.62559,0.42357 c -0.26628,-0.26621 -0.48414,-1.08316 -0.48414,-1.81543 0,-1.65657 -1.28309,-1.70958 -3.03353,-0.12549 -1.83411,1.65982 -2.42427,0.76706 -0.96509,-1.45991 0.66038,-1.00786 2.23873,-2.06706 3.50736,-2.35383 4.70614,-1.06356 12.7697,0.22708 11.74788,1.88037 -0.24733,0.40019 0.0595,0.72755 0.68246,0.72755 0.62263,0 1.13212,0.36491 1.13212,0.81085 0,0.78246 -1.23305,0.66322 -4.9017,-0.47383 -1.32041,-0.40928 -1.6339,-0.22642 -1.6339,0.95296 0,0.80265 -0.51689,1.65772 -1.14866,1.90012 -1.5265,0.58581 -4.29826,0.56126 -4.9028,-0.0435 z m -45.07675,-9.57334 c -1.28483,-2.07904 8.43811,-4.91085 14.39458,-4.19251 4.5466,0.54833 9.14266,1.79896 9.12777,2.48374 -0.0457,2.11289 -1.27568,2.3043 -7.18647,1.11875 -6.03694,-1.21082 -7.10253,-1.143 -14.70816,0.93568 -0.6654,0.18184 -1.39781,0.0261 -1.62772,-0.34566 z m 38.5832,0.17509 c -1.31954,-1.31954 -0.20521,-2.36131 3.69698,-3.45618 7.25522,-2.03576 15.28785,-1.173 16.88631,1.81371 1.16348,2.17403 0.50055,2.33996 -3.57098,0.89385 -3.21289,-1.14112 -4.25344,-1.19238 -8.59983,-0.42381 -2.71961,0.48096 -5.60653,1.05987 -6.41549,1.28651 -0.80897,0.22664 -1.70761,0.17536 -1.99699,-0.11408 z M 76.033144,242.35975 c -0.246828,-0.39939 -1.001399,-0.70322 -1.676744,-0.67513 -1.001036,0.0414 -0.959572,0.16637 0.224388,0.67513 1.943179,0.83504 1.968451,0.83504 1.452356,0 z m 250.531316,-2.17852 5.08324,-2.54163 h 14.60284 14.60294 l -1.04112,-1.58895 c -2.55513,-3.89957 -6.94895,-6.27491 -23.8076,-12.87041 -6.78976,-2.65628 -14.20301,-5.60289 -16.47399,-6.54801 -2.27091,-0.94506 -4.2981,-1.54909 -4.50492,-1.34228 -0.20682,0.20675 0.58538,2.2805 1.7604,4.60825 1.27307,2.52195 1.94325,4.73578 1.65838,5.47807 -0.29287,0.7633 -0.19012,1.06785 0.26534,0.78638 0.86162,-0.53251 2.12124,1.93483 2.76761,5.42128 0.43847,2.36472 0.35009,2.46974 -3.56612,4.24022 -2.20859,0.9985 -4.01401,1.97883 -4.01198,2.17855 0.008,0.51521 6.77966,5.11083 7.21864,4.89704 0.1997,-0.0973 2.65055,-1.32063 5.44634,-2.71851 z m -60.39242,-1.27082 c 0.65457,-1.49774 2.04527,-5.42266 3.09039,-8.72197 1.99053,-6.28406 1.65191,-5.81117 13.03721,-18.20572 7.8128,-8.50534 8.8455,-10.3892 9.42193,-17.1876 l 0.49258,-5.80943 -3.1578,3.36242 c -5.05658,5.38425 -10.91632,9.85352 -14.05052,10.71643 -4.55429,1.25389 -16.92603,1.0141 -21.11136,-0.4092 -3.7409,-1.27212 -11.87039,-7.27935 -13.76585,-10.17223 -1.72795,-2.63727 -2.3216,-2.02451 -2.66718,2.75287 -0.45684,6.31571 1.0642,8.86953 11.52363,19.34871 l 8.88022,8.89685 2.59179,8.16833 c 1.42549,4.4925 2.7393,8.57673 2.9196,9.07598 0.58334,1.61531 1.57843,0.96902 2.79536,-1.81544 z m -22.72146,-4.70511 c 1.28513,-2.08857 3.80016,-5.59419 5.58904,-7.79022 l 3.25254,-3.99276 -5.87427,-5.46259 c -5.02406,-4.67202 -8.8662,-9.10677 -13.01361,-15.02099 -0.77723,-1.10836 -0.87004,0.14103 -0.54848,7.37993 0.47448,10.67946 1.32687,16.07358 3.0628,19.38277 0.7293,1.39019 2.1264,4.0517 3.10462,5.91443 0.97824,1.86279 1.84885,3.38683 1.93469,3.38683 0.0859,0 1.20755,-1.70885 2.49267,-3.7974 z m 47.98822,-2.61077 c 1.81646,-3.60169 2.87887,-6.97268 3.41848,-10.84619 1.24061,-8.90577 1.50886,-13.40023 0.9765,-16.36115 l -0.49497,-2.75293 -3.26779,4.56351 c -1.7973,2.50996 -5.80035,7.11807 -8.89568,10.24028 -3.09534,3.12219 -5.62788,6.03801 -5.62788,6.47954 0,0.44151 0.51036,1.32039 1.13407,1.95297 1.83658,1.86257 8.30624,11.08046 8.30624,11.83452 0,1.9535 2.11071,-0.46998 4.45103,-5.11055 z m -119.55536,-3.74997 c 0.25446,-0.41167 -0.0371,-0.53346 -0.68334,-0.28547 -1.25803,0.48277 -1.48814,1.00329 -0.44361,1.00329 0.3758,0 0.88296,-0.323 1.12695,-0.71782 z m 39.04999,-5.01731 c 1.49071,-3.15438 2.71039,-6.26714 2.71039,-6.91735 0,-1.08201 -0.20006,-1.0778 -2.36007,0.0494 -2.67618,1.39658 -9.55135,3.98751 -16.52056,6.22596 l -4.72014,1.51603 5.48612,0.94774 c 3.01734,0.52124 6.93871,1.59185 8.71414,2.37917 1.77536,0.7874 3.39712,1.45461 3.60387,1.48285 0.20674,0.0283 1.59556,-2.52957 3.08625,-5.68386 z M 75.624451,221.4661 c -0.376741,-1.08948 -1.114973,-5.08535 -1.640507,-8.87964 -0.708315,-5.11402 -1.461506,-7.69711 -2.91161,-9.98494 -1.075832,-1.69744 -2.272574,-3.08625 -2.659336,-3.08625 -1.112867,0 -1.68299,3.43155 -1.219833,7.34194 0.467513,3.94766 5.086293,15.01584 6.850906,16.41714 1.632012,1.29602 2.364216,0.4583 1.58038,-1.80825 z m 77.681189,-1.15179 c 0.3771,-1.25483 1.51866,-4.24218 2.53682,-6.63857 2.31586,-5.45076 2.7388,-14.43126 0.66076,-14.03107 -0.6996,0.13471 -1.50588,1.3255 -1.88,2.7764 -0.36026,1.39731 -1.11614,2.80189 -1.67972,3.12126 -0.61414,0.34798 -1.02479,1.74246 -1.02479,3.47991 0,1.59461 -0.5049,5.34373 -1.12202,8.33137 -0.6171,2.98764 -0.91483,5.7673 -0.66153,6.17716 0.70017,1.13283 2.37365,-0.56504 3.17048,-3.21646 z M 258.4702,201.25505 c -0.24132,-0.24131 -0.86765,-0.2671 -1.39187,-0.0573 -0.57928,0.2318 -0.40725,0.40391 0.43875,0.43876 0.76547,0.0312 1.19442,-0.14015 0.95312,-0.38146 z m 18.35108,-2.79114 c 8.47573,-5.59317 18.14217,-18.25168 19.49664,-25.53132 5.41786,-29.11936 5.55446,-32.77879 1.66651,-44.65783 -1.27023,-3.8809 -2.29022,-8.55081 -2.29989,-10.52957 -0.0522,-10.72637 -5.34756,-16.07147 -13.63231,-13.76042 -10.6486,2.97044 -18.76632,3.07828 -31.47392,0.41836 -5.0359,-1.05412 -7.01822,-1.17424 -9.48679,-0.57484 -6.14143,1.49121 -9.28338,6.25006 -9.31032,14.10172 -0.016,4.55625 -1.57195,12.09681 -3.54658,17.18426 -1.18324,3.0485 -0.97424,9.09516 0.71985,20.83034 2.83341,19.62734 5.19211,25.29792 14.5317,34.93619 8.46012,8.73068 12.33144,10.26532 24.25789,9.61611 5.2189,-0.28415 7.04763,-0.69371 9.07722,-2.033 z m -18.33599,-13.52267 c -3.01304,-1.77324 -1.30123,-2.49042 6.35442,-2.6623 7.29315,-0.16369 8.71609,0.218 6.71679,1.80157 -1.35425,1.07271 -11.56823,1.7453 -13.07121,0.86073 z m -7.83197,-7.60518 c -1.6925,-2.0394 0.12956,-2.44388 7.9348,-1.7615 4.91071,0.4294 9.4385,0.39657 12.96438,-0.0938 5.47422,-0.7614 7.44732,-0.56533 7.44732,0.7399 0,1.44952 -5.72876,2.22748 -16.43167,2.2314 -9.01636,0 -11.15183,-0.19664 -11.91483,-1.11599 z m 25.97131,-1.49724 c -0.24131,-0.2413 -0.86763,-0.26708 -1.39187,-0.0573 -0.57926,0.23179 -0.40724,0.4039 0.43876,0.43876 0.76547,0.0312 1.19442,-0.14017 0.95311,-0.38147 z m -16.00503,-9.31933 c -4.02738,-1.07502 -5.52454,-2.21032 -4.39911,-3.33576 0.51443,-0.51443 2.0948,-0.39526 5.04694,0.38045 3.9382,1.03473 4.52284,1.02884 6.9822,-0.0697 3.01923,-1.34909 5.16879,-0.9189 4.80663,0.96183 -0.16345,0.84869 -1.26136,1.42803 -3.39697,1.79264 -1.73549,0.29628 -3.69334,0.6882 -4.35076,0.87105 -0.65748,0.18278 -2.76746,-0.0873 -4.68893,-0.60018 z m 5.49056,-0.88934 c -0.49925,-0.20144 -1.3162,-0.20144 -1.81545,0 -0.49924,0.20145 -0.0907,0.36629 0.90773,0.36629 0.99849,0 1.40696,-0.16484 0.90772,-0.36629 z m 0.98542,-9.38186 c -0.5678,-1.47973 -0.55545,-8.05781 0.0269,-14.22167 0.34632,-3.66618 0.69743,-4.74863 1.44721,-4.46092 1.46637,0.56265 1.44537,19.83126 -0.0218,19.83126 -0.5564,0 -1.20996,-0.51689 -1.45235,-1.14867 z M 243.59865,143.5945 c -0.89864,-0.37085 -1.6339,-1.17502 -1.6339,-1.78697 0,-1.25223 -1.13146,-1.49317 -1.81545,-0.38648 -0.68078,1.10154 -3.26779,0.86808 -3.26779,-0.29483 0,-1.34996 5.95618,-3.33605 10.00455,-3.33605 3.607,0 8.1499,1.84376 8.1499,3.30767 0,1.27422 -1.23023,1.99625 -1.80811,1.06123 -0.70759,-1.14482 -3.27514,-0.86945 -3.27514,0.35125 0,0.59909 -0.40847,1.0937 -0.90772,1.09922 -0.49925,0.008 -1.56129,0.15598 -2.36008,0.33462 -0.7988,0.17856 -2.18762,0.021 -3.08626,-0.34966 z m 35.61154,-1.44728 c -0.45734,-1.74892 -0.85457,-1.79205 -2.95475,-0.32103 -2.00584,1.40493 -3.35857,0.77396 -2.35615,-1.099 1.51698,-2.83456 9.34619,-3.83618 14.90393,-1.90672 1.59759,0.55458 3.01189,1.53797 3.14289,2.1852 0.20043,0.99023 -0.23142,1.10177 -2.72317,0.70332 -2.44547,-0.39105 -2.96135,-0.2676 -2.96135,0.70852 0,0.92044 -0.73837,1.18207 -3.33578,1.18207 -2.72505,0 -3.40532,-0.26592 -3.71562,-1.45236 z m -26.35277,-7.31049 c -0.65364,-0.45162 -4.69322,-0.66504 -10.10128,-0.53352 -10.1073,0.24582 -11.87213,-0.56345 -6.09212,-2.79331 4.10922,-1.58533 11.03805,-1.7342 17.10112,-0.36746 4.56526,1.02915 5.50007,2.54918 2.3128,3.76103 -2.22348,0.84534 -1.89059,0.85224 -3.22052,-0.0668 z m 18.45697,-0.61697 c -2.40786,-2.40814 8.76976,-4.94548 16.10604,-3.65608 5.38504,0.94643 8.41197,2.11492 8.07756,3.11813 -0.24661,0.73968 -23.46541,1.25623 -24.1836,0.53795 z m -116.91854,59.30455 c 0.20042,-1.29805 0.73888,-4.48415 1.19652,-7.08024 0.45764,-2.59608 1.11433,-6.77589 1.45933,-9.28839 0.72923,-5.3101 1.06595,-6.04492 2.51511,-5.48882 1.3133,0.50397 1.31664,0.63569 -0.10421,-4.15315 -1.38401,-4.66476 -4.13165,-10.26968 -6.66194,-13.58983 l -1.81668,-2.38383 1.61415,-1.71813 1.61407,-1.71822 -3.05496,-0.51609 c -2.28223,-0.3856 -4.17966,-1.52773 -7.50083,-4.51494 -2.44519,-2.19937 -4.95275,-4.57049 -5.57233,-5.26914 -0.73292,-0.82647 -2.63594,-1.40828 -5.44633,-1.66512 -6.12894,-0.56026 -18.05626,-3.24878 -18.35226,-4.13675 -0.36068,-1.08193 -5.87012,-0.91643 -9.90346,0.29744 -1.90883,0.57447 -5.19638,2.19036 -7.305636,3.5908 l -3.83509,2.54635 -0.92406,-2.23089 -0.923989,-2.23089 -2.45528,2.75919 c -2.15653,2.42347 -2.936227,2.79896 -6.409244,3.08697 l -3.953965,0.32794 v 3.16403 c 0,2.76935 -0.226495,3.22089 -1.815444,3.6197 -1.463466,0.36731 -1.815444,0.90628 -1.815444,2.78004 0,1.91535 -0.702795,2.93114 -3.993978,5.77253 -3.924991,3.38863 -5.053979,5.54298 -2.90471,5.54298 1.358751,0 1.345897,0.20885 -0.308917,5.00127 -0.975112,2.82417 -1.251059,5.14633 -0.992322,8.35103 0.392789,4.86489 5.119989,20.97209 5.99605,20.43065 0.300346,-0.18561 0.720659,-2.26285 0.934009,-4.61602 0.213424,-2.35318 1.065812,-5.81088 1.894307,-7.68383 1.390631,-3.1437 1.627945,-3.3402 3.089087,-2.55826 1.32513,0.70919 1.713054,0.62677 2.383897,-0.50628 1.093115,-1.84631 1.702161,-4.45533 1.804625,-7.73024 0.123305,-3.94067 1.659896,-4.15097 5.743121,-0.78594 6.277298,5.17329 5.747115,5.16385 5.668543,0.10043 -0.08627,-5.56034 1.218962,-6.25747 4.651967,-2.48484 1.261013,1.38577 3.818823,3.2092 5.684083,4.05208 1.86526,0.8428 4.61675,2.34708 6.11449,3.34281 1.49774,0.99574 2.72316,1.68328 2.72316,1.52802 0,-0.15532 -0.45567,-1.57391 -1.01265,-3.15249 -1.10161,-3.12234 -0.78376,-6.75278 0.59119,-6.75278 0.85318,0 3.4741,1.76809 11.43046,7.71099 2.26059,1.68857 4.2395,2.94079 4.39752,2.78285 0.15801,-0.15802 0.0697,-2.17527 -0.19563,-4.48284 -0.26563,-2.30757 -0.38088,-4.3164 -0.2562,-4.46404 0.41698,-0.49358 7.47201,5.03851 8.86605,6.95214 1.62801,2.23496 2.79194,1.76847 3.62683,-1.45351 0.87198,-3.36511 2.41955,-3.18909 5.0743,0.57731 1.2841,1.82176 2.33466,3.48631 2.33466,3.69908 0,0.21269 0.84963,2.1828 1.88814,4.37797 1.04824,2.21578 2.0622,5.91058 2.2794,8.30609 0.42809,4.72139 1.36725,5.66746 1.94049,1.95481 z M 70.995359,172.4101 c -1.308136,-0.95971 -1.341832,-1.32294 -0.48044,-5.17226 1.265511,-5.65475 5.798312,-10.56705 9.750825,-10.56705 1.46637,0 2.666089,0.28916 2.666089,0.64266 0,0.89059 -2.864771,2.65927 -5.264789,3.25031 -1.098344,0.27042 -1.99699,0.85231 -1.99699,1.29302 0,0.53853 0.357135,0.50484 1.089268,-0.10275 2.074907,-1.72206 1.079317,0.029 -1.147942,2.01943 -1.76483,1.57689 -2.339889,2.80877 -2.723166,5.83389 -0.460615,3.63503 -0.559302,3.78114 -1.892855,2.80275 z m 74.540691,-8.1859 c -0.515,-0.55981 -2.19073,-1.01782 -3.72377,-1.01782 -1.53304,0 -3.9528,-0.4869 -5.37713,-1.08207 -1.42432,-0.59511 -3.11479,-0.88057 -3.75652,-0.63432 -0.69822,0.26797 -1.88102,-0.22323 -2.94529,-1.22302 -0.97817,-0.91899 -1.77849,-1.3056 -1.77849,-0.85922 0,0.44638 0.71557,1.31278 1.59011,1.92531 1.91746,1.34307 1.31416,2.31281 -0.75123,1.20749 -1.93846,-1.03742 -4.24981,-4.35242 -4.88303,-7.00333 l -0.50986,-2.13424 2.09547,1.90296 c 4.29141,3.89724 5.5681,4.36346 10.55201,3.8528 6.77524,-0.69415 11.47049,1.51684 10.66704,5.02305 -0.20806,0.90794 -0.37746,0.91404 -1.17931,0.0422 z m 3.46996,-1.19936 c -0.79138,-1.29805 -1.44015,-2.72295 -1.44168,-3.1665 0,-0.44347 -0.83576,-2.03402 -1.854,-3.53445 -1.01825,-1.50044 -1.69983,-2.87966 -1.51459,-3.0649 1.37654,-1.37647 7.38509,5.89779 8.18817,9.91312 0.61594,3.07979 -1.46566,2.98902 -3.3779,-0.14727 z m -33.12742,-0.20725 c -1.25005,-0.54811 -3.49278,-2.14709 -4.98377,-3.55326 -2.22813,-2.10142 -2.95989,-2.42355 -4.10863,-1.80876 -2.52484,1.35126 -6.958962,-1.25739 -9.067274,-5.33436 l -1.159779,-2.24273 2.957359,2.34229 c 2.913504,2.3075 2.991564,2.32456 5.260064,1.1515 l 2.30272,-1.19079 3.72064,3.61382 c 4.04074,3.92471 6.11638,5.23255 8.30413,5.23255 2.00708,0 3.45689,1.86367 1.91122,2.4568 -1.59287,0.61123 -2.48541,0.49533 -5.13668,-0.66706 z m -21.327769,-5.16835 c -2.019646,-2.30017 -2.270467,-3.01771 -1.888934,-5.4037 1.058695,-6.62065 3.36518,-8.93643 2.774144,-2.78527 -0.334259,3.47854 -0.203256,3.83633 2.368501,6.47003 1.497234,1.53341 2.502118,3.14421 2.232998,3.57961 -0.94316,1.52607 -3.178844,0.76787 -5.486709,-1.86067 z m -0.05156,-2.97545 c -0.02832,-0.29954 -0.331862,-1.19819 -0.675127,-1.99699 -0.553055,-1.287 -0.629886,-1.22491 -0.675127,0.54464 -0.02832,1.09835 0.27573,1.99699 0.675127,1.99699 0.399397,0 0.703231,-0.24509 0.675127,-0.54464 z m -6.735079,-7.31892 c -1.777901,-1.96453 -1.465863,-3.0291 0.887825,-3.0291 2.69717,0 4.275662,1.723 2.993595,3.26779 -1.202551,1.44901 -2.421948,1.374 -3.88142,-0.23869 z m 35.833228,-2.31876 c -1.79729,-0.31407 -4.18771,-0.92921 -5.31205,-1.36688 -2.57743,-1.00337 -6.70089,-1.02464 -8.53303,-0.0444 -1.16131,0.62147 -1.40465,0.51094 -1.40465,-0.63809 0,-2.32682 3.81185,-3.43657 8.25883,-2.40438 2.04774,0.47528 6.08819,1.24961 8.97882,1.72076 4.97606,0.811 5.36994,0.77207 7.40462,-0.73228 1.34532,-0.99457 2.32332,-1.30675 2.61511,-0.83467 0.82835,1.34024 -0.30798,2.90341 -2.89687,3.98519 -2.73675,1.14344 -4.09877,1.1905 -9.11078,0.31443 z m 37.03507,28.41446 c 0,-0.3567 -0.49017,-0.83656 -1.08926,-1.06646 -1.10691,-0.42474 -1.48722,0.34878 -0.60513,1.2308 0.69401,0.69401 1.69439,0.59698 1.69439,-0.16434 z m 145.4449,-16.90773 c 3.23069,-9.10039 3.82791,-16.18259 1.52577,-18.09316 -1.5153,-1.25759 -2.81677,2.64823 -3.86355,11.59509 -0.48479,4.14387 -1.18462,8.33159 -1.55504,9.30604 -0.3705,0.97439 -0.66271,2.64896 -0.64943,3.7213 l 0.0239,1.94971 1.31141,-1.57005 c 0.72124,-0.86358 2.1643,-3.97257 3.20673,-6.90893 z m -79.81404,4.66656 c -0.19796,-1.49775 -0.66235,-4.03029 -1.0319,-5.62788 -0.36956,-1.59759 -0.99617,-5.40472 -1.39245,-8.46034 -0.73431,-5.66201 -1.94079,-9.33101 -3.06832,-9.33101 -1.19267,0 -2.17504,4.00574 -1.79569,7.32205 0.62967,5.50392 5.54153,18.82034 6.94204,18.82034 0.39606,0 0.54819,-1.19616 0.34632,-2.72316 z m -74.70772,-15.43128 c -0.24682,-0.3994 -0.77555,-0.72618 -1.17496,-0.72618 -0.39939,0 -0.52422,0.32678 -0.27739,0.72618 0.24682,0.3994 0.77556,0.72618 1.17495,0.72618 0.39941,0 0.52423,-0.32678 0.2774,-0.72618 z m -68.070658,-8.48691 c -0.694299,-0.18177 -2.001418,-0.18837 -2.904711,-0.0146 -0.903365,0.17369 -0.335276,0.32242 1.262315,0.33048 1.597591,0.008 2.336622,-0.13405 1.642396,-0.31581 z m 53.849708,-2.6722 c -0.68457,-0.60287 -7.14385,-0.95433 -6.78214,-0.36903 0.21604,0.3495 1.89844,0.63548 3.73872,0.63548 1.84028,0 3.20978,-0.1199 3.04342,-0.26645 z m 89.68382,-7.35842 c 0.63395,-2.79579 1.15985,-6.71715 1.16856,-8.71414 0.0239,-5.52794 1.25345,-9.73121 3.77859,-12.91942 4.39193,-5.54524 11.29795,-6.90341 21.49276,-4.22687 2.87268,0.75421 5.39506,1.09284 5.60536,0.75254 0.61239,-0.9908 -6.23475,-5.562082 -10.20032,-6.809948 -2.96913,-0.934373 -4.4095,-0.998493 -7.90256,-0.352191 -2.34947,0.434757 -5.09639,0.583482 -6.10432,0.330483 -1.72119,-0.431934 -1.75793,-0.53462 -0.60433,-1.688443 0.99334,-0.993622 2.64685,-1.22854 8.64595,-1.22854 8.75894,0 11.96364,1.224548 18.25684,6.976169 3.15058,2.87943 4.38516,3.55341 6.5093,3.55341 1.44176,0 2.62136,-0.35656 2.62136,-0.79226 0,-1.33443 -4.71102,-6.385789 -8.44552,-9.055736 -3.79449,-2.712848 -9.26168,-4.675568 -13.02385,-4.675568 -1.78683,0 -2.4221,-0.370856 -2.74408,-1.602163 -0.23042,-0.881211 -0.33804,-1.683208 -0.23906,-1.782112 0.099,-0.09898 2.24897,0.112486 4.77775,0.469981 6.95474,0.983026 11.95353,3.797544 18.37802,10.347457 l 5.60196,5.711381 4.20144,-0.73525 c 8.75561,-1.53209 10.07041,-1.49382 12.81813,0.37332 4.72392,3.20999 6.70219,7.06332 7.61237,14.82754 0.44581,3.80278 1.47066,9.49499 2.27737,12.64929 2.16946,8.48249 2.49892,8.45336 3.5988,-0.31792 1.2806,-10.21318 0.99594,-21.17876 -0.67309,-25.92746 -1.91937,-5.460846 -4.81959,-9.516119 -8.36093,-11.690873 -1.5976,-0.980996 -4.26622,-3.486233 -5.93026,-5.56702 -5.27154,-6.591885 -12.40253,-9.101189 -25.86391,-9.101189 -8.87948,0 -16.75779,1.526575 -22.19569,4.300786 -8.63324,4.404344 -16.15303,13.742912 -18.56662,23.057446 -1.33255,5.14251 -1.4947,15.32134 -0.3851,24.17083 1.17786,9.39318 1.69955,9.34852 3.89508,-0.33353 z m 63.60017,-28.90187 c 0,-0.519221 0.31835,-1.262389 0.70743,-1.65148 0.38902,-0.389014 1.13953,-1.955666 1.66774,-3.481294 0.94113,-2.718446 0.97606,-2.739437 1.74523,-1.051215 1.06704,2.341848 -0.77657,7.128019 -2.74574,7.128019 -0.75603,0 -1.37466,-0.42481 -1.37466,-0.94403 z m -182.99679,31.44349 c 0.96822,-0.62575 0.96822,-0.70395 0,-0.70395 -0.59909,0 -1.57943,0.31676 -2.17853,0.70395 -0.96821,0.62575 -0.96821,0.70395 0,0.70395 0.5991,0 1.57944,-0.31675 2.17853,-0.70395 z m 6.36255,-1.22513 c -0.69429,-0.18177 -2.00141,-0.18837 -2.9047,-0.0145 -0.90337,0.17369 -0.33528,0.32241 1.26231,0.33048 1.5976,0.008 2.33662,-0.13405 1.64239,-0.31582 z"
       style="fill:#4a6741;fill-opacity:1;stroke-width:0.726178"
       id="path1" />
  </g>
</svg>
