<?xml version="1.0" encoding="UTF-8" standalone="no"?>
<!-- Created with Inkscape (http://www.inkscape.org/) -->

<svg
   width="193.3815mm"
   height="290.28207mm"
   viewBox="0 0 193.3815 290.28207"
   version="1.1"
   id="svg1"
   xmlns="http://www.w3.org/2000/svg"
   xmlns:svg="http://www.w3.org/2000/svg">
  <defs
     id="defs1" />
  <g
     id="g618"
     transform="matrix(2.0517784,0,0,2.0517784,-338.3777,-345.96026)">
	<path
   style="fill:#261414"
   d="m 260.856,234.539 c -1.633,-0.672 -2.52,-2.188 -2.862,-3.883 -0.173,-0.87 -0.191,-1.76 -0.094,-2.674 0.049,-0.455 0.142,-0.891 0.254,-1.328 0.117,-0.434 0.246,-0.871 0.431,-1.262 0.098,-0.22 0.024,-0.495 -0.173,-0.596 -0.961,-0.49 -1.678,-1.347 -2.095,-2.377 -0.212,-0.517 -0.384,-1.09 -0.477,-1.68 -0.081,-0.586 -0.114,-1.201 -0.108,-1.816 0.006,-0.477 -0.483,-0.654 -0.736,-0.232 -0.185,0.299 -0.395,0.641 -0.621,1.008 -0.232,0.369 -0.494,0.768 -0.735,1.184 -0.502,0.829 -1.088,1.715 -1.655,2.524 -0.291,0.404 -0.599,0.79 -0.91,1.137 -0.302,0.344 -0.613,0.65 -0.935,0.902 -0.642,0.502 -1.318,0.783 -2.009,0.688 -0.292,-0.038 -0.576,0.366 -0.45,0.714 0.899,2.606 0.634,5.271 -0.476,7.369 -0.269,0.537 -0.605,1.006 -0.972,1.441 -0.369,0.434 -0.766,0.84 -1.217,1.148 -0.891,0.639 -1.871,1.086 -2.929,1.213 -0.351,0.049 -0.358,0.502 -0.075,0.66 1.16,0.648 1.853,1.52 2.207,2.596 0.322,1.047 0.276,2.26 -0.148,3.377 -0.097,0.258 -0.166,0.504 -0.298,0.691 -0.122,0.191 -0.257,0.354 -0.411,0.484 -0.309,0.264 -0.706,0.396 -1.276,0.375 -0.747,-0.033 -1.494,-0.139 -2.208,-0.279 -0.309,-0.061 -0.476,0.238 -0.375,0.502 0.214,0.48 0.392,1.359 0.579,2.234 0.182,0.881 0.267,1.883 0.155,2.771 -0.211,1.781 -1.194,3.104 -3.229,2.006 -0.298,-0.156 -0.716,0.082 -0.662,0.449 0.216,1.395 0.093,3.4 -0.662,4.746 -0.369,0.676 -0.896,1.162 -1.551,1.318 -0.666,0.137 -1.452,-0.049 -2.367,-0.775 -0.322,-0.252 -0.801,0.045 -0.728,0.445 0.151,0.83 -0.006,1.758 -0.42,2.621 -0.412,0.863 -1.081,1.67 -1.895,2.236 -0.406,0.285 -0.843,0.52 -1.298,0.662 -0.227,0.074 -0.454,0.137 -0.682,0.172 -0.23,0.031 -0.46,0.041 -0.686,0.033 -0.448,-0.01 -0.888,-0.127 -1.288,-0.346 -0.399,-0.219 -0.761,-0.52 -1.068,-0.959 -0.181,-0.25 -0.686,-0.307 -0.774,0.076 -0.097,0.41 -0.278,0.762 -0.536,1.1 -0.13,0.168 -0.276,0.328 -0.441,0.48 -0.164,0.141 -0.347,0.273 -0.544,0.396 -0.787,0.514 -1.822,0.779 -2.914,0.822 -0.075,0.002 -0.15,-0.002 -0.226,-0.002 0.414,-0.182 0.842,-0.393 1.281,-0.641 0.98,-0.559 2.005,-1.285 3.023,-2.166 2.042,-1.762 4.07,-4.113 5.937,-6.815 0.938,-1.35 1.833,-2.789 2.675,-4.289 0.841,-1.506 1.631,-3.057 2.313,-4.699 0.334,-0.813 0.613,-1.625 0.922,-2.434 0.149,-0.404 0.299,-0.809 0.448,-1.211 0.136,-0.408 0.271,-0.814 0.406,-1.219 0.264,-0.813 0.555,-1.607 0.785,-2.412 0.234,-0.805 0.465,-1.598 0.692,-2.379 0.235,-0.779 0.395,-1.566 0.59,-2.324 0.18,-0.762 0.384,-1.5 0.509,-2.238 0.14,-0.734 0.276,-1.447 0.409,-2.137 0.033,-0.172 0.066,-0.344 0.099,-0.514 0.022,-0.17 0.047,-0.34 0.069,-0.508 0.013,-0.09 0.023,-0.176 0.035,-0.262 0.037,-0.111 0.073,-0.219 0.109,-0.33 0.17,-0.508 0.404,-1.126 0.32,-1.676 0.003,0 0.007,0 0.01,0 0.611,0.969 0.473,2.317 0.997,3.36 0.486,0.967 1.072,1.834 1.939,2.533 0.247,0.199 0.696,-0.057 0.485,-0.346 -0.915,-1.252 0,-5.15 -1.746,-5.924 0.666,-0.326 1.257,-0.856 1.743,-1.591 0.197,-0.297 0.889,-1.391 1.206,-2.517 1.034,0.023 2.134,0.117 3.043,0.372 0.145,0.032 0.278,0.069 0.43,0.122 0.065,0.022 0.127,0.041 0.187,0.06 0.073,0.022 0.143,0.044 0.21,0.067 0.098,0.043 0.206,0.084 0.311,0.123 0.116,0.043 0.227,0.083 0.324,0.131 0.119,0.057 0.231,0.106 0.337,0.15 0.065,0.027 0.128,0.055 0.186,0.081 0.145,0.075 0.282,0.14 0.407,0.191 l 0.154,0.064 0.892,-1.117 -0.125,-0.123 c -0.106,-0.105 -0.235,-0.224 -0.391,-0.354 -0.156,-0.123 -0.329,-0.232 -0.529,-0.359 l -0.052,-0.032 c -0.169,-0.107 -0.361,-0.197 -0.564,-0.292 l -0.223,-0.104 c -0.063,-0.026 -0.116,-0.048 -0.172,-0.067 l -0.321,-0.113 c 0,0 0,0 0,-0.001 -0.2,-0.073 -0.38,-0.126 -0.557,-0.165 -0.063,-0.018 -0.135,-0.029 -0.2,-0.045 0.205,-0.028 0.41,-0.059 0.608,-0.092 l 0.851,-0.04 c 0.179,-0.014 0.345,-0.026 0.495,-0.015 0.083,0.002 0.15,0.002 0.216,0.002 0.282,0 0.531,-0.014 0.74,-0.041 l 0.158,-0.021 0.207,-1.375 -0.168,-0.053 c -0.263,-0.081 -0.607,-0.157 -1.021,-0.223 -0.2,-0.042 -0.434,-0.048 -0.653,-0.048 h -0.205 c -0.25,0.002 -0.524,0.003 -0.822,0.02 -0.393,0.061 -0.785,0.127 -1.184,0.203 -0.399,0.113 -0.784,0.242 -1.156,0.368 l -0.05,0.019 c 0.895,-0.641 1.809,-1.281 2.618,-1.69 0.588,-0.303 0.98,-0.38 1.162,-0.398 0.036,-0.003 0.074,-0.004 0.112,-0.004 0.16,0 0.273,0.028 0.398,0.076 l 0.142,0.052 0.943,-1.056 -0.113,-0.129 c -0.259,-0.293 -0.784,-0.619 -1.484,-0.653 -0.642,-0.029 -1.328,0.147 -2.058,0.52 -0.765,0.393 -1.49,0.92 -2.17,1.492 0.341,-0.557 0.77,-1.211 1.21,-1.656 0.2,-0.203 0.374,-0.348 0.514,-0.429 0.132,-0.071 0.266,-0.138 0.348,-0.147 0.218,-0.052 0.424,-0.007 0.619,0.043 l 0.159,0.041 0.719,-1.207 -0.125,-0.107 c -0.126,-0.109 -0.307,-0.211 -0.585,-0.33 l -0.09,-0.028 c -0.108,-0.033 -0.223,-0.067 -0.349,-0.091 -0.058,-0.005 -0.096,-0.01 -0.134,-0.014 -0.12,-0.014 -0.256,-0.03 -0.404,-0.012 -0.314,0.003 -0.724,0.121 -1.108,0.314 -0.325,0.17 -0.631,0.405 -0.967,0.742 -0.195,0.201 -0.368,0.416 -0.53,0.635 0.122,-0.285 0.248,-0.549 0.384,-0.775 0.197,-0.334 0.411,-0.58 0.634,-0.733 0.151,-0.106 0.338,-0.172 0.51,-0.223 l 0.148,-0.044 0.002,-1.384 -0.174,-0.031 c -0.308,-0.054 -0.811,-0.071 -1.374,0.188 -0.362,0.161 -0.713,0.438 -1.013,0.787 l 0.38,-0.9 c 0.056,-0.123 0.087,-0.192 0.065,-0.273 l -0.013,-0.052 -0.942,-0.955 -0.153,0.112 c -0.208,0.152 -0.325,0.285 -0.466,0.455 -0.127,0.156 -0.247,0.332 -0.371,0.536 -0.164,0.273 -0.323,0.581 -0.484,0.929 0.003,-0.014 0.005,-0.027 0.007,-0.041 0.238,-1.762 0.088,-2.798 -0.08,-3.356 l -0.049,-0.163 -1.481,0.153 -0.031,0.485 c -0.034,0.562 -0.086,1.411 -0.253,2.652 -0.114,0.914 -0.302,1.933 -0.508,2.948 -0.008,-0.097 -0.02,-0.195 -0.029,-0.294 0.032,-0.213 0.065,-0.426 0.1,-0.637 0.081,-0.512 0.162,-1.017 0.222,-1.498 0.197,-1.525 0.111,-2.403 0.005,-2.871 l -0.037,-0.162 -1.48,0.031 -0.031,0.16 c -0.046,0.24 -0.089,0.54 -0.139,0.926 l -1.062,0.205 -0.006,0.156 c -0.008,0.174 0.001,0.385 0.025,0.636 -0.196,-0.342 -0.367,-0.606 -0.525,-0.81 l -0.105,-0.135 -1.329,0.605 0.034,0.154 c 0.058,0.258 0.154,0.558 0.294,0.918 0.053,0.188 0.134,0.409 0.225,0.658 0.062,0.168 0.128,0.355 0.195,0.553 -0.006,-0.006 -0.012,-0.013 -0.017,-0.02 -0.052,-0.059 -0.103,-0.113 -0.154,-0.17 -0.247,-0.352 -1.658,-1.412 -1.811,-1.54 -0.065,-0.038 -0.131,-0.077 -0.196,-0.112 l -0.153,-0.078 -0.45,0.503 c -0.023,0.04 -0.048,0.079 -0.078,0.116 -0.107,0.133 -0.229,0.254 -0.342,0.382 -0.024,0.028 -0.052,0.05 -0.081,0.067 l 0.101,0.125 c 0.155,0.191 0.369,0.418 0.639,0.705 0.284,0.302 0.638,0.676 1.055,1.152 0.007,0.007 0.013,0.015 0.018,0.021 0.195,0.26 0.39,0.525 0.584,0.794 -0.371,-0.3 -0.754,-0.579 -1.136,-0.817 -1.201,-0.752 -2.018,-0.945 -2.491,-0.974 l -0.172,-0.011 -0.391,1.335 0.137,0.079 c 0.087,0.05 0.191,0.107 0.313,0.172 0.36,0.197 0.854,0.467 1.547,0.899 0.55,0.349 1.117,0.738 1.64,1.128 0.022,0.016 0.043,0.031 0.063,0.048 -0.058,-0.026 -0.117,-0.058 -0.174,-0.083 -0.208,-0.099 -0.425,-0.189 -0.678,-0.277 0,0 0,0 -0.001,0 l -0.403,-0.146 c -0.07,-0.024 -0.139,-0.047 -0.221,-0.072 l -0.295,-0.08 c -0.27,-0.075 -0.525,-0.146 -0.768,-0.184 l -0.074,-0.012 c -0.287,-0.047 -0.534,-0.087 -0.774,-0.105 -0.242,-0.01 -0.451,-0.012 -0.629,-0.006 l -0.207,0.008 0.204,1.547 0.199,0.063 c 0.162,0.05 0.345,0.101 0.541,0.146 0.078,0.023 0.159,0.047 0.244,0.073 0.137,0.042 0.284,0.086 0.442,0.128 0.131,0.035 0.27,0.084 0.418,0.135 0.132,0.045 0.27,0.094 0.398,0.132 0.084,0.03 0.17,0.064 0.258,0.101 0.074,0.029 0.149,0.059 0.23,0.09 0.189,0.069 0.351,0.137 0.521,0.219 0.717,0.305 1.473,0.725 2.212,1.187 0.003,0.118 0.005,0.235 0.005,0.356 0.002,0.423 0.005,0.859 0.063,1.297 0.117,0.881 0.465,1.801 1.04,2.534 -0.009,10e-4 -0.017,10e-4 -0.026,0.003 -0.072,0.023 -0.142,0.05 -0.212,0.076 -0.863,-0.033 -1.684,0.115 -2.404,0.736 -0.93,0.803 -1.457,1.846 -1.525,3.034 -0.017,0.299 0.424,0.41 0.582,0.162 0.958,-1.508 2.114,-2.551 3.683,-3.447 0.126,-0.013 0.251,-0.032 0.375,-0.054 0.09,0.08 0.183,0.158 0.28,0.23 -2.073,0.053 -3.099,3.29 -3.667,4.721 -0.094,0.238 0.225,0.377 0.415,0.287 1.086,-0.514 2.438,-1.523 3.069,-2.52 0.036,-0.057 0.074,-0.121 0.113,-0.191 -0.355,1.229 -0.372,2.695 -0.236,3.748 -0.134,0.654 -0.321,1.313 -0.494,1.988 -0.204,0.74 -0.372,1.506 -0.616,2.268 -0.236,0.764 -0.476,1.539 -0.719,2.324 -0.239,0.785 -0.542,1.564 -0.811,2.357 -0.14,0.396 -0.28,0.793 -0.42,1.191 -0.154,0.395 -0.308,0.789 -0.463,1.184 -0.314,0.787 -0.608,1.598 -0.942,2.369 -0.663,1.523 -1.456,3.031 -2.298,4.463 -0.846,1.434 -1.743,2.807 -2.674,4.084 -1.854,2.563 -3.842,4.754 -5.745,6.32 -0.401,0.332 -0.796,0.629 -1.186,0.902 0.326,-0.615 0.635,-1.272 0.977,-1.94 0.205,-0.412 0.415,-0.832 0.628,-1.26 0.104,-0.215 0.222,-0.426 0.316,-0.65 0.093,-0.225 0.186,-0.451 0.281,-0.68 0.378,-0.914 0.769,-1.859 1.17,-2.832 0.372,-0.982 0.691,-2.014 1.052,-3.055 0.088,-0.26 0.177,-0.523 0.265,-0.787 0.094,-0.262 0.179,-0.529 0.245,-0.801 0.146,-0.543 0.294,-1.09 0.444,-1.643 0.148,-0.551 0.299,-1.107 0.45,-1.668 l 0.112,-0.422 0.09,-0.428 c 0.059,-0.285 0.119,-0.572 0.18,-0.859 0.12,-0.576 0.241,-1.154 0.362,-1.736 0.117,-0.582 0.255,-1.162 0.332,-1.758 0.183,-1.184 0.367,-2.375 0.552,-3.572 0.125,-1.205 0.251,-2.414 0.377,-3.621 0.073,-0.605 0.104,-1.211 0.135,-1.816 0.033,-0.605 0.066,-1.211 0.099,-1.814 0.025,-0.604 0.083,-1.205 0.082,-1.809 0.005,-0.601 0.011,-1.2 0.015,-1.797 0.006,-0.598 0.011,-1.191 0.016,-1.783 0.012,-0.592 -0.032,-1.181 -0.046,-1.766 -0.051,-1.168 -0.06,-2.325 -0.145,-3.459 -0.088,-1.133 -0.175,-2.246 -0.26,-3.338 -0.095,-1.088 -0.246,-2.148 -0.362,-3.184 -0.063,-0.516 -0.125,-1.025 -0.186,-1.528 -0.08,-0.499 -0.158,-0.991 -0.237,-1.475 -0.158,-0.967 -0.299,-1.903 -0.456,-2.797 -0.181,-0.891 -0.354,-1.743 -0.518,-2.556 -0.082,-0.406 -0.162,-0.801 -0.24,-1.186 -0.079,-0.384 -0.18,-0.754 -0.265,-1.113 -0.177,-0.719 -0.342,-1.393 -0.494,-2.015 -0.15,-0.624 -0.29,-1.194 -0.445,-1.696 -0.134,-0.465 -0.254,-0.877 -0.36,-1.246 -0.01,-0.229 -0.019,-0.504 -0.021,-0.861 l 0.012,-1.537 c 0.002,-0.25 -0.01,-0.531 -0.033,-0.863 -0.033,-0.316 -0.09,-0.592 -0.141,-0.82 l -0.258,-1.113 c -0.025,-0.143 -0.053,-0.266 -0.077,-0.339 -0.015,-0.071 -0.038,-0.129 -0.069,-0.177 0.004,0.002 0.006,0.007 0.009,0.01 l 0.061,0.031 0.037,0.008 c 0.081,0.015 0.146,0.006 0.196,-0.017 l 0.058,0.059 c -0.095,0.144 -0.1,0.373 -0.088,0.581 0.023,0.284 0.128,0.648 0.276,1.105 0.013,0.042 0.028,0.086 0.044,0.131 0.019,0.053 0.039,0.107 0.053,0.16 l 0.082,0.311 c 0.04,0.111 0.061,0.251 0.085,0.4 0.009,0.064 0.02,0.131 0.031,0.196 0.04,0.214 0.077,0.423 0.096,0.643 l 0.082,0.628 c 0.079,0.718 0.148,1.196 0.271,1.515 l 0.05,0.129 0.212,-0.001 c 0.052,0.374 0.095,0.735 0.116,1.066 0.019,0.117 0.021,0.226 0.022,0.329 0.001,0.08 0.002,0.156 0.008,0.219 0.004,0.088 0.012,0.172 0.019,0.252 0.007,0.074 0.013,0.144 0.014,0.205 -0.001,0.275 0.018,0.506 0.058,0.701 l 0.027,0.139 1.356,0.2 0.058,-0.148 c 0.08,-0.201 0.151,-0.465 0.212,-0.789 0.024,-0.139 0.029,-0.283 0.033,-0.437 l 0.006,-0.143 c -0.001,-0.056 0.002,-0.112 0.003,-0.172 0.004,-0.158 0.009,-0.338 -0.018,-0.512 -0.055,-0.81 -0.292,-1.783 -0.65,-2.709 -0.001,-0.019 -0.002,-0.035 -0.004,-0.055 -0.02,-0.186 -0.058,-0.381 -0.098,-0.579 l -0.026,-0.138 c -0.038,-0.223 -0.104,-0.467 -0.208,-0.769 l -0.044,-0.132 c -0.067,-0.205 -0.138,-0.418 -0.259,-0.621 l -0.187,-0.342 c -0.046,-0.08 -0.095,-0.149 -0.144,-0.217 l -0.059,-0.082 c -0.13,-0.184 -0.254,-0.348 -0.357,-0.479 -0.015,-0.02 -0.03,-0.035 -0.046,-0.055 l 0.037,0.017 c 0.23,0.106 0.517,0.239 0.84,0.444 0.237,0.143 0.514,0.329 0.809,0.539 -0.029,-0.018 -0.058,-0.036 -0.087,-0.053 -0.01,-0.006 -0.013,-0.013 -0.02,-0.018 -0.018,0.014 -0.032,0.027 -0.043,0.04 -0.134,0.17 -0.037,0.386 0.138,0.776 0.135,0.301 0.319,0.715 0.454,1.23 0.262,0.865 0.47,2.141 0.555,3.41 0.025,0.383 0.043,0.708 0.058,0.984 0.023,0.431 0.04,0.742 0.073,0.977 l 0.021,0.15 1.367,0.189 0.057,-0.148 c 0.147,-0.377 0.306,-1.078 0.224,-2.279 -0.091,-1.356 -0.503,-2.824 -1.072,-3.824 -0.037,-0.07 -0.078,-0.133 -0.117,-0.197 0.53,0.436 0.861,0.705 1.097,0.846 l 0.117,0.07 0.006,-0.005 c 0.278,0.816 0.492,1.782 0.56,2.554 0.018,0.094 0.021,0.188 0.023,0.279 0.002,0.07 0.004,0.137 0.011,0.188 0.005,0.08 0.013,0.156 0.021,0.229 0.007,0.062 0.014,0.12 0.017,0.17 0.004,0.246 0.027,0.452 0.071,0.628 l 0.033,0.131 1.348,0.188 0.059,-0.143 c 0.077,-0.184 0.145,-0.423 0.199,-0.717 0.021,-0.129 0.025,-0.266 0.029,-0.41 l 0.003,-0.12 c 0,-0.048 0,-0.097 0.001,-0.148 0.003,-0.148 0.006,-0.314 -0.023,-0.475 -0.087,-1.001 -0.528,-2.189 -1.126,-3.027 -0.064,-0.092 -0.134,-0.183 -0.203,-0.272 l -0.01,-0.021 c -0.013,-0.03 -0.028,-0.061 -0.044,-0.091 0.117,0.123 0.23,0.23 0.338,0.313 l 0.112,0.086 0.627,-0.404 c 0.515,0.514 1.043,1.122 1.549,1.721 0.532,0.623 0.95,1.025 1.278,1.232 l 0.126,0.079 1.034,-0.89 -0.058,-0.135 c -0.155,-0.369 -0.488,-0.848 -1.018,-1.468 -0.165,-0.186 -0.341,-0.38 -0.534,-0.578 l -0.044,-0.042 c -0.185,-0.177 -0.373,-0.355 -0.578,-0.533 l -0.105,-0.084 c -0.19,-0.148 -0.378,-0.296 -0.578,-0.434 -0.237,-0.147 -0.468,-0.283 -0.697,-0.41 -0.254,-0.123 -0.504,-0.223 -0.737,-0.299 -0.081,-0.1 -0.171,-0.205 -0.276,-0.295 -0.79,-0.813 -2.008,-1.512 -3.026,-1.74 -0.132,-0.031 -0.262,-0.051 -0.393,-0.072 0.138,0.004 0.303,-0.006 0.499,-0.018 0.154,-0.01 0.328,-0.021 0.519,-0.027 0.24,-0.01 0.488,-0.015 0.735,-0.016 -0.071,0.031 -0.135,0.076 -0.163,0.158 -0.111,0.313 0.255,0.578 1.956,1.426 0.977,0.481 2.38,1.203 3.289,1.92 0.723,0.564 1.071,0.996 1.303,1.281 l 0.155,0.189 1.255,-0.579 -0.03,-0.155 c -0.139,-0.698 -0.729,-1.506 -1.575,-2.16 -1.355,-1.057 -3.184,-1.609 -3.906,-1.798 -0.428,-0.112 -0.824,-0.2 -1.162,-0.258 0.108,0.006 0.215,0.013 0.313,0.02 l 0.418,0.032 c 0.347,0.027 0.574,0.046 0.752,0.032 l 0.122,-0.01 0.252,-0.607 c 0.414,0.027 0.811,0.063 1.158,0.107 0.051,0.007 0.1,0.012 0.149,0.016 0.061,0.006 0.122,0.011 0.174,0.02 l 0.298,0.055 c 0.192,0.032 0.366,0.057 0.502,0.07 0.307,0.068 0.537,0.113 0.738,0.122 l 0.141,0.007 0.535,-1.27 -0.141,-0.092 c -0.241,-0.157 -0.514,-0.297 -0.829,-0.424 -0.175,-0.052 -0.372,-0.105 -0.597,-0.16 l -0.354,-0.083 c -0.09,-0.017 -0.184,-0.026 -0.279,-0.037 l -0.113,-0.013 c -1.184,-0.155 -2.703,-0.044 -3.846,0.272 -0.221,0.046 -0.426,0.12 -0.606,0.186 -0.063,0.022 -0.123,0.045 -0.188,0.066 -0.249,0.091 -0.452,0.169 -0.616,0.27 -0.013,0.007 -0.023,0.015 -0.035,0.021 -0.036,0.015 -0.078,0.024 -0.113,0.038 -0.313,0.126 -0.602,0.295 -0.822,0.473 0.024,-0.049 0.052,-0.1 0.069,-0.147 l 0.047,-0.122 -0.277,-0.273 c 0.164,-0.101 0.329,-0.199 0.495,-0.297 0.01,-0.004 0.016,-0.008 0.025,-0.012 0.25,-0.111 0.537,-0.238 0.861,-0.367 0.148,-0.07 0.316,-0.127 0.495,-0.188 0.099,-0.034 0.2,-0.068 0.299,-0.105 l 0.876,-0.313 c 0.66,-0.221 1.227,-0.387 1.683,-0.491 0.889,-0.208 1.388,-0.206 1.579,-0.194 l 0.13,0.01 0.645,-1.206 -0.132,-0.105 c -0.55,-0.438 -1.483,-0.53 -2.632,-0.262 -0.584,0.136 -1.225,0.363 -1.906,0.678 -0.154,0.074 -0.308,0.148 -0.461,0.229 l -0.163,0.09 -0.105,-0.209 -0.138,0.014 c -0.32,0.032 -0.724,0.182 -1.192,0.434 0.123,-0.148 0.212,-0.287 0.273,-0.424 l 0.05,-0.113 -0.047,-0.057 c 0.296,-0.34 0.608,-0.66 0.872,-0.914 0.508,-0.492 0.805,-0.783 0.971,-1.037 l 0.074,-0.114 -0.781,-1.101 -0.138,0.041 c -0.408,0.119 -0.888,0.438 -1.384,0.919 -0.422,0.404 -0.909,1.019 -1.242,1.708 -0.15,0.132 -0.314,0.289 -0.477,0.488 -0.22,0.26 -0.429,0.572 -0.613,0.904 0.167,-0.49 0.392,-1.018 0.643,-1.486 0.064,-0.129 0.127,-0.242 0.186,-0.348 0.074,-0.133 0.14,-0.252 0.175,-0.34 0.113,-0.186 0.19,-0.354 0.237,-0.514 l 0.037,-0.123 -1.019,-0.884 -0.125,0.079 c -0.155,0.098 -0.329,0.245 -0.53,0.453 l -0.031,0.039 c -0.16,0.206 -0.359,0.462 -0.531,0.808 -0.069,0.13 -0.132,0.267 -0.191,0.407 -0.007,-0.016 -0.012,-0.035 -0.018,-0.051 l -0.057,-0.123 -0.113,0.006 c -0.048,-0.245 -0.103,-0.499 -0.172,-0.77 -0.163,-0.592 -0.357,-1.034 -0.574,-1.314 l -0.087,-0.109 -1.277,0.402 -0.015,0.131 c -0.032,0.299 0.032,0.708 0.214,1.365 0.092,0.363 0.22,0.754 0.341,1.115 0.052,0.177 0.108,0.347 0.165,0.516 0,0.032 -0.002,0.061 -0.001,0.095 -0.027,-0.07 -0.054,-0.147 -0.08,-0.214 -0.254,-0.621 -0.49,-1.045 -0.723,-1.297 l -0.09,-0.098 -0.396,0.144 c -0.371,-0.643 -0.799,-1.097 -1.218,-1.282 l -0.138,-0.061 -0.872,1.031 0.058,0.118 c 0.056,0.114 0.139,0.259 0.252,0.456 0.087,0.152 0.194,0.34 0.322,0.57 l -0.246,0.395 c -0.042,-0.043 -0.083,-0.087 -0.126,-0.128 -0.363,-0.335 -0.68,-0.559 -0.995,-0.703 -0.397,-0.184 -0.783,-0.234 -1.116,-0.143 l -0.166,0.046 0.141,1.192 c -0.005,0.161 0.098,0.24 0.196,0.316 l 0.091,0.071 c 0.101,0.078 0.236,0.193 0.396,0.338 l -0.313,0.362 0.087,0.128 c 0.071,0.104 0.169,0.217 0.276,0.333 -0.014,-0.005 -0.027,-0.011 -0.042,-0.017 l -0.151,-0.054 c -0.107,-0.036 -0.211,-0.069 -0.314,-0.101 -0.315,-0.232 -0.657,-0.443 -1.017,-0.607 -0.681,-0.315 -1.223,-0.381 -1.558,-0.381 -0.204,0 -0.397,0.024 -0.56,0.07 l -0.145,0.042 -0.008,1.362 0.135,0.048 c 0.08,0.028 0.172,0.056 0.275,0.087 0.212,0.064 0.489,0.15 0.843,0.297 l 0.057,0.385 0.19,0.045 c 0.228,0.055 0.601,0.144 1.198,0.348 0.374,0.24 0.751,0.5 1.106,0.746 l 0.157,0.109 c -0.061,-0.002 -0.123,-0.002 -0.185,-0.002 -0.158,-0.032 -0.32,-0.061 -0.49,-0.084 -1.439,-0.188 -2.941,-0.195 -4.066,-0.014 -1.1,0.176 -1.942,0.547 -2.374,1.049 l -0.106,0.124 0.846,1.087 0.136,-0.047 c 0.253,-0.088 0.779,-0.27 1.785,-0.432 0.162,-0.027 0.335,-0.051 0.51,-0.074 l 0.003,0.195 0.15,0.037 c 0.462,0.113 1.177,0.123 2.184,0.027 0.23,-0.021 0.468,-0.045 0.71,-0.07 0.043,-0.004 0.086,-0.008 0.128,-0.012 -0.171,0.09 -0.338,0.18 -0.488,0.264 -0.378,0.213 -0.697,0.406 -0.964,0.583 -0.697,0.249 -1.354,0.556 -1.884,0.892 -0.221,0.119 -0.405,0.263 -0.566,0.391 l -0.17,0.134 c -0.163,0.13 -0.31,0.249 -0.444,0.378 -0.252,0.278 -0.447,0.525 -0.582,0.734 l -0.09,0.141 1.009,0.946 0.127,-0.069 c 0.197,-0.109 0.42,-0.264 0.645,-0.447 l 0.456,-0.301 c 0.056,-0.037 0.111,-0.076 0.168,-0.117 0.115,-0.084 0.235,-0.169 0.391,-0.25 0.378,-0.242 0.843,-0.5 1.358,-0.758 0.328,-0.115 0.731,-0.305 1.208,-0.563 0.037,-0.018 0.075,-0.033 0.112,-0.051 -0.247,0.237 -0.499,0.492 -0.756,0.768 -0.634,0.686 -1.063,1.207 -1.313,1.596 l -0.084,0.13 0.168,0.182 c -0.379,0.403 -0.648,0.739 -0.798,1.008 l -0.072,0.13 0.95,0.984 0.133,-0.068 c 0.368,-0.192 0.843,-0.579 1.452,-1.184 0.38,-0.377 0.79,-0.805 1.193,-1.225 0.348,-0.363 0.69,-0.721 1.005,-1.035 l 0.146,-0.148 c 0.068,-0.067 0.125,-0.125 0.186,-0.188 l 0.089,0.043 c -0.062,0.112 -0.118,0.225 -0.168,0.338 -0.151,0.336 -0.242,0.631 -0.3,0.894 -0.48,0.767 -0.896,1.627 -1.163,2.464 -0.204,0.616 -0.316,1.129 -0.391,1.516 -0.059,0.398 -0.088,0.721 -0.088,0.986 v 0.164 l 1.364,0.273 0.067,-0.142 c 0.109,-0.231 0.214,-0.521 0.319,-0.873 0.071,-0.202 0.144,-0.432 0.226,-0.689 0.064,-0.204 0.133,-0.425 0.213,-0.667 0.184,-0.572 0.402,-1.143 0.638,-1.684 l 0.177,0.007 0.054,-0.129 c 0.038,-0.096 0.078,-0.207 0.124,-0.343 0.087,-0.249 0.205,-0.59 0.405,-1.04 0.012,-0.025 0.026,-0.054 0.037,-0.08 0.08,-0.135 0.161,-0.265 0.241,-0.386 0.242,-0.376 0.479,-0.704 0.686,-0.993 0.201,-0.279 0.351,-0.488 0.447,-0.656 -0.004,0.066 -0.008,0.132 -0.013,0.193 l -0.023,0.182 c -0.193,0.209 -0.41,0.458 -0.651,0.756 -0.311,0.41 -0.723,1.06 -0.915,1.82 -0.195,0.665 -0.256,1.426 -0.171,2.082 0.061,0.597 0.189,1.046 0.281,1.33 0.112,0.361 0.234,0.604 0.327,0.775 l 0.076,0.137 1.331,-0.352 0.004,-0.15 c 0.008,-0.267 -0.043,-0.614 -0.107,-1.056 -0.037,-0.255 -0.08,-0.546 -0.119,-0.878 -0.034,-0.242 -0.044,-0.498 -0.038,-0.759 0.078,0.223 0.175,0.413 0.291,0.564 l 0.094,0.122 0.292,-0.121 c 0.034,0.127 0.07,0.256 0.107,0.391 0.149,0.508 0.279,1.07 0.419,1.682 0.143,0.613 0.297,1.275 0.46,1.982 0.079,0.355 0.175,0.717 0.248,1.097 0.072,0.381 0.146,0.773 0.223,1.173 0.152,0.804 0.313,1.648 0.48,2.529 0.145,0.885 0.272,1.811 0.417,2.766 0.071,0.479 0.143,0.965 0.217,1.458 0.054,0.497 0.108,1 0.164,1.511 0.102,1.021 0.238,2.068 0.32,3.145 0.069,1.075 0.143,2.174 0.216,3.293 0.07,1.117 0.064,2.257 0.102,3.408 0.006,0.576 0.042,1.155 0.023,1.738 -0.012,0.582 -0.023,1.166 -0.036,1.754 -0.013,0.588 -0.023,1.177 -0.036,1.768 -0.006,0.592 -0.07,1.182 -0.102,1.775 -0.04,0.594 -0.079,1.188 -0.119,1.781 -0.037,0.596 -0.073,1.189 -0.154,1.781 -0.138,1.184 -0.274,2.367 -0.412,3.547 -0.196,1.17 -0.392,2.334 -0.586,3.49 -0.085,0.58 -0.229,1.146 -0.354,1.713 -0.128,0.564 -0.257,1.129 -0.383,1.688 -0.063,0.279 -0.126,0.559 -0.188,0.836 l -0.094,0.418 -0.117,0.408 c -0.157,0.543 -0.313,1.082 -0.467,1.617 -0.153,0.535 -0.306,1.064 -0.457,1.592 -0.069,0.264 -0.156,0.521 -0.251,0.773 -0.091,0.256 -0.182,0.51 -0.271,0.76 -0.367,1.006 -0.692,2.002 -1.069,2.947 -0.404,0.934 -0.798,1.842 -1.177,2.719 -0.096,0.221 -0.189,0.438 -0.282,0.654 -0.096,0.213 -0.213,0.416 -0.316,0.621 -0.213,0.408 -0.422,0.81 -0.626,1.203 -0.418,0.781 -0.78,1.549 -1.191,2.246 -0.402,0.689 -0.798,1.311 -1.203,1.855 -0.173,0.238 -0.348,0.453 -0.523,0.654 -0.107,-0.051 -0.261,-0.123 -0.462,-0.221 -0.206,-0.098 -0.466,-0.203 -0.748,-0.391 -0.145,-0.086 -0.299,-0.18 -0.464,-0.279 -0.166,-0.096 -0.342,-0.201 -0.516,-0.338 -0.019,-0.012 -0.037,-0.027 -0.057,-0.039 0.11,-0.522 0.234,-1.859 1.598,-3.547 0.223,-0.277 -0.023,-0.592 -0.337,-0.574 -2.061,0.18 -3.188,-1.293 -3.302,-3.023 -0.124,-1.734 0.749,-3.627 2.219,-4.469 0.326,-0.191 0.295,-0.701 -0.122,-0.756 -2.285,-0.277 -2.736,-1.508 -2.287,-2.838 0.437,-1.334 1.768,-2.738 2.886,-3.557 0.28,-0.207 0.21,-0.65 -0.136,-0.734 -2.244,-0.541 -2.164,-2.076 -1.248,-3.592 0.913,-1.52 2.66,-2.994 3.629,-3.676 0.295,-0.209 0.26,-0.59 -0.074,-0.736 -1.155,-0.502 -2.245,-1.146 -3.248,-1.916 0.583,-0.457 1.197,-0.895 1.821,-1.32 0.76,-0.518 1.529,-1.012 2.288,-1.514 0.056,-0.037 0.098,-0.082 0.13,-0.131 0.136,-0.162 0.163,-0.406 -0.044,-0.553 -0.041,-0.049 -0.092,-0.086 -0.149,-0.104 -1.705,-1.122 -2.336,-3.14 -2.21,-5.272 0.05,-1.072 0.383,-2.119 0.895,-3.041 0.212,-0.381 0.57,-0.611 0.636,-1.059 0.026,-0.18 -0.082,-0.387 -0.245,-0.446 -1.644,-0.604 -2.563,-1.929 -2.921,-3.494 -0.18,-0.783 -0.22,-1.627 -0.139,-2.474 0.083,-0.845 0.281,-1.696 0.566,-2.512 0.08,-0.226 -0.015,-0.494 -0.219,-0.58 -2.01,-0.836 -3.035,-3.018 -3.471,-5.195 -0.085,-0.424 -0.6,-0.479 -0.77,-0.071 -0.486,1.158 -1.271,2.941 -2.279,4.382 -0.506,0.723 -1.061,1.354 -1.674,1.793 -0.616,0.439 -1.275,0.68 -1.969,0.6 -0.29,-0.033 -0.558,0.311 -0.424,0.612 0.493,1.116 0.67,2.277 0.592,3.411 -0.038,0.567 -0.141,1.128 -0.297,1.673 -0.156,0.55 -0.364,1.095 -0.622,1.612 -1.028,2.07 -2.82,3.784 -4.869,4.581 -0.172,0.067 -0.247,0.243 -0.24,0.419 0.008,0.18 0.099,0.363 0.251,0.426 2.454,1.048 3.5,3.629 3.595,6.452 0.015,0.645 0.012,1.189 -0.135,1.656 -0.144,0.461 -0.427,0.844 -0.941,1.209 -0.634,0.455 -1.302,0.867 -1.968,1.262 -0.285,0.17 -0.249,0.627 -0.016,0.818 0.898,0.744 2.718,2.273 3.815,3.775 1.095,1.51 1.45,3.006 -0.661,3.977 -0.313,0.145 -0.377,0.664 -0.048,0.857 1.245,0.74 2.812,1.992 3.591,3.273 0.768,1.291 0.75,2.627 -1.28,3.793 h -0.001 c -0.565,-0.83 -1.12,-1.695 -1.66,-2.6 0.161,-0.301 -0.073,-0.699 -0.401,-0.68 -1.944,-3.377 -3.607,-7.213 -4.936,-11.174 -1.354,-4.02 -2.379,-8.158 -3.216,-12.065 -0.779,-3.683 -1.396,-7.158 -1.922,-10.193 0.661,0.859 1.738,1.678 2.626,2.123 0.181,0.09 0.482,-0.049 0.393,-0.287 -0.536,-1.432 -1.504,-4.668 -3.463,-4.721 0.092,-0.073 0.18,-0.15 0.264,-0.231 0.117,0.022 0.235,0.042 0.355,0.054 1.481,0.896 2.573,1.939 3.479,3.447 0.148,0.248 0.565,0.137 0.549,-0.161 -0.064,-1.189 -0.561,-2.231 -1.44,-3.034 -0.68,-0.621 -1.456,-0.77 -2.271,-0.736 -0.067,-0.027 -0.133,-0.054 -0.2,-0.076 -0.009,-0.003 -0.017,-0.002 -0.025,-0.004 0.543,-0.733 0.871,-1.652 0.981,-2.533 0.056,-0.438 0.058,-0.875 0.06,-1.297 0.001,-0.121 0.003,-0.238 0.005,-0.357 0.698,-0.461 1.413,-0.882 2.09,-1.186 0.16,-0.083 0.312,-0.149 0.491,-0.219 0.076,-0.031 0.148,-0.061 0.218,-0.091 0.084,-0.035 0.164,-0.069 0.243,-0.101 0.121,-0.037 0.253,-0.086 0.377,-0.132 0.14,-0.051 0.27,-0.1 0.395,-0.134 0.15,-0.043 0.289,-0.086 0.418,-0.129 0.08,-0.025 0.157,-0.05 0.23,-0.072 0.186,-0.047 0.358,-0.097 0.511,-0.147 l 0.189,-0.062 0.193,-1.548 -0.196,-0.007 c -0.168,-0.006 -0.364,-0.004 -0.594,0.006 -0.227,0.019 -0.461,0.059 -0.731,0.105 l -0.07,0.012 c -0.229,0.037 -0.471,0.108 -0.725,0.183 l -0.279,0.081 c -0.077,0.025 -0.142,0.047 -0.208,0.072 l -0.381,0.146 c -10e-4,0 -10e-4,0 -10e-4,0 -0.238,0.089 -0.445,0.178 -0.64,0.277 -0.055,0.024 -0.11,0.057 -0.165,0.083 0.021,-0.017 0.04,-0.032 0.06,-0.049 0.494,-0.389 1.03,-0.778 1.55,-1.127 0.654,-0.434 1.12,-0.702 1.46,-0.899 0.115,-0.066 0.214,-0.123 0.296,-0.172 l 0.13,-0.079 -0.37,-1.335 -0.162,0.01 c -0.446,0.029 -1.219,0.222 -2.354,0.974 -0.36,0.239 -0.722,0.519 -1.071,0.818 0.182,-0.269 0.367,-0.534 0.55,-0.794 0.007,-0.008 0.012,-0.016 0.018,-0.023 0.396,-0.476 0.73,-0.851 0.997,-1.151 0.255,-0.287 0.456,-0.514 0.603,-0.705 l 0.098,-0.129 -0.1,-0.118 c 0.407,-0.499 0.733,-0.868 0.976,-1.145 l 0.32,-0.366 -0.888,-1.092 -0.147,0.083 c -0.506,0.286 -1.335,0.923 -2.413,2.335 -0.224,0.289 -0.456,0.617 -0.688,0.969 -0.049,0.057 -0.098,0.111 -0.146,0.17 -0.006,0.006 -0.011,0.014 -0.017,0.02 0.064,-0.197 0.127,-0.385 0.185,-0.554 0.086,-0.248 0.162,-0.47 0.212,-0.657 0.133,-0.36 0.224,-0.661 0.277,-0.918 l 0.032,-0.154 -1.255,-0.605 -0.099,0.135 c -0.149,0.203 -0.312,0.468 -0.496,0.81 0.023,-0.251 0.031,-0.462 0.024,-0.636 l -0.007,-0.156 -1.002,-0.205 c -0.048,-0.386 -0.087,-0.686 -0.132,-0.926 l -0.029,-0.16 -1.398,-0.031 -0.035,0.162 c -0.101,0.468 -0.181,1.346 0.006,2.87 0.056,0.481 0.133,0.987 0.21,1.499 0.031,0.211 0.063,0.424 0.094,0.637 -0.011,0.098 -0.021,0.197 -0.029,0.294 -0.193,-1.017 -0.37,-2.034 -0.479,-2.948 -0.158,-1.242 -0.206,-2.092 -0.239,-2.653 l -0.029,-0.485 -1.4,-0.152 -0.046,0.163 c -0.159,0.558 -0.301,1.594 -0.075,3.356 0.001,0.013 0.004,0.027 0.005,0.041 -0.15,-0.348 -0.302,-0.657 -0.457,-0.93 -0.117,-0.204 -0.231,-0.379 -0.351,-0.535 -0.134,-0.17 -0.243,-0.303 -0.439,-0.455 l -0.145,-0.113 -0.891,0.956 -0.013,0.051 c -0.019,0.082 0.01,0.15 0.063,0.274 l 0.359,0.9 c -0.284,-0.35 -0.614,-0.627 -0.958,-0.787 -0.531,-0.26 -1.006,-0.243 -1.298,-0.189 l -0.164,0.03 0.002,1.385 0.141,0.043 c 0.161,0.051 0.338,0.117 0.48,0.223 0.211,0.153 0.412,0.4 0.6,0.734 0.127,0.227 0.247,0.49 0.361,0.775 -0.152,-0.219 -0.315,-0.434 -0.5,-0.635 -0.317,-0.338 -0.606,-0.572 -0.913,-0.742 -0.364,-0.193 -0.75,-0.313 -1.048,-0.316 -0.14,-0.018 -0.268,-0.002 -0.382,0.012 -0.036,0.005 -0.071,0.009 -0.127,0.015 -0.118,0.023 -0.228,0.058 -0.328,0.091 l -0.085,0.028 c -0.263,0.119 -0.435,0.221 -0.554,0.329 l -0.117,0.107 0.679,1.208 0.15,-0.041 c 0.186,-0.05 0.379,-0.096 0.586,-0.043 0.076,0.01 0.204,0.075 0.328,0.146 0.131,0.082 0.295,0.227 0.484,0.429 0.416,0.446 0.821,1.101 1.143,1.656 -0.643,-0.571 -1.328,-1.099 -2.051,-1.491 -0.688,-0.374 -1.337,-0.551 -1.943,-0.52 -0.661,0.034 -1.158,0.36 -1.401,0.653 l -0.108,0.129 0.892,1.055 0.134,-0.052 c 0.119,-0.047 0.226,-0.076 0.377,-0.076 0.035,0 0.071,0.002 0.105,0.004 0.172,0.019 0.543,0.097 1.098,0.399 0.765,0.408 1.628,1.049 2.474,1.689 l -0.047,-0.019 c -0.352,-0.126 -0.715,-0.255 -1.092,-0.369 -0.377,-0.075 -0.748,-0.143 -1.118,-0.202 -0.282,-0.017 -0.54,-0.018 -0.777,-0.02 l -0.193,-0.001 c -0.208,0 -0.428,0.007 -0.617,0.049 -0.392,0.066 -0.716,0.142 -0.964,0.222 l -0.159,0.053 0.196,1.376 0.15,0.02 c 0.196,0.027 0.432,0.041 0.699,0.041 0.061,0 0.125,-10e-4 0.204,-0.003 0.142,-0.011 0.298,0.002 0.468,0.015 l 0.803,0.041 c 0.188,0.033 0.381,0.063 0.575,0.092 -0.063,0.016 -0.129,0.027 -0.191,0.045 -0.167,0.039 -0.336,0.092 -0.524,0.165 -0.001,0 -0.001,0.001 -0.001,0.001 l -0.304,0.113 c -0.052,0.02 -0.102,0.041 -0.161,0.067 l -0.211,0.104 c -0.192,0.094 -0.374,0.184 -0.533,0.291 l -0.049,0.033 c -0.189,0.127 -0.352,0.236 -0.5,0.358 -0.147,0.13 -0.268,0.249 -0.37,0.355 l -0.117,0.123 0.843,1.117 0.145,-0.064 c 0.119,-0.051 0.249,-0.116 0.385,-0.191 0.057,-0.026 0.115,-0.054 0.177,-0.081 0.099,-0.045 0.205,-0.094 0.318,-0.15 0.093,-0.048 0.196,-0.088 0.306,-0.131 0.099,-0.039 0.202,-0.08 0.295,-0.123 0.063,-0.023 0.129,-0.045 0.197,-0.067 0.057,-0.019 0.115,-0.037 0.177,-0.06 0.144,-0.053 0.269,-0.091 0.405,-0.123 0.859,-0.254 1.898,-0.35 2.874,-0.371 0.3,1.126 0.953,2.22 1.14,2.517 0.46,0.733 1.019,1.265 1.646,1.59 -1.648,0.775 -0.784,4.673 -1.648,5.925 -0.2,0.289 0.225,0.545 0.458,0.346 0.818,-0.699 1.371,-1.566 1.831,-2.533 0.495,-1.043 0.364,-2.391 0.942,-3.359 0.003,0 0.006,0 0.009,0 -0.08,0.551 0.143,1.168 0.302,1.676 0.447,1.432 0.905,2.832 1.427,4.236 0.354,2.123 0.751,4.385 1.217,6.746 0.792,3.955 1.772,8.163 3.098,12.284 0.473,1.471 0.991,2.928 1.55,4.359 -1.745,0.598 -2.636,-0.51 -3.095,-2.162 -0.241,-0.908 -0.418,-1.924 -0.506,-2.902 -0.094,-0.977 -0.119,-1.895 -0.114,-2.527 0.003,-0.385 -0.361,-0.641 -0.695,-0.486 -1.166,0.537 -2.407,0.979 -3.677,1.291 -0.064,-0.77 -0.109,-1.543 -0.146,-2.32 l -0.068,-1.434 c -0.026,-0.48 -0.073,-0.945 -0.119,-1.422 -0.005,-0.049 -0.023,-0.09 -0.04,-0.131 -0.005,-0.014 -0.009,-0.029 -0.014,-0.043 -0.002,-0.004 -0.004,-0.01 -0.006,-0.014 -0.089,-0.217 -0.319,-0.393 -0.576,-0.299 -0.064,0.008 -0.121,0.029 -0.166,0.064 -0.963,0.391 -1.979,0.441 -2.982,0.254 -0.52,-0.107 -1.07,-0.24 -1.602,-0.434 -0.533,-0.191 -1.058,-0.432 -1.564,-0.707 -0.503,-0.271 -0.968,-0.609 -1.398,-0.985 -0.445,-0.355 -0.854,-0.756 -1.218,-1.186 -0.302,-0.357 -0.404,-0.788 -0.831,-1.038 -0.172,-0.1 -0.418,-0.086 -0.534,0.043 -0.587,0.652 -1.27,1.061 -2.012,1.297 -0.754,0.252 -1.559,0.324 -2.368,0.248 -0.815,-0.068 -1.621,-0.316 -2.424,-0.622 -0.811,-0.289 -1.594,-0.691 -2.307,-1.18 -0.198,-0.136 -0.48,-0.112 -0.609,0.066 -1.263,1.692 -3.573,2.351 -5.661,2.401 -0.408,0.011 -0.545,0.51 -0.201,0.747 0.489,0.336 1.105,0.771 1.73,1.271 0.622,0.512 1.268,1.037 1.774,1.717 1.034,1.309 1.639,2.727 1.106,4.014 -0.109,0.271 0.097,0.59 0.387,0.518 1.052,-0.199 2.073,-0.07 2.99,0.287 0.23,0.09 0.452,0.193 0.668,0.311 0.21,0.127 0.409,0.275 0.602,0.432 0.385,0.314 0.734,0.674 1.042,1.066 0.309,0.393 0.575,0.82 0.795,1.268 0.218,0.453 0.371,0.965 0.483,1.467 0.222,1.014 0.239,2.068 0.038,3.09 -0.067,0.342 0.361,0.484 0.599,0.264 0.959,-0.898 2.015,-1.285 3.118,-1.326 1.098,-0.033 2.25,0.268 3.26,0.906 0.94,0.563 1.438,1.051 1.279,2.205 -0.105,0.725 -0.275,1.455 -0.466,2.164 -0.083,0.305 0.211,0.506 0.479,0.428 0.514,-0.152 1.305,-0.369 2.186,-0.531 0.438,-0.08 0.904,-0.154 1.359,-0.189 0.449,-0.029 0.896,-0.033 1.313,0.002 0.834,0.068 1.552,0.293 1.929,0.75 0.189,0.229 0.294,0.516 0.284,0.871 -0.012,0.359 -0.143,0.793 -0.412,1.299 -0.158,0.301 0.069,0.672 0.418,0.586 0.663,-0.162 1.468,-0.279 2.271,-0.295 0.8,-0.012 1.619,0.061 2.245,0.32 1.267,0.5 1.927,1.588 0.713,3.52 -0.209,0.336 0.111,0.736 0.484,0.596 1.555,-0.592 3.579,-0.133 4.917,0.975 0.654,0.561 1.145,1.272 1.323,2.055 0.184,0.779 0.048,1.641 -0.549,2.514 -0.17,0.252 -0.041,0.734 0.338,0.664 1.599,-0.297 3.271,0.68 4.473,2.17 0.691,0.813 1.224,1.773 1.579,2.717 -0.243,0.209 -0.537,0.355 -0.871,0.42 -0.301,0.064 -0.62,0.082 -0.949,0.041 -0.333,-0.047 -0.67,-0.147 -0.997,-0.293 -0.649,-0.285 -1.268,-0.799 -1.74,-1.459 -0.212,-0.297 -0.536,-0.227 -0.462,0.184 0.206,1.117 0.114,1.795 -0.145,2.178 -0.13,0.188 -0.303,0.301 -0.504,0.348 -0.205,0.037 -0.439,0.012 -0.684,-0.064 -0.246,-0.078 -0.505,-0.207 -0.765,-0.371 -0.264,-0.174 -0.527,-0.383 -0.781,-0.615 -0.506,-0.463 -0.968,-1.01 -1.33,-1.535 -0.181,-0.26 -0.444,-0.156 -0.439,0.191 0.023,1.127 -0.226,1.707 -0.624,1.896 -0.396,0.197 -0.932,0.014 -1.482,-0.389 -0.548,-0.387 -1.111,-1 -1.589,-1.621 -0.476,-0.613 -0.878,-1.264 -1.135,-1.721 -0.156,-0.281 -0.389,-0.215 -0.453,0.129 -0.222,1.186 -0.561,2.307 -1.012,3.365 -0.347,-0.545 -0.677,-1.111 -0.982,-1.689 -0.375,-0.709 -0.726,-1.428 -1.077,-2.15 -0.026,-0.057 -0.06,-0.096 -0.094,-0.123 -0.106,-0.117 -0.255,-0.123 -0.341,0.086 -0.03,0.045 -0.053,0.096 -0.063,0.154 -0.653,1.797 -2.018,2.502 -3.415,2.543 -0.71,0.023 -1.407,-0.256 -2.008,-0.725 -0.248,-0.189 -0.392,-0.539 -0.688,-0.59 -0.119,-0.02 -0.262,0.096 -0.308,0.26 -0.459,1.666 -1.392,2.629 -2.49,3.031 -1.099,0.393 -2.351,0.221 -3.401,-0.373 -0.146,-0.082 -0.339,0.008 -0.417,0.211 -0.768,1.984 -2.43,2.953 -4.059,3.305 -0.315,0.068 -0.427,0.574 -0.153,0.758 0.775,0.522 1.975,1.357 2.946,2.391 0.966,1.037 1.715,2.275 1.498,3.654 -0.047,0.289 0.197,0.555 0.436,0.422 1.768,-0.99 3.549,-0.764 5.094,0.191 1.542,0.953 2.872,2.641 3.564,4.625 0.113,0.332 0.571,0.252 0.662,-0.057 0.748,-2.502 2.651,-3.664 4.784,-4.035 0.983,-0.16 1.598,-0.137 2.234,0.844 0.398,0.596 0.776,1.223 1.146,1.855 0.157,0.272 0.512,0.201 0.638,-0.045 0.5,-0.967 1.487,-2.898 2.477,-4.127 1.002,-1.223 2.029,-1.719 3.128,0.256 0.162,0.295 0.574,0.297 0.665,-0.043 0.354,-1.314 0.994,-2.979 1.767,-3.887 0.395,-0.441 0.83,-0.701 1.337,-0.619 0.51,0.084 1.096,0.516 1.778,1.412 0.239,0.318 0.672,0.144 0.634,-0.25 -0.075,-0.822 0.074,-1.656 0.352,-2.408 0.14,-0.375 0.315,-0.721 0.518,-1.033 0.197,-0.322 0.425,-0.607 0.675,-0.844 0.51,-0.459 1.082,-0.787 1.757,-0.791 0.665,-0.023 1.406,0.221 2.21,0.871 0.232,0.189 0.669,0.109 0.578,-0.266 -0.185,-0.783 -0.108,-1.535 0.137,-2.215 0.067,-0.207 0.153,-0.402 0.248,-0.596 0.308,0.25 0.618,0.531 0.937,0.83 0.305,0.289 0.574,0.619 0.862,0.941 0.287,0.324 0.552,0.668 0.787,1.027 0.231,0.361 0.476,0.707 0.655,1.082 0.188,0.373 0.327,0.762 0.448,1.135 0.232,0.754 0.249,1.572 10e-4,2.348 -0.114,0.346 0.308,0.574 0.587,0.416 0.906,-0.51 1.713,-0.613 2.439,-0.496 0.358,0.064 0.69,0.197 0.991,0.387 0.31,0.18 0.599,0.404 0.853,0.682 0.502,0.568 0.936,1.246 1.204,2.049 0.271,0.791 0.417,1.635 0.31,2.48 -0.048,0.375 0.387,0.678 0.67,0.352 1.548,-1.729 2.567,-1.523 3.412,-0.594 0.415,0.486 0.794,1.129 1.123,1.844 0.166,0.355 0.317,0.73 0.455,1.094 0.139,0.357 0.262,0.711 0.364,1.041 0.101,0.33 0.549,0.404 0.73,0.098 0.589,-0.977 1.188,-1.369 1.788,-1.371 0.301,0 0.603,0.105 0.906,0.277 0.305,0.16 0.613,0.397 0.921,0.682 0.616,0.582 1.243,1.309 1.818,2.039 0.573,0.74 1.095,1.426 1.443,1.924 0.212,0.301 0.622,0.273 0.774,-0.057 0.531,-1.146 1.139,-2.27 1.805,-3.313 0.467,0.561 0.934,1.119 1.412,1.676 0.584,0.688 1.188,1.385 1.834,2.027 0.049,0.047 0.103,0.08 0.158,0.102 0.191,0.103 0.449,0.084 0.562,-0.148 0.042,-0.051 0.069,-0.109 0.076,-0.17 0.811,-1.891 2.532,-2.926 4.383,-3.545 0.472,-0.166 0.962,-0.264 1.46,-0.305 0.494,-0.061 0.998,-0.066 1.505,-0.021 0.418,0.039 0.776,0.26 1.188,0.109 0.166,-0.059 0.293,-0.25 0.266,-0.42 -0.137,-0.863 -0.058,-1.639 0.163,-2.326 0.216,-0.701 0.575,-1.314 1.035,-1.832 0.447,-0.547 1,-0.99 1.607,-1.371 0.596,-0.402 1.28,-0.676 1.962,-0.932 0.191,-0.068 0.298,-0.293 0.216,-0.496 -0.397,-0.992 -0.451,-1.971 -0.354,-2.906 0.048,-0.467 0.157,-0.898 0.273,-1.334 0.117,-0.438 0.266,-0.85 0.438,-1.232 0.133,-0.297 -0.229,-0.668 -0.535,-0.559 -0.442,0.15 -0.98,0.355 -1.602,0.477 -0.629,0.111 -1.278,0.211 -1.954,0.145 -1.322,-0.078 -2.563,-0.666 -3.267,-1.857 -0.153,-0.248 -0.438,-0.334 -0.484,-0.103 -0.388,1.662 -1.8,2.326 -3.215,1.99 -0.359,-0.09 -0.716,-0.23 -1.06,-0.418 -0.345,-0.195 -0.687,-0.457 -1,-0.752 -0.629,-0.578 -1.182,-1.377 -1.605,-2.279 -0.143,-0.303 -0.367,-0.141 -0.352,0.176 0.066,1.281 -0.173,2.268 -0.643,3.029 -0.474,0.725 -1.174,1.211 -1.958,1.398 -0.36,0.103 -0.659,0.113 -0.916,-0.01 -0.257,-0.123 -0.474,-0.391 -0.663,-0.891 -0.234,-0.635 -0.422,-1.299 -0.58,-1.965 -0.067,-0.285 -0.279,-0.25 -0.387,-0.02 -0.206,0.445 -0.536,1.092 -0.962,1.76 -0.424,0.678 -0.938,1.326 -1.461,1.781 -0.525,0.471 -1.045,0.697 -1.433,0.551 -0.389,-0.139 -0.625,-0.689 -0.568,-1.803 0.015,-0.328 -0.225,-0.484 -0.423,-0.213 -0.381,0.523 -0.865,1.057 -1.403,1.508 -0.269,0.227 -0.549,0.43 -0.829,0.596 -0.278,0.164 -0.551,0.275 -0.813,0.346 -1.048,0.291 -1.828,-0.336 -1.274,-2.482 0.099,-0.383 -0.195,-0.539 -0.451,-0.244 -0.527,0.609 -1.217,1.088 -1.918,1.307 -0.703,0.227 -1.464,0.27 -2.079,0.049 -0.311,-0.105 -0.604,-0.248 -0.832,-0.457 -0.227,-0.213 -0.404,-0.471 -0.516,-0.766 -0.231,-0.578 -0.137,-1.363 0.334,-2.242 0.958,0.232 1.781,0.565 2.392,1.096 0.309,0.27 0.973,-0.004 1.043,-0.334 0.219,-1.094 0.841,-1.895 1.623,-2.547 0.197,-0.162 0.412,-0.303 0.633,-0.441 0.218,-0.141 0.448,-0.268 0.687,-0.383 0.485,-0.223 0.988,-0.426 1.522,-0.572 2.114,-0.588 4.56,-0.633 6.105,0.279 0.343,0.205 0.993,-0.129 0.909,-0.557 -0.459,-2.344 0.658,-3.385 2.288,-3.894 1.629,-0.492 3.83,-0.457 5.38,-0.266 0.39,0.055 0.821,-0.398 0.696,-0.746 -0.798,-2.24 0.645,-3.393 2.698,-4.234 0.51,-0.221 1.066,-0.4 1.63,-0.588 0.56,-0.184 1.154,-0.361 1.676,-0.486 0.269,-0.065 0.532,-0.125 0.786,-0.186 0.257,-0.063 0.515,-0.141 0.756,-0.201 0.486,-0.127 0.924,-0.234 1.281,-0.317 0.437,-0.098 0.757,-0.611 0.604,-0.973 -0.296,-0.701 -0.585,-1.502 -0.831,-2.289 -0.186,-0.594 -0.345,-1.199 -0.492,-1.811 0.337,-0.125 0.673,-0.25 0.997,-0.383 0.509,-0.213 1.016,-0.424 1.521,-0.637 0.512,-0.217 1.027,-0.441 1.548,-0.678 0.513,-0.236 0.997,-0.494 1.502,-0.768 0.074,-0.041 0.139,-0.098 0.196,-0.162 0.218,-0.209 0.376,-0.57 0.251,-0.846 -0.016,-0.086 -0.048,-0.154 -0.097,-0.195 -0.112,-0.215 -0.213,-0.438 -0.296,-0.67 -0.115,-0.287 -0.212,-0.586 -0.288,-0.895 -0.153,-0.619 -0.23,-1.275 -0.247,-1.955 -0.091,-1.344 0.073,-2.795 0.263,-4.176 0.054,-0.346 0.125,-0.688 0.211,-1.025 0.078,-0.334 0.162,-0.654 0.266,-0.975 0.197,-0.629 0.477,-1.266 0.751,-1.814 0.235,-0.463 0.607,-0.746 0.699,-1.295 0.02,-0.2 -0.075,-0.455 -0.238,-0.52 z m -27.978,-5.068 c 0.287,-0.549 0.712,-1.03 1.275,-1.335 0.057,-0.031 0.115,-0.051 0.173,-0.075 -0.536,0.403 -1.021,0.892 -1.448,1.41 z m 2.874,0.996 c -0.564,0.576 -1.186,1.191 -1.889,1.654 0.277,-0.736 0.55,-1.479 0.962,-2.161 0.48,-0.792 1.006,-1.25 1.752,-1.506 -0.168,0.715 -0.268,1.442 -0.825,2.013 z m 1.479,-2.178 c 0.017,-0.002 0.034,-0.004 0.05,-0.008 0.136,0.068 0.279,0.127 0.427,0.178 -0.22,0.182 -0.413,0.404 -0.572,0.666 0.084,-0.297 0.128,-0.59 0.095,-0.836 z m 0.861,0.277 c 0.085,0.02 0.171,0.039 0.262,0.052 0.233,0.702 -0.355,1.73 -0.522,2.361 -0.242,0.922 -0.575,1.811 -0.937,2.691 -0.187,-1.717 0.158,-3.72 1.197,-5.104 z m 3.208,4.661 c -0.58,-0.699 -1.044,-1.559 -1.227,-2.326 -0.189,-0.787 -0.154,-1.581 -0.519,-2.292 0.167,-0.027 0.332,-0.066 0.492,-0.116 1.598,0.843 0.99,3.028 1.254,4.734 z m 5.664,-10.031 c 0.166,0.037 0.327,0.085 0.5,0.149 l 0.33,0.115 c 0.049,0.019 0.097,0.037 0.144,0.057 l 0.217,0.102 c 0.189,0.089 0.37,0.172 0.515,0.266 l 0.053,0.033 c 0.19,0.121 0.355,0.225 0.49,0.329 0.084,0.071 0.163,0.141 0.233,0.206 l -0.469,0.586 c -0.073,-0.033 -0.15,-0.07 -0.232,-0.113 -0.071,-0.033 -0.137,-0.061 -0.205,-0.09 -0.101,-0.043 -0.207,-0.089 -0.319,-0.143 -0.109,-0.053 -0.231,-0.099 -0.361,-0.146 -0.099,-0.037 -0.2,-0.074 -0.305,-0.12 -0.086,-0.03 -0.162,-0.054 -0.24,-0.078 -0.058,-0.018 -0.114,-0.036 -0.174,-0.056 -0.167,-0.058 -0.315,-0.101 -0.466,-0.133 -0.916,-0.257 -2.018,-0.357 -3.057,-0.384 0.055,-0.286 0.078,-0.567 0.057,-0.833 0.21,-0.016 0.419,-0.03 0.621,-0.035 0.487,-0.012 0.966,0.01 1.426,0.061 0.016,0.008 0.033,0.014 0.048,0.023 l 0.041,-0.01 c 0.403,0.049 0.792,0.118 1.153,0.214 z m -1.898,-1.365 c 0.38,-0.127 0.76,-0.255 1.129,-0.361 0.374,-0.069 0.762,-0.136 1.128,-0.192 0.268,-0.014 0.534,-0.016 0.778,-0.017 l 0.202,-0.001 c 0.196,0 0.4,0.005 0.571,0.041 0.316,0.051 0.583,0.105 0.8,0.162 l -0.111,0.735 c -0.204,0.018 -0.44,0.024 -0.718,0.018 -0.038,-0.004 -0.091,-0.006 -0.145,-0.006 -0.127,0 -0.262,0.01 -0.405,0.021 l -0.864,0.042 c -0.333,0.054 -0.657,0.101 -0.993,0.144 l -0.648,0.156 c -0.484,-0.055 -0.989,-0.078 -1.504,-0.066 -0.212,0.005 -0.431,0.018 -0.651,0.035 0.125,-0.074 0.25,-0.146 0.381,-0.221 0.328,-0.161 0.689,-0.326 1.05,-0.49 z m 1.743,-3.291 c 0.661,-0.339 1.273,-0.498 1.834,-0.473 0.464,0.021 0.833,0.205 1.057,0.39 l -0.513,0.573 c -0.113,-0.032 -0.244,-0.056 -0.408,-0.056 -0.048,0 -0.099,0.002 -0.151,0.006 -0.375,0.038 -0.843,0.196 -1.324,0.446 -0.904,0.455 -1.917,1.179 -2.895,1.879 -0.342,0.245 -0.678,0.484 -0.995,0.703 -0.057,0.039 -0.105,0.072 -0.159,0.107 -0.016,-0.077 -0.049,-0.15 -0.109,-0.207 -0.087,-0.08 -0.202,-0.126 -0.324,-0.115 -0.02,0 -0.038,0.006 -0.058,0.007 0.076,-0.077 0.154,-0.155 0.236,-0.237 1.104,-1.083 2.4,-2.3 3.809,-3.023 z m -2.255,-1.468 c 0.303,-0.305 0.576,-0.516 0.858,-0.663 0.313,-0.157 0.659,-0.264 0.936,-0.269 0.119,-0.014 0.217,-0.002 0.321,0.011 0.045,0.005 0.087,0.011 0.13,0.014 0.085,0.017 0.183,0.047 0.274,0.075 l 0.068,0.021 c 0.131,0.056 0.235,0.107 0.318,0.157 l -0.384,0.646 c -0.199,-0.043 -0.421,-0.067 -0.649,-0.011 -0.04,0.002 -0.108,0.021 -0.183,0.049 -0.093,0.035 -0.192,0.086 -0.303,0.146 -0.179,0.105 -0.376,0.268 -0.607,0.499 -0.506,0.514 -0.989,1.269 -1.352,1.869 -0.193,0.321 -0.38,0.646 -0.563,0.968 -0.25,0.236 -0.495,0.473 -0.729,0.702 -0.235,0.233 -0.447,0.45 -0.643,0.649 0.054,-0.156 0.108,-0.314 0.169,-0.484 0.316,-0.883 0.61,-1.596 0.923,-2.24 0.348,-0.691 0.785,-1.489 1.416,-2.139 z m -0.528,-2.28 c 0.383,-0.174 0.695,-0.195 0.94,-0.178 l -0.002,0.75 c -0.036,0.012 -0.073,0.025 -0.111,0.039 -0.14,0.054 -0.261,0.118 -0.374,0.197 -0.274,0.188 -0.522,0.471 -0.752,0.861 -0.382,0.641 -0.693,1.533 -0.994,2.396 -0.158,0.454 -0.32,0.924 -0.49,1.34 -0.254,0.632 -0.517,1.123 -0.758,1.422 -0.082,0.104 -0.157,0.18 -0.22,0.235 0.013,-0.053 0.026,-0.108 0.04,-0.163 l 0.033,-0.143 c 0.083,-0.332 0.178,-0.811 0.299,-1.508 0.029,-0.156 0.059,-0.32 0.089,-0.49 0.194,-1.1 0.438,-2.471 1.077,-3.584 0.315,-0.539 0.761,-0.967 1.223,-1.174 z m -2.808,5.183 c -0.12,0.69 -0.212,1.161 -0.293,1.485 l -0.025,0.105 c -0.126,-0.047 -0.27,-0.039 -0.387,0.032 -0.044,0.026 -0.081,0.056 -0.121,0.085 0.108,-0.361 0.244,-0.779 0.396,-1.22 0.186,-0.544 0.426,-1.196 0.688,-1.888 -0.063,0.314 -0.118,0.621 -0.169,0.91 -0.03,0.17 -0.059,0.334 -0.089,0.491 z m 0.693,-3.03 c 0.001,-0.004 0.002,-0.008 0.002,-0.012 0.11,-0.395 0.237,-0.793 0.496,-1.113 -0.203,0.358 -0.364,0.738 -0.498,1.125 z m -0.917,-1.162 c 0.233,-0.568 0.47,-1.055 0.704,-1.443 0.115,-0.189 0.225,-0.35 0.339,-0.489 0.086,-0.104 0.156,-0.185 0.243,-0.265 l 0.548,0.556 c -0.003,0.006 -0.006,0.013 -0.009,0.019 l -0.835,1.982 c -0.295,0.721 -1.041,2.568 -1.601,4.197 -0.211,0.613 -0.393,1.188 -0.512,1.621 -0.015,0.051 -0.025,0.093 -0.038,0.139 -0.014,-0.05 -0.028,-0.099 -0.042,-0.147 l -0.066,-0.233 c -0.009,-0.031 -0.026,-0.059 -0.041,-0.086 -0.019,-0.391 0.011,-0.873 0.087,-1.422 0.189,-1.349 0.657,-3.047 1.223,-4.429 z m -2.499,3.851 c 0.002,-0.016 0.002,-0.033 0.003,-0.051 0.334,-1.553 0.698,-3.271 0.881,-4.734 0.169,-1.254 0.222,-2.111 0.256,-2.679 l 0.008,-0.145 0.766,-0.08 c 0.137,0.555 0.23,1.501 0.022,3.034 -0.301,2.343 -1.28,5.105 -2.005,6.72 -0.097,-0.048 -0.212,-0.061 -0.32,-0.029 -0.011,0.004 -0.02,0.009 -0.032,0.012 0.347,-0.573 0.418,-1.972 0.421,-2.048 z m 0.79,1.117 c -0.021,0.226 -0.027,0.433 -0.028,0.628 -0.091,0 -0.182,0.027 -0.259,0.081 0.095,-0.224 0.191,-0.462 0.287,-0.709 z m -1.699,-8.04 0.777,-0.017 c 0.082,0.47 0.125,1.271 -0.044,2.576 -0.03,0.241 -0.065,0.488 -0.104,0.738 -0.021,-0.124 -0.044,-0.249 -0.069,-0.373 -0.195,-0.975 -0.411,-1.703 -0.643,-2.162 l -0.02,-0.043 c 0.037,-0.286 0.07,-0.522 0.103,-0.719 z m -0.398,1.078 c 0.191,0.434 0.373,1.079 0.542,1.922 0.268,1.34 0.395,2.76 0.345,3.826 -0.018,0.081 -0.036,0.164 -0.054,0.244 -0.12,0.556 -0.22,1.025 -0.302,1.424 -0.051,-0.23 -0.102,-0.533 -0.149,-0.819 -0.037,-0.227 -0.078,-0.474 -0.127,-0.735 -0.128,-0.762 -0.316,-1.648 -0.495,-2.504 -0.092,-0.432 -0.181,-0.855 -0.26,-1.251 -0.182,-0.901 -0.269,-1.53 -0.275,-1.957 z m 0.398,8.09 c -0.004,0.025 -0.01,0.053 -0.015,0.077 -0.032,0.027 -0.064,0.054 -0.095,0.082 -0.021,-0.113 -0.045,-0.227 -0.075,-0.338 -0.014,-0.049 -0.038,-0.092 -0.068,-0.132 -0.007,-0.046 -0.011,-0.092 -0.019,-0.14 0.008,0.018 0.016,0.033 0.023,0.05 0.004,-0.004 0.009,-0.007 0.013,-0.011 0.062,0.216 0.133,0.35 0.236,0.412 z m -2.796,-6.866 c -0.109,-0.281 -0.189,-0.522 -0.245,-0.727 l 0.705,-0.322 c 0.133,0.186 0.277,0.419 0.435,0.695 l 0.072,0.158 c 0.167,0.358 0.357,0.765 0.523,1.275 0.015,0.043 0.029,0.09 0.044,0.135 0.065,0.322 0.135,0.654 0.207,0.996 0.18,0.854 0.366,1.734 0.494,2.492 0.013,0.07 0.024,0.136 0.036,0.203 0.011,0.154 0.018,0.303 0.023,0.45 -0.012,-0.022 -0.023,-0.046 -0.033,-0.069 -0.198,-0.653 -0.48,-1.319 -0.83,-1.945 -0.192,-0.347 -0.41,-0.691 -0.645,-1.025 -0.102,-0.319 -0.203,-0.633 -0.306,-0.927 -0.087,-0.271 -0.177,-0.517 -0.259,-0.741 -0.086,-0.24 -0.164,-0.453 -0.221,-0.648 z m -1.147,2.205 c -0.421,-0.48 -0.776,-0.858 -1.063,-1.16 -0.2,-0.213 -0.367,-0.392 -0.5,-0.544 -0.003,-0.007 -0.006,-0.013 -0.007,-0.019 l 0.499,-0.559 c 0.442,0.256 1.094,0.739 1.89,1.645 0.524,0.597 1.002,1.273 1.383,1.96 0.393,0.698 0.699,1.449 0.889,2.171 0.068,0.252 0.113,0.482 0.149,0.703 -0.086,0.021 -0.165,0.066 -0.223,0.133 -0.003,0.002 -0.004,0.006 -0.006,0.008 -0.16,-0.365 -0.379,-0.747 -0.642,-1.1 -0.105,-0.145 -0.218,-0.291 -0.339,-0.438 -0.54,-0.938 -1.27,-1.951 -2.03,-2.8 z m -1.681,1.423 c -0.705,-0.44 -1.226,-0.724 -1.569,-0.911 -0.061,-0.033 -0.115,-0.064 -0.167,-0.092 l 0.211,-0.721 c 0.439,0.061 1.128,0.273 2.113,0.891 0.936,0.584 1.878,1.402 2.602,2.236 0.093,0.135 0.186,0.27 0.277,0.4 0.287,0.416 0.532,0.768 0.748,1.076 0.066,0.131 0.122,0.26 0.169,0.385 -0.011,-0.009 -0.021,-0.019 -0.033,-0.026 -0.32,-0.239 -0.648,-0.461 -0.977,-0.673 -0.052,-0.049 -0.102,-0.096 -0.157,-0.143 -0.465,-0.421 -1.001,-0.862 -1.549,-1.274 -0.532,-0.397 -1.108,-0.793 -1.668,-1.148 z m 3.341,3.089 c -0.004,0 -0.032,0.001 -0.102,0.009 -0.113,0.013 -0.216,0.065 -0.286,0.149 -0.021,0.025 -0.038,0.053 -0.052,0.08 -0.035,0.07 -0.051,0.148 -0.038,0.228 0.002,0.014 0.004,0.027 0.008,0.041 0.011,0.094 0.014,0.188 0.02,0.281 -0.688,-0.42 -1.386,-0.799 -2.053,-1.082 -0.176,-0.085 -0.355,-0.16 -0.564,-0.236 -0.074,-0.028 -0.145,-0.057 -0.214,-0.084 -0.097,-0.039 -0.189,-0.076 -0.299,-0.115 -0.136,-0.041 -0.265,-0.086 -0.389,-0.129 -0.165,-0.057 -0.32,-0.111 -0.466,-0.15 -0.15,-0.04 -0.29,-0.081 -0.419,-0.121 -0.091,-0.027 -0.175,-0.054 -0.269,-0.079 -0.112,-0.027 -0.217,-0.054 -0.313,-0.081 l -0.107,-0.813 c 0.114,0 0.239,0.002 0.371,0.007 0.206,0.017 0.442,0.055 0.717,0.1 l 0.075,0.012 c 0.208,0.033 0.445,0.099 0.698,0.168 l 0.289,0.078 c 0.06,0.02 0.12,0.04 0.183,0.061 l 0.413,0.15 c 0.22,0.078 0.416,0.158 0.61,0.25 0.751,0.328 1.536,0.773 2.308,1.297 -0.039,-0.01 -0.078,-0.021 -0.121,-0.021 z m 0.482,2.836 c -0.052,-0.391 -0.054,-0.784 -0.056,-1.2 -0.002,-0.204 -0.002,-0.409 -0.009,-0.618 0.185,0.163 0.358,0.426 0.528,0.795 0.084,0.181 0.294,0.276 0.495,0.229 0.151,-0.037 0.265,-0.146 0.304,-0.282 0.052,0.026 0.111,0.044 0.173,0.048 0.176,0.013 0.342,-0.08 0.415,-0.23 0.036,-0.073 0.071,-0.145 0.106,-0.211 0.027,0.078 0.08,0.148 0.153,0.199 0.121,0.083 0.279,0.101 0.416,0.045 0.389,-0.154 0.605,-0.453 0.789,-0.73 0.096,0.341 0.186,0.679 0.255,0.989 0.038,0.17 0.186,0.297 0.369,0.316 0.184,0.018 0.357,-0.075 0.433,-0.233 0.029,-0.061 0.057,-0.123 0.084,-0.186 0.013,0.01 0.025,0.019 0.04,0.027 0.169,0.102 0.39,0.078 0.529,-0.058 0.087,-0.083 0.174,-0.179 0.262,-0.276 0.085,-0.094 0.174,-0.193 0.263,-0.275 -0.032,0.119 -0.06,0.246 -0.078,0.377 -0.027,0.182 0.079,0.357 0.259,0.428 0.179,0.069 0.385,0.016 0.501,-0.131 0.105,-0.133 0.193,-0.277 0.279,-0.416 0.033,-0.055 0.065,-0.107 0.097,-0.154 0.031,0.061 0.078,0.117 0.142,0.158 0.091,0.06 0.199,0.082 0.302,0.068 -0.042,0.855 -0.614,2.085 -1.237,3.022 -0.482,0.728 -1.334,1.594 -2.65,1.594 -0.001,0 -0.001,0 -0.001,0 -0.149,0 -0.305,-0.011 -0.461,-0.034 -1.598,-0.232 -2.508,-1.804 -2.702,-3.261 z m -6.39,-35.901 c 0.146,-0.076 0.295,-0.148 0.442,-0.219 0.655,-0.303 1.27,-0.521 1.827,-0.65 0.401,-0.094 0.773,-0.142 1.106,-0.142 0.429,0 0.787,0.081 1.049,0.233 l -0.36,0.676 c -0.266,-0.006 -0.773,0.021 -1.566,0.208 -0.474,0.108 -1.037,0.273 -1.73,0.506 l -0.766,0.272 c 0.018,-0.018 0.038,-0.037 0.054,-0.055 l 0.091,-0.102 -0.318,-0.634 z m -6.99,9.955 c -0.186,0.724 -0.246,1.493 -0.148,2.166 0.039,0.332 0.082,0.626 0.12,0.884 0.049,0.34 0.09,0.621 0.101,0.839 l -0.729,0.192 c -0.07,-0.141 -0.148,-0.322 -0.225,-0.564 -0.094,-0.291 -0.208,-0.697 -0.265,-1.254 -0.079,-0.61 -0.022,-1.311 0.159,-1.932 0.178,-0.703 0.559,-1.303 0.845,-1.678 0.086,-0.107 0.167,-0.203 0.249,-0.3 -0.061,0.495 -0.115,1.015 -0.111,1.516 0,0.044 0.003,0.087 0.004,0.131 z m 1.712,-5.323 -0.027,0.006 c -0.006,-0.002 -0.011,-0.003 -0.016,-0.005 -0.015,-0.036 -0.034,-0.068 -0.06,-0.098 -0.003,-0.002 -0.005,-0.004 -0.006,-0.006 0.012,-0.009 0.024,-0.018 0.04,-0.027 l -0.029,-0.057 0.029,0.018 c 0.071,-0.112 0.178,-0.248 0.31,-0.394 0.056,-0.063 0.116,-0.124 0.178,-0.188 0.091,-0.091 0.184,-0.188 0.271,-0.291 0.142,-0.155 0.307,-0.324 0.5,-0.508 0.166,-0.176 0.328,-0.337 0.484,-0.478 0.306,-0.278 0.526,-0.446 0.692,-0.527 l 0.569,0.563 c -0.109,0.212 -0.308,0.451 -0.579,0.698 -0.171,0.153 -0.361,0.311 -0.558,0.461 -0.201,0.139 -0.422,0.275 -0.663,0.414 -0.196,0.122 -0.427,0.209 -0.626,0.281 -0.204,0.073 -0.375,0.119 -0.509,0.138 z m 0.263,-1.171 c 0.015,-0.035 0.028,-0.067 0.042,-0.105 0.038,-0.13 0.075,-0.27 0.113,-0.412 0.037,0.079 0.092,0.139 0.168,0.174 -0.068,0.07 -0.136,0.141 -0.198,0.209 -0.042,0.048 -0.083,0.089 -0.125,0.134 z m 2.327,1.284 c 0.212,0.104 0.454,0.221 0.713,0.363 0.134,0.069 0.273,0.152 0.414,0.239 -0.477,-0.251 -0.956,-0.45 -1.391,-0.567 -0.382,-0.115 -0.794,-0.161 -1.146,-0.139 0.055,-0.028 0.11,-0.051 0.162,-0.084 0.165,-0.094 0.317,-0.194 0.471,-0.295 0.114,0.159 0.381,0.291 0.777,0.483 z m -2.198,0.207 c -0.012,0.018 -0.022,0.035 -0.03,0.054 -0.02,-0.013 -0.037,-0.02 -0.056,-0.03 0.029,-0.008 0.057,-0.017 0.086,-0.024 z m 1.828,5.902 0.043,-0.141 c 0.033,-0.104 0.058,-0.217 0.077,-0.342 0.133,0.506 0.221,1 0.251,1.445 0.023,0.155 0.019,0.309 0.015,0.459 -0.001,0.063 -0.003,0.124 -0.003,0.174 l -0.005,0.138 c -0.004,0.146 -0.009,0.271 -0.027,0.38 -0.041,0.219 -0.087,0.408 -0.137,0.563 l -0.751,-0.111 c -0.018,-0.14 -0.027,-0.303 -0.026,-0.487 -0.002,-0.074 -0.009,-0.153 -0.017,-0.237 -0.006,-0.074 -0.013,-0.15 -0.017,-0.242 -0.006,-0.064 -0.007,-0.131 -0.008,-0.2 -0.002,-0.114 -0.004,-0.244 -0.024,-0.366 -0.02,-0.314 -0.061,-0.661 -0.111,-1.016 -0.015,-0.003 -0.025,-0.008 -0.04,-0.01 z m -1.236,-4.494 0.061,0.087 c 0.041,0.058 0.083,0.115 0.12,0.18 l 0.188,0.345 c 0.103,0.171 0.163,0.354 0.228,0.548 l 0.045,0.136 c 0.097,0.28 0.157,0.505 0.192,0.71 l 0.027,0.143 c 0.037,0.188 0.073,0.37 0.093,0.546 0.075,0.692 0.039,1.132 -0.02,1.401 l -0.771,0.006 c -0.083,-0.285 -0.141,-0.713 -0.204,-1.289 l -0.082,-0.623 c -0.02,-0.23 -0.059,-0.449 -0.101,-0.672 -0.011,-0.061 -0.02,-0.123 -0.029,-0.186 -0.024,-0.161 -0.049,-0.328 -0.099,-0.461 l -0.077,-0.291 c -0.016,-0.063 -0.038,-0.128 -0.062,-0.193 -0.014,-0.038 -0.027,-0.076 -0.04,-0.117 -0.121,-0.375 -0.238,-0.758 -0.259,-1.012 -0.006,-0.109 -0.004,-0.185 0.002,-0.235 0.034,0.032 0.082,0.082 0.142,0.157 0.038,0.051 0.086,0.106 0.139,0.166 0.052,0.059 0.107,0.121 0.161,0.193 0.102,0.129 0.222,0.288 0.346,0.461 z m 4.006,5.524 c 0.066,0.982 -0.032,1.593 -0.146,1.959 l -0.743,-0.102 c -0.021,-0.201 -0.034,-0.461 -0.051,-0.793 -0.015,-0.277 -0.033,-0.604 -0.06,-0.99 -0.041,-0.623 -0.181,-2.212 -0.568,-3.492 -0.141,-0.539 -0.333,-0.971 -0.475,-1.285 -0.038,-0.086 -0.08,-0.178 -0.11,-0.256 0.064,0.035 0.147,0.09 0.244,0.172 0.117,0.084 0.231,0.213 0.363,0.363 l 0.083,0.096 c 0.144,0.196 0.307,0.418 0.438,0.67 0.545,0.956 0.937,2.358 1.025,3.658 z m 0.317,-3.678 c -0.222,-0.16 -0.524,-0.409 -0.94,-0.75 l -0.064,-0.053 c -0.922,-0.753 -1.7,-1.32 -2.307,-1.685 -0.342,-0.217 -0.641,-0.356 -0.883,-0.468 l -0.213,-0.094 c -0.028,-0.012 -0.06,-0.025 -0.089,-0.037 0.061,-0.029 0.14,-0.052 0.224,-0.066 0.331,-0.053 0.771,-0.011 1.182,0.111 0.858,0.233 1.9,0.792 2.718,1.46 0.507,0.416 0.856,0.803 1.048,1.15 -0.004,0.014 -0.006,0.027 -0.01,0.041 l -0.514,0.394 c -0.05,0.005 -0.101,0.004 -0.152,-0.003 z m 2.067,2.949 c 0.024,0.141 0.023,0.279 0.02,0.414 0,0.056 -0.001,0.109 0,0.152 l -0.004,0.113 c -0.003,0.135 -0.006,0.252 -0.022,0.35 -0.036,0.189 -0.076,0.354 -0.121,0.488 l -0.761,-0.105 c -0.02,-0.118 -0.03,-0.257 -0.033,-0.413 -0.003,-0.063 -0.01,-0.131 -0.019,-0.203 -0.007,-0.064 -0.016,-0.133 -0.02,-0.217 -0.006,-0.053 -0.008,-0.108 -0.009,-0.166 -0.004,-0.104 -0.008,-0.219 -0.028,-0.323 -0.068,-0.795 -0.295,-1.819 -0.592,-2.673 l -0.027,-0.084 0.443,-0.342 c 0.039,0.053 0.077,0.103 0.117,0.16 0.551,0.773 0.974,1.91 1.056,2.849 z m 0.281,-4.657 c 0.214,0.12 0.439,0.254 0.664,0.392 0.186,0.128 0.366,0.27 0.549,0.414 l 0.099,0.076 c 0.192,0.167 0.376,0.342 0.556,0.514 l 0.04,0.037 c 0.183,0.189 0.354,0.379 0.514,0.557 0.436,0.512 0.729,0.916 0.889,1.23 l -0.578,0.498 c -0.276,-0.205 -0.635,-0.564 -1.065,-1.069 -0.492,-0.583 -1.006,-1.171 -1.512,-1.683 l 0.179,-0.115 -0.05,-0.147 c -0.068,-0.198 -0.18,-0.437 -0.338,-0.711 -0.005,-0.008 -0.011,-0.015 -0.016,-0.023 0.023,0.011 0.045,0.018 0.069,0.03 z m -0.312,-2.152 c 0.699,0.183 2.466,0.715 3.762,1.727 0.964,0.744 1.285,1.435 1.39,1.771 l -0.679,0.313 c -0.242,-0.299 -0.609,-0.732 -1.325,-1.293 -0.927,-0.73 -2.283,-1.434 -3.359,-1.963 -0.337,-0.168 -1.244,-0.619 -1.608,-0.884 0.371,0.005 1.048,0.127 1.819,0.329 z m 2.127,-2.461 0.121,0.013 c 0.085,0.009 0.168,0.018 0.239,0.03 l 0.344,0.081 c 0.215,0.053 0.405,0.104 0.558,0.149 0.216,0.087 0.417,0.186 0.6,0.293 l -0.292,0.693 c -0.146,-0.018 -0.324,-0.053 -0.555,-0.104 -0.15,-0.017 -0.316,-0.04 -0.497,-0.07 l -0.301,-0.056 c -0.064,-0.011 -0.135,-0.017 -0.206,-0.023 -0.045,-0.004 -0.091,-0.008 -0.134,-0.013 -0.318,-0.043 -0.673,-0.076 -1.046,-0.102 l 0.098,-0.236 -0.106,-0.094 c -0.188,-0.166 -0.548,-0.385 -1.204,-0.485 -0.081,-0.013 -0.171,-0.02 -0.259,-0.028 0.885,-0.128 1.847,-0.153 2.64,-0.048 z m -6,1.299 c 0.189,-0.172 0.479,-0.344 0.797,-0.473 0.721,-0.297 1.673,-0.449 2.429,-0.389 0.117,0.008 0.228,0.02 0.331,0.036 0.454,0.069 0.729,0.2 0.888,0.304 l -0.302,0.727 c -0.138,0 -0.321,-0.016 -0.567,-0.035 l -0.42,-0.032 c -0.607,-0.051 -1.456,-0.062 -2.215,-0.03 -0.192,0.006 -0.37,0.018 -0.529,0.027 -0.225,0.014 -0.421,0.025 -0.54,0.014 0.024,-0.038 0.063,-0.088 0.128,-0.149 z m 0.24,1.016 c 0.952,0.213 2.09,0.867 2.843,1.641 0.117,0.102 0.21,0.217 0.301,0.329 0.037,0.046 0.073,0.091 0.104,0.126 l 0.066,0.084 c 0.09,0.113 0.172,0.217 0.232,0.314 0.105,0.184 0.188,0.347 0.248,0.49 l -0.642,0.412 c -0.102,-0.09 -0.212,-0.203 -0.331,-0.342 l -0.317,-0.32 c -0.043,-0.041 -0.083,-0.088 -0.126,-0.137 -0.074,-0.084 -0.158,-0.179 -0.25,-0.254 -0.686,-0.705 -1.587,-1.391 -2.344,-1.789 -0.262,-0.145 -0.512,-0.265 -0.729,-0.369 -0.183,-0.09 -0.397,-0.194 -0.524,-0.272 0.093,-0.022 0.239,-0.043 0.453,-0.043 0.216,0 0.566,0.022 1.016,0.13 z m -0.535,-0.499 c -0.165,-0.019 -0.328,-0.032 -0.481,-0.032 -0.035,0 -0.072,0.001 -0.109,0.002 0.014,-0.012 0.028,-0.023 0.041,-0.035 0.108,-0.098 0.203,-0.194 0.29,-0.29 -0.013,0.108 0.022,0.186 0.054,0.231 0.044,0.06 0.118,0.097 0.205,0.124 z m 1.277,-3.704 c -0.034,0.02 -0.067,0.039 -0.102,0.059 0.006,0.002 0.013,0 0.02,0.002 0.056,-0.016 0.114,-0.027 0.174,-0.035 0.029,-0.003 0.054,0.001 0.078,0.003 l 0.318,0.634 c -0.183,0.166 -0.485,0.369 -0.954,0.642 l -0.204,0.118 c -0.309,0.179 -0.632,0.369 -0.941,0.564 l -0.37,-0.365 -0.113,0.034 c -0.102,0.03 -0.213,0.087 -0.337,0.166 0.212,-0.278 0.429,-0.559 0.639,-0.819 0.254,-0.203 0.531,-0.395 0.82,-0.563 0.432,-0.251 0.744,-0.376 0.972,-0.44 z m -0.793,-2.534 c 0.476,-0.461 0.839,-0.676 1.086,-0.776 l 0.449,0.633 c -0.162,0.204 -0.436,0.474 -0.834,0.859 -0.258,0.247 -0.561,0.558 -0.854,0.888 l -0.544,-0.657 -0.11,0.04 c 0.234,-0.356 0.506,-0.698 0.807,-0.987 z m -1.689,2.164 c 0.197,-0.242 0.394,-0.412 0.561,-0.554 0.112,-0.077 0.214,-0.14 0.307,-0.185 l 0.479,0.579 c 0.003,0.019 0.006,0.036 0.006,0.054 -0.041,0.066 -0.092,0.139 -0.158,0.219 -0.065,0.1 -0.152,0.201 -0.252,0.318 -0.055,0.066 -0.114,0.137 -0.174,0.211 -0.114,0.133 -0.238,0.285 -0.366,0.443 -0.467,0.378 -0.86,0.797 -1.118,1.201 -0.141,0.213 -0.247,0.433 -0.319,0.643 -0.066,0.072 -0.128,0.133 -0.174,0.166 -0.032,-0.143 -0.023,-0.512 0.129,-1.049 0.191,-0.694 0.614,-1.495 1.079,-2.046 z m -1.209,1.229 c 0.001,-0.01 0.002,-0.02 0.003,-0.03 0.006,-0.075 0.007,-0.138 0.011,-0.208 0.016,0.041 0.024,0.084 0.036,0.125 -0.018,0.038 -0.033,0.076 -0.05,0.113 z m -0.316,-2.711 c 0.157,-0.316 0.343,-0.554 0.492,-0.745 l 0.016,-0.022 c 0.116,-0.119 0.225,-0.217 0.323,-0.293 l 0.586,0.51 c -0.038,0.096 -0.093,0.201 -0.166,0.326 -0.043,0.102 -0.103,0.207 -0.17,0.326 -0.061,0.11 -0.128,0.23 -0.192,0.361 -0.209,0.393 -0.4,0.827 -0.559,1.251 -0.015,-0.184 -0.038,-0.349 -0.078,-0.481 l -0.039,-0.129 -0.585,-0.057 c -0.002,-0.026 -0.005,-0.056 -0.007,-0.081 0.097,-0.343 0.224,-0.675 0.379,-0.966 z m -0.102,1.476 c 0.054,0.271 0.061,0.657 0.021,1.175 -0.029,0.394 -0.079,0.818 -0.144,1.223 -0.09,0.438 -0.194,0.862 -0.296,1.21 -0.239,0.632 -0.431,0.925 -0.528,1.032 -0.037,-0.114 -0.084,-0.404 -0.063,-1.131 -0.018,-0.365 -0.019,-0.773 -0.003,-1.188 -0.004,-0.441 0.008,-0.86 0.034,-1.211 0.04,-0.523 0.108,-0.921 0.203,-1.184 z m -0.919,5.256 c -0.014,-0.009 -0.026,-0.019 -0.042,-0.025 l -0.067,-0.021 h -0.016 c 0.022,-0.024 0.041,-0.056 0.056,-0.1 l 0.018,-0.007 c 0.001,0.009 0.002,0.018 0.003,0.026 0.006,0.045 0.024,0.088 0.048,0.127 z m 0.14,-6.268 c 0.046,0.14 0.079,0.324 0.102,0.544 l -0.348,-0.033 -0.061,0.126 c -0.146,0.304 -0.242,0.778 -0.294,1.454 -0.017,0.23 -0.027,0.491 -0.031,0.763 -0.127,-0.532 -0.209,-1.145 -0.229,-1.733 -0.015,-0.471 0.01,-0.832 0.073,-1.078 z m -0.659,6.274 c 0.018,0.011 0.037,0.018 0.054,0.025 0.028,0.011 0.054,0.017 0.079,0.018 -0.021,0.017 -0.042,0.034 -0.064,0.056 -0.023,0.025 -0.045,0.063 -0.065,0.095 0.012,-0.071 0.012,-0.135 -0.004,-0.194 z m -0.774,-1.595 -0.095,-0.148 c -0.507,-0.803 -1.081,-1.713 -1.627,-2.363 -0.319,-0.391 -0.581,-0.668 -0.773,-0.869 -0.069,-0.074 -0.131,-0.141 -0.186,-0.2 l 0.402,-0.647 c 0.27,0.107 0.763,0.385 1.332,1.084 0.832,1 1.314,2.354 1.482,2.89 0.245,0.78 0.317,1.218 0.322,1.421 -0.124,-0.12 -0.381,-0.418 -0.857,-1.168 z m 0.476,1.345 c -0.011,-0.002 -0.02,-0.004 -0.032,-0.006 0.003,-0.006 0.006,-0.014 0.008,-0.021 0.008,0.01 0.016,0.018 0.024,0.027 z m -2.684,3.116 c 0.055,-0.182 0.154,-0.418 0.335,-0.724 0.345,-0.589 0.888,-1.206 1.387,-1.571 0.241,-0.184 0.488,-0.321 0.693,-0.389 0.082,-0.025 0.14,-0.035 0.176,-0.037 -0.029,0.137 -0.209,0.447 -0.344,0.684 l -1.052,1.826 c -0.218,0.367 -0.384,0.605 -0.523,0.748 l -0.718,-0.342 c 0.004,-0.025 0.012,-0.056 0.018,-0.084 0.017,-0.018 0.038,-0.04 0.055,-0.058 -0.012,-0.016 -0.018,-0.036 -0.027,-0.053 z m 1.703,-4.512 c -0.167,-0.137 -0.347,-0.273 -0.535,-0.398 -0.501,-0.336 -1.1,-0.66 -1.735,-0.937 l -0.645,-0.267 c -0.415,-0.333 -0.725,-0.624 -0.92,-0.866 l 0.491,-0.567 c 0.379,0.205 0.884,0.54 1.534,1.02 0.385,0.283 0.73,0.563 1.044,0.837 0.262,0.385 0.521,0.791 0.766,1.178 z m 0.559,-5.434 c -0.137,-0.498 -0.204,-0.852 -0.208,-1.093 l 0.748,-0.235 c 0.121,0.19 0.275,0.515 0.426,1.059 0.061,0.242 0.109,0.469 0.152,0.688 l -0.815,0.043 -0.046,0.123 c -0.017,0.041 -0.028,0.093 -0.041,0.141 -0.08,-0.245 -0.155,-0.491 -0.216,-0.726 z m -0.895,0.69 c 0.174,0.227 0.363,0.588 0.562,1.075 0.138,0.339 0.278,0.732 0.418,1.173 0.099,0.286 0.184,0.565 0.26,0.834 -0.256,-0.551 -0.597,-1.162 -1.033,-1.688 -0.319,-0.391 -0.62,-0.661 -0.881,-0.85 -0.025,-0.102 -0.045,-0.196 -0.056,-0.279 z m -2.026,-0.582 0.501,-0.592 c 0.287,0.177 0.59,0.528 0.863,0.986 l -0.484,0.176 0.003,0.145 c 10e-4,0.041 0.009,0.09 0.014,0.134 -0.083,-0.041 -0.159,-0.073 -0.22,-0.096 -0.041,-0.015 -0.08,-0.028 -0.118,-0.038 l -0.145,-0.042 -0.017,0.026 c -0.081,-0.146 -0.154,-0.273 -0.215,-0.381 -0.074,-0.127 -0.133,-0.23 -0.182,-0.318 z m -1.817,1.821 -0.096,-0.075 c -0.018,-0.014 -0.032,-0.023 -0.044,-0.033 l -0.097,-0.845 c 0.202,-0.013 0.436,0.038 0.674,0.147 0.276,0.128 0.56,0.329 0.89,0.633 0.078,0.074 0.148,0.156 0.224,0.234 l 0.052,0.062 c 0.078,0.095 0.176,0.198 0.296,0.326 0.024,0.025 0.053,0.056 0.078,0.083 0.116,0.139 0.232,0.279 0.338,0.418 0.01,-0.006 0.022,-0.006 0.034,-0.011 0.031,0.036 0.061,0.069 0.095,0.108 -0.667,-0.484 -1.186,-0.819 -1.567,-1.009 l -0.139,-0.069 -0.327,0.378 c -0.168,-0.149 -0.306,-0.266 -0.411,-0.347 z m -2.326,1.194 -0.157,0.054 0.075,0.517 c -0.268,-0.102 -0.487,-0.17 -0.661,-0.223 -0.044,-0.014 -0.085,-0.025 -0.123,-0.037 l 0.004,-0.766 c 0.081,-0.014 0.183,-0.023 0.305,-0.023 0.295,0 0.775,0.061 1.391,0.346 0.022,0.01 0.043,0.023 0.065,0.034 -0.342,-0.02 -0.645,0.01 -0.899,0.098 z m 2.006,1.584 c -0.813,-0.299 -1.311,-0.428 -1.608,-0.499 l -0.108,-0.75 c 0.474,-0.105 1.129,-0.018 1.91,0.254 l 0.145,0.052 c 0.281,0.102 0.57,0.22 0.855,0.34 l 0.186,0.076 c 0.006,0.006 0.011,0.009 0.016,0.014 0.007,0 0.013,0.001 0.019,0.001 l 0.658,0.273 c 0.611,0.268 1.189,0.578 1.671,0.902 0.697,0.463 1.105,0.924 1.261,1.172 -0.14,-0.05 -0.332,-0.135 -0.553,-0.234 -0.273,-0.121 -0.613,-0.271 -0.989,-0.416 -0.247,-0.095 -0.511,-0.191 -0.785,-0.287 -0.296,-0.102 -0.605,-0.203 -0.918,-0.301 l -0.447,-0.137 c -0.139,-0.043 -0.28,-0.09 -0.411,-0.135 z m 2.678,1.324 c -0.354,-0.096 -0.752,-0.164 -1.191,-0.205 -0.16,-0.098 -0.344,-0.215 -0.559,-0.363 v 0 c 0.087,0.029 0.174,0.059 0.263,0.086 l 0.447,0.137 c 0.358,0.111 0.707,0.228 1.04,0.345 z m -5.804,0.134 -0.149,0.042 0.012,0.779 c -0.195,0.025 -0.388,0.053 -0.568,0.082 -0.887,0.143 -1.416,0.303 -1.716,0.402 l -0.463,-0.594 c 0.399,-0.371 1.107,-0.652 2.021,-0.797 0.574,-0.094 1.258,-0.131 1.979,-0.122 -0.467,0.063 -0.836,0.132 -1.116,0.208 z m 2.875,1.017 c -0.241,0.024 -0.478,0.049 -0.706,0.07 -0.843,0.079 -1.48,0.084 -1.901,0.014 l -0.011,-0.752 c 0.42,-0.099 1.019,-0.184 1.823,-0.26 1.573,-0.145 2.836,-0.077 3.755,0.2 0.049,0.015 0.092,0.031 0.139,0.047 -0.023,0.004 -0.044,0.005 -0.067,0.009 -0.605,0.104 -1.237,0.317 -1.828,0.567 -0.399,0.029 -0.802,0.064 -1.204,0.105 z m -2.427,3.316 c -0.165,0.086 -0.302,0.184 -0.423,0.271 -0.053,0.037 -0.105,0.074 -0.155,0.107 l -0.473,0.313 c -0.171,0.141 -0.331,0.256 -0.475,0.347 l -0.547,-0.513 c 0.115,-0.16 0.264,-0.342 0.439,-0.535 0.117,-0.111 0.255,-0.222 0.408,-0.345 l 0.167,-0.132 c 0.155,-0.123 0.316,-0.25 0.521,-0.357 0.293,-0.188 0.628,-0.363 0.985,-0.525 l 0.427,0.863 c -0.302,0.162 -0.599,0.33 -0.874,0.506 z m 2.791,-1.441 c -0.066,0.037 -0.125,0.067 -0.188,0.102 -0.351,0.152 -0.766,0.342 -1.196,0.556 -0.066,0.022 -0.134,0.048 -0.191,0.063 l -0.336,-0.678 c 0.309,-0.251 0.776,-0.554 1.424,-0.919 0.847,-0.477 2.093,-1.084 3.224,-1.277 0.526,-0.092 0.984,-0.11 1.33,-0.045 0.111,0.016 0.196,0.037 0.257,0.059 -0.109,0.048 -0.267,0.105 -0.412,0.156 -0.28,0.1 -0.631,0.225 -1.004,0.398 -0.678,0.295 -1.437,0.734 -2.17,1.161 -0.254,0.147 -0.501,0.29 -0.738,0.424 z m 2.297,0.795 c -0.148,0.156 -0.313,0.322 -0.468,0.477 l -0.146,0.148 c -0.316,0.316 -0.66,0.676 -1.011,1.041 -0.4,0.418 -0.809,0.842 -1.186,1.218 -0.501,0.495 -0.912,0.845 -1.228,1.038 l -0.527,-0.547 c 0.139,-0.214 0.356,-0.476 0.644,-0.783 l 0.498,0.538 0.136,-0.073 c 0.42,-0.223 0.957,-0.693 1.645,-1.437 0.157,-0.17 0.317,-0.347 0.481,-0.526 0.404,-0.443 0.816,-0.895 1.226,-1.295 -0.026,0.07 -0.046,0.135 -0.064,0.201 z m -1.459,0.824 c -0.162,0.178 -0.322,0.355 -0.479,0.523 -0.573,0.621 -1.045,1.051 -1.406,1.279 l -0.509,-0.553 c 0.246,-0.354 0.635,-0.817 1.184,-1.411 1.075,-1.157 2.061,-1.95 2.93,-2.357 0.397,-0.187 0.77,-0.314 1.084,-0.374 -0.252,0.248 -0.493,0.53 -0.702,0.824 -0.022,0.018 -0.045,0.034 -0.066,0.053 -0.679,0.526 -1.368,1.284 -2.036,2.016 z m 1.25,3.931 c -0.081,0.241 -0.151,0.465 -0.216,0.671 -0.079,0.253 -0.15,0.477 -0.224,0.686 -0.08,0.266 -0.16,0.496 -0.238,0.684 l -0.727,-0.146 c 0.01,-0.214 0.037,-0.468 0.078,-0.755 0.072,-0.367 0.18,-0.863 0.377,-1.461 0.179,-0.559 0.424,-1.13 0.712,-1.674 0.009,0.099 0.023,0.18 0.037,0.236 l 0.035,0.146 0.761,0.033 c -0.22,0.512 -0.424,1.045 -0.595,1.58 z m 3.231,-6.003 c -0.096,0.109 -0.194,0.227 -0.296,0.354 -0.592,0.706 -1.191,1.657 -1.524,2.422 -0.207,0.465 -0.329,0.814 -0.417,1.07 -0.02,0.057 -0.036,0.105 -0.054,0.152 -0.01,0.013 -0.021,0.025 -0.031,0.038 l -0.747,-0.032 c -0.036,-0.289 -0.024,-0.841 0.336,-1.641 0.048,-0.109 0.104,-0.219 0.165,-0.328 l 0.665,0.315 0.097,-0.077 c 0.204,-0.158 0.408,-0.43 0.711,-0.939 l 1.034,-1.797 c 0.043,-0.021 0.08,-0.031 0.122,-0.049 -0.027,0.152 -0.046,0.32 -0.061,0.512 z m 0.126,3.415 c -0.005,-0.518 0.059,-1.068 0.123,-1.586 l 0.095,-0.772 c 0.019,-0.199 0.026,-0.417 0.035,-0.635 l 0.004,-0.088 c 0.021,-0.547 0.079,-0.94 0.172,-1.195 0.043,-0.109 0.081,-0.183 0.108,-0.229 0.018,0.068 0.035,0.152 0.053,0.252 l 0.259,1.121 c 0.049,0.217 0.103,0.477 0.133,0.768 0.023,0.315 0.033,0.586 0.032,0.826 l -0.012,1.539 c 0.002,0.576 0.022,0.96 0.037,1.24 0.001,0.007 0.001,0.013 0.001,0.02 -0.021,0.059 -0.047,0.113 -0.076,0.164 l -0.625,0.258 c -0.216,-0.369 -0.339,-0.969 -0.339,-1.683 z m -28.753,15.557 c 0.532,0.305 0.933,0.785 1.205,1.335 -0.404,-0.519 -0.859,-1.007 -1.368,-1.411 0.055,0.026 0.11,0.045 0.163,0.076 z m -0.634,1.825 c 0.39,0.682 0.647,1.424 0.91,2.161 -0.665,-0.464 -1.252,-1.079 -1.785,-1.656 -0.525,-0.57 -0.62,-1.296 -0.779,-2.012 0.704,0.257 1.199,0.714 1.654,1.507 z m -1.63,0.468 c 0.008,0.014 0.02,0.027 0.027,0.041 0.008,0.109 0.004,0.213 -0.01,0.313 -0.035,-0.186 -0.076,-0.369 -0.125,-0.546 0.037,0.071 0.074,0.136 0.108,0.192 z m 3.244,-9.974 c 0.184,-0.093 0.369,-0.172 0.576,-0.25 l 0.392,-0.15 c 0.059,-0.021 0.115,-0.042 0.172,-0.061 l 0.272,-0.078 c 0.239,-0.069 0.464,-0.136 0.661,-0.168 l 0.07,-0.013 c 0.259,-0.044 0.482,-0.082 0.677,-0.099 0.125,-0.005 0.242,-0.008 0.351,-0.008 l -0.102,0.813 c -0.09,0.027 -0.188,0.055 -0.295,0.082 -0.089,0.025 -0.169,0.051 -0.254,0.078 -0.122,0.04 -0.255,0.082 -0.395,0.121 -0.139,0.039 -0.285,0.093 -0.441,0.15 -0.117,0.043 -0.239,0.088 -0.367,0.129 -0.102,0.039 -0.19,0.076 -0.281,0.114 -0.066,0.028 -0.134,0.057 -0.202,0.084 -0.197,0.076 -0.367,0.152 -0.534,0.237 -0.63,0.283 -1.289,0.662 -1.939,1.082 0.006,-0.094 0.009,-0.188 0.02,-0.281 0.003,-0.014 0.005,-0.027 0.007,-0.041 0.013,-0.08 -0.002,-0.159 -0.035,-0.229 -0.014,-0.028 -0.03,-0.055 -0.05,-0.08 -0.066,-0.084 -0.163,-0.138 -0.27,-0.149 -0.067,-0.008 -0.093,-0.009 -0.097,-0.009 -0.041,0 -0.078,0.011 -0.114,0.021 0.727,-0.522 1.47,-0.967 2.178,-1.295 z m 0.535,-2.647 c 0.931,-0.617 1.582,-0.83 1.997,-0.891 l 0.199,0.72 c -0.049,0.028 -0.102,0.06 -0.158,0.093 -0.325,0.188 -0.816,0.471 -1.482,0.911 -0.529,0.354 -1.073,0.751 -1.576,1.147 -0.517,0.412 -1.023,0.854 -1.462,1.273 -0.053,0.049 -0.1,0.096 -0.149,0.144 -0.309,0.212 -0.618,0.434 -0.922,0.673 -0.011,0.009 -0.021,0.018 -0.032,0.027 0.045,-0.126 0.099,-0.254 0.16,-0.385 0.204,-0.309 0.436,-0.66 0.706,-1.076 0.087,-0.131 0.175,-0.266 0.263,-0.4 0.682,-0.833 1.572,-1.652 2.456,-2.236 z m 1.184,-4.519 0.459,0.564 -0.097,0.11 c -0.234,0.266 -0.551,0.627 -0.938,1.099 l -0.538,-0.637 -0.145,0.079 c -0.085,0.047 -0.172,0.1 -0.259,0.156 0.641,-0.727 1.152,-1.141 1.518,-1.371 z m -2.991,3.293 c 0.752,-0.905 1.368,-1.389 1.785,-1.645 l 0.473,0.559 c -0.002,0.006 -0.004,0.012 -0.007,0.018 -0.126,0.153 -0.284,0.331 -0.473,0.545 -0.271,0.303 -0.606,0.68 -1.004,1.16 -0.718,0.848 -1.407,1.861 -1.919,2.801 -0.113,0.146 -0.221,0.293 -0.319,0.438 -0.248,0.352 -0.455,0.734 -0.607,1.1 -0.003,-0.002 -0.004,-0.006 -0.005,-0.008 -0.055,-0.068 -0.13,-0.111 -0.211,-0.133 0.034,-0.221 0.076,-0.451 0.141,-0.703 0.18,-0.723 0.47,-1.473 0.84,-2.171 0.36,-0.688 0.812,-1.366 1.306,-1.961 z m -1.715,-0.489 c 0.155,-0.511 0.335,-0.917 0.493,-1.275 l 0.069,-0.158 c 0.147,-0.277 0.284,-0.51 0.409,-0.695 l 0.666,0.321 c -0.052,0.205 -0.129,0.446 -0.231,0.728 -0.053,0.195 -0.126,0.408 -0.209,0.648 -0.078,0.224 -0.162,0.471 -0.244,0.741 -0.098,0.294 -0.193,0.606 -0.289,0.927 -0.222,0.334 -0.427,0.678 -0.608,1.025 -0.331,0.625 -0.597,1.291 -0.784,1.945 -0.011,0.023 -0.021,0.046 -0.031,0.068 0.005,-0.146 0.012,-0.296 0.023,-0.449 0.011,-0.068 0.02,-0.134 0.033,-0.203 0.121,-0.758 0.297,-1.64 0.467,-2.492 0.068,-0.342 0.134,-0.675 0.196,-0.996 0.012,-0.045 0.025,-0.092 0.04,-0.135 z m -0.858,-2.304 0.731,0.149 c -0.006,0.427 -0.089,1.056 -0.259,1.956 -0.075,0.396 -0.16,0.819 -0.245,1.251 -0.171,0.856 -0.348,1.743 -0.47,2.505 -0.044,0.262 -0.083,0.509 -0.12,0.735 -0.044,0.285 -0.092,0.589 -0.14,0.819 -0.077,-0.398 -0.172,-0.869 -0.286,-1.424 -0.016,-0.08 -0.033,-0.163 -0.049,-0.244 -0.049,-1.066 0.07,-2.486 0.324,-3.826 0.161,-0.842 0.333,-1.488 0.514,-1.921 z m -0.121,7.64 c -0.007,0.047 -0.011,0.093 -0.017,0.14 -0.028,0.04 -0.052,0.083 -0.064,0.131 -0.029,0.112 -0.052,0.226 -0.071,0.339 -0.028,-0.029 -0.06,-0.055 -0.09,-0.082 -0.004,-0.025 -0.01,-0.052 -0.015,-0.078 0.099,-0.063 0.167,-0.196 0.225,-0.411 0.003,0.005 0.008,0.007 0.012,0.012 0.005,-0.017 0.013,-0.033 0.02,-0.051 z m -0.99,-8.734 0.733,0.017 c 0.032,0.196 0.063,0.433 0.099,0.72 l -0.021,0.043 c -0.218,0.459 -0.422,1.188 -0.606,2.162 -0.023,0.123 -0.045,0.249 -0.065,0.373 -0.037,-0.25 -0.07,-0.497 -0.098,-0.738 -0.16,-1.306 -0.119,-2.107 -0.042,-2.577 z m -1.931,-0.75 0.723,0.08 0.008,0.145 c 0.033,0.568 0.082,1.426 0.241,2.68 0.174,1.463 0.518,3.182 0.833,4.734 0.002,0.017 0.001,0.035 0.002,0.051 0.004,0.074 0.069,1.475 0.399,2.047 -0.011,-0.004 -0.021,-0.008 -0.031,-0.012 -0.102,-0.031 -0.21,-0.019 -0.304,0.029 -0.684,-1.615 -1.607,-4.377 -1.893,-6.721 -0.196,-1.533 -0.107,-2.479 0.022,-3.033 z m 1.754,9.852 c -0.018,0.02 -0.036,0.041 -0.049,0.063 -0.02,-0.026 -0.042,-0.053 -0.064,-0.079 0.039,0 0.076,0.004 0.113,0.016 z m -0.422,-0.337 c -0.073,-0.055 -0.159,-0.081 -0.245,-0.081 -0.001,-0.195 -0.008,-0.402 -0.025,-0.629 0.09,0.248 0.18,0.485 0.27,0.71 z m -3.1,-7.874 c 0.083,0.08 0.148,0.16 0.23,0.264 0.106,0.141 0.211,0.301 0.318,0.49 0.223,0.389 0.446,0.874 0.666,1.443 0.535,1.383 0.978,3.08 1.155,4.428 0.072,0.549 0.099,1.031 0.083,1.422 -0.015,0.027 -0.031,0.055 -0.04,0.086 l -0.063,0.233 c -0.014,0.048 -0.026,0.098 -0.04,0.146 -0.012,-0.046 -0.023,-0.087 -0.035,-0.138 -0.113,-0.434 -0.284,-1.009 -0.483,-1.621 -0.529,-1.629 -1.233,-3.477 -1.512,-4.197 l -0.789,-1.982 c -0.003,-0.006 -0.006,-0.013 -0.009,-0.02 z m 2.278,8.632 c -0.003,0.01 -0.006,0.021 -0.008,0.031 -0.009,-0.016 -0.018,-0.029 -0.027,-0.043 0.01,0.005 0.021,0.008 0.029,0.013 0.003,0 0.004,0 0.006,-0.001 z m -0.495,-0.536 c -0.037,-0.028 -0.073,-0.058 -0.114,-0.085 -0.111,-0.07 -0.247,-0.079 -0.364,-0.031 l -0.025,-0.105 c -0.075,-0.324 -0.164,-0.796 -0.277,-1.486 -0.026,-0.156 -0.055,-0.32 -0.083,-0.488 -0.049,-0.289 -0.1,-0.596 -0.159,-0.911 0.248,0.692 0.473,1.344 0.65,1.889 0.142,0.438 0.269,0.857 0.372,1.217 z m -1.435,-4.738 c -0.127,-0.386 -0.279,-0.767 -0.47,-1.124 0.243,0.32 0.364,0.719 0.468,1.113 0.001,0.004 0.002,0.008 0.002,0.011 z m -1.715,-0.481 c -0.218,-0.391 -0.452,-0.674 -0.711,-0.861 -0.107,-0.08 -0.223,-0.145 -0.354,-0.197 -0.036,-0.015 -0.07,-0.027 -0.105,-0.039 l -0.002,-0.75 c 0.23,-0.018 0.526,0.004 0.888,0.178 0.438,0.205 0.858,0.635 1.155,1.176 0.605,1.113 0.834,2.482 1.018,3.583 0.029,0.17 0.056,0.335 0.084,0.491 0.114,0.696 0.204,1.176 0.281,1.508 l 0.033,0.143 c 0.013,0.054 0.025,0.11 0.036,0.163 -0.059,-0.056 -0.13,-0.133 -0.207,-0.235 -0.229,-0.299 -0.475,-0.79 -0.716,-1.422 -0.159,-0.416 -0.313,-0.886 -0.464,-1.341 -0.282,-0.865 -0.575,-1.758 -0.936,-2.397 z m 2.358,5.511 c 0,0.012 0,0.024 0,0.036 -0.014,-0.005 -0.028,-0.008 -0.042,-0.013 0.014,-0.007 0.028,-0.016 0.042,-0.023 z m -3.878,-4.225 c -0.218,-0.231 -0.403,-0.393 -0.573,-0.499 -0.105,-0.061 -0.198,-0.111 -0.286,-0.146 -0.069,-0.029 -0.135,-0.047 -0.172,-0.05 -0.217,-0.056 -0.425,-0.031 -0.613,0.011 l -0.364,-0.645 c 0.079,-0.05 0.179,-0.102 0.302,-0.158 l 0.065,-0.021 c 0.086,-0.029 0.177,-0.059 0.259,-0.076 0.039,-0.002 0.08,-0.008 0.122,-0.013 0.099,-0.013 0.191,-0.024 0.303,-0.011 0.264,0.004 0.59,0.111 0.887,0.269 0.265,0.148 0.523,0.358 0.81,0.662 0.596,0.651 1.009,1.448 1.334,2.142 0.296,0.645 0.573,1.356 0.872,2.24 0.057,0.17 0.108,0.328 0.158,0.484 -0.183,-0.199 -0.384,-0.416 -0.607,-0.65 -0.221,-0.229 -0.451,-0.465 -0.688,-0.701 -0.173,-0.322 -0.349,-0.646 -0.53,-0.968 -0.346,-0.602 -0.803,-1.357 -1.279,-1.87 z m 3.021,4.282 c -0.003,0.002 -0.006,0.002 -0.009,0.004 -0.003,0 -0.004,0.002 -0.007,0.003 -0.002,-0.002 -0.005,-0.003 -0.007,-0.005 0.009,-0.001 0.016,-0.001 0.023,-0.002 z m -5.001,0.243 -0.816,-0.042 c -0.136,-0.012 -0.262,-0.021 -0.383,-0.021 -0.051,0 -0.101,0.002 -0.137,0.005 -0.262,0.007 -0.485,0 -0.678,-0.019 l -0.105,-0.735 c 0.205,-0.057 0.457,-0.11 0.756,-0.161 0.162,-0.036 0.355,-0.041 0.54,-0.041 h 0.191 c 0.229,0.002 0.481,0.003 0.734,0.018 0.347,0.057 0.712,0.123 1.065,0.192 0.349,0.107 0.707,0.233 1.066,0.36 0.342,0.164 0.683,0.329 0.992,0.492 0.125,0.074 0.242,0.146 0.36,0.221 -0.208,-0.018 -0.415,-0.031 -0.615,-0.035 -0.485,-0.013 -0.964,0.011 -1.421,0.066 l -0.612,-0.156 c -0.316,-0.043 -0.622,-0.09 -0.937,-0.144 z m 0.716,1.886 c -0.143,0.031 -0.283,0.074 -0.44,0.133 -0.056,0.02 -0.11,0.037 -0.164,0.055 -0.074,0.025 -0.146,0.049 -0.228,0.079 -0.099,0.045 -0.194,0.083 -0.287,0.119 -0.123,0.048 -0.239,0.095 -0.342,0.148 -0.105,0.054 -0.207,0.1 -0.302,0.143 -0.064,0.029 -0.126,0.057 -0.193,0.09 -0.078,0.043 -0.15,0.08 -0.22,0.113 l -0.443,-0.586 c 0.067,-0.066 0.142,-0.135 0.222,-0.207 0.126,-0.104 0.282,-0.207 0.463,-0.329 l 0.05,-0.033 c 0.137,-0.093 0.307,-0.176 0.485,-0.265 l 0.205,-0.102 c 0.044,-0.019 0.09,-0.038 0.135,-0.057 l 0.313,-0.115 c 0.164,-0.064 0.315,-0.113 0.473,-0.149 0.341,-0.097 0.708,-0.165 1.089,-0.214 l 0.04,0.01 c 0.014,-0.01 0.031,-0.016 0.046,-0.023 0.433,-0.051 0.886,-0.072 1.347,-0.061 0.189,0.005 0.389,0.02 0.586,0.035 -0.02,0.266 0.002,0.547 0.054,0.833 -0.985,0.025 -2.025,0.125 -2.889,0.383 z m 3.23,-2.043 c -0.05,-0.035 -0.097,-0.068 -0.15,-0.107 -0.3,-0.219 -0.616,-0.458 -0.939,-0.703 -0.924,-0.701 -1.88,-1.424 -2.734,-1.88 -0.454,-0.249 -0.896,-0.407 -1.25,-0.445 -0.051,-0.005 -0.099,-0.007 -0.144,-0.007 -0.155,0 -0.279,0.024 -0.386,0.057 l -0.484,-0.573 c 0.211,-0.186 0.56,-0.368 0.998,-0.391 0.529,-0.025 1.108,0.135 1.732,0.474 1.331,0.722 2.556,1.939 3.599,3.023 0.077,0.082 0.151,0.16 0.224,0.237 -0.02,-0.002 -0.035,-0.007 -0.055,-0.008 -0.115,-0.01 -0.225,0.036 -0.306,0.116 -0.059,0.056 -0.091,0.13 -0.105,0.207 z m 3.005,8.783 c -0.173,0.768 -0.611,1.627 -1.159,2.326 0.25,-1.705 -0.324,-3.891 1.184,-4.733 0.151,0.05 0.307,0.089 0.466,0.116 -0.344,0.711 -0.313,1.504 -0.491,2.291 z m 1.064,-3.04 v 0 c -1.244,0 -2.049,-0.866 -2.505,-1.594 -0.588,-0.939 -1.128,-2.167 -1.168,-3.023 0.098,0.014 0.199,-0.009 0.284,-0.067 0.06,-0.042 0.105,-0.098 0.135,-0.159 0.029,0.048 0.059,0.1 0.091,0.155 0.081,0.139 0.165,0.283 0.264,0.416 0.11,0.146 0.305,0.199 0.474,0.13 0.17,-0.069 0.27,-0.245 0.245,-0.427 -0.018,-0.131 -0.045,-0.258 -0.074,-0.377 0.083,0.082 0.168,0.182 0.248,0.275 0.083,0.098 0.165,0.193 0.246,0.276 0.133,0.135 0.342,0.159 0.501,0.058 0.013,-0.009 0.026,-0.018 0.038,-0.027 0.025,0.063 0.051,0.125 0.079,0.187 0.071,0.158 0.234,0.251 0.409,0.233 0.172,-0.02 0.313,-0.146 0.348,-0.316 0.065,-0.311 0.151,-0.648 0.242,-0.989 0.173,0.276 0.377,0.575 0.744,0.73 0.13,0.055 0.279,0.038 0.392,-0.045 0.069,-0.051 0.119,-0.121 0.145,-0.2 0.033,0.067 0.067,0.138 0.102,0.211 0.069,0.151 0.227,0.244 0.392,0.231 0.058,-0.004 0.114,-0.021 0.164,-0.048 0.037,0.136 0.144,0.245 0.287,0.281 0.189,0.049 0.388,-0.047 0.467,-0.228 0.161,-0.369 0.325,-0.632 0.5,-0.795 -0.007,0.209 -0.008,0.414 -0.009,0.617 -0.002,0.417 -0.004,0.811 -0.053,1.201 -0.184,1.456 -1.043,3.029 -2.552,3.26 -0.148,0.022 -0.295,0.034 -0.436,0.034 z m 1.712,1.265 c -0.151,-0.263 -0.333,-0.484 -0.541,-0.666 0.14,-0.051 0.274,-0.109 0.402,-0.178 0.016,0.003 0.032,0.005 0.048,0.008 -0.031,0.246 0.011,0.539 0.091,0.836 z m -1.151,-0.507 c 0.085,-0.013 0.166,-0.032 0.247,-0.052 0.981,1.384 1.307,3.387 1.131,5.104 -0.343,-0.881 -0.657,-1.77 -0.886,-2.691 -0.158,-0.631 -0.713,-1.659 -0.492,-2.361 z m 19.697,51.361 c -0.508,-0.596 -0.989,-1.25 -1.4,-1.928 -0.009,-0.016 -0.017,-0.031 -0.024,-0.047 0.986,0.156 1.905,0.73 2.783,1.49 -0.176,0.105 -0.357,0.201 -0.544,0.275 -0.267,0.104 -0.538,0.178 -0.815,0.21 z m -1.174,-3.852 c -0.175,0.338 -0.406,0.67 -0.707,0.986 -0.387,-0.84 -0.643,-1.69 -0.675,-2.498 0.473,0.524 0.934,1.03 1.382,1.512 z m 1.507,1.559 c 0.021,0.02 0.038,0.037 0.059,0.055 -0.385,-0.225 -0.781,-0.406 -1.193,-0.531 0.092,-0.141 0.173,-0.283 0.248,-0.428 0.3,0.314 0.596,0.619 0.886,0.904 z m -3.751,-13.905 c -0.654,-1.357 -2.027,-2.711 -3.436,-3.691 1.839,-1.197 1.6,-2.779 0.615,-4.389 -0.947,-1.535 -2.578,-3.111 -3.786,-4.168 0.892,-0.514 1.873,-1.074 2.558,-1.807 0.28,-0.299 0.358,-0.975 0.366,-1.691 0.008,-0.711 -0.03,-1.416 -0.068,-1.793 -0.134,-1.486 -0.515,-2.869 -1.182,-4.024 -0.506,-0.876 -1.183,-1.627 -2.031,-2.166 1.878,-1.001 3.487,-2.694 4.446,-4.697 0.277,-0.572 0.501,-1.173 0.666,-1.782 0.167,-0.604 0.274,-1.223 0.313,-1.848 0.064,-1.04 -0.064,-2.097 -0.418,-3.124 1.359,-0.139 2.568,-1.179 3.538,-2.496 0.854,-1.157 1.557,-2.545 2.097,-3.745 0.572,1.908 1.614,3.655 3.316,4.529 -0.262,0.829 -0.44,1.659 -0.511,2.49 -0.078,0.972 -0.01,1.952 0.222,2.933 0.21,0.889 0.638,1.65 1.17,2.34 0.094,0.135 1.527,1.471 1.714,1.243 -1.15,1.405 -1.565,3.468 -1.333,5.409 0.234,1.697 1.017,3.252 2.201,4.204 -1.399,0.916 -2.82,1.832 -4.143,2.912 -0.218,0.18 -0.139,0.494 0.049,0.65 0.992,0.826 2.081,1.49 3.229,2.035 -1.221,0.957 -2.769,2.48 -3.551,4.045 -0.825,1.629 -0.795,3.264 1.205,4.047 -1.24,1.068 -2.343,2.555 -2.651,3.963 -0.316,1.424 0.189,2.734 2.095,3.232 -1.307,1.168 -2.012,3.055 -1.828,4.807 0.096,1.043 0.517,2.008 1.215,2.672 0.546,0.51 1.252,0.836 2.11,0.893 -0.105,0.172 -0.156,0.369 -0.267,0.537 -0.612,0.926 -0.901,1.691 -1.045,2.258 -0.105,-0.082 -0.211,-0.17 -0.317,-0.264 -0.084,-0.07 -0.172,-0.143 -0.259,-0.215 -0.326,-0.615 -0.635,-1.242 -0.914,-1.891 -1.441,-3.383 -2.312,-7.09 -2.883,-10.83 -0.582,-3.855 -0.77,-7.787 -0.925,-11.705 l -0.122,-2.842 c -0.04,-0.949 -0.087,-1.896 -0.086,-2.846 -0.022,-1.9 -0.06,-3.805 -0.05,-5.715 0.126,-3.801 0.443,-7.596 1.444,-11.313 0.004,-0.012 -0.013,-0.018 -0.017,-0.008 -0.635,1.492 -1.089,3.041 -1.4,4.637 -0.309,1.598 -0.485,3.236 -0.591,4.885 -0.129,1.643 -0.074,3.32 -0.047,4.967 0.019,0.824 0.038,1.645 0.056,2.457 0.011,0.406 0.019,0.811 0.028,1.213 0.019,0.402 0.037,0.805 0.056,1.203 0.23,4.857 0.278,9.762 0.937,14.57 0.339,2.438 0.802,4.854 1.446,7.211 0.45,1.609 0.983,3.193 1.648,4.705 -0.46,-0.449 -0.94,-0.938 -1.442,-1.463 -0.023,-0.852 -0.245,-1.703 -0.608,-2.52 -0.764,-1.666 -2.147,-3.227 -3.823,-3.967 1.568,-1.261 1.654,-2.666 0.994,-4.047 z m 2.061,8.213 c 0.222,0.453 0.391,0.92 0.494,1.393 -0.108,-0.117 -0.214,-0.228 -0.325,-0.348 -1.065,-1.152 -2.18,-2.441 -3.257,-3.887 -0.13,-0.174 -0.259,-0.359 -0.389,-0.537 1.438,0.555 2.748,1.912 3.477,3.379 z m -3.137,0.346 c -1.144,-0.252 -2.025,-1.09 -2.563,-2.183 -0.379,-0.723 -0.618,-1.559 -0.691,-2.4 0.559,0.891 1.131,1.748 1.71,2.563 0.509,0.707 1.026,1.377 1.544,2.02 z m -7.205,-12.164 c 0.669,1.553 1.388,3.061 2.159,4.498 -1.002,-0.049 -1.568,-0.707 -1.861,-1.645 -0.266,-0.82 -0.339,-1.851 -0.298,-2.853 z m 6.771,17.967 c -0.402,-0.324 -0.828,-0.6 -1.264,-0.815 -0.634,-0.314 -1.294,-0.494 -1.959,-0.504 0.364,-0.787 0.463,-1.58 0.314,-2.305 -0.186,-0.955 -0.733,-1.836 -1.485,-2.537 -0.757,-0.697 -1.76,-1.184 -2.782,-1.418 -0.707,-0.156 -1.428,-0.188 -2.131,-0.068 0.804,-1.787 0.133,-2.953 -1.097,-3.617 -0.701,-0.391 -1.646,-0.557 -2.599,-0.598 -0.691,-0.025 -1.397,0.027 -2.065,0.141 0.33,-0.883 0.307,-1.572 0,-2.064 -0.383,-0.629 -1.165,-0.988 -2.1,-1.154 -0.469,-0.082 -0.974,-0.119 -1.491,-0.115 -0.529,0.016 -1.066,0.068 -1.587,0.143 -0.745,0.107 -1.452,0.26 -2.049,0.416 0.265,-0.945 0.541,-2.004 0.478,-2.92 -0.061,-0.732 -1.675,-1.621 -2.242,-1.914 -0.56,-0.305 -1.17,-0.484 -1.764,-0.607 -0.598,-0.119 -1.191,-0.16 -1.772,-0.109 -0.583,0.055 -1.143,0.184 -1.695,0.447 -0.289,0.139 -0.571,0.307 -0.844,0.5 0.073,-0.842 0.012,-1.691 -0.18,-2.518 -0.129,-0.553 -0.314,-1.098 -0.553,-1.617 -0.242,-0.51 -0.553,-0.963 -0.902,-1.398 -1.261,-1.621 -3.24,-2.58 -5.349,-2.367 0.297,-1.336 -0.264,-2.674 -1.206,-3.936 -0.271,-0.363 -0.572,-0.717 -0.89,-1.057 -0.322,-0.326 -0.67,-0.613 -1.014,-0.896 -0.352,-0.287 -0.704,-0.555 -1.044,-0.801 0.813,-0.104 1.624,-0.293 2.39,-0.594 0.283,-0.115 0.555,-0.232 0.814,-0.357 0.261,-0.128 0.514,-0.274 0.755,-0.438 0.379,-0.258 0.729,-0.566 1.041,-0.924 0.727,0.463 1.481,0.838 2.272,1.107 0.903,0.356 1.845,0.601 2.857,0.685 0.917,0.078 1.8,-0.092 2.63,-0.316 0.146,-0.047 1.968,-0.846 1.815,-1.11 0.485,0.833 1.193,1.532 2.004,2.136 0.793,0.629 1.713,1.129 2.687,1.479 0.987,0.332 1.969,0.586 2.938,0.639 0.739,0.041 1.463,-0.027 2.128,-0.221 0.069,0.752 0.131,1.494 0.167,2.252 0.05,0.99 0.103,1.969 0.197,2.943 0.029,0.291 0.347,0.424 0.594,0.373 0.772,-0.162 1.531,-0.377 2.272,-0.629 0.495,-0.164 0.982,-0.354 1.466,-0.555 0.022,0.686 0.079,1.477 0.182,2.285 0.138,1.145 0.398,2.291 0.735,3.307 0.632,1.799 1.768,2.955 3.832,2.309 -0.085,0.701 -0.118,1.438 -0.084,2.152 0.041,1.006 0.243,1.939 0.561,2.734 0.487,1.184 1.39,1.934 2.865,1.805 0.18,0.32 0.362,0.637 0.547,0.949 -0.039,0.363 -0.05,0.732 -0.028,1.1 0.056,1.094 0.382,2.158 0.885,3.082 0.797,1.504 2.168,2.578 3.934,2.604 0.136,0.16 0.271,0.32 0.405,0.475 -0.076,0.52 -0.061,1.057 0.032,1.602 0.084,0.494 0.234,0.992 0.431,1.488 0.184,0.504 0.419,1.002 0.692,1.486 0.311,0.535 0.662,1.055 1.037,1.549 -0.309,-0.104 -0.613,-0.264 -0.907,-0.494 -0.07,-0.055 -0.134,-0.076 -0.19,-0.076 -0.131,-0.188 -0.263,-0.375 -0.392,-0.564 -1.025,-1.521 -2.156,-2.973 -3.246,-4.445 -0.557,-0.729 -1.143,-1.436 -1.712,-2.152 l -0.858,-1.072 c -0.287,-0.357 -0.595,-0.699 -0.891,-1.049 l -1.788,-2.084 -1.857,-2.021 -0.952,-1.041 -0.988,-1.006 -1.98,-2.01 -2.072,-1.914 c -0.35,-0.313 -0.686,-0.641 -1.052,-0.936 l -1.094,-0.887 c -2.788,-2.316 -5.967,-4.094 -9.054,-5.863 -1.594,-0.813 -3.108,-1.73 -4.688,-2.539 -0.39,-0.215 -0.775,-0.434 -1.157,-0.66 -0.385,-0.223 -0.758,-0.469 -1.152,-0.672 -0.78,-0.428 -1.549,-0.889 -2.309,-1.389 -0.008,-0.006 -0.019,0.008 -0.011,0.016 0.572,0.514 1.164,0.984 1.775,1.418 0.304,0.225 0.624,0.414 0.927,0.639 0.305,0.223 0.615,0.438 0.929,0.646 0.629,0.414 1.276,0.801 1.939,1.168 0.659,0.373 1.301,0.783 1.973,1.148 0.661,0.379 1.356,0.713 2.021,1.096 0.661,0.387 1.33,0.766 2.002,1.141 0.336,0.188 0.671,0.375 1.006,0.563 0.333,0.188 0.648,0.402 0.971,0.602 0.644,0.406 1.281,0.816 1.906,1.23 3.777,2.598 7.071,5.91 10.209,9.264 3.203,3.408 6.157,7.055 8.927,10.842 0.2,0.275 0.403,0.557 0.609,0.84 0.197,0.291 0.388,0.59 0.583,0.889 0.39,0.602 0.783,1.213 1.191,1.813 0.13,0.188 0.258,0.373 0.387,0.561 0.027,0.357 -0.01,0.676 -0.105,0.949 -0.391,-0.891 -0.916,-1.771 -1.571,-2.529 -0.347,-0.418 -0.718,-0.799 -1.11,-1.131 z m 6.745,7.207 c -0.712,-0.42 -1.389,-0.617 -1.991,-0.609 -0.395,0.006 -0.78,0.066 -1.129,0.211 -0.348,0.146 -0.672,0.357 -0.977,0.609 -0.302,0.256 -0.568,0.584 -0.813,0.938 -0.244,0.353 -0.454,0.756 -0.625,1.193 -0.232,0.6 -0.396,1.254 -0.45,1.941 -1.328,-1.359 -2.342,-1.283 -3.204,-0.496 -0.248,0.227 -0.482,0.516 -0.704,0.852 -0.223,0.328 -0.434,0.693 -0.63,1.094 -0.281,0.576 -0.533,1.201 -0.742,1.826 -0.54,-0.746 -1.056,-1.088 -1.554,-1.133 -0.634,-0.08 -1.243,0.342 -1.844,0.957 -0.599,0.627 -1.188,1.494 -1.722,2.348 -0.383,0.621 -0.734,1.238 -1.028,1.775 -0.481,-0.848 -0.997,-1.779 -1.603,-2.4 -0.244,-0.258 -0.759,-0.291 -1.284,-0.24 -0.525,0.049 -1.059,0.158 -1.339,0.23 -1.947,0.467 -3.653,1.58 -4.576,3.617 -0.826,-1.816 -2.148,-3.301 -3.623,-4.197 -1.562,-0.934 -3.328,-1.199 -5.086,-0.412 -0.016,-1.352 -0.704,-2.533 -1.588,-3.529 -0.774,-0.869 -1.702,-1.605 -2.502,-2.178 1.446,-0.506 2.798,-1.508 3.556,-3.188 1.185,0.586 2.46,0.699 3.742,0.219 0.627,-0.236 1.169,-0.68 1.655,-1.244 0.094,-0.102 1.055,-1.574 0.902,-1.752 0.907,1.09 2.314,1.404 3.596,1.017 1.14,-0.326 2.16,-1.199 2.729,-2.455 0.643,1.328 1.308,2.656 2.122,3.877 0.137,0.205 0.348,0.1 0.44,-0.1 0.49,-1.043 0.833,-2.182 1.08,-3.365 0.711,1.146 1.855,2.59 2.991,3.238 1.18,0.699 2.297,0.518 2.444,-1.516 0.377,0.473 0.803,0.922 1.247,1.279 0.313,0.254 0.637,0.475 0.958,0.647 0.318,0.166 0.632,0.273 0.93,0.324 1.037,0.178 1.831,-0.451 1.671,-2.326 0.452,0.465 0.963,0.828 1.498,1.065 0.784,0.34 1.628,0.435 2.341,0.234 0.18,-0.047 0.353,-0.109 0.515,-0.188 0.159,-0.086 0.307,-0.186 0.443,-0.301 0.273,-0.232 0.498,-0.512 0.642,-0.865 0.217,-0.549 0.261,-1.219 0.067,-2.012 1.252,0.676 2.616,0.414 3.713,-0.357 0.157,-0.109 0.307,-0.228 0.448,-0.357 0.153,0.115 0.302,0.225 0.443,0.334 -2.963,2.889 -6.509,5.221 -10.487,6.693 -1.293,0.467 -2.619,0.865 -3.97,1.178 -1.353,0.305 -2.717,0.58 -4.095,0.797 -2.654,0.445 -5.36,0.941 -8.104,1.096 -2.739,0.152 -5.504,-0.035 -8.132,-0.973 -0.008,-0.002 -0.014,0.014 -0.006,0.018 2.073,1.223 4.446,1.635 6.842,1.639 2.402,-0.002 4.815,-0.42 7.076,-0.801 3.446,-0.584 6.929,-1.045 10.197,-2.211 3.308,-1.17 6.413,-2.859 9.087,-5.055 0.39,-0.314 0.793,-0.641 1.202,-0.971 0.367,-0.297 0.721,-0.621 1.073,-0.943 0.14,0.088 0.271,0.17 0.398,0.25 -0.28,0.25 -0.553,0.514 -0.798,0.799 -0.899,1.059 -1.531,2.385 -1.442,3.879 z m 11.374,3.855 c 0.73,0.313 1.648,0.293 2.486,0.049 0.594,-0.197 1.158,-0.518 1.663,-0.951 -0.118,0.783 -0.045,1.361 0.175,1.746 0.146,0.266 0.353,0.451 0.599,0.566 0.249,0.107 0.543,0.131 0.854,0.1 0.62,-0.055 1.334,-0.402 1.995,-0.895 0.475,-0.346 0.93,-0.797 1.33,-1.275 0.038,0.885 0.272,1.416 0.63,1.645 0.457,0.273 1.078,0.143 1.712,-0.316 0.316,-0.221 0.632,-0.504 0.932,-0.822 0.302,-0.326 0.59,-0.699 0.85,-1.074 0.262,-0.377 0.495,-0.754 0.698,-1.123 0.089,-0.162 0.169,-0.32 0.245,-0.473 0.207,0.893 0.472,1.879 0.89,2.557 0.169,0.268 0.569,0.32 0.977,0.293 0.407,-0.025 0.817,-0.18 1.028,-0.248 0.421,-0.139 0.809,-0.379 1.151,-0.666 0.171,-0.145 0.331,-0.299 0.477,-0.477 0.145,-0.183 0.274,-0.379 0.39,-0.59 0.23,-0.426 0.401,-0.895 0.498,-1.443 0.051,-0.289 0.08,-0.594 0.091,-0.914 0.391,0.685 0.859,1.295 1.382,1.773 0.35,0.318 0.726,0.588 1.118,0.807 0.392,0.213 0.788,0.346 1.193,0.436 1.472,0.311 2.944,-0.332 3.51,-1.863 0.342,0.453 0.74,0.816 1.187,1.088 0.609,0.367 1.338,0.615 2.056,0.676 0.364,0.037 0.736,0.045 1.11,0.033 0.366,-0.022 0.722,-0.08 1.073,-0.143 0.363,-0.06 0.703,-0.15 1.02,-0.25 -0.055,0.17 -0.108,0.342 -0.158,0.514 -0.141,0.471 -0.245,0.973 -0.299,1.498 -0.103,0.928 -0.073,1.908 0.243,2.928 -0.669,0.256 -1.305,0.535 -1.869,0.928 -0.336,0.215 -0.66,0.447 -0.965,0.721 -0.151,0.137 -0.3,0.279 -0.443,0.434 -0.148,0.146 -0.294,0.297 -0.434,0.459 -0.509,0.588 -0.841,1.314 -1.114,2.068 -0.035,0.137 -0.46,1.994 -0.2,2.063 -0.419,-0.09 -0.854,-0.168 -1.283,-0.176 -0.432,-0.018 -0.859,0.035 -1.291,0.094 -0.863,0.125 -1.707,0.434 -2.51,0.818 -1.4,0.719 -2.68,1.777 -3.413,3.115 -1.164,-1.199 -2.206,-2.477 -3.256,-3.682 -0.178,-0.209 -0.454,-0.113 -0.588,0.082 -0.418,0.609 -0.811,1.256 -1.183,1.908 -0.253,0.439 -0.491,0.893 -0.725,1.352 -0.395,-0.516 -0.859,-1.09 -1.351,-1.676 -0.691,-0.83 -1.432,-1.613 -2.153,-2.221 -1.308,-1.047 -2.566,-1.41 -3.901,0.256 -0.566,-1.502 -1.36,-3.018 -2.25,-3.867 -0.264,-0.248 -0.543,-0.434 -0.844,-0.539 -0.294,-0.121 -0.607,-0.164 -0.949,-0.113 -0.342,0.053 -0.709,0.199 -1.108,0.457 -0.19,0.119 -0.39,0.266 -0.595,0.439 -0.041,-0.697 -0.19,-1.377 -0.423,-1.986 -0.167,-0.459 -0.367,-0.906 -0.611,-1.295 -0.121,-0.195 -0.253,-0.379 -0.391,-0.553 -0.134,-0.182 -0.275,-0.35 -0.427,-0.506 -0.299,-0.315 -0.65,-0.549 -1.005,-0.764 -0.359,-0.205 -0.755,-0.346 -1.187,-0.408 -0.656,-0.105 -1.389,-0.047 -2.197,0.254 0.025,-0.199 0.036,-0.397 0.033,-0.592 -0.005,-0.438 -0.058,-0.885 -0.172,-1.307 -0.241,-0.834 -0.623,-1.672 -1.153,-2.42 -0.783,-1.172 -1.782,-2.268 -2.81,-3.064 0.242,-0.174 0.482,-0.35 0.72,-0.529 0.037,-0.018 0.074,-0.039 0.111,-0.057 0.036,-0.018 0.075,-0.033 0.112,-0.051 l 0.319,0.547 c 0.196,0.32 0.418,0.623 0.626,0.936 0.403,0.629 0.893,1.197 1.35,1.783 0.979,1.123 2.007,2.199 3.163,3.117 0.552,0.488 1.172,0.891 1.756,1.33 l 0.925,0.592 0.462,0.293 0.477,0.266 c 1.257,0.738 2.594,1.313 3.934,1.836 1.389,0.518 2.81,0.934 4.246,1.254 1.444,0.281 2.901,0.5 4.363,0.521 0.352,0.021 0.704,0.004 1.056,-0.008 0.352,-0.018 0.702,-0.022 1.052,-0.059 0.698,-0.078 1.392,-0.146 2.076,-0.289 1.373,-0.232 2.705,-0.615 4.009,-1.006 2.61,-0.828 5.054,-1.779 7.696,-2.621 0.009,-0.004 0.002,-0.02 -0.006,-0.018 -2.38,0.264 -4.468,0.934 -6.659,1.643 -2.179,0.691 -4.456,1.406 -6.747,1.664 -1.743,0.195 -3.527,0.117 -5.284,-0.156 -1.759,-0.272 -3.479,-0.77 -5.153,-1.371 -3.396,-1.23 -6.607,-3.141 -9.241,-5.748 -0.774,-0.746 -1.471,-1.668 -2.157,-2.584 -0.557,-0.746 -1.107,-1.486 -1.712,-2.17 0.323,-0.141 0.648,-0.275 0.973,-0.412 0.086,-0.035 0.161,-0.072 0.231,-0.111 0.096,1.166 0.684,2.463 1.651,3.365 0.639,0.549 1.349,0.98 2.149,1.1 0.394,0.066 0.787,0.074 1.182,0.01 0.183,-0.035 0.366,-0.086 0.547,-0.15 -0.285,0.75 -0.315,1.434 -0.138,2.016 0.25,0.737 0.818,1.323 1.573,1.602 z m -2.931,-4.199 c -0.352,-0.055 -0.665,-0.189 -0.977,-0.359 -0.048,-0.025 -0.094,-0.061 -0.143,-0.088 0.925,0.107 1.813,0.209 2.628,0.354 -0.503,0.161 -1.008,0.183 -1.508,0.093 z m 39.209,-34.219 c -0.237,0.52 -0.432,1.072 -0.586,1.646 -0.143,0.566 -0.293,1.184 -0.389,1.799 -0.098,0.619 -0.147,1.244 -0.21,1.887 -0.051,0.639 -0.06,1.275 -0.037,1.902 -0.007,0.633 0.026,1.252 0.1,1.85 0.037,0.297 0.086,0.588 0.144,0.871 0.059,0.283 0.103,0.561 0.173,0.826 0.071,0.281 0.157,0.553 0.257,0.809 -0.276,0.146 -0.551,0.289 -0.826,0.426 -0.516,0.258 -1.007,0.506 -1.55,0.732 -1.068,0.455 -2.088,0.898 -3.142,1.328 -0.323,0.123 -0.467,0.537 -0.41,0.816 0.177,0.867 0.402,1.736 0.647,2.557 0.159,0.541 0.344,1.074 0.536,1.602 -0.773,0.209 -1.664,0.477 -2.559,0.754 -0.313,0.088 -0.626,0.182 -0.939,0.281 -0.319,0.103 -0.651,0.221 -0.97,0.338 -0.639,0.244 -1.265,0.477 -1.834,0.756 -2.056,0.967 -3.508,2.24 -3.109,4.496 -1.852,-0.102 -3.97,0.074 -5.582,0.691 -1.641,0.639 -2.789,1.772 -2.751,3.859 -0.745,-0.244 -1.572,-0.357 -2.429,-0.373 -0.624,0 -1.283,0.027 -1.914,0.135 -0.647,0.082 -1.272,0.24 -1.891,0.42 -1.222,0.385 -2.371,0.916 -3.296,1.69 -0.467,0.379 -0.886,0.809 -1.221,1.318 -0.188,0.266 -0.351,0.555 -0.488,0.863 -0.216,-0.117 -0.44,-0.225 -0.677,-0.316 -0.529,-0.205 -1.122,-0.385 -1.738,-0.492 -1.254,-0.271 -2.649,-0.394 -4.107,-0.559 -0.197,-0.025 -0.396,-0.051 -0.596,-0.078 0.053,0.072 0.111,0.143 0.166,0.213 -0.437,-0.473 -0.807,-1.021 -1.006,-1.613 -0.076,-0.188 -0.13,-0.377 -0.172,-0.568 0.603,0.123 1.224,0.18 1.83,0.156 1.278,-0.047 2.472,-0.443 3.367,-1.025 0.446,-0.311 0.822,-0.66 1.107,-1.045 0.13,-0.184 0.238,-0.373 0.331,-0.568 0.217,0.215 0.451,0.398 0.703,0.553 0.476,0.279 1.003,0.428 1.56,0.488 1.101,0.078 2.296,-0.25 3.3,-0.918 0.512,-0.313 0.964,-0.736 1.369,-1.17 0.395,-0.457 0.733,-0.941 0.985,-1.463 0.348,-0.713 0.539,-1.465 0.559,-2.203 1.746,0.99 3.216,0.367 4.138,-0.945 0.929,-1.299 1.284,-3.236 1.172,-4.924 2.041,0.756 3.213,-0.543 3.605,-2.357 0.232,-1.012 0.199,-2.17 0.037,-3.225 -0.08,-0.547 -0.152,-1.09 -0.295,-1.547 -0.059,-0.199 -0.12,-0.387 -0.18,-0.566 0.954,0.195 2.045,0.371 2.98,0.193 0.358,-0.076 0.721,-0.561 1.023,-1.094 0.163,-0.26 0.259,-0.563 0.35,-0.824 0.089,-0.264 0.158,-0.494 0.203,-0.652 0.204,-0.615 0.232,-1.289 0.226,-1.9 0.005,-0.604 -0.149,-1.23 -0.36,-1.783 -0.108,-0.277 -0.237,-0.541 -0.389,-0.791 -0.153,-0.25 -0.347,-0.504 -0.552,-0.73 -0.215,-0.236 -0.455,-0.453 -0.72,-0.652 1.954,-0.502 3.701,-1.959 4.743,-4.004 1.101,-2.148 1.415,-4.809 0.71,-7.415 1.365,-0.161 2.602,-1.357 3.701,-2.831 0.649,-0.857 1.229,-1.805 1.806,-2.703 0.271,-0.46 0.546,-0.903 0.806,-1.32 0.021,0.251 0.048,0.5 0.094,0.746 0.127,0.68 0.31,1.325 0.558,1.91 0.474,1.06 1.166,1.928 2.095,2.484 -0.697,1.824 -0.869,3.795 -0.458,5.805 0.201,0.965 0.608,1.838 1.13,2.605 0.104,0.125 1.467,1.719 1.666,1.447 -0.306,0.426 -0.571,0.896 -0.794,1.402 z"
   id="path617" />

	<path
   style="fill:#261414"
   d="m 253.326,228.639 c -1.343,3.333 -1.824,6.906 -2.425,10.404 -0.063,0.443 -0.153,0.877 -0.24,1.311 l -0.247,1.313 -0.31,1.295 -0.151,0.65 c -0.055,0.215 -0.127,0.424 -0.189,0.637 -0.129,0.426 -0.258,0.85 -0.386,1.273 -0.126,0.428 -0.313,0.826 -0.467,1.24 -0.169,0.408 -0.313,0.83 -0.504,1.225 -0.2,0.393 -0.399,0.781 -0.598,1.17 -0.16,0.293 -0.297,0.602 -0.48,0.883 l -0.551,0.84 c -0.372,0.561 -0.745,1.125 -1.151,1.664 -0.809,1.084 -1.699,2.109 -2.636,3.092 -1.875,1.965 -3.942,3.744 -6.095,5.391 -2.19,1.67 -4.52,3.172 -7.003,4.418 -1.245,0.615 -2.525,1.168 -3.85,1.631 -1.327,0.447 -2.695,0.803 -4.102,1.018 -1.552,0.238 -3.259,0.215 -4.938,-0.055 0.125,0.303 0.273,0.594 0.441,0.875 0.307,0.035 0.612,0.064 0.917,0.082 2.352,0.104 4.645,-0.26 6.793,-0.906 4.306,-1.313 8.114,-3.57 11.593,-6.152 1.791,-1.33 3.491,-2.771 5.105,-4.305 0.801,-0.773 1.584,-1.563 2.322,-2.396 0.743,-0.824 1.457,-1.689 2.104,-2.586 0.32,-0.424 0.609,-0.883 0.908,-1.324 l 0.44,-0.67 c 0.145,-0.225 0.298,-0.443 0.415,-0.686 0.496,-0.953 1.018,-1.879 1.385,-2.881 l 0.299,-0.734 0.146,-0.367 0.12,-0.379 0.476,-1.504 c 0.15,-0.502 0.254,-1.02 0.384,-1.525 l 0.188,-0.758 0.145,-0.771 c 0.82,-4.084 1.076,-8.252 2.16,-12.403 0.003,-0.015 -0.013,-0.022 -0.018,-0.01 z"
   id="path618" />

</g>
</svg>
