<?xml version="1.0" encoding="UTF-8" standalone="no"?>
<!-- Created with Inkscape (http://www.inkscape.org/) -->

<svg
   width="210mm"
   height="297mm"
   viewBox="0 0 210 297"
   version="1.1"
   id="svg1"
   xmlns="http://www.w3.org/2000/svg"
   xmlns:svg="http://www.w3.org/2000/svg">
  <defs
     id="defs1" />
  <g
     id="layer1">
    <g
       id="g615"
       transform="matrix(2.3849552,0,0,2.3849552,-699.7663,-416.92002)">
	<path
   style="fill:#261414"
   d="m 377.846,214.272 c 0.19,-0.43 0.363,-0.866 0.554,-1.296 0.146,-0.33 0.414,-0.653 0.53,-1.001 0.232,-0.046 0.311,-0.346 0.092,-0.513 -1.402,-1.068 -3.689,-0.594 -5.019,0.338 -0.548,0.384 -1.078,0.966 -1.392,1.622 -0.2,-0.546 -0.459,-1.071 -0.708,-1.559 0.239,-0.211 0.471,-0.445 0.694,-0.697 0.12,-0.137 0.017,-0.372 -0.172,-0.357 -0.587,0.049 -1.243,0.105 -1.882,0.238 0.338,-0.588 0.523,-1.296 0.594,-1.866 0.217,-1.797 -0.845,-3.882 -2.507,-4.637 -0.228,-0.104 -0.487,0.183 -0.366,0.39 -0.572,0.669 -1.018,1.605 -1.496,2.334 -0.385,0.584 -0.75,1.302 -0.688,2.023 0.034,0.414 0.174,0.854 0.388,1.261 -0.105,-0.095 -0.217,-0.183 -0.349,-0.253 -0.318,-0.174 -0.67,-0.295 -1.006,-0.432 -0.139,-0.055 -0.641,-0.205 -0.738,-0.313 -0.016,-0.023 -0.029,-0.047 -0.045,-0.069 -0.118,-0.169 -0.396,-0.077 -0.414,0.096 -0.756,-0.225 -1.473,-0.588 -2.236,-0.832 -0.89,-0.285 -1.957,-0.285 -2.883,-0.243 -0.313,0.014 -0.598,0.084 -0.867,0.19 0.431,-0.599 0.784,-1.241 1.039,-1.858 0.346,-0.832 0.214,-1.719 -0.106,-2.596 0.007,0.01 0.014,0.017 0.02,0.026 0.045,0.08 0.068,0.162 0.074,0.243 0.553,-0.323 1.125,-0.608 1.699,-0.871 -0.23,0.689 -0.079,1.438 0.229,2.105 0.437,0.945 1.617,1.205 2.404,1.743 0.002,-0.002 0.003,-0.005 0.004,-0.007 0.017,0.01 0.03,0.024 0.048,0.033 0.228,0.115 0.403,-0.254 0.199,-0.391 -0.02,-0.014 -0.043,-0.023 -0.063,-0.037 -0.131,-0.094 -0.262,-0.585 -0.316,-0.716 -0.133,-0.319 -0.261,-0.64 -0.412,-0.952 -0.083,-0.172 -0.193,-0.305 -0.316,-0.432 0.205,0.117 0.411,0.215 0.603,0.288 0.824,0.311 1.647,0.032 2.377,-0.364 0.846,-0.461 1.903,-1.082 2.664,-1.725 0.228,0.125 0.483,-0.142 0.37,-0.394 -0.943,-2.106 -4.464,-3.124 -6.442,-1.823 0.119,-0.6 0.175,-1.212 0.221,-1.762 0.014,-0.148 -0.135,-0.256 -0.266,-0.222 0.234,-0.179 0.464,-0.375 0.686,-0.588 0.131,-0.125 0.054,-0.371 -0.139,-0.372 -0.59,0 -1.248,0.003 -1.895,0.08 0.385,-0.556 0.629,-1.244 0.745,-1.807 0.365,-1.771 -0.516,-3.941 -2.11,-4.83 -0.219,-0.121 -0.509,0.143 -0.398,0.359 -0.649,0.648 -1.2,1.568 -1.753,2.289 -0.475,0.617 -0.768,1.27 -0.789,2.051 -0.01,0.332 0.065,0.682 0.199,1.02 -0.073,-0.068 -0.15,-0.135 -0.238,-0.191 -0.305,-0.199 -0.644,-0.351 -0.967,-0.514 -0.172,-0.086 -0.672,-0.25 -0.75,-0.445 -0.063,-0.108 -0.195,-0.125 -0.295,-0.085 -0.68,-0.771 -1.544,-1.362 -2.58,-1.636 -0.462,-0.122 -0.92,-0.181 -1.376,-0.198 0.199,-0.126 0.393,-0.269 0.579,-0.432 1.779,-1.554 1.131,-4.624 1.506,-6.666 0.045,-0.243 -0.161,-0.431 -0.398,-0.372 -1.954,0.479 -4.575,1.059 -5.9,2.692 -0.422,0.519 -0.76,1.183 -1.01,1.897 -0.078,-0.163 -0.145,-0.333 -0.187,-0.514 -10e-4,-0.006 -0.009,-0.007 -0.013,-0.012 0.033,-0.648 0.002,-1.303 -0.133,-1.924 -0.367,-1.705 -1.557,-2.48 -2.629,-3.484 0.557,-0.362 1.032,-0.927 1.541,-1.279 0.223,-0.186 -0.06,-0.496 -0.289,-0.334 -0.309,0.254 -1.411,0.074 -1.821,0.102 -0.213,0.014 -0.376,0.064 -0.552,0.139 0.195,-0.158 0.371,-0.323 0.514,-0.481 0.564,-0.626 0.627,-1.564 0.488,-2.353 -0.17,-0.969 -0.315,-2.129 -0.635,-3.076 0.189,-0.146 0.063,-0.501 -0.188,-0.492 -2.387,0.078 -4.557,3.012 -4.047,5.359 -0.539,-0.341 -1.115,-0.621 -1.613,-0.865 -0.186,-0.091 -0.321,0.135 -0.266,0.289 0.296,0.811 0.691,1.713 1.368,2.283 0.608,0.51 1.31,0.633 2.036,0.526 -0.572,0.625 -1.135,1.299 -1.63,1.982 -0.114,-0.458 -0.288,-0.896 -0.485,-1.26 -0.786,-1.448 -2.673,-2.591 -4.352,-2.386 -0.031,-0.217 -0.07,-0.437 -0.119,-0.657 -0.039,-0.168 -0.284,-0.252 -0.387,-0.084 -0.311,0.511 -0.652,1.076 -0.922,1.67 -0.273,-0.635 -0.744,-1.213 -1.201,-1.619 -1.263,-1.122 -3.688,-1.67 -5.174,-0.673 -0.195,0.131 -0.165,0.495 0.079,0.527 0.077,0.253 0.239,0.482 0.347,0.73 0.232,0.527 0.393,1.087 0.587,1.63 0.257,0.717 0.602,1.5 1.26,1.938 0.108,0.072 0.231,0.135 0.358,0.193 -1.379,1.331 -3.474,1.359 -4.661,3.009 -0.604,0.839 -0.735,1.81 -0.677,2.806 -0.261,-0.514 -0.633,-0.985 -1.199,-1.416 -1.716,-1.305 -4.158,-1.479 -6.121,-2.242 -0.24,-0.094 -0.44,0.217 -0.321,0.416 0.972,1.641 1.05,3.639 2.556,4.936 0.608,0.523 1.359,0.791 2.156,0.972 -0.555,0.104 -1.082,0.285 -1.545,0.569 -1.769,1.087 -2.636,3.066 -3.45,4.894 -0.108,0.241 0.115,0.592 0.401,0.465 1.994,-0.881 4.537,0.279 6.398,-0.992 0.634,-0.434 1.097,-0.979 1.456,-1.591 -0.191,1.019 -0.17,2.077 0.162,2.999 0.566,1.582 2.465,2.43 3.732,3.334 0.193,0.139 0.456,0.092 0.564,-0.129 0.398,-0.816 0.539,-1.637 0.496,-2.463 0.306,0.872 0.617,1.713 0.9,2.42 0.172,0.427 0.357,0.848 0.541,1.268 -0.358,0.723 -0.517,1.547 -0.551,2.393 -0.172,-0.566 -0.438,-1.107 -0.87,-1.614 -1.344,-1.569 -3.538,-2.667 -5.561,-2.962 -0.299,-0.044 -0.471,0.233 -0.344,0.49 1.011,2.035 -0.024,4.208 1.592,6.064 0.523,0.603 1.221,0.961 1.978,1.201 -0.677,0.072 -1.346,0.307 -2.052,0.823 -0.946,0.692 -1.673,1.647 -2.379,2.613 -0.516,-0.747 -1.018,-1.48 -1.481,-2.185 -0.58,-0.889 -1.131,-1.725 -1.619,-2.514 -0.995,-1.564 -1.789,-2.887 -2.352,-3.814 -0.07,-0.114 -0.135,-0.222 -0.195,-0.323 1.504,-0.81 1.648,-2.464 1.263,-4.188 -0.038,-0.17 -0.284,-0.252 -0.386,-0.085 -0.31,0.511 -0.652,1.077 -0.922,1.671 -0.273,-0.635 -0.744,-1.214 -1.201,-1.619 -1.263,-1.123 -3.689,-1.67 -5.174,-0.674 -0.195,0.131 -0.164,0.496 0.079,0.527 0.077,0.253 0.239,0.482 0.347,0.73 0.232,0.527 0.393,1.088 0.587,1.631 0.257,0.717 0.602,1.499 1.26,1.938 0.344,0.229 0.786,0.386 1.256,0.46 -0.147,0.048 -0.29,0.102 -0.424,0.169 -0.386,0.193 -1.204,0.988 -1.642,0.936 -0.289,-0.01 -0.319,0.409 -0.033,0.445 1.148,0.029 2.15,0.431 3.225,-0.152 0.458,-0.248 0.85,-0.639 1.094,-1.1 0.02,0.035 0.037,0.068 0.059,0.104 0.531,0.944 1.288,2.303 2.236,3.907 0.465,0.809 0.994,1.67 1.549,2.584 0.517,0.849 1.084,1.73 1.669,2.639 -0.249,0.326 -0.504,0.646 -0.774,0.941 -0.203,0.223 0,0.521 0.275,0.477 0.463,-0.076 0.923,-0.096 1.38,-0.098 0.416,0.619 0.841,1.243 1.294,1.862 0.699,1.013 1.48,1.993 2.238,2.991 0.805,0.961 1.579,1.95 2.428,2.854 0.813,0.934 1.691,1.785 2.527,2.623 0.105,0.105 0.215,0.202 0.324,0.302 -0.465,-0.017 -0.928,0.077 -1.383,0.325 -0.629,0.354 -1.129,1.001 -1.513,1.725 -0.309,0.589 -0.548,1.232 -0.676,1.836 -0.02,-0.081 -0.038,-0.162 -0.053,-0.244 -0.044,-0.235 -0.575,-0.293 -0.594,-0.055 -0.075,0.984 -0.671,1.77 -1.298,2.611 -0.382,0.512 -0.778,1.05 -1.061,1.645 -0.803,-1.201 -1.58,-2.449 -2.345,-3.711 -0.404,-0.67 -0.806,-1.346 -1.208,-2.018 0.043,0.018 0.087,0.042 0.131,0.059 0.073,0.027 0.181,-0.017 0.133,-0.062 -0.014,-0.014 -0.031,-0.028 -0.045,-0.041 0.066,-0.014 0.127,-0.039 0.17,-0.085 0.274,-0.284 0.514,-0.525 0.784,-0.752 0.276,-0.231 0.511,-0.433 0.727,-0.644 0.233,-0.219 0.41,-0.43 0.545,-0.67 0.152,-0.254 0.235,-0.518 0.263,-0.84 0.101,-1.145 -0.714,-2.738 -0.982,-4.041 -0.037,-0.203 -0.568,-0.279 -0.59,-0.091 -0.045,0.396 -0.221,0.739 -0.496,1.04 -0.265,0.299 -0.609,0.561 -0.973,0.82 -0.684,0.481 -1.427,0.999 -1.826,1.76 -0.443,-0.71 -0.895,-1.406 -1.351,-2.085 0.379,0.055 0.755,0.137 1.125,0.27 0.319,0.117 0.51,-0.351 0.289,-0.553 -1.646,-1.509 -2.639,-3.506 -4.605,-4.66 -0.907,-0.531 -2.006,-0.721 -3.073,-0.619 1.326,-0.519 2.783,-0.781 3.775,-2.033 1.288,-1.627 1.007,-4.146 0.996,-6.072 -0.002,-0.348 -0.443,-0.398 -0.641,-0.197 -0.806,0.816 -1.945,1.084 -2.908,1.645 -0.812,0.471 -1.534,1.24 -2.132,1.952 -0.193,0.232 -0.333,0.477 -0.438,0.735 -0.173,-0.848 -0.473,-1.649 -0.869,-2.283 -1.08,-1.726 -3.809,-1.825 -5.503,-2.477 -0.232,-0.09 -0.431,0.027 -0.501,0.256 -0.585,1.877 -0.259,3.631 0.811,5.258 0.148,0.229 0.317,0.437 0.498,0.633 -0.216,-0.029 -0.436,-0.049 -0.664,-0.049 -2.318,0 -3.891,2.689 -5.496,3.947 -0.179,0.141 -0.206,0.423 0.018,0.541 1.945,1.027 4.232,2.309 6.482,1.881 0.844,-0.159 1.749,-0.596 2.558,-1.174 -0.848,0.814 -1.685,1.779 -1.902,2.098 -0.533,0.783 -0.852,1.481 -0.984,2.418 -0.201,1.413 0.545,2.783 0.26,4.217 -0.065,0.33 0.348,0.495 0.535,0.221 1.396,-2.053 4.117,-2.672 5.191,-5.008 0.428,-0.931 0.451,-2.102 0.189,-3.184 0.381,0.549 0.834,1.025 1.294,1.325 1.265,0.827 2.668,0.788 4.076,0.808 0.061,0.092 0.122,0.182 0.183,0.274 1.658,2.538 3.212,5.399 4.837,8.253 0.421,0.734 0.853,1.465 1.288,2.191 -0.463,-0.051 -0.938,-0.051 -1.402,-0.016 -0.997,0.077 -1.947,0.313 -2.811,0.48 -0.271,0.048 -0.267,0.588 -0.013,0.599 1.09,0.044 1.914,0.809 2.497,1.663 0.256,0.365 0.478,0.742 0.702,1.109 -0.152,0.078 -0.303,0.162 -0.444,0.26 -0.81,0.552 -1.314,1.349 -1.72,2.153 -0.41,0.805 -0.731,1.629 -1.217,2.292 -0.15,0.208 0.182,0.626 0.385,0.456 1.619,-1.401 4.259,-0.803 5.662,-0.98 0.512,-0.063 0.768,-0.441 1.204,-0.965 0.107,-0.121 0.232,-0.273 0.362,-0.405 0.132,-0.127 0.279,-0.264 0.44,-0.403 0.128,-0.109 0.268,-0.207 0.407,-0.305 0.002,0.002 0.004,0.004 0.006,0.006 0.994,1.217 2.035,2.344 3.115,3.322 0.266,0.248 0.549,0.473 0.816,0.704 0.135,0.114 0.269,0.229 0.402,0.341 0.14,0.105 0.278,0.21 0.416,0.314 0.275,0.205 0.543,0.413 0.813,0.606 0.276,0.185 0.549,0.364 0.814,0.541 0.141,0.092 0.279,0.183 0.416,0.273 0.131,0.076 0.258,0.151 0.385,0.226 0.25,0.149 0.498,0.294 0.775,0.433 0.533,0.293 1.044,0.514 1.525,0.732 0.982,0.395 1.869,0.687 2.629,0.845 0.374,0.101 0.723,0.138 1.021,0.188 0.031,0.006 0.056,0.007 0.086,0.012 -0.984,0.229 -1.928,0.568 -2.744,0.934 -0.974,0.443 -1.725,0.879 -2.328,1.37 -0.278,0.233 -0.519,0.476 -0.818,0.745 -0.283,0.27 -0.68,0.561 -1.094,0.861 -0.432,0.301 -0.874,0.605 -1.332,0.906 -0.451,0.303 -0.922,0.586 -1.381,0.934 -0.288,0.238 0.131,0.623 0.318,0.506 0.123,-0.068 0.287,-0.113 0.43,-0.16 0.158,-0.035 0.315,-0.06 0.473,-0.08 0.32,-0.029 0.639,-0.029 0.963,-0.002 0.648,0.047 1.284,0.199 2.01,0.289 0.727,0.09 1.551,0.096 2.357,-0.074 0.81,-0.164 1.582,-0.5 2.228,-0.947 0.934,-0.658 1.368,-1.586 1.58,-2.519 0.193,-0.868 0.242,-1.795 0.287,-2.671 0.02,0.002 0.035,0.002 0.053,0.004 -0.095,1.166 -0.195,2.328 -0.303,3.482 -0.164,1.656 -0.364,3.293 -0.541,4.914 -0.219,1.617 -0.435,3.213 -0.647,4.783 -0.015,0.09 -0.029,0.18 -0.043,0.271 -0.634,-0.734 -1.281,-1.436 -1.961,-2.076 -1.012,-0.951 -2.084,-1.762 -3.322,-2.426 -1.108,-0.596 -2.252,-0.994 -3.397,-1.521 -1.14,-0.52 -2.277,-1.199 -3.163,-2.201 -0.283,-0.307 -0.709,0.02 -0.455,0.395 0.131,0.191 0.252,0.385 0.365,0.58 0.121,0.191 0.246,0.377 0.357,0.568 0.217,0.391 0.451,0.76 0.664,1.148 0.207,0.393 0.446,0.756 0.656,1.154 l 0.694,1.15 c 0.749,1.178 1.622,2.322 2.689,3.27 -0.422,-0.025 -0.845,-0.039 -1.22,-0.049 -0.146,-0.004 -0.296,-0.008 -0.445,-0.012 h -0.025 c -0.006,0.002 -0.047,-0.006 -0.068,-0.008 l -0.156,-0.02 -0.318,-0.033 c -1.529,-0.139 -3,-0.109 -4.484,-0.275 -1.478,-0.156 -3.002,-0.57 -4.305,-1.533 -0.416,-0.285 -0.741,0.141 -0.322,0.514 0.213,0.189 0.418,0.381 0.614,0.578 0.212,0.18 0.422,0.355 0.63,0.531 0.398,0.381 0.832,0.693 1.246,1.043 0.204,0.184 0.422,0.338 0.639,0.494 l 0.65,0.488 c 0.441,0.305 0.893,0.605 1.353,0.904 0.928,0.561 1.894,1.092 2.92,1.504 0.257,0.104 0.517,0.203 0.781,0.299 0.075,0.025 0.108,0.047 0.229,0.072 l 0.297,0.066 c 0.178,0.037 0.338,0.066 0.493,0.092 0.611,0.098 1.157,0.146 1.709,0.17 1.571,0.06 2.993,-0.313 4.265,-0.766 0.639,-0.227 1.228,-0.473 1.801,-0.674 0.013,-0.004 0.025,-0.008 0.038,-0.012 -0.049,0.305 -0.099,0.613 -0.148,0.916 -0.281,1.498 -0.557,2.963 -0.824,4.389 -0.592,2.84 -1.169,5.522 -1.807,7.971 -0.152,0.615 -0.301,1.215 -0.447,1.803 -0.154,0.586 -0.322,1.152 -0.476,1.709 -0.314,1.109 -0.609,2.16 -0.888,3.15 -0.625,1.957 -1.152,3.668 -1.619,5.064 -0.99,2.777 -1.555,4.365 -1.555,4.365 l 2.04,0.754 c 0,0 0.555,-1.619 1.524,-4.449 0.458,-1.426 0.973,-3.166 1.582,-5.158 0.27,-1.006 0.558,-2.074 0.861,-3.203 0.149,-0.564 0.313,-1.141 0.461,-1.734 0.141,-0.598 0.285,-1.207 0.432,-1.83 0.615,-2.486 1.167,-5.207 1.73,-8.084 0.254,-1.443 0.514,-2.928 0.779,-4.443 0.057,-0.377 0.114,-0.76 0.17,-1.141 0.411,0.16 0.789,0.379 1.166,0.629 0.646,0.428 1.302,0.951 2.127,1.459 0.82,0.502 1.842,1.014 3.139,1.215 l 0.489,0.064 c 0.164,0.018 0.339,0.01 0.509,0.012 0.344,0 0.691,-0.006 1.036,-0.078 0.345,-0.063 0.7,-0.113 1.024,-0.242 0.166,-0.059 0.331,-0.119 0.498,-0.18 0.167,-0.063 0.336,-0.127 0.459,-0.197 1.922,-0.975 3.359,-2.459 4.371,-4.139 1.008,-1.68 1.57,-3.555 1.643,-5.369 0.023,-0.566 -0.533,-0.5 -0.611,0.027 -0.18,1.123 -0.784,2.092 -1.512,2.838 -0.738,0.752 -1.634,1.285 -2.549,1.682 -0.917,0.395 -1.87,0.658 -2.803,0.832 l -0.344,0.063 c -0.113,0.023 -0.194,0.008 -0.289,0.016 -0.182,0.008 -0.355,0.029 -0.525,0 -0.086,-0.006 -0.168,-0.01 -0.25,-0.01 l -0.248,-0.041 c -0.082,-0.018 -0.158,-0.01 -0.245,-0.033 -0.086,-0.023 -0.172,-0.043 -0.257,-0.057 -0.498,-0.105 -1.097,-0.221 -1.824,-0.35 -0.717,-0.125 -1.569,-0.262 -2.447,-0.266 -0.792,-0.008 -1.605,0.102 -2.296,0.381 0.087,-0.588 0.175,-1.178 0.265,-1.773 0.195,-1.586 0.393,-3.199 0.594,-4.832 0.159,-1.637 0.342,-3.291 0.486,-4.963 0.085,-1.041 0.164,-2.091 0.238,-3.143 0.102,0.302 0.244,0.588 0.404,0.856 0.565,0.868 1.301,1.446 2.031,1.909 1.479,0.902 3.054,1.32 4.729,1.359 3.003,0.041 5.545,-1.372 8.205,-1.883 0.409,-0.061 0.374,-0.604 -0.095,-0.598 -1.854,0.081 -3.502,-0.347 -5.098,-0.932 -1.588,-0.584 -3.113,-1.276 -4.615,-1.702 -1.085,-0.305 -2.068,-0.282 -2.888,-0.212 -0.408,0.023 -0.8,0.083 -1.229,-0.119 -0.215,-0.104 -0.408,-0.28 -0.579,-0.496 0.023,-0.031 0.046,-0.063 0.079,-0.1 0.174,-0.219 0.479,-0.537 0.967,-0.903 0.485,-0.368 1.14,-0.781 1.95,-1.231 0.415,-0.229 0.857,-0.474 1.32,-0.73 0.122,-0.068 0.246,-0.139 0.371,-0.21 0.12,-0.071 0.241,-0.143 0.365,-0.217 0.239,-0.155 0.484,-0.313 0.733,-0.475 0.5,-0.323 1.021,-0.66 1.559,-1.01 0.523,-0.371 1.053,-0.773 1.602,-1.176 0.272,-0.205 0.557,-0.402 0.828,-0.623 0.269,-0.225 0.539,-0.451 0.815,-0.682 0.541,-0.467 1.125,-0.909 1.652,-1.436 0.535,-0.514 1.095,-1.021 1.635,-1.563 0.521,-0.557 1.051,-1.121 1.584,-1.69 0.166,-0.188 0.328,-0.381 0.49,-0.574 0.824,0.705 1.719,1.303 2.461,1.79 0.358,0.229 0.715,0.456 1.075,0.686 0.304,0.188 0.567,0.342 0.81,0.437 0.084,0.004 0.268,0.134 0.436,0.209 0.17,0.069 0.368,0.189 0.57,0.284 0.408,0.2 0.852,0.422 1.316,0.658 0.93,0.471 1.919,0.997 2.848,1.482 0.286,0.155 0.584,-0.298 0.346,-0.491 -0.51,-0.396 -0.842,-0.951 -1.096,-1.524 -0.256,-0.584 -0.422,-1.209 -0.636,-1.865 -0.095,-0.328 -0.229,-0.661 -0.356,-0.999 -0.063,-0.169 -0.158,-0.343 -0.244,-0.517 -0.098,-0.176 -0.165,-0.342 -0.303,-0.526 -0.214,-0.283 -0.447,-0.532 -0.695,-0.762 0.503,-0.229 0.988,-0.556 1.557,-0.851 0.672,-0.352 1.488,-0.617 2.308,-0.488 0.255,0.031 0.489,-0.447 0.22,-0.555 -0.136,-0.053 -0.265,-0.113 -0.389,-0.18 -0.131,-0.055 -0.257,-0.113 -0.381,-0.18 -0.243,-0.144 -0.492,-0.258 -0.736,-0.414 -0.247,-0.146 -0.5,-0.283 -0.758,-0.443 -0.26,-0.133 -0.528,-0.298 -0.805,-0.429 -1.046,-0.523 -2.258,-0.919 -3.455,-0.8 0.121,-0.182 0.241,-0.365 0.361,-0.547 0.199,-0.336 0.398,-0.67 0.598,-1.003 0.396,-0.666 0.797,-1.323 1.139,-1.999 0.348,-0.674 0.727,-1.323 1.035,-1.991 0.316,-0.665 0.626,-1.319 0.93,-1.96 0.277,-0.65 0.547,-1.288 0.811,-1.908 0.076,-0.172 0.141,-0.342 0.209,-0.512 0.049,0.08 0.094,0.16 0.127,0.25 0.08,0.184 0.148,0.338 0.181,0.527 0.038,0.177 0.071,0.32 0.081,0.5 0.015,0.164 0.031,0.301 0.037,0.47 0.038,0.61 0.125,1.19 0.52,1.886 0.703,1.221 2.277,2.534 3.273,3.987 0.154,0.225 0.647,0.01 0.55,-0.233 -0.411,-1.031 -0.157,-2.113 0.085,-3.243 0.104,-0.5 0.209,-1.024 0.254,-1.569 0.06,0.771 0.499,1.498 0.701,2.258 0.002,-0.001 0.004,-0.002 0.006,-0.002 0.006,0.018 0.006,0.039 0.012,0.057 0.086,0.235 0.482,0.1 0.416,-0.141 -0.005,-0.018 -0.013,-0.037 -0.018,-0.056 -0.121,-0.348 0.421,-1.331 0.523,-1.685 0.047,-0.165 0.072,-0.34 0.088,-0.518 0.109,0.279 0.244,0.541 0.396,0.764 0.458,0.676 1.287,0.941 2.047,1.081 0.493,0.091 0.999,0.126 1.497,0.183 0.496,0.056 0.992,0.242 1.486,0.257 0.109,0.209 0.428,0.228 0.518,-0.042 0.556,-1.639 -0.402,-3.582 -1.647,-4.632 -0.525,-0.442 -1.279,-0.835 -2.041,-0.965 0.502,-0.384 0.963,-0.823 1.363,-1.211 0.121,-0.115 0.083,-0.373 -0.117,-0.373 -1.709,0.002 -3.326,0.45 -3.792,2.036 -0.837,-0.65 -2.181,-1.039 -3.032,-1.289 -0.435,-0.127 -0.906,-0.201 -1.369,-0.195 0.631,-0.221 1.215,-0.496 1.548,-0.641 0.67,-0.289 2.591,-1.088 3.06,-2.021 0.032,0.016 0.06,0.032 0.094,0.047 0.153,0.766 0.717,1.348 1.379,1.768 0.854,0.538 1.99,0.145 2.916,0.174 0,-0.003 -10e-4,-0.006 -10e-4,-0.008 0.021,0 0.04,0.006 0.06,0.004 0.25,-0.02 0.221,-0.432 -0.025,-0.438 -0.023,-0.001 -0.046,0.002 -0.068,0.002 -0.361,0.012 -1.178,-0.811 -1.484,-1.004 -0.139,-0.09 -0.273,-0.145 -0.418,-0.188 0.422,-0.039 0.818,-0.145 1.119,-0.316 0.774,-0.424 1.189,-1.164 1.535,-1.947 z M 310.145,205.3 c -0.381,-0.569 -0.567,-1.255 -0.818,-1.885 -0.149,-0.373 -0.314,-0.933 -0.602,-1.301 0.683,-0.12 1.315,-0.302 2.047,-0.216 0.722,0.085 1.398,0.396 1.973,0.832 0.766,0.58 1.608,1.755 1.225,2.764 -0.157,-0.244 -0.396,-0.465 -0.564,-0.615 -0.759,-0.673 -1.67,-0.632 -2.522,-1.094 -0.149,-0.08 -0.327,0.119 -0.25,0.262 0.392,0.733 1.312,1.865 2.285,2.184 -0.205,0.037 -0.41,0.056 -0.596,0.07 -0.907,0.071 -1.675,-0.246 -2.178,-1.001 z m 3.543,0.605 c -0.066,0.059 -0.14,0.109 -0.219,0.15 -0.885,-0.206 -1.678,-0.924 -2.191,-1.686 0.371,0.122 0.755,0.205 1.13,0.339 0.447,0.16 1.098,0.679 1.28,1.197 z m -1.342,2.205 c -0.535,0.273 -1.223,0.153 -1.87,0.04 0.255,-0.167 0.495,-0.355 0.677,-0.464 0.799,-0.476 1.77,-0.314 2.553,-0.796 0.012,0.02 0.023,0.04 0.034,0.06 -0.363,0.491 -0.853,0.885 -1.394,1.16 z m 2.149,-2.179 c 0.026,-0.046 0.057,-0.089 0.08,-0.138 0.159,-0.33 0.203,-0.676 0.171,-1.021 0.186,-0.611 0.449,-1.189 0.779,-1.785 0.121,0.673 0.158,1.352 -0.018,2.026 -0.158,0.606 -0.592,0.966 -1.047,1.315 0.011,-0.134 0.018,-0.269 0.035,-0.397 z m -6.165,10.34 c 0.203,-2.468 3.148,-3.056 4.929,-4.264 0.044,2.292 0.105,4.671 -2.042,6.118 -0.721,0.486 -1.527,0.713 -2.264,1.057 -0.056,-0.432 -0.256,-0.832 -0.582,-1.18 -0.018,-0.684 -0.072,-1.345 -0.041,-1.731 z m -1.322,4.61 c -0.267,0.016 -0.502,-0.059 -0.71,-0.182 -0.051,-0.033 -0.106,-0.061 -0.151,-0.098 -0.377,-0.294 -0.631,-0.771 -0.727,-1.221 -0.171,-0.791 -0.06,-1.52 -0.375,-2.24 0.254,0.264 0.647,0.346 1.035,0.427 0.459,0.095 0.935,0.11 1.37,0.296 1.054,0.451 1.126,1.436 0.936,2.403 -0.444,0.264 -0.81,0.579 -1.378,0.615 z m -5.44,-9.492 c 1.094,0.37 2.231,0.584 3.313,0.99 1.983,0.746 2.513,2.97 2.624,5.01 -0.826,-0.317 -1.816,-0.15 -2.604,-0.635 -0.033,-0.02 -0.068,0.021 -0.058,0.054 0.018,0.051 0.041,0.095 0.065,0.138 0.082,0.287 0.115,0.596 0.134,0.912 -0.408,-0.26 -0.822,-0.518 -1.227,-0.786 -1.934,-1.288 -2.766,-3.482 -2.247,-5.683 z m 0.907,11.133 c -1.55,0.547 -4.058,-0.797 -5.627,-1.658 1.316,-1.122 2.367,-2.58 3.98,-3.301 0.835,-0.373 1.692,-0.244 2.525,0.125 0.552,0.404 1.147,0.766 1.729,1.143 0.041,0.741 0.171,1.445 0.785,1.936 -1.048,0.74 -2.24,1.348 -3.392,1.755 z m 3.871,4.873 c -1.033,0.891 -2.189,1.49 -3.123,2.428 0.006,-0.573 -0.076,-1.141 -0.164,-1.732 -0.246,-1.652 0.063,-2.811 1.092,-4.144 0.529,-0.685 2.412,-1.698 3.181,-2.72 0.071,-0.004 0.14,-0.02 0.21,-0.03 0.642,2.302 0.851,4.434 -1.196,6.198 z m 5.086,-3.337 c -1.438,-0.224 -2.664,-1.654 -3.353,-3.035 0.215,-0.116 0.403,-0.281 0.549,-0.501 0.037,-0.012 0.072,-0.039 0.096,-0.088 0.056,-0.111 0.096,-0.223 0.133,-0.333 1.52,-0.235 3.104,0.322 4.316,1.351 0.954,0.807 1.656,1.878 2.481,2.827 -1.389,-0.209 -2.814,-0.002 -4.222,-0.221 z m 6.251,5.039 c -0.217,-0.269 -0.37,-0.569 -0.419,-0.842 -0.053,-0.274 -0.039,-0.548 0.025,-0.81 0.064,-0.264 0.198,-0.485 0.354,-0.709 0.156,-0.223 0.348,-0.424 0.563,-0.598 0.515,-0.439 1.092,-0.769 1.572,-1.16 0.176,-0.145 0.338,-0.299 0.479,-0.469 -0.369,0.977 -0.837,1.83 -1.431,2.762 -0.144,0.218 -0.265,0.445 -0.345,0.69 -0.082,0.243 -0.155,0.487 -0.17,0.744 -0.011,0.259 0.008,0.519 0.065,0.773 0.031,0.158 0.102,0.317 0.185,0.471 -0.312,-0.256 -0.631,-0.534 -0.878,-0.852 z m 1.104,0.619 c -0.048,-0.153 -0.061,-0.307 -0.076,-0.462 -0.023,-0.308 -0.011,-0.619 0.079,-0.91 0.145,-0.595 0.471,-1.134 0.837,-1.649 0.488,-0.679 0.674,-1.337 0.793,-2.115 0.2,0.677 0.424,1.37 0.587,2.034 0.108,0.43 0.085,0.805 10e-4,1.114 -0.045,0.157 -0.115,0.306 -0.204,0.447 -0.085,0.14 -0.176,0.269 -0.292,0.398 -0.113,0.13 -0.246,0.258 -0.387,0.387 -0.127,0.125 -0.266,0.254 -0.416,0.389 -0.145,0.135 -0.316,0.277 -0.459,0.425 -0.096,0.102 -0.195,0.215 -0.295,0.326 -0.063,-0.127 -0.122,-0.254 -0.168,-0.384 z m 17.236,36.742 c -0.601,0.166 -1.16,0.408 -1.754,0.643 -1.134,0.449 -2.332,0.668 -3.618,0.691 -0.646,0.01 -1.299,-0.023 -2.017,-0.127 -0.182,-0.027 -0.369,-0.059 -0.572,-0.102 -0.1,-0.022 -0.232,-0.053 -0.334,-0.08 l -0.242,-0.086 c -0.321,-0.119 -0.637,-0.242 -0.946,-0.371 -1.493,-0.654 -2.776,-1.486 -3.97,-2.365 -0.482,-0.352 -0.943,-0.723 -1.4,-1.104 1.078,0.69 2.223,1.209 3.397,1.639 0.722,0.272 1.463,0.484 2.213,0.705 0.379,0.102 0.76,0.203 1.143,0.305 0.418,0.092 0.818,0.133 1.224,0.178 1.352,0.139 2.685,0.145 3.983,0.111 0.646,-0.023 1.287,-0.049 1.927,-0.072 0.392,-0.012 0.78,-0.025 1.171,-0.016 -0.07,0.016 -0.137,0.033 -0.205,0.051 z m 0.457,-0.35 c -0.715,-0.072 -1.395,-0.047 -2.078,-0.043 -0.816,0.018 -1.631,0.037 -2.449,0.037 -0.816,-0.002 -1.64,-0.016 -2.465,-0.07 -0.412,-0.029 -0.827,-0.064 -1.232,-0.135 -0.397,-0.07 -0.799,-0.217 -1.194,-0.326 -1.221,-0.383 -2.315,-0.701 -3.378,-1.096 -0.758,-0.258 -1.496,-0.57 -2.244,-0.959 l 0.436,0.131 c 0.154,0.033 0.31,0.059 0.463,0.088 1.208,0.266 2.436,0.271 3.65,0.295 0.512,-0.01 0.992,0.027 1.475,0.045 0.24,0.014 0.475,0.035 0.707,0.063 0.131,0.014 0.115,0.004 0.232,0.01 l 0.29,0.01 c 0.866,0.016 1.853,0.074 2.806,0.223 0.959,0.146 1.922,0.369 2.873,0.682 0.474,0.156 0.946,0.334 1.406,0.549 0.244,0.115 0.488,0.242 0.721,0.383 -0.007,0.037 -0.013,0.074 -0.019,0.113 z m -0.738,-1.25 c -0.166,-0.07 -0.331,-0.141 -0.496,-0.205 -0.873,-0.328 -1.74,-0.56 -2.609,-0.736 -0.505,-0.1 -1.01,-0.176 -1.514,-0.234 -0.746,-0.51 -1.435,-1.135 -2.021,-1.844 -0.864,-1.039 -1.504,-2.139 -2.104,-3.209 -0.247,-0.44 -0.486,-0.875 -0.73,-1.313 1.439,1.857 3.137,3.313 5.014,4.836 1.58,1.27 3.355,2.188 5.244,2.674 -0.262,0.008 -0.522,0.02 -0.784,0.031 z m 0.988,-0.306 c -1.182,-0.363 -2.287,-0.84 -3.336,-1.445 -1.164,-0.67 -2.26,-1.484 -3.26,-2.408 -0.772,-0.711 -1.475,-1.318 -2.16,-1.945 -0.504,-0.441 -0.99,-0.902 -1.479,-1.414 0.229,0.15 0.46,0.295 0.695,0.426 0.897,0.512 1.854,0.871 2.792,1.238 1.561,0.588 2.789,1.397 3.951,2.426 0.991,0.877 1.916,1.9 2.824,2.959 -0.009,0.053 -0.017,0.108 -0.027,0.163 z m 16.11,-0.182 c -0.33,0.639 -0.721,1.258 -1.166,1.855 -0.453,0.584 -0.959,1.148 -1.531,1.668 -0.478,0.424 -0.984,0.797 -1.533,1.102 -0.137,0.076 -0.273,0.15 -0.414,0.223 -0.162,0.066 -0.327,0.131 -0.492,0.193 -0.166,0.061 -0.331,0.119 -0.498,0.174 -0.17,0.045 -0.346,0.074 -0.518,0.107 -0.174,0.031 -0.348,0.059 -0.521,0.084 -0.175,0.008 -0.349,0.01 -0.522,0.012 -0.172,-0.002 -0.347,0.002 -0.516,-0.012 l -0.496,-0.072 c -0.336,-0.041 -0.639,-0.135 -0.938,-0.23 -0.309,-0.084 -0.57,-0.215 -0.844,-0.332 -1.063,-0.498 -1.871,-1.137 -2.661,-1.697 -0.605,-0.428 -1.218,-0.83 -1.931,-1.074 0.006,-0.039 0.012,-0.076 0.017,-0.115 0.71,-0.088 1.461,0.021 2.164,0.217 0.857,0.238 1.67,0.582 2.487,0.875 0.817,0.295 1.653,0.539 2.532,0.592 0.439,0.039 0.882,-0.008 1.331,-0.061 l 0.663,-0.15 c 0.226,-0.047 0.432,-0.133 0.652,-0.199 1.325,-0.463 2.445,-1.143 3.397,-2.006 0.68,-0.613 1.281,-1.324 1.783,-2.148 -0.133,0.334 -0.281,0.666 -0.445,0.994 z m -14.15,1.463 c 0.683,-0.203 1.425,-0.301 2.184,-0.313 0.714,-0.01 1.421,0.098 2.036,0.215 0.62,0.111 1.186,0.266 1.684,0.346 l 0.189,0.043 0.18,0.022 c 0.119,0.014 0.242,0.047 0.36,0.059 0.233,0.006 0.474,0.059 0.716,0.039 0.12,-0.006 0.247,0.021 0.371,0 0.125,-0.016 0.252,-0.027 0.383,-0.037 0.066,-0.006 0.128,-0.004 0.201,-0.018 l 0.224,-0.047 c 0.149,-0.033 0.303,-0.053 0.453,-0.094 1.47,-0.326 2.89,-0.815 4.179,-1.67 0.48,-0.33 0.937,-0.717 1.344,-1.176 -0.781,1.115 -1.771,2.025 -2.854,2.748 -0.686,0.459 -1.417,0.842 -2.183,1.143 -0.768,0.314 -1.561,0.496 -2.359,0.482 -0.668,-0.01 -1.315,-0.168 -1.955,-0.352 -0.642,-0.193 -1.281,-0.457 -1.946,-0.693 -0.659,-0.242 -1.36,-0.465 -2.083,-0.576 -0.459,-0.082 -0.935,-0.088 -1.393,-0.029 0.088,-0.035 0.179,-0.069 0.269,-0.092 z m 37.992,-44.475 c 1.283,0.996 1.367,2.256 1.503,3.685 -0.878,-0.46 -2.363,-0.392 -3.201,-0.605 -0.95,-0.243 -1.936,-1.597 -1.847,-2.686 0.449,0.954 1.823,1.645 2.695,1.876 0.166,0.044 0.367,-0.143 0.223,-0.301 -0.584,-0.633 -0.76,-1.462 -1.447,-2.024 -0.209,-0.17 -0.564,-0.43 -0.915,-0.55 0.009,-0.007 0.015,-0.015 0.024,-0.02 0.883,-0.615 2.25,0.069 2.965,0.625 z m -3.453,-0.012 c 0.03,-0.08 0.069,-0.158 0.117,-0.232 0.481,0.047 0.989,0.46 1.303,0.768 0.341,0.336 0.518,0.793 0.759,1.209 -0.847,-0.323 -1.793,-0.942 -2.179,-1.745 z m 0.639,-2.201 c 0.558,-0.313 1.242,-0.4 1.896,-0.42 -0.338,0.306 -0.68,0.605 -1.047,0.877 -0.125,0.092 -0.25,0.171 -0.377,0.244 -0.31,0.027 -0.609,0.111 -0.882,0.27 -0.118,0.07 -0.22,0.151 -0.312,0.237 -0.119,0.038 -0.241,0.075 -0.365,0.112 0.252,-0.517 0.503,-0.993 1.087,-1.32 z m -1.972,-7.846 c -0.117,0.121 -0.238,0.237 -0.363,0.35 -0.014,0.008 -0.022,0.02 -0.032,0.031 -0.412,0.365 -0.87,0.666 -1.411,0.847 -0.523,0.176 -1.025,0.039 -1.525,-0.116 0.12,-0.074 0.24,-0.149 0.36,-0.215 0.041,-0.004 0.082,-0.002 0.124,-0.008 0.379,-0.052 0.698,-0.226 0.966,-0.471 0.598,-0.206 1.214,-0.334 1.881,-0.418 z m -3.664,0.164 c -0.364,-0.852 -0.27,-1.898 0.047,-2.781 0.107,0.338 0.246,0.664 0.363,1.006 0.156,0.453 0.154,1.379 -0.175,1.848 -0.08,-0.016 -0.158,-0.039 -0.235,-0.073 z m 0.059,0.676 c -0.078,0.017 -0.16,0.028 -0.242,0.039 -0.022,-0.014 -0.04,-0.03 -0.061,-0.045 0.022,-0.023 0.037,-0.05 0.043,-0.079 0.085,0.034 0.172,0.062 0.26,0.085 z m -1.283,-4.154 c 0.397,-0.849 1.367,-1.748 1.582,-2.712 1.059,1.05 1.89,1.974 1.879,3.624 -0.007,0.936 -0.486,2.373 -1.52,2.619 0.086,-0.227 0.127,-0.486 0.158,-0.694 0.159,-1.046 -0.438,-1.774 -0.582,-2.763 -0.025,-0.176 -0.274,-0.279 -0.367,-0.086 -0.354,0.738 -0.74,2.189 -0.409,3.166 -0.337,-0.308 -0.608,-0.727 -0.795,-1.04 -0.413,-0.695 -0.266,-1.429 0.054,-2.114 z m -1.486,2.545 c 0.899,0.385 1.34,1.405 2.302,1.659 0.014,0.003 0.025,0.001 0.037,0.001 0,0.002 -10e-4,0.005 -10e-4,0.008 -0.761,0.053 -1.616,-0.168 -2.194,-0.611 -0.419,-0.32 -0.664,-0.832 -0.908,-1.329 0.281,0.106 0.568,0.188 0.764,0.272 z m -1.421,-0.137 c -1.052,1.006 -2.107,2.009 -3.471,2.575 -1.762,0.731 -3.19,-0.374 -4.735,-0.933 0.152,-0.207 0.268,-0.443 0.319,-0.711 0.024,-0.125 0.034,-0.245 0.04,-0.361 0.408,-0.401 0.775,-0.814 1.033,-1.049 2.07,-1.878 4.576,-0.009 6.814,0.479 z m -15.782,-1.459 c -0.962,-0.971 -1.49,-3.137 -1.845,-4.622 1.775,0.22 3.633,-0.04 5.281,0.769 0.932,0.459 1.393,1.393 1.639,2.465 0.067,0.479 0.145,0.959 0.213,1.439 -0.598,0.498 -1.113,1.045 -1.101,1.889 -1.555,-0.325 -3.218,-0.963 -4.187,-1.94 z m -12.815,-18.607 c 0.004,-0.001 0.005,-0.004 0.008,-0.005 -0.6,0.444 -1.371,0.705 -2.103,0.688 -0.539,-0.013 -1.051,-0.322 -1.549,-0.621 0.285,-0.063 0.564,-0.149 0.764,-0.186 0.985,-0.178 1.899,0.4 2.88,0.124 z m 0.157,0.138 c 0.096,0.506 0.226,1.219 0.378,2.119 -0.338,-0.368 -0.729,-0.693 -1.201,-0.943 -0.229,-0.121 -0.467,-0.219 -0.711,-0.299 0.596,-0.14 1.148,-0.41 1.534,-0.877 z m -0.216,-0.929 c -0.77,-0.487 -1.268,-1.48 -1.482,-2.385 0.285,0.23 0.596,0.431 0.885,0.666 0.373,0.302 0.858,1.084 0.822,1.645 -0.073,0.031 -0.147,0.056 -0.225,0.074 z m -1.914,2.306 c 0.588,0.129 1.092,0.344 1.512,0.672 0.422,0.314 0.77,0.709 1.049,1.167 0.063,0.099 0.121,0.2 0.178,0.302 0.009,0.055 0.017,0.107 0.025,0.162 0.074,0.452 0.15,0.945 0.228,1.459 -0.118,0.111 -0.237,0.221 -0.357,0.331 -1.058,-0.716 -1.892,-1.625 -2.772,-2.618 -0.765,-0.867 -1.591,-1.341 -2.557,-1.815 0.889,0.1 1.796,0.163 2.694,0.34 z m 0.373,2.6 c 0.588,0.697 1.227,1.285 1.976,1.75 -0.181,0.158 -0.366,0.31 -0.556,0.452 -1.466,-0.054 -2.254,-0.975 -2.916,-2.156 -0.555,-0.999 -0.995,-2.067 -1.722,-2.882 1.197,0.831 2.262,1.705 3.218,2.836 z m 3.574,1.213 c 1.486,-1.359 3.377,-1.659 5.18,-1.122 0.094,0.474 0.396,0.894 0.797,1.167 -1.109,1.574 -3.144,2.227 -5.127,2.066 -0.981,-0.08 -1.935,-0.283 -2.905,-0.396 0.742,-0.485 1.384,-1.099 2.055,-1.715 z m 6.614,0.369 c 0.459,0.783 1.455,1.614 1.865,2.077 1.845,2.087 -0.051,4.57 -0.57,6.802 -0.992,-1.064 -1.983,-2.137 -2.531,-3.508 -0.773,-1.935 0.729,-3.52 1.185,-5.296 0.017,-0.024 0.033,-0.05 0.051,-0.075 z m 11.36,13.498 c 0.706,1.366 0.267,2.336 -1.036,2.977 -0.584,-0.246 -1.125,-0.362 -1.467,-1.003 -0.383,-0.715 0.027,-1.515 0.526,-2.027 0.529,-0.541 1.114,-0.894 1.47,-1.541 -0.107,0.539 0.261,1.117 0.507,1.594 z m -2.389,2.754 c 0.096,0.107 0.203,0.2 0.318,0.281 -1.073,1.73 -2.298,3.205 -4.584,3.23 -1.591,0.018 -3.033,-0.637 -4.598,-0.719 0.431,-0.389 0.797,-0.84 1.176,-1.309 1.051,-1.302 2.115,-1.848 3.793,-1.994 0.846,-0.071 2.627,0.541 3.895,0.511 z m 0.853,0.524 c 0.143,0.034 0.291,0.052 0.446,0.042 0.034,0.022 0.076,0.034 0.128,0.025 0.268,-0.043 0.526,-0.137 0.763,-0.271 2.269,1.682 1.62,5.015 1.427,7.829 -0.656,-0.959 -1.53,-1.742 -2.283,-2.657 -1.116,-1.357 -1.077,-3.322 -0.481,-4.968 z m 2.176,-2.827 c -0.281,-0.775 -0.827,-1.441 -0.938,-2.368 -0.006,-0.038 -0.059,-0.04 -0.077,-0.013 -0.024,0.036 -0.036,0.074 -0.054,0.111 -0.189,0.256 -0.434,0.482 -0.696,0.701 -0.32,-2.456 -0.767,-4.789 1.745,-6.725 1.01,-0.779 2.236,3.141 2.375,3.936 0.26,1.491 -1.099,3.139 -2.355,4.358 z m 2.675,-5.982 c -0.251,-0.619 -0.582,-1.23 -0.898,-1.81 0.402,-1.06 0.727,-1.907 0.949,-2.479 1.012,0.395 2.023,0.082 2.957,-0.576 -1.338,1.217 -2.17,2.647 -1.21,4.252 -0.623,0.056 -1.227,0.296 -1.798,0.613 z m -0.617,-5.041 c -0.01,0.023 -0.02,0.049 -0.03,0.072 -0.079,0.008 -0.159,0.006 -0.239,0.007 0.07,-0.01 0.129,-0.065 0.146,-0.131 0.041,0.021 0.082,0.035 0.123,0.052 z m 0.403,-3.385 c 0.08,0.344 0.189,0.68 0.279,1.029 0.117,0.465 0.04,1.391 -0.329,1.83 -0.081,-0.025 -0.159,-0.06 -0.233,-0.104 -0.286,-0.876 -0.104,-1.907 0.283,-2.755 z m 2.097,7.414 c -0.177,-0.73 -0.27,-1.369 0.183,-2.173 0.231,-0.409 0.561,-0.763 0.909,-1.087 -0.088,0.677 -0.221,1.299 -0.438,1.905 -0.135,0.175 -0.254,0.368 -0.352,0.585 -0.072,0.163 -0.113,0.322 -0.131,0.479 -0.051,0.098 -0.111,0.193 -0.171,0.291 z m 1.828,2.932 c 0.094,0.205 0.18,0.498 0.289,0.781 -0.352,-0.175 -0.703,-0.346 -1.026,-0.574 -0.729,-0.514 -0.99,-1.683 -0.882,-2.572 0.031,-0.014 0.061,-0.029 0.092,-0.043 0.006,0.012 0.012,0.023 0.018,0.036 -0.08,0.02 -0.141,0.104 -0.111,0.212 0.244,0.914 1.233,1.321 1.62,2.16 z m -0.974,-2.809 c 0.424,-0.301 1.154,-0.309 1.611,-0.26 0.433,0.045 0.828,0.242 1.241,0.385 -0.876,0.326 -1.952,0.457 -2.803,0.1 -0.022,-0.073 -0.039,-0.147 -0.049,-0.225 z m 2.813,-2.016 c 1.522,-0.055 2.464,0.83 3.44,1.803 -0.943,0.229 -1.828,1.076 -2.632,1.533 -0.923,0.525 -2.691,0.244 -3.368,-0.681 0.972,0.409 2.509,-0.013 3.28,-0.39 0.171,-0.084 0.138,-0.345 -0.058,-0.368 -0.928,-0.113 -1.625,-0.635 -2.596,-0.552 -0.234,0.02 -0.58,0.064 -0.865,0.181 0.002,-0.012 0.001,-0.022 0.004,-0.034 0.244,-1.105 1.875,-1.457 2.795,-1.492 z m -2.377,-2.614 c -0.554,0.489 -1.161,0.894 -1.9,1.073 -0.396,0.098 -0.765,0.026 -1.124,-0.096 0.05,-0.131 0.094,-0.242 0.127,-0.33 0.377,-0.023 0.704,-0.168 0.988,-0.387 0.613,-0.155 1.236,-0.231 1.909,-0.26 z m -4.53,-3.814 c 0.467,-0.768 1.438,-1.564 1.729,-2.472 0.913,1.062 1.652,1.979 1.601,3.523 -0.036,1.049 -0.607,2.504 -1.757,2.74 0.105,-0.219 0.168,-0.477 0.217,-0.683 0.246,-1.03 -0.289,-1.804 -0.35,-2.802 -0.011,-0.174 -0.249,-0.306 -0.358,-0.119 -0.407,0.695 -0.903,2.075 -0.683,3.074 -0.164,-0.186 -0.307,-0.391 -0.43,-0.566 -0.624,-0.882 -0.508,-1.809 0.031,-2.695 z m -1.76,2.518 c 0.864,0.457 1.219,1.512 2.156,1.846 0.023,0.008 0.047,0.01 0.07,0.007 -0.837,0.001 -1.758,-0.332 -2.301,-0.933 -0.086,-0.093 -0.158,-0.196 -0.226,-0.304 0.009,-0.056 0.007,-0.112 -0.018,-0.167 -0.12,-0.262 -0.26,-0.513 -0.409,-0.758 -0.004,-0.009 -0.008,-0.018 -0.011,-0.025 0.272,0.129 0.55,0.235 0.739,0.334 z m -0.599,0.936 c 0.147,0.225 0.318,0.428 0.544,0.584 0.687,0.477 1.573,0.741 2.382,0.51 0.017,0.014 0.033,0.023 0.05,0.037 -0.181,0.426 -0.437,1.031 -0.751,1.783 -0.043,-0.092 -0.085,-0.186 -0.121,-0.275 -0.068,-0.167 -0.277,-0.295 -0.456,-0.21 -1.544,0.73 -2.835,1.987 -3.263,3.698 -0.115,0.463 -0.168,0.922 -0.18,1.379 -0.133,-0.2 -0.283,-0.395 -0.454,-0.584 -1.444,-1.6 -4.148,-1.158 -6.155,-1.341 0.17,-0.381 0.328,-0.769 0.416,-1.192 0.199,-0.965 0.31,-1.896 0.279,-2.881 -0.011,-0.32 -0.08,-0.613 -0.189,-0.89 0.429,0.322 0.878,0.609 1.315,0.856 2.208,1.255 4.583,-0.667 6.583,-1.474 z m -1.456,-1.86 c 0.458,0.35 0.72,0.803 0.785,1.359 -0.347,0.156 -0.688,0.322 -1.022,0.5 -0.703,0.357 -1.393,0.703 -2.131,0.982 -2.422,0.916 -4.695,-1.428 -6.17,-3.15 0.369,-0.146 0.669,-0.369 0.889,-0.658 2.683,-0.12 5.218,-1.179 7.649,0.967 z m -8.142,-4.378 c 0.415,-1.188 1.027,-2.295 1.86,-2.932 1.06,-0.811 2.963,-1.26 4.384,-1.584 -0.251,1.884 0.072,3.961 -1.051,5.588 -0.484,0.699 -1.275,1.068 -2.17,1.275 -0.614,0.076 -1.229,0.174 -1.846,0.244 -0.105,0.008 -0.209,0.012 -0.313,0.018 0.03,-0.127 0.053,-0.259 0.064,-0.397 0.075,-0.987 -0.586,-1.659 -1.068,-2.421 0.062,0.06 0.115,0.129 0.14,0.209 z m -0.18,0.523 c 0.367,0.547 0.623,0.975 0.642,1.66 0.022,0.825 -0.589,1.227 -1.202,1.613 -0.4,-0.111 -0.794,-0.16 -1.166,-0.391 -0.838,-0.52 -0.708,-1.674 -0.227,-2.369 0.447,-0.648 1.047,-1.082 1.363,-1.78 0.012,-0.009 0.022,-0.019 0.033,-0.026 -0.02,0.461 0.292,0.898 0.557,1.293 z m -3.323,-8.173 c 0.2,-0.011 0.479,0.011 0.761,0.013 -0.294,0.268 -0.585,0.536 -0.919,0.754 -0.189,-0.193 -0.37,-0.399 -0.539,-0.623 0.223,-0.076 0.452,-0.131 0.697,-0.144 z m 0.318,1.913 c 1.293,1.072 1.818,2.167 1.941,3.821 0.033,0.456 -0.135,1.178 -0.297,1.943 -0.525,0.541 -1.055,1.046 -1.227,1.796 -1.403,-0.999 -2.496,-2.205 -2.493,-4.172 0.003,-1.59 0.677,-3.022 0.779,-4.584 0.384,0.438 0.832,0.811 1.297,1.196 z m -3.383,-2.049 c -0.121,-0.53 0.182,-1.284 0.427,-1.676 0.211,-0.337 0.491,-0.609 0.74,-0.91 -0.011,0.904 -0.263,1.954 -0.871,2.611 -0.101,0.003 -0.199,-0.007 -0.296,-0.025 z m 0.287,0.838 c -0.094,-0.045 -0.178,-0.094 -0.26,-0.145 0.065,0.004 0.132,0.002 0.199,-0.002 -0.006,0.057 0.016,0.114 0.061,0.147 z m 0.072,0.029 c 0.418,0.026 0.791,-0.093 1.157,-0.241 -0.006,0.182 -0.019,0.365 -0.041,0.551 -0.397,-0.043 -0.795,-0.157 -1.134,-0.314 0.006,0.001 0.011,0.003 0.018,0.004 z m -2.237,-0.534 c -0.565,-0.41 -0.917,-1.095 -1.181,-1.761 0.438,0.23 0.864,0.474 1.273,0.754 0.107,0.072 0.203,0.15 0.297,0.229 0.117,0.227 0.266,0.443 0.45,0.646 0.14,0.15 0.291,0.262 0.45,0.342 0.064,0.083 0.128,0.168 0.192,0.254 -0.513,-0.049 -1.003,-0.117 -1.481,-0.464 z m 1.602,-1.424 c -0.07,0.239 -0.164,0.594 -0.16,0.916 -0.057,-0.037 -0.111,-0.074 -0.162,-0.122 -0.766,-0.71 -0.563,-2.148 -0.254,-3.008 0.529,-1.466 1.662,-1.987 2.932,-2.565 -0.184,1.265 0.65,2.684 0.472,3.966 -0.104,0.743 -0.927,1.581 -1.78,1.846 0.678,-0.784 0.829,-2.285 0.756,-3.135 -0.018,-0.211 -0.291,-0.192 -0.371,-0.041 -0.424,0.797 -1.161,1.242 -1.433,2.143 z m -0.886,4.009 c 0.471,-0.59 1.074,-1.178 1.231,-1.939 0.024,-0.005 0.049,-0.009 0.073,-0.015 0.361,0.325 0.809,0.494 1.283,0.564 -0.313,1.93 -1.24,3.975 -0.416,5.754 0.443,0.961 1.156,1.836 2.035,2.455 -0.795,-0.178 -1.627,-0.207 -2.338,-0.106 -0.857,0.121 -1.565,0.577 -2.229,1.132 -0.049,-0.297 -0.098,-0.586 -0.146,-0.858 -0.281,-1.648 -0.522,-2.895 -0.678,-3.675 0.559,-0.107 1.063,-0.365 1.465,-0.842 0.598,-0.707 0.805,-1.727 0.931,-2.618 0.027,-0.194 -0.212,-0.291 -0.352,-0.183 -0.44,0.341 -0.963,0.744 -1.434,1.203 -0.001,-0.02 -0.007,-0.039 -0.007,-0.059 0.166,-0.289 0.377,-0.556 0.582,-0.813 z m -1.073,2.51 c 0.229,-0.26 0.368,-0.563 0.441,-0.885 0.084,-0.11 0.174,-0.219 0.275,-0.327 0.323,-0.347 0.688,-0.655 1.058,-0.954 -0.113,0.609 -0.296,1.202 -0.628,1.738 -0.33,0.533 -0.805,0.754 -1.319,0.926 -0.021,-0.107 -0.041,-0.201 -0.058,-0.279 0.081,-0.066 0.159,-0.137 0.231,-0.219 z m -0.888,-3.617 c 0.406,0.555 0.735,1.377 0.711,2.137 -0.104,0.248 -0.172,0.505 -0.162,0.748 -0.045,0.1 -0.096,0.197 -0.162,0.287 -0.022,0.032 -0.05,0.055 -0.074,0.084 -0.069,-0.322 -0.244,-0.658 -0.355,-0.871 -0.443,-0.848 -1.311,-1.112 -1.9,-1.807 -0.128,-0.151 -0.369,-0.042 -0.346,0.152 0.111,0.891 0.615,2.35 1.496,2.931 -0.986,-0.104 -2.118,-1.027 -2.354,-1.761 -0.348,-1.076 0.167,-2.596 -0.243,-3.672 1.352,0.296 2.473,0.523 3.389,1.772 z m -5.032,0.482 c 0.025,-0.046 0.057,-0.089 0.079,-0.138 0.159,-0.331 0.204,-0.677 0.171,-1.022 0.188,-0.611 0.45,-1.188 0.78,-1.784 0.013,0.068 0.02,0.138 0.03,0.208 -0.037,0.096 -0.021,0.217 0.043,0.301 0.053,0.505 0.041,1.012 -0.092,1.517 -0.157,0.606 -0.592,0.966 -1.047,1.315 0.011,-0.135 0.02,-0.269 0.036,-0.397 z m 1.168,-0.478 c 0.014,0.273 0.024,0.54 0.021,0.793 -0.01,0.682 0.071,1.479 0.461,2.073 -0.203,-0.143 -0.409,-0.283 -0.604,-0.429 -0.483,-0.361 -0.888,-0.785 -1.33,-1.184 0.708,-0.28 1.173,-0.716 1.452,-1.253 z m -1.724,1.203 c -0.02,0.033 -0.035,0.068 -0.056,0.102 0.031,-0.061 0.022,-0.137 -0.016,-0.189 0.067,-0.043 0.134,-0.089 0.196,-0.139 -0.018,0.036 -0.039,0.07 -0.059,0.105 -0.043,-0.014 -0.094,0.014 -0.082,0.069 0.005,0.018 0.013,0.034 0.017,0.052 z m -0.098,0.153 c 0.012,-0.009 0.02,-0.02 0.028,-0.03 -0.368,0.574 -0.92,1.022 -1.524,1.33 -0.2,0.104 -0.422,0.148 -0.654,0.16 -0.01,-0.262 -0.029,-0.524 -0.061,-0.785 0.738,-0.242 1.552,-0.19 2.211,-0.675 z m -0.373,-0.754 c -0.885,-0.206 -1.677,-0.925 -2.191,-1.687 0.371,0.123 0.754,0.205 1.131,0.34 0.447,0.158 1.098,0.678 1.28,1.196 -0.068,0.059 -0.14,0.11 -0.22,0.151 z m -3.324,-0.756 c -0.381,-0.568 -0.567,-1.255 -0.818,-1.884 -0.148,-0.373 -0.313,-0.933 -0.6,-1.302 0.683,-0.12 1.314,-0.302 2.046,-0.216 0.722,0.086 1.398,0.398 1.973,0.832 0.766,0.58 1.607,1.756 1.225,2.764 -0.156,-0.244 -0.395,-0.465 -0.564,-0.615 -0.759,-0.672 -1.669,-0.632 -2.522,-1.092 -0.15,-0.082 -0.326,0.117 -0.25,0.26 0.393,0.734 1.311,1.865 2.285,2.184 -0.204,0.037 -0.41,0.057 -0.596,0.07 -0.908,0.072 -1.675,-0.244 -2.179,-1.001 z m -2.246,3.616 c 1.038,-0.633 2.145,-0.829 3.068,-1.557 0.251,1.642 0.01,3.306 -0.509,4.882 -0.425,1.29 -1.372,1.932 -2.382,2.55 -0.01,-0.123 -0.029,-0.247 -0.058,-0.374 -0.202,-0.904 -0.981,-1.377 -1.575,-2.002 -0.501,-1.313 0.203,-2.737 1.456,-3.499 z m -3.219,5.62 c 0.154,-0.945 0.945,-1.593 1.129,-2.537 0.041,0.426 0.375,0.758 0.688,1.08 0.456,0.469 0.848,0.785 1.064,1.435 0.29,0.869 -0.222,1.458 -0.799,2.02 -0.385,-0.024 -0.757,0.006 -1.143,-0.113 -0.796,-0.246 -1.06,-1.149 -0.939,-1.885 z m 4.813,3.908 c 0.074,0.251 0.154,0.514 0.239,0.789 -0.685,-0.938 -1.674,-1.641 -2.321,-2.601 0.74,0.513 1.38,1.201 2.082,1.812 z m -8.292,-4.476 c -1.588,-0.725 -1.907,-2.805 -2.585,-4.365 1.318,0.443 2.681,0.741 3.987,1.225 1.145,0.424 2.02,1.195 2.541,2.258 -0.35,0.551 -0.692,1.089 -0.764,1.727 -1.073,-0.223 -2.163,-0.382 -3.179,-0.845 z m 0.683,6.07 c -1.208,0.087 -2.327,-0.092 -3.462,0.18 0.512,-1.113 1.074,-2.191 1.869,-3.145 0.988,-1.183 2.626,-1.496 4.172,-1.383 0.195,0.583 0.713,1.037 1.298,1.209 -0.583,1.733 -1.602,2.977 -3.877,3.139 z m 7.851,3.955 c -1.09,-0.724 -2.234,-1.365 -3.028,-2.441 -0.904,-1.227 -0.454,-3.1 -0.119,-4.611 0.042,-0.01 0.084,-0.021 0.126,-0.034 0.431,0.713 1.072,1.281 1.676,1.867 1.399,1.358 2.026,3.385 1.345,5.219 z m -1.983,-7.847 c 0.176,-0.263 0.276,-0.561 0.314,-0.884 1.468,-0.55 3.058,-0.951 4.548,-0.619 1.741,0.389 3.159,1.958 4.045,3.465 -0.419,0.075 -0.774,0.215 -1.203,0.428 -1.611,0.801 -2.838,0.974 -4.545,0.231 -1.286,-0.559 -2.088,-1.792 -3.159,-2.621 z m 3.532,3.454 c 0.73,0.277 1.514,0.32 2.286,0.289 1.32,-0.053 2.22,-1.18 3.544,-1.268 0.217,-0.014 0.354,-0.229 0.246,-0.426 -1.092,-2.023 -2.822,-3.686 -5.117,-4.176 -0.824,-0.176 -1.711,-0.045 -2.576,0.242 0.46,-0.375 0.851,-0.828 1.113,-1.422 0.584,-1.325 0.906,-2.762 0.912,-4.203 0.368,-0.021 0.735,-0.102 1.111,-0.307 0.561,-0.303 1.018,-0.82 1.232,-1.419 0.205,0.43 0.603,0.777 0.951,1.08 0.521,0.456 1.119,0.923 1.74,1.253 -0.512,0.095 -1.488,0.472 -1.884,0.273 -0.274,-0.113 -0.399,0.295 -0.151,0.422 0.367,0.148 0.74,0.381 1.123,0.59 -0.879,-0.072 -1.762,-0.102 -2.563,-0.291 -0.264,-0.063 -0.5,0.42 -0.257,0.54 1.007,0.5 1.629,1.423 2.154,2.404 0.539,0.977 0.96,2.004 1.669,2.724 0.245,0.266 0.552,0.447 0.909,0.563 0.222,0.072 0.457,0.121 0.703,0.158 -0.156,0.086 -0.313,0.165 -0.479,0.229 -0.344,0.135 -0.252,0.623 0.115,0.631 0.883,0.017 1.746,0.153 2.601,0.283 0.055,0.394 0.11,0.796 0.167,1.213 0.265,2.047 0.552,4.358 0.805,6.887 0.138,1.262 0.246,2.58 0.376,3.943 0.103,1.365 0.235,2.775 0.323,4.227 0.021,0.303 0.041,0.614 0.06,0.92 -0.027,-0.007 -0.053,-0.015 -0.082,-0.022 -0.145,-0.044 -0.305,-0.116 -0.488,-0.184 -0.092,-0.035 -0.188,-0.073 -0.289,-0.111 -0.098,-0.051 -0.2,-0.102 -0.307,-0.156 -0.215,-0.104 -0.447,-0.22 -0.682,-0.376 -0.12,-0.073 -0.244,-0.15 -0.371,-0.228 -0.121,-0.088 -0.247,-0.18 -0.375,-0.273 -0.117,-0.08 -0.233,-0.171 -0.35,-0.266 0.691,-0.424 1.347,-0.932 2.037,-1.391 0.151,-0.1 0.214,-0.367 0.082,-0.51 -0.998,-1.072 -2.322,-1.703 -3.813,-1.695 -1.684,0.008 -3.033,0.971 -4.566,1.344 0.432,-0.221 0.893,-0.396 1.316,-0.596 1.004,-0.474 1.791,-1.021 2.566,-1.811 0.586,-0.596 0.924,-1.379 1.188,-2.155 0.424,-1.245 -0.299,-2.503 0.094,-3.761 0.051,-0.162 -0.09,-0.383 -0.273,-0.36 -1.803,0.218 -3.512,0.89 -4.832,2.118 -0.074,-0.156 -0.149,-0.313 -0.221,-0.471 -0.66,-1.474 -1.238,-2.983 -1.747,-4.455 z m -1.227,12.334 c -0.367,-0.215 -0.66,-0.582 -0.81,-0.963 -0.341,-0.865 -0.102,-1.768 -0.483,-2.609 0.299,0.328 0.797,0.402 1.256,0.483 0.686,0.12 1.217,0.188 1.756,0.679 0.602,0.549 0.48,1.26 0.357,1.971 -0.394,0.232 -0.73,0.527 -1.206,0.613 -0.313,0.057 -0.608,-0.021 -0.868,-0.173 0,0 10e-4,0 0.002,0.001 -0.002,-0.002 -0.003,-0.002 -0.004,-0.002 z m 1.735,0.338 c 0.04,-0.02 0.079,-0.043 0.117,-0.066 0.003,0 0.007,0 0.011,0 1.831,1.28 2.985,2.817 2.316,5.181 -0.346,1.216 -0.962,2.22 -1.125,3.425 -0.939,-0.961 -1.824,-1.963 -2.407,-3.192 -0.795,-1.678 0.076,-3.896 1.088,-5.348 z m 1.042,-0.363 c 0.987,-0.128 1.878,-0.631 2.793,-1.037 1.656,-0.734 3.732,-0.468 5.083,0.736 -0.975,0.689 -1.901,1.434 -3.033,1.859 -1.679,0.634 -3.4,-0.608 -4.843,-1.558 z m -0.341,-5.418 c 0.652,-2.041 3.207,-3.137 5.211,-3.46 -0.09,0.427 -0.094,0.821 -0.023,1.312 0.301,2.098 -0.5,3.672 -2.182,4.913 -0.824,0.608 -1.871,0.883 -2.768,1.382 -0.01,-0.57 -0.264,-1.129 -0.711,-1.516 0.065,-0.897 0.203,-1.784 0.473,-2.631 z m -6.313,2.256 c -0.61,-1.336 -0.168,-2.864 -0.565,-4.271 1.651,0.359 3.173,1.199 4.454,2.295 0.628,0.535 0.957,1.181 1.17,1.875 -0.204,-0.081 -0.42,-0.139 -0.664,-0.178 -0.641,-0.105 -1.383,-0.07 -1.94,-0.461 -0.029,-0.02 -0.077,0.01 -0.064,0.045 0.018,0.049 0.043,0.088 0.066,0.131 0.287,0.904 0.116,1.86 0.335,2.717 -1.17,-0.325 -2.209,-0.875 -2.792,-2.153 z m -2.904,8.064 c 0.916,-1.109 1.705,-2.318 2.678,-3.384 0.83,-0.908 1.79,-1.503 3.073,-1.546 0.161,-0.006 0.318,0 0.474,0.009 0.034,0.037 0.065,0.075 0.103,0.112 0.303,0.293 0.729,0.449 1.166,0.475 -0.773,1.027 -1.328,2.208 -2.178,3.192 -1.309,1.517 -3.469,1.054 -5.316,1.142 z m 6.92,14.134 c 0.24,-0.526 0.547,-1.07 0.918,-1.527 0.623,-0.77 1.43,-0.935 2.217,-0.788 0.73,0.137 1.467,0.533 2.15,0.977 -1.072,0.746 -2.149,0.776 -3.397,0.814 -0.831,0.043 -1.487,0.367 -2.056,0.942 0.051,-0.14 0.107,-0.278 0.168,-0.418 z m 6.609,-4.332 c -0.205,0.679 -0.294,1.407 -0.167,2.126 0.099,0.573 0.366,1.162 0.802,1.568 -0.436,-0.179 -0.877,-0.44 -1.257,-0.795 -0.074,-0.068 -0.142,-0.143 -0.205,-0.217 -0.009,-0.02 -0.02,-0.036 -0.034,-0.039 -0.473,-0.576 -0.65,-1.278 -0.619,-1.924 0.033,-0.756 0.324,-1.466 0.715,-2.087 0.395,-0.625 1.763,-2.522 1.908,-2.833 -0.067,0.819 -0.823,3.151 -1.143,4.201 z m 1.295,-4.075 c 0.099,0.307 0.504,1.482 0.535,1.598 l 0.093,0.329 0.179,0.649 c 0.289,1.088 0.132,1.914 -0.195,2.729 -0.15,0.4 -0.364,0.813 -0.531,1.244 -0.137,0.361 -0.275,0.768 -0.303,1.207 -0.307,-0.241 -0.522,-0.591 -0.67,-0.957 -0.147,-0.402 -0.222,-0.83 -0.219,-1.255 -0.008,-0.854 0.227,-1.687 0.539,-2.485 0.261,-0.674 0.562,-2.229 0.572,-3.059 z m -2.688,7.465 c -0.19,0.348 -0.355,0.715 -0.53,1.052 -0.579,1.147 -1.401,1.094 -2.354,0.827 -0.575,-0.166 -1.168,-0.385 -1.76,-0.42 -0.15,-0.012 -0.299,-0.011 -0.44,0.013 -0.07,0.011 -0.141,0.023 -0.209,0.038 0.865,-0.571 1.841,-0.763 2.871,-0.762 0.891,0.015 1.676,-0.152 2.422,-0.748 z m -13.576,5.771 c 0.732,-0.09 1.49,-0.114 2.25,-0.031 0.781,0.089 1.417,0.393 1.931,0.818 -0.038,0.149 -0.07,0.301 -0.089,0.459 -0.068,0.574 0.125,1.166 0.486,1.684 -0.25,-0.09 -0.508,-0.16 -0.77,-0.201 -0.081,-0.014 -0.162,-0.02 -0.242,-0.029 -0.432,-0.397 -0.855,-0.813 -1.299,-1.242 -0.482,-0.465 -0.999,-0.787 -1.557,-1.016 -0.389,-0.169 -0.804,-0.279 -1.242,-0.363 0.178,-0.027 0.351,-0.058 0.532,-0.079 z m 0.033,0.793 c -0.199,-0.211 -0.422,-0.402 -0.668,-0.564 1.361,0.48 2.496,1.262 3.478,2.309 0.04,0.042 0.081,0.083 0.12,0.125 -0.496,0.007 -0.979,0.097 -1.431,0.259 -0.048,-0.072 -0.098,-0.142 -0.146,-0.216 -0.419,-0.655 -0.813,-1.344 -1.353,-1.913 z m 5.632,4.282 c -0.315,0.195 -0.585,0.491 -0.807,0.73 -0.434,0.518 -0.738,0.745 -1.188,0.879 -0.438,0.14 -0.988,0.135 -1.606,0.148 -1.034,0 -2.142,-0.03 -3.126,0.289 1.155,-0.738 2.332,-1.354 3.682,-1.581 0.626,-0.094 1.199,-0.177 1.752,-0.287 0.453,-0.086 0.896,-0.163 1.41,-0.25 -0.039,0.023 -0.08,0.044 -0.117,0.072 z m -1.875,-0.135 c -0.753,0.13 -1.534,0.288 -2.343,0.494 -1.074,0.28 -1.803,0.838 -2.561,1.515 0.396,-0.758 0.764,-1.552 1.307,-2.286 0.709,-0.967 1.818,-1.419 3.004,-1.366 0.294,0.013 0.601,0.074 0.883,0.138 0.294,0.09 0.576,0.198 0.839,0.328 0.265,0.159 0.512,0.3 0.729,0.494 0.108,0.098 0.211,0.197 0.308,0.295 0.039,0.037 0.076,0.077 0.113,0.117 -0.851,0.043 -1.55,0.15 -2.279,0.271 z m 1.765,-1.696 c -0.604,-0.498 -0.847,-1.154 -0.855,-1.793 0.002,-0.639 0.228,-1.271 0.568,-1.828 0.566,-0.941 1.318,-1.664 1.766,-2.504 -0.264,1.226 -0.545,2.365 -0.898,3.645 -0.156,0.598 -0.212,1.223 -0.096,1.83 0.098,0.495 0.32,0.975 0.664,1.367 -0.39,-0.197 -0.784,-0.424 -1.149,-0.717 z m 0.832,-1.222 c -0.022,-0.736 0.148,-1.468 0.393,-2.176 0.322,-0.933 0.387,-1.725 0.418,-2.647 0.272,0.743 0.621,1.464 0.914,2.156 0.387,0.919 0.289,1.649 -0.006,2.394 -0.264,0.685 -0.719,1.391 -0.992,2.249 -0.493,-0.554 -0.706,-1.276 -0.727,-1.976 z m 5.728,16.633 c 0.705,-0.453 1.36,-0.928 1.826,-1.41 0.395,-0.402 0.738,-0.707 1.139,-0.984 0.397,-0.279 0.85,-0.533 1.361,-0.779 0.943,-0.452 2.1,-0.881 3.264,-1.154 -0.576,0.85 -1.17,1.597 -1.9,2.251 -0.379,0.339 -0.794,0.646 -1.234,0.909 -0.445,0.259 -0.918,0.47 -1.402,0.617 -0.748,0.23 -1.396,0.363 -2.08,0.52 -0.485,0.107 -0.982,0.227 -1.502,0.373 0.177,-0.115 0.356,-0.228 0.528,-0.343 z m 7.417,-2.386 c -0.161,0.851 -0.584,1.55 -1.261,2.126 -0.667,0.574 -1.599,0.998 -2.552,1.137 -0.289,0.041 -0.567,0.07 -0.848,0.066 -0.276,0.01 -0.544,-0.014 -0.803,-0.043 -0.519,-0.055 -0.988,-0.164 -1.453,-0.244 -0.356,-0.063 -0.711,-0.113 -1.071,-0.131 0.772,-0.115 1.526,-0.188 2.272,-0.32 0.938,-0.162 1.871,-0.488 2.793,-0.965 0.776,-0.393 1.447,-0.938 2,-1.535 0.453,-0.49 0.83,-1.018 1.176,-1.594 -0.103,0.5 -0.158,1.004 -0.253,1.503 z m 1.466,-14.048 c -0.025,0.842 -0.053,1.686 -0.079,2.531 l -0.122,2.533 c -0.071,1.478 -0.166,2.951 -0.271,4.421 -0.086,-0.004 -0.195,-0.009 -0.341,-0.016 -0.172,-0.005 -0.384,-0.014 -0.635,-0.055 -0.25,-0.037 -0.54,-0.057 -0.86,-0.137 -0.16,-0.033 -0.33,-0.069 -0.508,-0.107 -0.178,-0.04 -0.361,-0.102 -0.553,-0.154 -0.389,-0.097 -0.795,-0.261 -1.234,-0.414 -0.432,-0.184 -0.898,-0.371 -1.352,-0.606 -0.228,-0.104 -0.478,-0.241 -0.735,-0.388 -0.129,-0.07 -0.258,-0.143 -0.39,-0.215 -0.115,-0.072 -0.231,-0.146 -0.349,-0.221 -0.25,-0.155 -0.504,-0.314 -0.763,-0.477 -0.249,-0.178 -0.503,-0.358 -0.763,-0.541 -0.129,-0.094 -0.258,-0.186 -0.39,-0.279 -0.126,-0.102 -0.253,-0.205 -0.38,-0.308 -0.254,-0.21 -0.521,-0.409 -0.773,-0.634 -0.988,-0.852 -1.955,-1.844 -2.895,-2.927 0.008,-0.013 0.018,-0.024 0.022,-0.038 0.25,-0.79 0.666,-1.432 0.955,-2.059 0.295,-0.627 0.479,-1.242 0.384,-1.982 -0.134,-1.036 -0.863,-2.189 -1.296,-3.381 0.115,0.037 0.227,0.041 0.249,-0.016 0.046,-0.156 0.185,-0.274 0.313,-0.371 0.156,-0.083 0.307,-0.15 0.494,-0.17 0.178,-0.029 0.364,-0.027 0.559,-0.004 0.187,0.018 0.386,0.064 0.578,0.113 0.775,0.206 1.512,0.567 2.177,0.525 0.734,-0.043 1.256,-1.054 1.72,-2.217 0.19,0.138 0.628,0.412 0.757,0.516 0.4,0.321 0.827,0.582 1.216,0.859 0.396,0.27 0.773,0.527 1.134,0.773 0.376,0.221 0.734,0.43 1.07,0.627 0.336,0.196 0.651,0.381 0.943,0.551 0.293,0.166 0.58,0.287 0.83,0.414 0.639,0.309 1.102,0.532 1.359,0.656 -0.013,1.065 -0.032,2.13 -0.071,3.198 z m -0.365,-5.76 c -0.238,-0.11 -0.51,-0.214 -0.789,-0.361 -0.278,-0.15 -0.578,-0.314 -0.9,-0.488 -0.321,-0.174 -0.664,-0.358 -1.024,-0.553 -0.308,-0.197 -0.632,-0.404 -0.968,-0.617 -0.014,0.026 -0.186,-0.123 -0.314,-0.223 0.014,-0.064 0.025,-0.127 0.044,-0.191 0.063,-0.199 0.114,-0.354 0.197,-0.536 0.14,-0.331 0.323,-0.671 0.464,-0.989 0.305,-0.66 0.531,-1.339 0.504,-2.192 -0.008,-0.335 -0.06,-0.677 -0.137,-1.032 -0.036,-0.178 -0.082,-0.355 -0.13,-0.539 l -0.075,-0.276 c 0,0 -0.1,-0.284 -0.225,-0.64 -0.474,-0.785 -1.016,-2.594 -1.025,-2.604 -0.016,-0.014 -0.029,-0.03 -0.044,-0.047 -0.171,1.104 -1.601,2.869 -1.601,2.869 l -0.313,0.401 c -0.207,0.271 -0.41,0.552 -0.599,0.847 -0.377,0.587 -0.688,1.238 -0.806,1.994 -0.008,0.049 -0.008,0.1 -0.012,0.15 -0.324,-0.269 -0.654,-0.539 -0.973,-0.834 -0.83,-0.78 -1.705,-1.572 -2.522,-2.454 -0.853,-0.847 -1.638,-1.787 -2.454,-2.699 -0.772,-0.952 -1.568,-1.886 -2.287,-2.858 -0.263,-0.335 -0.514,-0.674 -0.763,-1.012 1.009,-0.018 1.984,-0.162 2.9,-0.848 0.547,-0.41 0.967,-0.943 1.344,-1.52 -0.119,0.58 -0.176,1.174 -0.139,1.781 0.122,2.003 2.043,3.738 3.357,5.057 0.21,0.211 0.567,0.01 0.552,-0.266 -0.125,-2.229 1.571,-4.006 1.375,-6.287 -0.056,-0.658 -0.35,-1.252 -0.762,-1.781 0.801,0.49 1.676,0.821 2.49,0.775 0.205,-0.012 0.402,-0.039 0.594,-0.076 0.085,0.085 0.17,0.17 0.258,0.246 0.299,0.28 0.586,0.547 0.889,0.775 0.148,0.117 0.293,0.231 0.434,0.341 0.15,0.102 0.295,0.2 0.436,0.294 0.277,0.199 0.557,0.355 0.82,0.496 0.131,0.072 0.256,0.141 0.375,0.207 0.127,0.055 0.246,0.109 0.36,0.159 0.229,0.098 0.433,0.193 0.616,0.259 0.186,0.059 0.345,0.109 0.473,0.15 0.109,0.034 0.285,0.129 0.455,0.227 0.022,0.39 0.045,0.775 0.064,1.17 0.091,1.525 0.138,3.086 0.198,4.671 0.055,1.587 0.081,3.2 0.113,4.833 10e-4,1.461 0.029,2.939 0.015,4.427 -0.145,-0.063 -0.296,-0.131 -0.465,-0.206 z m 1.047,-18.283 c -0.107,-1.457 -0.258,-2.872 -0.377,-4.242 -0.146,-1.367 -0.271,-2.691 -0.425,-3.957 -0.284,-2.536 -0.6,-4.854 -0.892,-6.906 -0.047,-0.319 -0.094,-0.629 -0.139,-0.935 1.15,0.14 2.299,0.173 3.477,-0.216 0.787,-0.26 1.488,-0.73 2.061,-1.325 -0.667,1.316 -1.545,2.511 -1.348,4.206 0.227,1.942 1.996,3.525 3.227,4.881 0.183,0.202 0.629,0.203 0.652,-0.149 0.012,-0.19 0.045,-0.37 0.085,-0.546 0.468,1.721 1.124,3.629 2.459,4.684 1.024,0.81 2.573,1.305 4.029,1.402 0.006,0.027 0.013,0.054 0.02,0.08 -0.602,-0.098 -1.293,-0.152 -1.493,-0.184 -1.005,-0.16 -2.09,-0.179 -3.085,0.05 -2.397,0.551 -2.922,2.706 -4.859,3.888 -0.228,0.14 -0.151,0.582 0.15,0.542 2.342,-0.309 5.082,1.472 7.345,0.39 0.103,-0.049 0.203,-0.102 0.304,-0.156 -0.177,0.375 -0.354,0.75 -0.532,1.126 -0.275,0.561 -0.55,1.122 -0.825,1.682 -0.285,0.553 -0.569,1.102 -0.852,1.649 -0.262,0.483 -0.521,0.959 -0.783,1.431 -0.066,-0.491 -0.221,-0.972 -0.477,-1.421 -0.464,-0.813 -1.213,-1.393 -1.992,-1.852 -0.783,-0.463 -1.603,-0.809 -2.291,-1.238 -0.213,-0.135 -0.599,0.238 -0.431,0.414 0.705,0.73 0.838,1.767 0.776,2.755 -0.057,0.999 -0.297,1.93 -0.222,2.699 0.05,0.556 0.456,0.972 1.022,1.451 0.395,0.323 0.844,0.685 1.299,1.058 -0.147,0.234 -0.293,0.467 -0.447,0.686 -0.303,0.438 -0.596,0.864 -0.879,1.277 -0.284,0.412 -0.586,0.788 -0.861,1.16 -0.547,0.752 -1.08,1.402 -1.565,1.912 -0.482,0.52 -0.934,0.924 -1.322,1.229 -0.014,-1.17 -0.047,-2.334 -0.06,-3.486 -0.053,-1.642 -0.1,-3.264 -0.172,-4.857 -0.081,-1.594 -0.147,-3.16 -0.256,-4.691 -0.09,-1.536 -0.204,-3.034 -0.321,-4.491 z m 4.154,4.115 c 0.682,1.137 1.137,2.328 1.244,3.646 0.041,0.614 0.104,1.189 0.23,1.75 0.1,0.458 0.234,0.906 0.429,1.388 -0.3,-0.313 -0.638,-0.583 -0.947,-0.837 -0.55,-0.436 -0.802,-0.839 -0.919,-1.317 -0.121,-0.474 -0.08,-1.02 -0.023,-1.616 0.105,-0.978 0.26,-2.059 -0.014,-3.014 z m 1.781,4.814 c -0.118,-0.735 -0.199,-1.497 -0.322,-2.294 -0.168,-1.059 -0.65,-1.822 -1.293,-2.58 0.737,0.404 1.498,0.832 2.18,1.418 0.896,0.775 1.202,1.852 1.09,2.908 -0.064,0.645 -0.287,1.275 -0.599,1.852 -0.067,0.091 -0.122,0.184 -0.155,0.273 -0.123,0.203 -0.256,0.399 -0.396,0.583 -0.239,-0.769 -0.393,-1.45 -0.505,-2.16 z m -4.54,26.331 c 0.445,0.245 0.906,0.249 1.358,0.236 0.857,-0.041 1.712,0.011 2.638,0.23 0.926,0.203 1.904,0.536 2.877,0.912 1.626,0.63 3.162,1.306 4.86,1.621 -2.361,-0.074 -4.593,-0.271 -6.87,-0.922 -1.049,-0.314 -2.086,-0.601 -3.033,-0.952 -0.473,-0.179 -0.926,-0.366 -1.324,-0.622 -0.24,-0.154 -0.455,-0.347 -0.636,-0.585 0.042,0.031 0.085,0.06 0.13,0.082 z m 0.73,1.069 c 0.586,0.318 1.211,0.541 1.849,0.75 1.278,0.401 2.606,0.744 3.967,1.061 1.804,0.413 3.354,0.401 5.093,0.292 -1.309,0.383 -2.6,0.809 -3.99,1.081 -1.832,0.356 -3.578,0.097 -5.19,-0.671 -0.799,-0.391 -1.58,-0.912 -2.223,-1.639 -0.16,-0.168 -0.303,-0.391 -0.436,-0.585 -0.064,-0.101 -0.117,-0.223 -0.172,-0.331 -0.055,-0.109 -0.105,-0.216 -0.137,-0.34 -0.121,-0.32 -0.137,-0.662 -0.098,-0.977 0.284,0.653 0.798,1.075 1.337,1.359 z m 14.112,-15.261 c -0.151,0.119 -0.293,0.24 -0.427,0.365 l -0.377,0.396 c -0.453,0.504 -0.781,0.725 -1.223,0.84 -0.433,0.107 -0.971,0.083 -1.59,0.049 -0.744,-0.047 -1.531,-0.135 -2.276,-0.143 -0.3,-0.001 -0.588,0.016 -0.872,0.048 1.239,-0.48 2.42,-1.012 3.76,-1.153 0.611,-0.063 1.17,-0.113 1.718,-0.201 0.447,-0.079 0.899,-0.162 1.399,-0.285 -0.036,0.029 -0.076,0.054 -0.112,0.084 z m -1.845,-0.134 c -0.734,0.094 -1.501,0.207 -2.296,0.352 -1.057,0.194 -1.783,0.649 -2.611,1.147 0.498,-0.649 0.912,-1.37 1.449,-2.024 0.709,-0.868 1.791,-1.258 2.939,-1.143 0.572,0.064 1.13,0.242 1.622,0.523 0.417,0.232 0.781,0.526 1.1,0.846 -0.806,0.127 -1.495,0.209 -2.203,0.299 z m 1.89,-3.815 c -0.286,-0.818 -0.55,-1.666 -0.87,-2.535 -0.428,-1.15 -1.113,-1.932 -1.98,-2.686 0.178,0.074 0.354,0.145 0.531,0.222 0.703,0.296 1.41,0.636 2.073,1.083 1.101,0.744 1.65,1.875 1.771,3.063 0.118,1.099 -0.14,2.24 -0.573,3.231 -0.379,-0.831 -0.679,-1.589 -0.952,-2.378 z m 0.54,2.232 c -0.355,-0.304 -0.744,-0.557 -1.104,-0.803 -0.641,-0.42 -0.985,-0.867 -1.226,-1.407 -0.241,-0.535 -0.336,-1.171 -0.433,-1.844 -0.107,-0.814 -0.191,-1.655 -0.432,-2.449 -0.094,-0.3 -0.211,-0.593 -0.359,-0.872 1.008,1.161 1.771,2.422 2.199,3.892 0.191,0.687 0.387,1.337 0.641,1.961 0.202,0.511 0.43,1.006 0.714,1.522 z m 7.893,6.221 c -0.725,-0.393 -1.449,-0.764 -2.123,-1.063 -0.139,-0.065 -0.267,-0.107 -0.387,-0.168 -0.06,-0.029 -0.117,-0.059 -0.173,-0.09 l -0.081,-0.047 -0.068,-0.021 c -0.166,-0.059 -0.342,-0.152 -0.518,-0.242 -0.348,-0.186 -0.72,-0.426 -1.156,-0.71 -0.799,-0.525 -1.798,-1.184 -2.711,-1.934 1.006,-0.071 1.951,-0.051 2.895,0.196 0.969,0.248 1.923,0.775 2.534,1.546 0.772,1.056 1.447,1.915 2.345,2.841 -0.186,-0.102 -0.372,-0.206 -0.557,-0.308 z m -0.666,-3.569 c 0.561,0.999 0.727,1.938 1.015,2.825 0.106,0.337 0.227,0.672 0.379,0.994 -0.462,-0.615 -0.874,-1.236 -1.308,-1.844 l -0.418,-0.568 c -0.148,-0.186 -0.298,-0.373 -0.447,-0.562 -0.32,-0.37 -0.708,-0.708 -1.135,-1.01 -0.723,-0.503 -1.567,-0.778 -2.375,-0.887 -0.665,-0.089 -1.311,-0.067 -1.967,0.014 0.451,-0.226 0.881,-0.489 1.347,-0.708 0.788,-0.375 1.651,-0.424 2.564,-0.123 0.901,0.293 1.81,0.978 2.345,1.869 z m 1.541,-3.097 c -0.619,0.211 -1.168,0.543 -1.68,0.855 -0.287,0.18 -0.564,0.307 -0.84,0.396 -0.091,-0.064 -0.183,-0.126 -0.276,-0.182 -0.192,-0.123 -0.386,-0.221 -0.585,-0.311 -0.571,-0.257 -1.15,-0.343 -1.682,-0.317 -0.528,0.031 -1.015,0.166 -1.468,0.359 -0.086,0.037 -0.166,0.084 -0.251,0.125 1.158,-1.122 2.791,-1.463 4.346,-1.29 0.636,0.065 1.182,0.099 1.728,0.128 0.386,0.01 0.772,0.039 1.178,0.094 -0.16,0.038 -0.316,0.083 -0.47,0.143 z m -2.493,-1.892 c 0.883,0.256 1.646,0.698 2.319,1.117 0.275,0.172 0.533,0.337 0.791,0.496 -1.342,-0.416 -2.699,-0.486 -4.205,-0.494 -1.27,0.008 -2.501,0.465 -3.342,1.402 0.164,-0.428 0.328,-0.865 0.552,-1.288 0.763,-1.417 2.43,-1.667 3.885,-1.233 z m 1.854,-10.619 c -0.275,0.602 -0.557,1.221 -0.845,1.852 -0.313,0.619 -0.634,1.252 -0.96,1.895 -0.318,0.646 -0.705,1.27 -1.061,1.919 -0.353,0.652 -0.759,1.282 -1.163,1.919 -0.201,0.319 -0.402,0.641 -0.605,0.961 -0.217,0.311 -0.436,0.623 -0.654,0.936 -0.408,0.573 -0.802,1.159 -1.242,1.71 0.033,-0.273 0.051,-0.549 0.048,-0.824 -0.009,-1.119 -0.337,-2.236 -1.071,-3.16 -0.656,-0.83 -1.561,-1.375 -2.484,-1.788 -0.929,-0.415 -1.877,-0.704 -2.719,-1.087 -0.263,-0.121 -0.568,0.322 -0.344,0.49 0.943,0.705 1.346,1.816 1.538,2.916 0.199,1.109 0.198,2.193 0.476,3.09 0.193,0.646 0.703,1.1 1.367,1.574 0.443,0.304 0.931,0.628 1.426,0.957 -0.02,0.022 -0.037,0.042 -0.057,0.064 -0.584,-0.511 -1.31,-0.923 -2.131,-1.099 -1.082,-0.24 -2.223,-0.061 -3.088,0.473 -0.785,0.481 -1.265,1.183 -1.713,1.881 -0.445,0.7 -0.881,1.416 -1.508,1.906 -0.191,0.156 0.002,0.653 0.24,0.545 0.963,-0.432 2.004,-0.441 3.074,-0.391 0.636,0.03 1.252,0.102 1.793,0.14 -0.363,0.331 -0.728,0.657 -1.084,0.981 -0.517,0.493 -1.09,0.901 -1.621,1.337 -0.269,0.213 -0.535,0.424 -0.797,0.633 -0.266,0.205 -0.545,0.387 -0.811,0.576 -0.537,0.373 -1.053,0.744 -1.563,1.087 -0.525,0.321 -1.031,0.631 -1.518,0.928 -0.244,0.149 -0.482,0.295 -0.715,0.437 -0.118,0.066 -0.235,0.133 -0.352,0.197 -0.112,0.06 -0.225,0.119 -0.336,0.178 -0.471,0.245 -0.918,0.478 -1.338,0.695 -0.855,0.447 -1.616,0.894 -2.227,1.332 -0.139,0.098 -0.267,0.197 -0.39,0.295 0.048,-0.924 0.091,-1.849 0.124,-2.773 l 0.093,-2.553 c 0.017,-0.85 0.032,-1.7 0.05,-2.547 0.032,-1.319 0.034,-2.633 0.033,-3.939 0.052,-0.033 0.11,-0.07 0.178,-0.111 0.145,-0.085 0.309,-0.203 0.5,-0.344 0.195,-0.137 0.408,-0.305 0.637,-0.502 0.463,-0.386 0.986,-0.889 1.523,-1.503 0.552,-0.624 1.093,-1.336 1.635,-2.129 0.273,-0.396 0.574,-0.8 0.854,-1.235 0.28,-0.436 0.57,-0.887 0.867,-1.351 0.301,-0.461 0.573,-0.956 0.871,-1.45 0.147,-0.248 0.294,-0.5 0.443,-0.754 0.141,-0.258 0.283,-0.518 0.426,-0.78 0.586,-1.044 1.139,-2.147 1.699,-3.267 0.27,-0.564 0.54,-1.135 0.813,-1.706 0.26,-0.576 0.521,-1.155 0.781,-1.733 0.397,-0.902 0.782,-1.805 1.155,-2.705 -0.03,0.502 -0.015,0.996 0.055,1.441 0.335,2.141 2.86,3.343 3.645,5.279 0.138,0.338 0.628,0.257 0.63,-0.115 0.015,-2.426 0.939,-4.715 0.117,-7.096 -0.269,-0.783 -0.748,-1.48 -1.352,-2.046 1.322,0.649 2.528,1.511 4.217,1.292 1.713,-0.223 3.119,-1.631 4.352,-2.822 0.248,0.458 0.529,0.888 0.98,1.148 0.657,0.381 1.467,0.566 2.201,0.373 -0.172,0.572 -0.393,1.213 -0.625,1.945 -0.131,0.43 -0.295,0.891 -0.467,1.365 -0.025,-0.036 -0.049,-0.074 -0.076,-0.109 -0.261,-0.29 -0.567,-0.551 -0.91,-0.719 -0.35,-0.158 -0.713,-0.287 -1.079,-0.366 -0.371,-0.068 -0.737,-0.117 -1.082,-0.169 -0.353,-0.035 -0.685,-0.078 -0.983,-0.156 -0.188,-0.048 -0.502,0.386 -0.354,0.48 0.305,0.201 0.525,0.487 0.629,0.844 0.057,0.174 0.095,0.358 0.12,0.546 0.02,0.19 0.011,0.388 0.002,0.579 -0.018,0.774 -0.341,1.455 -0.301,1.869 -0.01,0.163 0.087,0.279 0.273,0.392 0.162,0.123 0.395,0.249 0.693,0.386 0.438,0.211 0.928,0.447 1.418,0.686 -0.11,0.264 -0.223,0.533 -0.35,0.8 z m 2.313,-1.506 c -0.094,0.026 -0.189,0.053 -0.275,0.085 -0.088,0.028 -0.174,0.068 -0.257,0.114 0.007,-0.018 0.015,-0.038 0.022,-0.056 10e-4,-0.003 10e-4,-0.005 0.002,-0.006 0.158,-0.061 0.327,-0.108 0.508,-0.137 z m -0.417,0.004 c 0.028,-0.043 0.062,-0.082 0.089,-0.125 0.045,-0.003 0.087,-0.002 0.132,-0.006 -0.076,0.039 -0.15,0.084 -0.221,0.131 z m -1.566,0.336 c -0.144,-0.089 -0.289,-0.171 -0.432,-0.248 -0.152,-0.071 -0.305,-0.142 -0.453,-0.212 -0.28,-0.127 -0.471,-0.25 -0.604,-0.376 -0.155,-0.116 -0.243,-0.24 -0.278,-0.384 -0.023,-0.148 -0.066,-0.291 -0.041,-0.473 0.007,-0.089 0.023,-0.186 0.044,-0.287 0.013,-0.102 0.025,-0.205 0.038,-0.311 0.131,-0.718 0.219,-1.629 -0.061,-2.328 0.645,0.717 1.117,1.547 1.199,2.502 0.01,0.111 0.028,0.215 0.043,0.319 0.004,0.108 0.014,0.212 0.029,0.314 0.021,0.205 0.103,0.389 0.142,0.589 0.054,0.195 0.137,0.386 0.256,0.581 0.065,0.128 0.146,0.259 0.233,0.393 -0.039,-0.025 -0.076,-0.054 -0.115,-0.079 z m 1.141,-0.721 c -0.16,0.327 -0.406,0.625 -0.645,0.9 -0.146,-0.259 -0.234,-0.506 -0.346,-0.744 -0.053,-0.131 -0.094,-0.26 -0.125,-0.392 l -0.04,-0.196 c -0.021,-0.064 -0.04,-0.129 -0.057,-0.193 -0.113,-0.521 -0.179,-1.077 -0.313,-1.672 -0.057,-0.225 -0.13,-0.436 -0.226,-0.626 -0.109,-0.18 -0.232,-0.345 -0.366,-0.499 -0.129,-0.16 -0.288,-0.287 -0.454,-0.414 -0.072,-0.055 -0.144,-0.108 -0.217,-0.162 0.662,0.105 1.365,0.23 2.048,0.549 0.429,0.232 0.774,0.539 0.946,0.947 0.093,0.196 0.161,0.402 0.203,0.61 0.021,0.218 0.021,0.436 0,0.653 -0.021,0.432 -0.203,0.854 -0.408,1.239 z m 1.883,5.955 c -0.736,-0.824 -0.947,-1.55 -1.049,-2.324 -0.019,-0.211 -0.059,-0.373 -0.076,-0.596 -0.026,-0.207 -0.072,-0.397 -0.114,-0.634 -0.065,-0.196 -0.13,-0.435 -0.235,-0.655 -0.057,-0.104 -0.118,-0.213 -0.186,-0.325 -0.025,-0.044 -0.055,-0.087 -0.082,-0.129 0.174,0.008 0.35,0.032 0.529,0.066 0.201,0.06 0.393,0.155 0.587,0.253 0.179,0.114 0.342,0.256 0.505,0.396 0.147,0.155 0.276,0.327 0.404,0.498 0.471,0.721 0.66,1.571 0.74,2.414 0.103,1.115 0.344,2.002 0.707,3.014 -0.567,-0.689 -1.17,-1.358 -1.73,-1.978 z m 4.519,-3.79 c -0.055,0.007 -0.107,0.036 -0.131,0.091 -0.391,0.908 0.048,1.867 -0.238,2.798 -0.061,0.196 -0.172,0.442 -0.266,0.697 -0.146,-0.364 -0.297,-0.726 -0.394,-1.108 -0.216,-0.861 0.337,-1.877 0.984,-2.488 0.016,0.003 0.031,0.007 0.045,0.01 z m -2.77,-1.22 c 0.127,0.035 0.23,0.111 0.301,0.209 0.117,0.034 0.233,0.064 0.354,0.105 0.601,0.208 1.208,0.631 1.835,0.834 -0.516,0.33 -0.858,0.861 -1.076,1.453 -0.047,0.124 -0.076,0.247 -0.096,0.368 -0.002,-0.535 -0.077,-1.089 -0.299,-1.661 -0.193,-0.502 -0.572,-0.961 -1.048,-1.313 0.01,0.003 0.019,0.003 0.029,0.005 z m 0.36,1.354 c 0.371,0.719 0.47,1.522 0.402,2.262 -0.114,1.241 -0.552,2.303 -0.604,3.381 -0.276,-1.422 -0.416,-2.75 -0.715,-4.256 -0.152,-0.697 -0.466,-1.392 -0.994,-1.93 -0.436,-0.434 -1.028,-0.707 -1.618,-0.746 0.048,-0.014 0.095,-0.027 0.145,-0.043 0.425,-0.135 0.852,-0.157 1.352,-0.126 0.913,0.116 1.647,0.742 2.032,1.458 z m 1.428,-4.75 c -0.682,0.475 -1.432,0.841 -2.19,1.173 -0.747,0.327 -1.527,0.569 -2.326,0.724 -0.014,0.002 -0.025,0.002 -0.037,0.004 0.037,-0.108 0.08,-0.215 0.111,-0.327 0.033,-0.175 0.051,-0.356 0.058,-0.537 0.341,-1.027 0.676,-1.968 0.915,-2.828 0.212,-0.732 0.414,-1.379 0.568,-1.948 0.925,0.352 1.805,0.14 2.609,-0.389 -0.32,1.43 -0.202,2.777 0.955,3.584 -0.228,0.175 -0.442,0.39 -0.663,0.544 z m 0.892,-0.702 c -0.4,-0.367 -0.758,-0.733 -0.918,-1.346 -0.164,-0.633 -0.045,-1.343 0.129,-1.992 0.286,0.62 0.512,1.221 0.652,1.854 -0.047,0.345 -0.02,0.695 0.107,1.038 0.014,0.034 0.031,0.064 0.047,0.097 0.006,0.109 0.006,0.223 0.006,0.336 -0.007,0.004 -0.015,0.008 -0.023,0.013 z m 3.164,1.539 c 0.182,0.119 0.4,0.311 0.631,0.484 -0.39,0.037 -0.779,0.078 -1.172,0.061 -0.977,-0.044 -1.865,-1.034 -2.206,-1.896 0.051,0.044 0.106,0.084 0.162,0.123 -0.045,0.067 -0.044,0.175 0.022,0.232 0.725,0.639 1.773,0.475 2.563,0.996 z m -2.353,-1.878 c 0.154,-0.373 0.557,-0.668 0.869,-0.883 0.477,-0.326 1.053,-0.379 1.602,-0.52 -0.564,0.732 -1.4,1.422 -2.298,1.567 -0.063,-0.049 -0.12,-0.104 -0.173,-0.164 z m 0.576,0.394 c 1.031,-0.18 2.088,-1.324 2.543,-2.061 0.097,-0.156 -0.046,-0.38 -0.233,-0.292 -0.834,0.393 -1.702,0.323 -2.47,0.896 -0.188,0.14 -0.479,0.372 -0.67,0.635 -0.369,-1.037 0.732,-2.203 1.482,-2.727 0.609,-0.424 1.33,-0.633 2.063,-0.688 0.664,-0.05 1.24,0.174 1.855,0.324 -0.301,0.342 -0.496,0.865 -0.668,1.22 -0.296,0.612 -0.543,1.241 -0.914,1.813 -0.512,0.786 -1.998,1.255 -2.988,0.88 z"
   id="path614" />

	<path
   style="fill:#261414"
   d="m 337.275,209.62 c -0.018,0 -0.02,0.028 -0.002,0.028 0.018,0 0.021,-0.028 0.002,-0.028 z"
   id="path615" />

</g>
  </g>
</svg>
