<?xml version="1.0" encoding="UTF-8" standalone="no"?>
<!-- Created with Inkscape (http://www.inkscape.org/) -->

<svg
   width="193.3815mm"
   height="290.28207mm"
   viewBox="0 0 193.3815 290.28207"
   version="1.1"
   id="svg1"
   xmlns="http://www.w3.org/2000/svg"
   xmlns:svg="http://www.w3.org/2000/svg">
  <defs
     id="defs1" />
  <g
     id="g703"
     transform="matrix(2.6675125,0,0,2.6675125,-1091.2445,-77.559488)">
	<path
   style="fill:#261414"
   d="m 481.582,65.301 c 0.001,-0.366 -0.336,-0.603 -2.116,-0.801 -0.459,-0.052 -0.978,-0.094 -1.535,-0.128 0.555,-0.13 1.067,-0.263 1.52,-0.393 1.721,-0.499 2.013,-0.789 1.949,-1.149 -0.066,-0.375 -0.537,-0.45 -1.275,-0.45 -0.574,0 -1.344,0.055 -2.229,0.154 0.434,-0.188 0.838,-0.37 1.194,-0.545 1.613,-0.783 1.851,-1.119 1.727,-1.464 -0.109,-0.304 -0.487,-0.304 -0.611,-0.304 -0.556,0 -1.703,0.255 -3.139,0.681 0.478,-0.313 0.915,-0.612 1.294,-0.89 1.447,-1.057 1.623,-1.43 1.439,-1.746 -0.057,-0.098 -0.176,-0.214 -0.429,-0.214 -0.489,0 -1.637,0.475 -2.965,1.135 0.343,-0.324 0.659,-0.635 0.935,-0.921 1.246,-1.288 1.355,-1.685 1.121,-1.966 -0.046,-0.056 -0.151,-0.148 -0.34,-0.148 -0.496,0 -1.773,0.837 -3.06,1.792 0.344,-0.459 0.653,-0.894 0.917,-1.286 0.997,-1.488 1.035,-1.897 0.755,-2.133 -0.074,-0.061 -0.166,-0.095 -0.269,-0.095 -0.468,0 -1.578,1.041 -2.609,2.126 0.214,-0.424 0.405,-0.825 0.568,-1.19 0.73,-1.637 0.697,-2.046 0.381,-2.23 -0.061,-0.035 -0.131,-0.054 -0.202,-0.054 -0.495,0 -1.516,1.36 -2.425,2.741 0.164,-0.542 0.305,-1.049 0.416,-1.502 0.429,-1.74 0.324,-2.138 -0.021,-2.264 l -0.079,-0.023 h -0.056 c -0.478,0 -1.213,1.386 -1.871,2.894 0.054,-0.462 0.097,-0.897 0.124,-1.289 0.127,-1.788 -0.045,-2.162 -0.404,-2.227 l -0.07,-0.007 c -0.524,0 -1.055,1.63 -1.48,3.42 -0.032,-0.562 -0.073,-1.082 -0.122,-1.543 -0.192,-1.781 -0.427,-2.119 -0.794,-2.119 -0.366,0 -0.601,0.338 -0.793,2.119 -0.04,0.381 -0.075,0.806 -0.103,1.257 -0.404,-1.706 -0.903,-3.207 -1.406,-3.207 l -0.067,0.006 c -0.36,0.063 -0.534,0.436 -0.42,2.224 0.027,0.456 0.075,0.968 0.138,1.517 -0.685,-1.605 -1.478,-3.155 -1.983,-3.155 l -0.083,0.005 -0.053,0.019 c -0.344,0.126 -0.449,0.523 -0.021,2.264 0.093,0.375 0.207,0.789 0.335,1.228 -0.867,-1.321 -1.811,-2.568 -2.281,-2.568 -0.071,0 -0.141,0.019 -0.2,0.053 -0.318,0.182 -0.354,0.592 0.364,2.233 0.186,0.425 0.409,0.897 0.661,1.4 -1.083,-1.156 -2.309,-2.334 -2.807,-2.334 -0.102,0 -0.194,0.032 -0.268,0.094 -0.28,0.235 -0.243,0.645 0.755,2.134 0.218,0.325 0.471,0.681 0.746,1.054 -0.715,-0.532 -1.411,-1.012 -1.964,-1.32 0.028,-0.252 0.114,-0.522 0.277,-0.828 0.066,-0.123 0.063,-0.272 -0.01,-0.393 -0.072,-0.12 -0.201,-0.193 -0.341,-0.193 -0.604,-10e-4 -1.021,-0.268 -1.084,-1.571 -0.039,-0.628 0.002,-1.384 0.047,-2.184 0.043,-0.753 0.086,-1.532 0.078,-2.361 -0.003,-0.416 -0.006,-0.847 -0.049,-1.309 -0.043,-0.474 -0.106,-0.918 -0.186,-1.319 -0.192,-0.964 -0.484,-1.719 -0.918,-2.376 -0.994,-1.506 -2.589,-2.131 -4.8,-1.858 -0.289,-0.592 -0.697,-1.17 -1.337,-1.17 -0.278,0 -0.525,0.11 -0.743,0.208 -0.183,0.081 -0.354,0.158 -0.511,0.158 -0.071,0 -0.184,-0.013 -0.346,-0.13 l -0.327,-0.23 c -0.231,-0.163 -0.396,-0.279 -0.521,-0.379 -0.163,-0.13 -0.22,-0.2 -0.269,-0.287 -0.047,-0.083 -0.095,-0.199 -0.161,-0.361 -0.127,-0.313 -0.321,-0.787 -0.732,-1.569 -0.191,-0.374 -0.409,-0.752 -0.619,-1.117 l -0.044,-0.076 c -0.222,-0.384 -0.439,-0.752 -0.656,-1.105 -0.191,-0.31 -0.421,-0.674 -0.672,-1.032 -0.261,-0.356 -0.512,-0.675 -0.767,-0.976 -0.591,-0.69 -1.148,-1.229 -1.761,-1.7 -0.729,-0.545 -1.497,-0.988 -2.346,-1.353 -0.133,-0.057 -0.287,-0.037 -0.402,0.052 -0.114,0.089 -0.171,0.232 -0.149,0.376 0.217,1.385 0.104,2.222 -0.308,2.296 -0.543,0.096 -1.547,-0.566 -2.242,-1.051 -0.12,-0.081 -0.235,-0.165 -0.354,-0.251 -0.136,-0.099 -0.274,-0.2 -0.424,-0.301 l -0.847,-0.581 c -0.548,-0.377 -1.126,-0.772 -1.689,-1.128 -1.361,-0.741 -2.259,-1.053 -2.846,-1.007 -0.12,0.011 -0.229,0.075 -0.298,0.175 -0.067,0.1 -0.086,0.226 -0.05,0.341 0.145,0.473 0.26,0.984 0.34,1.518 0.039,0.269 0.07,0.544 0.093,0.813 0.018,0.28 0.012,0.586 0.005,0.869 -0.056,1.406 -0.252,2.517 -0.619,3.502 -0.197,0.563 -0.428,1.103 -0.686,1.606 -0.261,0.515 -0.543,0.975 -0.866,1.406 -0.635,0.859 -1.364,1.579 -2.11,2.081 -0.956,0.642 -1.908,1.027 -2.795,1.347 -0.297,0.107 -0.588,0.206 -0.869,0.303 -0.592,0.201 -1.15,0.393 -1.672,0.615 -0.883,0.377 -1.547,0.801 -2.095,1.336 -0.344,0.343 -0.588,0.651 -0.816,1.031 -0.252,0.416 -0.473,0.889 -0.655,1.405 -0.157,0.44 -0.322,0.913 -0.46,1.372 -0.151,0.502 -0.252,0.928 -0.328,1.38 -0.087,0.523 -0.116,0.999 -0.087,1.453 0.007,0.121 0.019,0.242 0.034,0.353 0.014,0.126 0.03,0.255 0.053,0.382 0.023,0.128 0.049,0.255 0.08,0.381 -0.852,0.271 -1.621,0.602 -2.294,0.985 -0.363,0.208 -0.702,0.435 -1.013,0.678 -0.291,0.234 -0.563,0.5 -0.814,0.788 -0.462,0.535 -0.814,1.129 -1.048,1.771 -0.219,0.628 -0.337,1.317 -0.352,2.048 -0.006,0.339 0.011,0.721 0.051,1.105 0.038,0.371 0.099,0.755 0.178,1.142 0.081,0.387 0.183,0.796 0.294,1.184 0.113,0.394 0.247,0.801 0.395,1.206 0.173,0.464 0.336,0.877 0.487,1.228 0.174,0.407 0.364,0.816 0.564,1.217 0.188,0.374 0.411,0.809 0.634,1.207 0.155,0.283 0.318,0.564 0.485,0.837 -0.139,0.101 -0.277,0.199 -0.417,0.299 -0.857,0.611 -1.745,1.244 -2.518,1.971 -0.555,0.531 -0.988,1.072 -1.316,1.645 -0.177,0.289 -0.33,0.656 -0.47,1.123 -0.121,0.411 -0.212,0.854 -0.267,1.315 -0.018,0.143 0.044,0.285 0.161,0.37 l 1.288,0.938 c 0.092,0.068 0.174,0.103 0.233,0.128 0.016,0.007 0.033,0.014 0.067,0.031 l 0.452,0.214 c 0.573,0.275 1.163,0.579 1.751,0.901 1.044,0.572 2.103,1.21 3.334,2.008 2.495,1.64 4.595,3.088 6.61,4.563 0.18,0.126 0.354,0.242 0.527,0.352 -2.411,1.695 -5.734,1.824 -8.597,1.95 -0.09,0.004 -0.159,0.036 -0.219,0.077 -0.181,0.03 -0.305,0.278 -0.182,0.463 0.01,0.016 0.016,0.032 0.026,0.048 0.016,0.045 0.038,0.086 0.068,0.123 0.531,0.94 0.471,2.048 0.315,3.089 -0.139,0.932 -0.791,1.626 -0.978,2.485 -0.125,0.574 0.114,0.986 0.429,1.441 1.152,1.661 0.738,3.325 0.329,5.177 -0.048,0.216 0.071,0.426 0.26,0.526 1.008,0.541 1.954,1.145 2.807,1.913 1.343,1.212 1.032,3.292 1.391,4.896 0.056,0.252 0.258,0.511 0.555,0.458 2.969,-0.536 4.297,2.528 5.018,4.878 0.118,0.385 0.678,0.429 0.905,0.131 1.438,-1.882 3.555,-3.09 5.854,-1.893 0.275,0.143 0.721,-0.063 0.73,-0.394 0.047,-1.54 3.176,-6.309 5.068,-5.169 0.026,0.107 0.113,0.162 0.203,0.162 0.273,0.295 0.548,0.589 0.816,0.888 0.782,0.899 1.549,1.809 2.259,2.74 0.724,0.921 1.393,1.858 2.02,2.779 0.628,0.92 1.194,1.836 1.724,2.709 0.523,0.877 1.001,1.716 1.425,2.502 0.237,0.44 0.454,0.855 0.661,1.256 -0.088,-0.043 -0.181,-0.088 -0.265,-0.128 -1.901,-0.908 -3.946,-0.354 -5.665,0.717 -0.132,0.084 -0.238,0.262 -0.143,0.417 0.919,1.501 1.807,2.979 3.175,4.119 1.559,1.301 3.688,1.278 5.604,1.302 0.138,0.002 0.274,10e-4 0.407,-0.004 -2.553,0.651 -5.224,0.934 -7.816,0.388 -2.251,-0.475 -4.357,-1.579 -6.464,-2.464 -4.142,-1.736 -8.464,-1.806 -11.91,1.304 -0.069,0.063 0.001,0.199 0.093,0.163 0.846,-0.339 1.575,-0.856 2.372,-1.297 1.475,-0.815 3.174,-0.854 4.81,-0.729 2.695,0.204 5.17,1.595 7.585,2.685 2.874,1.297 6.092,1.879 9.205,1.383 -0.379,0.155 -0.752,0.278 -1.098,0.364 -0.531,0.133 -1.073,0.226 -1.619,0.303 -0.02,-0.068 -0.063,-0.128 -0.145,-0.15 -1.862,-0.526 -3.982,-0.549 -5.91,-0.608 -1.524,-0.047 -2.856,0.075 -4.35,-0.354 -1.048,-0.302 -2.009,-0.669 -3.097,-0.835 -0.051,-0.009 -0.058,0.067 -0.016,0.085 1.998,0.793 3.88,1.787 6.072,1.766 1.607,-0.016 3.246,0.273 4.865,0.408 -0.209,0.027 -0.419,0.056 -0.627,0.088 -1.863,0.288 -3.633,1.053 -5.405,1.661 -2.829,0.971 -5.684,1.68 -8.585,2.395 -0.022,0.006 -0.022,0.044 0.004,0.044 3.012,-0.066 5.929,-1.058 8.77,-1.985 0.622,-0.202 1.228,-0.385 1.828,-0.554 -1.578,0.947 -2.91,2.274 -3.596,3.891 -0.037,0.088 0.099,0.137 0.146,0.064 1.792,-2.678 4.135,-4.106 7.14,-4.735 -1.279,1.646 -0.89,4.746 -0.591,6.902 0.009,0.073 0.134,0.06 0.129,-0.014 -0.18,-2.366 -0.355,-6.301 2.063,-7.188 0.419,-0.054 0.842,-0.103 1.276,-0.144 1.604,-0.152 3.422,-0.463 4.719,-1.496 0.34,-0.271 0.735,-0.652 1.097,-1.092 -0.029,0.489 -0.114,0.991 -0.258,1.513 -0.226,0.227 -0.456,0.45 -0.689,0.672 -0.585,0.301 -1.125,0.72 -1.688,1.051 -1.65,0.975 -3.146,0.719 -4.955,0.716 -0.051,0 -0.07,0.081 -0.016,0.092 1.338,0.249 2.464,0.586 3.816,0.298 0.303,-0.064 0.623,-0.17 0.947,-0.301 -0.488,0.52 -0.944,1.064 -1.333,1.661 -1.058,1.625 -1.337,3.593 -1.164,5.481 0.002,0.031 0.044,0.023 0.049,-0.003 0.35,-2.013 0.817,-3.883 1.962,-5.612 0.64,-0.967 1.568,-1.683 2.415,-2.472 -0.579,1.034 -1.352,1.994 -1.889,3.025 -1.029,1.979 -1.449,5.384 0.21,7.125 0.145,0.151 0.335,-0.045 0.299,-0.205 -0.445,-1.927 -0.705,-3.51 -0.236,-5.478 0.412,-1.733 1.789,-3.007 2.491,-4.596 0.504,-1.14 0.817,-2.533 0.674,-3.822 0.09,-0.13 0.156,-0.286 0.196,-0.475 0.096,-0.224 0.167,-0.45 0.208,-0.674 0.478,0.759 0.846,1.581 1.221,2.408 0.03,0.168 0.057,0.335 0.078,0.501 -0.054,0.044 -0.095,0.103 -0.108,0.175 -0.468,2.345 -2.124,3.982 -2.758,6.221 -0.428,1.514 -0.575,3.751 0.811,4.788 0.08,0.061 0.167,-0.05 0.129,-0.127 -0.902,-1.784 -0.55,-4.234 0.393,-5.923 0.487,-0.876 1.07,-1.693 1.483,-2.567 -0.089,0.487 -0.226,0.979 -0.418,1.482 -0.291,0.76 -0.522,1.451 -0.632,2.26 -0.182,1.326 0.57,2.711 1.533,3.542 0.018,0.015 0.04,-0.012 0.027,-0.029 -1.469,-2.014 -1.166,-3.879 -0.297,-6.126 0.358,-0.925 0.473,-1.854 0.432,-2.781 0.886,1.761 1.388,3.424 1.801,5.344 0.102,0.473 0.35,0.883 0.661,1.251 -0.057,0.933 0.52,2.07 0.797,2.916 0.23,0.704 0.499,1.597 1.298,1.803 0.06,0.015 0.124,-0.051 0.086,-0.108 -0.767,-1.201 -1.008,-2.533 -1.398,-3.848 0.227,0.189 0.458,0.368 0.678,0.537 1.075,0.828 2.142,1.774 3.473,2.135 0.231,0.063 0.333,-0.302 0.123,-0.395 -0.026,-0.012 -0.053,-0.023 -0.077,-0.034 -0.078,-0.035 -0.153,-0.002 -0.182,0.079 0.145,-0.419 -0.242,-0.408 -0.79,-0.776 -0.745,-0.501 -1.434,-1.105 -2.157,-1.639 -1.964,-1.453 -1.809,-3.331 -2.584,-5.415 -0.208,-0.559 -0.458,-1.1 -0.721,-1.635 1.067,1.013 2.264,1.884 3.342,2.885 1.329,1.232 1.887,2.751 2.737,4.277 0.066,0.117 0.28,0.06 0.258,-0.081 -0.222,-1.419 -0.775,-2.553 -1.519,-3.549 1.054,0.463 2.333,1.655 2.81,2.583 0.965,1.88 2.188,3.661 2.462,5.799 0.007,0.057 0.097,0.046 0.098,-0.009 0.041,-2.229 -1.365,-3.984 -2.282,-5.922 -0.287,-0.607 -0.601,-1.038 -1.127,-1.449 -0.155,-0.122 -0.313,-0.257 -0.472,-0.395 0.737,0.326 1.512,0.588 2.345,0.746 1.903,0.358 3.214,0.564 4.541,2.107 0.772,0.896 1.468,1.602 2.482,2.233 2.233,1.392 5.001,1.332 7.508,1.776 0.022,0.004 0.03,-0.034 0.009,-0.039 -2.608,-0.594 -5.472,-0.996 -7.751,-2.462 -1.738,-1.117 -2.341,-3.029 -4.379,-3.77 -0.742,-0.268 -1.586,-0.329 -2.358,-0.453 -1.524,-0.244 -2.865,-0.96 -4.141,-1.795 -0.609,-0.399 -1.354,-0.859 -2.092,-1.378 -0.482,-0.421 -0.981,-0.841 -1.483,-1.273 -0.362,-0.313 -0.679,-0.633 -0.967,-0.963 -0.223,-0.305 -0.405,-0.622 -0.536,-0.952 0.384,0.135 0.728,0.241 0.903,0.307 1.953,0.73 4.057,0.457 5.887,1.514 0.113,0.065 0.207,-0.08 0.131,-0.171 -0.697,-0.843 -1.716,-1.072 -2.765,-1.216 0.545,-0.078 1.092,-0.21 1.608,-0.272 1.277,-0.152 2.32,-0.341 3.448,-1.009 0.01,-0.006 0.003,-0.021 -0.008,-0.017 -2.122,0.775 -4.416,0.581 -6.595,1.038 -0.023,0.006 -0.039,0.019 -0.052,0.034 -0.145,-0.028 -0.289,-0.059 -0.429,-0.096 -0.897,-0.238 -1.712,-0.621 -2.546,-1.015 -0.141,-0.067 -0.313,-0.176 -0.49,-0.265 -0.158,-0.289 -0.314,-0.585 -0.471,-0.895 -0.116,-0.232 -0.246,-0.444 -0.384,-0.643 1.213,0.56 3.617,0.078 4.793,-0.023 1.184,-0.102 2.358,-0.253 3.533,-0.389 1.033,-0.009 2.025,0.044 2.997,0.218 0.314,0.168 0.483,0.379 0.659,0.852 0.213,0.577 0.313,1.188 0.529,1.765 0.228,0.612 0.712,1.136 1.153,1.599 0.475,0.496 0.952,1.177 1.565,1.489 0.013,0.007 0.025,-0.006 0.026,-0.018 0.108,-0.543 -0.416,-1 -0.76,-1.356 -0.841,-0.875 -1.459,-1.672 -1.767,-2.868 -0.063,-0.246 -0.218,-0.766 -0.443,-1.245 0.864,0.235 1.722,0.582 2.589,1.091 1.829,1.072 2.817,3.233 4.739,4.106 0.023,0.011 0.045,-0.02 0.034,-0.039 -1.466,-2.67 -4.075,-4.86 -7.02,-5.879 2.475,0.037 4.917,0.806 7.096,1.934 1.046,0.543 2.061,1.684 3.315,1.165 0.095,-0.039 0.101,-0.162 -10e-4,-0.198 -1.452,-0.509 -2.685,-1.482 -4.06,-2.178 0.392,-0.128 0.77,-0.326 1.044,-0.478 1.021,-0.56 1.829,-1.426 2.455,-2.391 0.046,-0.071 -0.056,-0.155 -0.115,-0.094 -0.578,0.598 -1.247,1.125 -1.923,1.61 -0.514,0.368 -1.087,0.676 -1.697,0.851 -0.24,0.068 -0.481,0.058 -0.722,0.075 -1.399,-0.546 -2.872,-0.841 -4.362,-1.028 -1.61,-0.203 -3.26,-0.069 -4.888,0.121 -0.57,0.019 -1.142,0.086 -1.706,0.209 -0.073,0.009 -0.147,0.019 -0.221,0.027 -1.149,0.139 -2.298,0.246 -3.454,0.31 -0.294,0.016 -0.695,0.056 -1.123,0.082 0.28,-0.153 0.586,-0.354 0.936,-0.565 0.176,-0.114 0.372,-0.216 0.554,-0.356 0.185,-0.139 0.377,-0.283 0.577,-0.436 0.197,-0.154 0.416,-0.302 0.618,-0.48 0.2,-0.181 0.407,-0.368 0.622,-0.563 0.442,-0.374 0.839,-0.84 1.283,-1.305 0.226,-0.23 0.414,-0.498 0.631,-0.755 0.207,-0.265 0.437,-0.518 0.634,-0.813 0.204,-0.288 0.412,-0.581 0.625,-0.881 0.21,-0.3 0.383,-0.596 0.581,-0.902 0.097,-0.152 0.195,-0.307 0.293,-0.462 0.12,-0.198 0.195,-0.341 0.296,-0.517 0.186,-0.339 0.393,-0.673 0.568,-1.029 0.741,-1.407 1.369,-2.965 1.89,-4.606 1.044,-3.29 1.556,-6.926 1.766,-10.528 0.207,-3.609 0.14,-7.198 0.117,-10.544 -0.034,-3.347 -0.008,-6.454 0.179,-9.103 0.014,-0.245 0.032,-0.483 0.052,-0.719 0.025,0.352 0.054,0.684 0.087,0.988 0.192,1.782 0.427,2.12 0.793,2.12 0.366,0 0.602,-0.338 0.793,-2.12 0.041,-0.381 0.076,-0.805 0.104,-1.256 0.404,1.706 0.903,3.206 1.406,3.206 l 0.066,-0.006 c 0.361,-0.062 0.535,-0.435 0.422,-2.223 -0.029,-0.457 -0.077,-0.969 -0.139,-1.518 0.685,1.606 1.477,3.156 1.983,3.156 l 0.083,-0.005 0.053,-0.019 c 0.344,-0.125 0.449,-0.523 0.02,-2.264 -0.092,-0.374 -0.206,-0.788 -0.334,-1.226 0.867,1.32 1.811,2.566 2.281,2.566 0.071,0 0.141,-0.018 0.2,-0.053 0.318,-0.182 0.353,-0.592 -0.364,-2.233 -0.186,-0.425 -0.41,-0.897 -0.661,-1.4 1.083,1.156 2.309,2.335 2.808,2.335 0.101,0 0.193,-0.033 0.267,-0.095 0.281,-0.234 0.243,-0.645 -0.754,-2.133 -0.22,-0.325 -0.472,-0.681 -0.746,-1.055 1.219,0.908 2.397,1.676 2.867,1.676 0.186,0 0.29,-0.091 0.337,-0.146 0.236,-0.279 0.13,-0.677 -1.107,-1.974 -0.319,-0.335 -0.688,-0.7 -1.094,-1.085 1.436,0.727 2.699,1.262 3.22,1.262 0.253,0 0.374,-0.116 0.43,-0.213 0.183,-0.317 0.008,-0.689 -1.439,-1.747 -0.315,-0.23 -0.673,-0.477 -1.058,-0.732 1.342,0.4 2.407,0.638 2.931,0.638 0.121,0 0.489,0 0.6,-0.299 0.127,-0.344 -0.109,-0.681 -1.715,-1.477 -0.414,-0.205 -0.888,-0.423 -1.401,-0.646 1.007,0.119 1.88,0.188 2.514,0.188 0.739,0 1.21,-0.076 1.276,-0.45 0.063,-0.36 -0.229,-0.65 -1.949,-1.148 -0.375,-0.109 -0.795,-0.219 -1.243,-0.327 0.502,-0.029 0.968,-0.066 1.382,-0.111 1.727,-0.191 2.054,-0.423 2.055,-0.784 z m -58.128,17.692 c -2.022,-1.479 -4.13,-2.934 -6.639,-4.582 -1.25,-0.81 -2.326,-1.458 -3.388,-2.04 -0.601,-0.328 -1.202,-0.639 -1.791,-0.922 l -0.439,-0.206 c -0.038,-0.021 -0.075,-0.037 -0.113,-0.053 -0.041,-0.017 -0.055,-0.023 -0.068,-0.034 l -1.103,-0.803 c 0.05,-0.333 0.12,-0.651 0.209,-0.951 0.119,-0.399 0.245,-0.705 0.391,-0.943 0.296,-0.515 0.683,-0.997 1.18,-1.473 0.731,-0.688 1.558,-1.277 2.432,-1.9 0.241,-0.172 0.483,-0.345 0.724,-0.52 0.17,-0.124 0.214,-0.357 0.102,-0.535 -0.227,-0.36 -0.448,-0.736 -0.66,-1.118 -0.216,-0.386 -0.434,-0.812 -0.616,-1.177 -0.193,-0.385 -0.376,-0.78 -0.545,-1.175 -0.146,-0.338 -0.304,-0.738 -0.472,-1.188 -0.142,-0.387 -0.268,-0.773 -0.377,-1.15 -0.105,-0.369 -0.202,-0.759 -0.28,-1.125 -0.073,-0.36 -0.129,-0.717 -0.164,-1.061 -0.037,-0.349 -0.052,-0.706 -0.047,-1.009 0.013,-0.646 0.115,-1.253 0.306,-1.796 0.198,-0.545 0.501,-1.055 0.898,-1.516 0.22,-0.253 0.46,-0.485 0.708,-0.687 0.276,-0.216 0.583,-0.421 0.913,-0.609 0.715,-0.409 1.557,-0.755 2.5,-1.027 0.104,-0.03 0.192,-0.102 0.242,-0.197 0.051,-0.096 0.061,-0.208 0.026,-0.312 -0.07,-0.214 -0.127,-0.436 -0.165,-0.659 -0.02,-0.111 -0.034,-0.224 -0.048,-0.343 -0.014,-0.102 -0.023,-0.203 -0.03,-0.305 -0.024,-0.393 0.001,-0.809 0.079,-1.272 0.069,-0.417 0.163,-0.813 0.305,-1.28 0.133,-0.443 0.294,-0.903 0.447,-1.336 0.165,-0.466 0.363,-0.89 0.588,-1.26 0.196,-0.325 0.397,-0.58 0.693,-0.876 0.471,-0.462 1.058,-0.833 1.849,-1.17 0.493,-0.212 1.038,-0.397 1.614,-0.594 0.286,-0.098 0.58,-0.198 0.882,-0.307 0.937,-0.338 1.942,-0.745 2.97,-1.435 0.834,-0.561 1.609,-1.324 2.306,-2.268 0.35,-0.468 0.656,-0.965 0.938,-1.52 0.274,-0.535 0.518,-1.108 0.723,-1.697 0.395,-1.06 0.608,-2.249 0.667,-3.748 0.008,-0.306 0.014,-0.632 -0.006,-0.95 -0.023,-0.295 -0.058,-0.589 -0.101,-0.875 -0.054,-0.36 -0.122,-0.712 -0.205,-1.05 0.453,0.122 1.08,0.402 1.866,0.829 0.528,0.334 1.101,0.726 1.642,1.098 l 0.85,0.583 c 0.143,0.097 0.275,0.193 0.403,0.287 0.125,0.09 0.247,0.179 0.37,0.263 1.371,0.954 2.18,1.294 2.835,1.179 1.078,-0.195 1.135,-1.527 1.05,-2.474 0.541,0.274 1.047,0.59 1.534,0.953 0.564,0.434 1.083,0.936 1.636,1.582 0.242,0.285 0.482,0.589 0.726,0.923 0.234,0.334 0.446,0.672 0.642,0.986 0.213,0.347 0.426,0.708 0.644,1.085 l 0.044,0.076 c 0.206,0.356 0.418,0.726 0.603,1.086 0.397,0.752 0.58,1.204 0.702,1.504 0.077,0.189 0.133,0.325 0.204,0.451 0.109,0.193 0.239,0.339 0.467,0.52 0.135,0.107 0.311,0.232 0.56,0.407 l 0.321,0.226 c 0.257,0.186 0.53,0.28 0.811,0.28 0.327,0 0.598,-0.121 0.837,-0.229 0.159,-0.071 0.31,-0.139 0.417,-0.139 0.2,0 0.461,0.345 0.732,0.968 0.072,0.167 0.246,0.262 0.427,0.235 2.041,-0.316 3.444,0.154 4.311,1.468 0.375,0.567 0.63,1.233 0.802,2.093 0.074,0.374 0.133,0.79 0.174,1.235 0.039,0.429 0.042,0.842 0.045,1.243 0.008,0.805 -0.035,1.57 -0.076,2.311 -0.046,0.823 -0.09,1.602 -0.048,2.271 0.024,0.504 0.094,1.908 1.298,2.249 -0.044,0.123 -0.074,0.243 -0.099,0.362 -0.053,-0.012 -0.107,-0.025 -0.149,-0.025 -0.185,0 -0.291,0.092 -0.336,0.146 -0.237,0.28 -0.13,0.678 1.107,1.975 0.317,0.334 0.688,0.699 1.093,1.084 -1.437,-0.727 -2.699,-1.262 -3.22,-1.262 -0.253,0 -0.373,0.116 -0.43,0.214 -0.183,0.316 -0.008,0.69 1.44,1.746 0.316,0.23 0.673,0.478 1.058,0.733 -1.342,-0.4 -2.407,-0.639 -2.93,-0.639 -0.121,0 -0.49,0 -0.601,0.299 -0.11,0.301 0.057,0.596 1.17,1.196 -0.361,0.234 -0.708,0.489 -1.045,0.755 -0.461,0.037 -0.748,0.148 -0.799,0.434 -0.014,0.077 -0.009,0.15 0.02,0.225 -0.317,0.289 -0.624,0.583 -0.897,0.882 -0.125,0.14 -0.243,0.282 -0.357,0.428 -0.07,-0.372 -0.115,-0.731 -0.118,-1.079 -0.002,-0.416 0.048,-0.857 0.151,-1.271 0.204,-0.81 0.634,-1.71 1.337,-2.618 0.018,-0.022 -0.017,-0.045 -0.038,-0.023 -0.787,0.767 -1.39,1.753 -1.693,2.64 -0.152,0.453 -0.235,0.938 -0.228,1.379 0.01,0.422 0.103,0.839 0.294,1.232 0.013,0.026 0.035,0.043 0.062,0.055 -0.042,0.059 -0.088,0.116 -0.129,0.176 -0.113,0.135 -0.193,0.383 -0.278,0.58 -0.083,0.209 -0.158,0.419 -0.227,0.63 -0.228,0.707 -0.365,1.424 -0.405,2.139 -2.445,0.604 -4.849,2.038 -6.605,3.332 -0.465,0.348 -2.289,2.147 -3.643,3.923 -0.271,0.354 -0.52,0.708 -0.737,1.05 -0.135,-0.471 -0.27,-0.941 -0.398,-1.412 -0.229,-0.821 -0.445,-1.638 -0.665,-2.455 0.92,-1.063 2.345,-1.941 3.291,-2.999 0.441,-0.492 0.879,-0.988 1.309,-1.491 l 0.639,-0.761 c 0.212,-0.251 0.416,-0.526 0.632,-0.741 0.426,-0.456 0.842,-0.91 1.245,-1.363 0.404,-0.456 0.792,-0.896 1.174,-1.388 1.057,-1.319 1.8,-2.66 2.35,-4.072 0.366,-0.055 0.765,-0.274 1.132,-0.558 0.393,-0.306 0.748,-0.666 0.983,-0.91 1.413,-1.45 2.069,-3.455 2.579,-5.445 0.006,-0.027 -0.04,-0.039 -0.049,-0.014 -0.296,0.968 -0.634,1.873 -1.041,2.765 -0.406,0.906 -0.9,1.708 -1.525,2.441 -0.34,0.398 -0.748,0.742 -1.19,1.049 -0.24,0.165 -0.583,0.304 -0.82,0.492 0.903,-2.395 1.269,-4.999 1.662,-8.054 0.007,-0.061 -0.085,-0.085 -0.102,-0.026 -0.32,1.018 -0.51,2.038 -0.661,3.072 -0.165,0.981 -0.292,2.009 -0.505,2.942 -0.13,0.562 -0.308,1.113 -0.525,1.653 -0.053,0.137 -0.108,0.267 -0.166,0.396 -0.993,-2.552 -2.021,-5.374 -1.701,-8.588 0.005,-0.061 -0.083,-0.069 -0.094,-0.01 -0.597,3.276 0.579,6.202 1.591,8.805 0.015,0.034 0.041,0.056 0.073,0.066 -0.143,0.293 -0.296,0.578 -0.46,0.87 -0.285,0.496 -0.601,1 -0.933,1.471 -0.332,0.462 -0.684,0.921 -1.045,1.376 -0.757,0.966 -1.581,1.829 -2.449,2.732 l -0.656,0.674 c -0.222,0.223 -0.435,0.492 -0.655,0.732 -0.438,0.493 -0.882,0.978 -1.326,1.455 -0.753,0.812 -2.115,1.662 -2.989,2.563 -0.045,-0.172 -0.095,-0.346 -0.14,-0.517 -0.667,-2.585 -1.31,-4.95 -1.773,-7.372 -0.243,-1.271 -0.462,-2.526 -0.663,-3.763 2.146,-2.561 4.23,-5.316 5.628,-8.487 0.235,-0.536 0.451,-1.086 0.646,-1.646 0.749,-0.675 1.346,-1.666 1.86,-2.514 0.363,-0.616 0.672,-1.262 0.926,-1.938 0.127,-0.339 0.241,-0.684 0.341,-1.037 0.093,-0.36 0.163,-0.734 0.225,-1.114 0.006,-0.038 -0.045,-0.06 -0.055,-0.021 -0.092,0.362 -0.197,0.716 -0.316,1.061 -0.125,0.338 -0.271,0.662 -0.422,0.981 -0.306,0.638 -0.656,1.245 -1.046,1.825 -0.308,0.469 -0.703,0.909 -1.082,1.356 0.645,-2.425 0.834,-5.065 0.259,-7.936 -0.002,-0.008 -0.013,-0.007 -0.012,0.002 0.223,2.938 -0.155,5.559 -0.898,7.95 -0.559,-0.746 -1.048,-1.576 -1.443,-2.418 -0.469,-0.974 -0.908,-2.012 -1.338,-3.03 -0.017,-0.036 -0.065,-0.012 -0.058,0.023 0.106,0.553 0.226,1.107 0.381,1.659 0.152,0.55 0.348,1.101 0.541,1.617 0.402,1.033 0.975,2.015 1.704,2.802 -0.253,0.734 -0.537,1.448 -0.85,2.143 -1.314,2.868 -3.114,5.415 -5.128,7.852 -0.495,-3.144 -0.886,-6.143 -1.273,-8.861 -0.03,-0.221 -0.061,-0.433 -0.092,-0.649 0.464,-0.85 0.968,-1.699 1.474,-2.563 0.564,-0.998 1.097,-2.027 1.543,-3.101 0.429,-1.077 0.714,-2.22 0.833,-3.42 0.032,-0.608 0.008,-1.235 -0.073,-1.878 -0.041,-0.321 -0.097,-0.646 -0.169,-0.976 -0.072,-0.329 -0.196,-0.671 -0.319,-1.011 -0.011,-0.026 -0.05,-0.02 -0.043,0.009 0.072,0.344 0.146,0.686 0.182,1.016 0.031,0.329 0.051,0.652 0.059,0.971 0.019,0.637 -0.007,1.253 -0.068,1.851 -0.165,1.182 -0.48,2.288 -0.866,3.347 -0.424,1.05 -0.918,2.057 -1.429,3.048 -0.4,0.731 -0.803,1.459 -1.196,2.189 -0.085,-0.595 -0.168,-1.179 -0.248,-1.74 -0.156,-0.929 -0.287,-1.816 -0.411,-2.656 -0.1,-0.551 -0.183,-1.073 -0.26,-1.582 0.363,-0.358 0.635,-0.872 0.813,-1.436 0.212,-0.686 0.323,-1.439 0.43,-2.025 0.16,-0.778 0.136,-1.641 0.069,-2.519 -0.039,-0.44 -0.082,-0.883 -0.164,-1.32 -0.097,-0.438 -0.206,-0.872 -0.325,-1.291 -0.007,-0.023 -0.036,-0.023 -0.038,0 -0.13,1.522 0.176,3.11 0.104,4.563 -0.098,0.916 -0.352,1.791 -0.638,2.62 -0.094,0.28 -0.227,0.533 -0.342,0.789 -0.009,-0.056 -0.017,-0.117 -0.025,-0.173 -0.136,-0.738 -0.256,-1.425 -0.354,-2.05 -0.064,-0.629 -0.208,-1.191 -0.276,-1.685 -0.068,-0.494 -0.146,-0.915 -0.182,-1.267 -0.025,-0.354 -0.085,-0.623 -0.111,-0.807 -0.03,-0.184 -0.047,-0.278 -0.047,-0.278 l -0.373,0.037 c 0,0 0.014,0.094 0.039,0.276 0.021,0.183 0.069,0.45 0.097,0.801 0.025,0.352 0.092,0.787 0.146,1.291 0.03,0.253 0.072,0.52 0.117,0.803 0.023,0.141 0.047,0.286 0.072,0.436 0.015,0.15 0.03,0.305 0.046,0.464 0.082,0.63 0.179,1.321 0.297,2.061 0.006,0.061 0.016,0.126 0.023,0.187 -0.415,-0.415 -0.941,-0.778 -1.318,-1.173 -0.313,-0.321 -0.581,-0.667 -0.871,-1.011 -0.288,-0.345 -0.557,-0.701 -0.802,-1.066 -0.004,-0.005 -0.013,-0.002 -0.012,0.004 0.172,0.843 0.669,1.476 1.154,2.164 0.238,0.322 0.554,0.746 0.916,1.12 0.318,0.337 0.658,0.628 1.03,0.771 0.056,0.449 0.116,0.909 0.188,1.388 0.108,0.843 0.204,1.733 0.335,2.664 0.079,0.691 0.162,1.416 0.248,2.157 -0.441,-0.317 -0.91,-0.602 -1.377,-0.88 -0.366,-0.221 -0.734,-0.44 -1.097,-0.668 -0.018,-0.085 -0.093,-0.158 -0.205,-0.141 -0.004,0 -0.007,10e-4 -0.011,0.002 -0.204,-0.134 -0.407,-0.27 -0.604,-0.414 -0.082,-0.064 -0.157,-0.132 -0.239,-0.196 0.022,-0.023 0.041,-0.051 0.044,-0.088 0.04,-0.442 0.078,-0.922 0.079,-1.408 -0.015,-0.481 -0.06,-0.973 -0.16,-1.445 -0.178,-0.952 -0.675,-1.798 -1.506,-2.315 -0.021,-0.013 -0.045,0.018 -0.033,0.034 0.57,0.81 0.919,1.601 1.06,2.45 0.08,0.421 0.128,0.85 0.158,1.291 0.024,0.381 0.018,0.784 0.013,1.197 -1.081,-0.901 -2.037,-1.896 -2.931,-2.858 -0.021,-0.021 -0.058,0.011 -0.044,0.032 0.42,0.681 0.876,1.332 1.445,1.921 0.559,0.597 1.148,1.179 1.818,1.736 0.062,0.052 0.129,0.107 0.193,0.16 -1.476,0.2 -2.819,0.281 -4.115,0.213 -0.753,-0.038 -1.493,-0.124 -2.241,-0.258 -0.752,-0.13 -1.527,-0.28 -2.32,-0.479 -0.013,-0.003 -0.023,0.014 -0.012,0.018 1.431,0.503 2.933,0.956 4.524,1.133 1.476,0.163 3.017,0.109 4.586,-0.279 0.372,0.305 0.772,0.616 1.206,0.895 0.573,0.371 1.198,0.684 1.824,0.843 0.01,0.09 0.02,0.175 0.03,0.266 0.365,3.081 0.723,6.519 1.234,10.151 -3.001,0.123 -5.778,-1.749 -8.018,-3.267 -0.84,-0.57 -1.636,-1.171 -2.398,-1.784 -0.039,-1.141 -0.207,-2.229 -0.536,-3.277 -0.363,-1.036 -0.89,-2.034 -1.708,-2.792 -0.008,-0.008 -0.026,0.004 -0.02,0.014 0.644,0.833 1.091,1.838 1.422,2.857 0.27,0.943 0.436,1.902 0.49,2.917 -1.415,-1.162 -2.704,-2.369 -3.89,-3.529 -0.009,-0.011 -0.035,0.003 -0.026,0.015 0.818,1.082 1.849,2.155 3.004,3.186 -0.712,-0.238 -1.524,-0.33 -2.359,-0.372 -1.274,-0.064 -2.597,-0.019 -3.677,-0.183 -0.011,-0.002 -0.018,0.014 -0.009,0.018 0.809,0.355 1.744,0.416 2.69,0.469 0.763,0.045 1.472,0.151 2.171,0.291 0.629,0.13 1.255,0.276 1.908,0.407 1.121,0.942 2.336,1.842 3.576,2.671 2.099,1.393 4.684,2.989 7.45,2.855 0.14,0.969 0.288,1.947 0.454,2.939 0.406,2.454 1.011,4.92 1.611,7.492 0.021,0.087 0.043,0.175 0.064,0.262 -0.645,-0.637 -1.484,-1.114 -2.271,-1.573 -1.707,-0.97 -3.605,-1.983 -5.424,-2.951 -1.857,-0.996 -3.621,-2.08 -5.404,-3.165 -0.141,-0.084 -0.285,-0.159 -0.43,-0.236 -0.213,-0.459 -0.435,-0.908 -0.666,-1.347 -0.305,-2.226 -0.325,-4.239 -1.567,-6.038 -0.023,-0.034 -0.085,0.002 -0.069,0.037 0.148,0.32 0.289,0.643 0.419,0.97 0.127,0.338 0.242,0.68 0.341,1.025 0.197,0.688 0.326,1.394 0.348,2.162 0.008,0.298 -0.004,0.621 0.023,0.938 -1.078,-1.816 -2.42,-3.36 -4.372,-4.351 -0.036,-0.019 -0.077,0.024 -0.043,0.047 0.359,0.245 0.705,0.494 1.036,0.766 0.329,0.28 0.645,0.571 0.946,0.873 0.303,0.302 0.592,0.615 0.869,0.94 0.277,0.329 0.545,0.688 0.8,1.05 0.27,0.381 0.51,0.778 0.73,1.184 0.225,0.417 0.43,0.852 0.624,1.285 0.038,0.087 0.069,0.155 0.099,0.213 -1.422,-0.683 -2.956,-1.132 -4.346,-1.827 -0.012,-0.006 -0.024,0.012 -0.014,0.02 1.145,0.758 2.499,1.205 3.75,1.838 -0.773,-0.044 -1.604,0.124 -2.326,0.235 -0.29,0.045 -0.58,0.078 -0.87,0.105 -0.293,-0.185 -0.612,-0.327 -0.895,-0.537 -0.188,-0.139 -0.365,-0.291 -0.54,-0.445 -0.171,-0.148 -0.344,-0.295 -0.514,-0.442 -0.566,-0.475 -1.167,-0.901 -1.947,-1.026 -0.039,-0.007 -0.054,0.046 -0.02,0.059 0.921,0.374 1.6,0.938 2.314,1.578 0.306,0.282 0.684,0.64 1.101,0.852 -1.584,0.104 -3.176,0.01 -4.763,-0.01 -0.035,-10e-4 -0.043,0.046 -0.007,0.054 1.717,0.362 3.521,0.425 5.28,0.314 1.468,-0.093 2.78,-0.463 4.233,-0.14 0.585,0.369 1.17,0.774 1.747,1.161 0.683,0.461 1.354,0.904 2.07,1.344 0.905,0.55 1.789,1.063 2.679,1.574 0.888,0.51 1.767,1.014 2.643,1.517 1.648,0.904 3.237,1.911 4.733,3.16 0.192,0.792 0.381,1.582 0.583,2.378 0.272,1.092 0.572,2.184 0.837,3.281 -0.064,-0.059 -0.128,-0.118 -0.195,-0.173 -0.689,-0.565 -1.594,-0.977 -2.398,-1.391 -1.932,-0.986 -4.189,-1.416 -6.33,-1.813 -2.065,-0.387 -4.117,-0.756 -6.188,-0.892 -0.002,-0.029 -0.017,-0.059 -0.049,-0.083 -0.481,-0.362 -0.959,-0.714 -1.44,-1.054 -0.035,-0.056 -0.071,-0.114 -0.107,-0.17 -0.059,-0.095 -0.117,-0.188 -0.176,-0.282 -0.054,-0.083 -0.117,-0.205 -0.181,-0.332 -0.247,-0.495 -0.461,-1.011 -0.605,-1.61 -0.147,-0.589 -0.24,-1.134 -0.362,-1.672 -0.123,-0.538 -0.278,-1.073 -0.51,-1.587 -0.009,-0.021 -0.046,-0.013 -0.041,0.012 0.105,0.472 0.177,1.032 0.248,1.617 0.037,0.294 0.076,0.595 0.114,0.896 0.045,0.305 0.11,0.633 0.179,0.942 0.118,0.52 0.27,1.021 0.471,1.473 l -0.704,-0.589 c -0.56,-0.457 -1.136,-0.907 -1.728,-1.333 -0.576,-0.4 -1.176,-0.783 -1.804,-1.144 -0.046,-0.026 -0.078,0.049 -0.041,0.081 0.317,0.261 0.639,0.51 0.96,0.754 0.321,0.241 0.643,0.479 0.979,0.744 0.664,0.516 1.316,1.035 1.929,1.617 0.228,0.235 0.423,0.372 0.629,0.544 0.204,0.167 0.409,0.338 0.621,0.501 0.305,0.236 0.622,0.458 0.963,0.639 -1.802,-0.072 -3.621,0.049 -5.482,0.508 -0.02,0.005 -0.021,0.032 0,0.032 1.801,-0.015 3.582,-0.228 5.38,-0.216 -0.698,0.225 -1.395,0.614 -2.053,1.086 -0.316,0.228 -0.622,0.475 -0.915,0.729 -0.083,0.024 -0.167,0.053 -0.268,0.082 -0.559,0.158 -1.171,0.049 -1.704,-0.045 -0.808,-0.143 -1.582,-0.405 -2.362,-0.601 -0.022,-0.007 -0.035,0.021 -0.014,0.029 0.914,0.332 1.762,0.718 2.757,0.917 0.274,0.055 0.691,0.107 1.082,0.079 -0.773,0.736 -1.413,1.499 -1.817,2.083 -0.015,0.02 0.013,0.046 0.034,0.026 0.949,-0.863 1.878,-1.756 2.924,-2.552 1.472,-1.122 2.843,-1.299 4.611,-1.641 0.021,-0.005 0.039,-0.017 0.054,-0.03 0.946,0.127 1.885,0.312 2.821,0.503 -1.247,0.229 -2.407,0.948 -3.379,1.864 -1.348,1.271 -2.337,2.918 -2.685,4.235 -0.01,0.037 0.055,0.044 0.071,0.013 0.689,-1.271 1.466,-2.426 2.543,-3.518 0.351,-0.356 0.713,-0.651 1.09,-0.9 -0.135,0.298 -0.229,0.603 -0.298,0.854 -0.257,0.94 -0.211,1.924 0.314,2.745 0.012,0.018 0.042,0.006 0.035,-0.015 -0.307,-0.752 -0.227,-1.661 -0.06,-2.458 0.134,-0.645 0.42,-1.113 0.811,-1.583 0.893,-0.435 1.868,-0.695 2.958,-0.958 0.1,0.02 0.2,0.04 0.301,0.059 2.142,0.403 4.243,0.914 6.207,1.827 0.559,0.262 1.133,0.555 1.658,0.898 0.51,0.338 0.98,0.721 1.373,1.16 0.256,1.061 0.522,2.119 0.799,3.174 -1.59,-1.311 -3.25,-2.072 -4.952,-2.258 -0.291,-0.031 -0.58,-0.048 -0.856,-0.048 -2.564,0 -3.977,1.326 -5.224,2.496 -0.166,0.156 -0.329,0.31 -0.493,0.457 -0.263,0.238 -0.512,0.441 -0.761,0.614 -1.083,-0.249 -2.154,-0.603 -3.222,-0.9 -0.149,-0.042 -0.326,0.019 -0.429,0.132 -0.159,0.178 -0.326,0.343 -0.499,0.498 -0.24,-0.137 -0.482,-0.295 -0.733,-0.473 z m 32.398,-17.32 c 0.459,0.052 0.977,0.094 1.535,0.128 -0.556,0.13 -1.069,0.263 -1.52,0.393 -1.722,0.499 -2.014,0.789 -1.95,1.15 0.02,0.109 0.077,0.191 0.164,0.255 -0.745,-0.035 -1.506,0.038 -2.267,0.2 0.045,-0.681 0.181,-1.354 0.399,-2.014 0.134,-0.408 0.298,-0.811 0.485,-1.207 0.209,-0.313 0.444,-0.601 0.697,-0.889 0.234,-0.267 0.485,-0.517 0.748,-0.761 0.238,0.208 0.754,0.431 1.779,0.729 0.375,0.108 0.794,0.218 1.242,0.326 -0.501,0.03 -0.967,0.066 -1.381,0.111 -1.722,0.186 -2.049,0.416 -2.051,0.777 0.002,0.367 0.338,0.604 2.12,0.802 z m 1.571,1.966 c -0.434,0.188 -0.837,0.371 -1.195,0.545 -1.028,0.5 -1.496,0.817 -1.669,1.071 -0.41,-0.429 -0.866,-0.792 -1.372,-1.038 0.245,-0.018 1.915,-0.293 3.12,-0.474 0.344,-0.025 0.716,-0.059 1.116,-0.104 z m -1.904,4.268 c 0.056,0.097 0.176,0.213 0.43,0.213 0.487,0 1.636,-0.474 2.964,-1.134 -0.342,0.323 -0.659,0.634 -0.935,0.92 -1.246,1.288 -1.355,1.684 -1.121,1.966 0.046,0.056 0.151,0.148 0.34,0.148 0.024,0 0.06,-0.011 0.088,-0.015 -1.324,0.673 -2.391,1.723 -3.103,3.734 -0.56,-0.206 -1.194,-0.678 -1.813,-1.138 -0.926,-0.688 -1.884,-1.399 -2.809,-1.399 -0.484,0 -0.913,0.191 -1.278,0.569 -0.831,-0.97 -1.681,-1.461 -2.532,-1.461 -1.123,0 -2.163,0.851 -3.003,2.45 -0.511,0.922 -0.935,2.057 -1.229,3.196 -0.121,-0.443 -0.242,-0.887 -0.362,-1.331 -0.141,-0.561 -0.298,-1.12 -0.457,-1.681 0.363,-0.856 0.999,-1.722 1.398,-2.275 1.036,-1.436 2.449,-2.621 3.926,-3.669 0.087,-0.062 0.176,-0.119 0.265,-0.18 0.01,0 0.018,0.002 0.027,0 1.129,-0.191 2.108,-0.224 3.112,0.041 0.442,0.585 1.081,1.03 1.593,1.571 0.441,0.468 0.823,0.962 1.147,1.49 0.326,0.529 0.595,1.094 0.777,1.673 0.017,0.055 0.109,0.022 0.1,-0.031 -0.037,-0.217 -0.091,-0.442 -0.159,-0.672 -0.074,-0.233 -0.168,-0.477 -0.273,-0.717 -0.213,-0.481 -0.482,-0.964 -0.793,-1.414 -0.431,-0.621 -0.946,-1.177 -1.513,-1.59 0.066,0.029 0.131,0.053 0.197,0.084 0.905,0.426 2.406,1.291 2.878,2.209 0.014,0.025 0.052,0.001 0.033,-0.019 -0.345,-0.395 -0.586,-0.862 -0.934,-1.26 -0.463,-0.532 -1.176,-0.949 -1.793,-1.283 -1.018,-0.552 -2.308,-0.833 -3.502,-0.662 1.388,-0.835 2.864,-1.463 4.389,-1.794 0.051,0.011 0.105,-0.001 0.15,-0.03 0.148,-0.03 0.296,-0.061 0.443,-0.086 0.879,0.129 1.84,0.845 2.448,1.479 v -10e-4 c 0.158,0.139 0.403,0.141 0.499,0.141 0.556,0 1.703,-0.255 3.14,-0.682 -0.479,0.313 -0.916,0.613 -1.296,0.891 -1.448,1.06 -1.622,1.432 -1.439,1.749 z m 4.056,1.266 c -0.47,0.13 -0.92,0.269 -1.349,0.427 0.582,-0.334 1.301,-0.83 2.028,-1.37 -0.248,0.332 -0.471,0.643 -0.679,0.943 z m -17.731,13.523 c 0.453,1.398 0.902,2.781 1.344,4.146 -2.341,-1.458 -3.888,-3.603 -4.884,-6.19 -0.069,-0.181 -0.259,-0.347 -0.467,-0.315 -1.497,0.229 -2.796,0.317 -4.264,-0.252 -0.374,-0.145 -0.929,-0.26 -1.327,-0.177 -0.972,0.201 -1.928,0.175 -2.873,0.032 0.087,-0.074 0.171,-0.148 0.254,-0.224 0.166,-0.15 0.334,-0.308 0.504,-0.467 1.194,-1.121 2.429,-2.28 4.678,-2.28 0.248,0 0.508,0.015 0.771,0.043 1.857,0.202 3.68,1.176 5.422,2.883 0.082,0.3 0.16,0.6 0.248,0.898 0.181,0.645 0.389,1.286 0.594,1.903 z M 456.363,61.6 c 0.415,0.206 0.888,0.423 1.401,0.646 -1.007,-0.12 -1.881,-0.189 -2.515,-0.189 -0.037,0 -0.07,0.002 -0.106,0.002 0.273,-0.229 0.554,-0.445 0.839,-0.654 0.118,0.063 0.243,0.126 0.381,0.195 z m -19.078,40.647 c -0.165,-0.149 -0.328,-0.305 -0.494,-0.451 -0.64,-1.464 -0.857,-2.918 -0.806,-4.368 0.239,-0.821 0.64,-1.499 1.172,-2.262 0.706,-1.013 1.448,-2.218 2.324,-3.089 0.019,-0.018 -0.004,-0.045 -0.025,-0.03 -1.199,0.838 -2.152,2.199 -2.983,3.384 -0.111,0.158 -0.229,0.328 -0.344,0.505 0.305,-1.964 1.024,-3.925 1.821,-5.894 0.013,-0.03 -0.031,-0.048 -0.05,-0.024 -0.705,0.903 -1.372,2.173 -1.871,3.584 -0.13,-0.555 -0.32,-1.106 -0.463,-1.621 -0.311,-1.115 -0.728,-2.122 -1.337,-3.105 -0.047,-0.077 -0.153,-0.016 -0.12,0.064 0.468,1.152 0.818,2.359 1.112,3.566 0.163,0.669 0.242,1.395 0.508,2.033 -0.59,2.061 -0.791,4.312 -0.244,6.139 -0.04,-0.032 -0.078,-0.067 -0.119,-0.099 -0.455,-0.375 -0.905,-0.744 -1.364,-1.086 -0.07,-0.054 -0.14,-0.104 -0.208,-0.158 -0.378,-0.53 -0.793,-1.042 -1.103,-1.625 -0.634,-1.2 -1.018,-2.53 -1.338,-3.844 -0.582,-2.393 -0.791,-5.111 -0.47,-7.558 0.005,-0.041 -0.064,-0.055 -0.074,-0.014 -0.397,1.922 -0.486,3.758 -0.306,5.627 -0.893,-1.64 -2.466,-3.112 -3.453,-4.528 -0.013,-0.019 -0.041,0.001 -0.031,0.021 0.55,1.046 1.216,2 1.91,2.955 0.67,0.919 1.157,1.931 1.747,2.887 0.067,0.41 0.143,0.823 0.236,1.241 0.219,0.986 0.58,2.365 1.15,3.574 -0.246,-0.175 -0.491,-0.346 -0.737,-0.504 -0.273,-0.178 -0.537,-0.354 -0.8,-0.527 -0.449,-0.606 -2.22,-1.478 -3.528,-2.084 -0.113,-0.061 -0.228,-0.122 -0.338,-0.179 -0.662,-0.334 -1.232,-0.646 -1.711,-0.865 -0.17,-0.079 -0.32,-0.15 -0.463,-0.217 -0.536,-0.3 -1.083,-0.603 -1.639,-0.898 -0.442,-0.601 -0.716,-1.255 -1.08,-1.917 -0.442,-0.798 -0.908,-1.57 -1.255,-2.418 -0.022,-0.055 -0.103,-0.019 -0.092,0.034 0.184,1.024 0.77,1.884 1.266,2.783 0.214,0.391 0.374,0.839 0.605,1.229 -1.267,-0.648 -2.57,-1.225 -3.878,-1.546 -0.052,-0.013 -0.072,0.057 -0.025,0.078 1.383,0.621 2.724,1.356 4.059,2.102 -0.116,-0.006 -0.233,-0.009 -0.348,-0.011 -1.543,-0.029 -3.147,-0.338 -4.6,0.317 -0.026,0.012 -0.012,0.052 0.016,0.047 2.256,-0.409 4.578,-0.049 6.73,0.644 0.488,0.268 0.979,0.526 1.474,0.778 0.205,0.124 0.416,0.252 0.644,0.386 0.626,0.375 1.314,0.838 2.066,1.329 0.37,0.255 0.756,0.521 1.155,0.796 0.399,0.274 0.794,0.583 1.21,0.886 0.419,0.301 0.826,0.637 1.25,0.972 0.316,0.244 0.629,0.506 0.942,0.772 -1.552,-0.407 -3.171,-0.677 -4.671,-0.998 -1.694,-0.364 -3.409,-0.666 -5.135,-0.871 -0.338,-0.155 -0.682,-0.273 -1.004,-0.49 -0.344,-0.23 -0.645,-0.528 -0.942,-0.813 -0.563,-0.536 -1.107,-1.083 -1.823,-1.406 -0.02,-0.009 -0.033,0.021 -0.018,0.033 0.736,0.544 1.31,1.231 1.929,1.897 0.199,0.213 0.429,0.445 0.68,0.653 -1.156,-0.106 -2.314,-0.167 -3.475,-0.165 -0.024,0 -0.026,0.034 -0.003,0.037 1.521,0.218 3.036,0.448 4.546,0.705 0.003,0 0.005,0.002 0.007,0.002 -1.249,0.41 -2.444,1.454 -2.868,2.587 -0.022,0.06 0.058,0.103 0.103,0.063 0.581,-0.518 1.025,-1.141 1.659,-1.614 0.656,-0.49 1.373,-0.626 2.122,-0.854 1.162,0.208 2.322,0.428 3.48,0.678 2.267,0.489 4.559,1.372 6.855,1.815 0.055,0.051 0.11,0.1 0.166,0.15 0.054,0.048 0.106,0.1 0.16,0.148 -1.963,-0.159 -4.112,0.144 -6.168,0.724 -0.591,-0.119 -1.204,-0.081 -1.807,-0.091 -0.934,-0.015 -1.854,-0.18 -2.789,-0.178 -0.007,0 -0.01,0.011 -0.003,0.013 0.799,0.22 1.611,0.334 2.426,0.477 0.312,0.055 0.623,0.121 0.934,0.169 -1.479,0.503 -2.876,1.129 -4.074,1.804 -0.018,0.01 -0.011,0.04 0.012,0.035 1.613,-0.364 3.172,-0.938 4.759,-1.416 -0.184,0.293 -0.326,0.604 -0.424,0.813 -0.414,0.89 -0.809,1.975 -0.75,2.965 10e-4,0.011 0.016,0.02 0.022,0.008 0.366,-0.7 0.499,-1.493 0.767,-2.234 0.164,-0.455 0.372,-0.89 0.625,-1.301 0.117,-0.188 0.263,-0.321 0.416,-0.441 0.279,-0.077 0.559,-0.151 0.839,-0.219 1.999,-0.478 3.927,-0.527 5.948,-0.438 0.125,0.121 0.25,0.241 0.376,0.363 0.128,0.125 0.251,0.258 0.379,0.385 -2.165,0.416 -4.447,3.451 -4.946,5.475 -2.194,-0.808 -4.274,0.119 -5.858,1.756 -0.901,-2.457 -2.547,-4.973 -5.368,-4.717 -0.389,-2.049 -0.31,-3.824 -2.04,-5.365 -0.665,-0.593 -1.478,-1.052 -2.249,-1.486 -0.041,-0.023 0.318,-3.192 0.296,-3.592 -0.045,-0.813 -0.431,-1.357 -0.924,-1.967 -0.568,-0.699 0.376,-2.009 0.563,-2.786 0.263,-1.101 0.353,-2.565 -0.236,-3.603 2.287,-0.125 4.564,-0.349 6.73,-1.15 1.025,-0.379 1.939,-0.973 2.762,-1.684 0.413,-0.356 2.052,0.414 2.498,0.541 0.841,0.239 1.689,0.387 2.557,0.485 0.681,0.077 1.343,0.048 2.015,-0.069 0.934,-0.163 1.414,0.337 2.18,0.453 0.761,0.116 1.455,0.148 2.229,0.112 1.18,-0.055 1.13,-0.027 1.622,1.019 1.029,2.187 2.663,3.946 4.701,5.198 -1.316,1.879 -2.287,3.96 -1.933,6.271 -2.053,0.677 -3.274,2.305 -3.555,4.303 z m 6.765,7.485 c -0.685,-0.925 -1.416,-1.863 -2.199,-2.783 -0.774,-0.927 -1.618,-1.819 -2.468,-2.701 -0.455,-0.457 -0.916,-0.906 -1.382,-1.347 0.458,-1.995 1.038,-3.622 3.487,-4.22 0.255,-0.063 0.337,-0.34 0.289,-0.564 -0.474,-2.227 0.562,-4.244 1.822,-6.004 0.205,0.633 0.409,1.262 0.611,1.886 0.768,2.348 1.505,4.602 2.207,6.746 0.348,1.063 0.685,2.099 1.014,3.1 0.152,0.503 0.345,0.983 0.525,1.455 0.089,0.232 0.177,0.462 0.263,0.688 0.079,0.245 0.156,0.487 0.233,0.728 0.633,1.922 1.156,3.776 1.587,5.442 0.202,0.852 0.367,1.638 0.485,2.394 0.106,0.764 0.229,1.45 0.291,2.098 0.055,0.652 0.104,1.233 0.146,1.74 0.032,0.511 0.018,0.964 0.025,1.322 0.001,0.118 0.001,0.224 0.002,0.323 -0.179,-0.116 -0.365,-0.225 -0.569,-0.317 -0.044,-0.045 -0.083,-0.091 -0.129,-0.135 -0.169,-0.159 -0.352,-0.303 -0.536,-0.445 -0.05,-0.089 -0.102,-0.182 -0.156,-0.282 -0.248,-0.464 -0.549,-1.028 -0.894,-1.674 -0.346,-0.655 -0.76,-1.39 -1.217,-2.186 -0.46,-0.796 -0.979,-1.647 -1.547,-2.536 -0.578,-0.882 -1.204,-1.803 -1.89,-2.728 z m 5.872,10.72 c 0.002,0.025 10e-4,0.052 0.003,0.074 -0.052,-0.05 -0.102,-0.101 -0.157,-0.147 0.052,0.022 0.102,0.049 0.154,0.073 z m -7.694,-0.353 c -0.505,-0.667 -1.613,-1.69 -0.611,-2.186 1.18,-0.584 2.571,-0.792 3.848,-0.447 0.906,0.245 1.816,0.729 2.65,1.306 -0.402,0.318 -0.756,0.715 -0.97,0.979 -0.608,0.751 -1.254,1.876 -1.42,2.887 -1.383,-0.392 -2.481,-1.199 -3.497,-2.539 z m 4.988,2.797 c -0.423,-0.035 -0.82,-0.095 -1.197,-0.184 0.474,-0.713 0.782,-1.574 1.26,-2.286 0.319,-0.476 0.71,-0.89 1.168,-1.232 0.043,-0.032 0.089,-0.06 0.134,-0.086 0.28,0.214 0.549,0.435 0.802,0.66 -0.463,0.358 -0.871,0.862 -1.13,1.21 -0.293,0.396 -0.525,0.84 -0.75,1.276 -0.1,0.192 -0.251,0.416 -0.287,0.642 z m 0.613,0.033 c -0.085,-0.002 -0.169,-0.007 -0.253,-0.011 0.043,-0.065 0.082,-0.136 0.122,-0.209 0.238,-0.448 0.486,-0.888 0.773,-1.308 0.279,-0.408 0.594,-0.777 0.969,-1.101 0.034,-0.03 0.075,-0.051 0.112,-0.077 0.03,0.045 0.073,0.082 0.128,0.111 -0.016,0.011 -0.026,0.032 -0.017,0.052 0.367,0.726 0.604,1.428 0.724,2.135 -0.574,0.533 -2.259,0.415 -2.558,0.408 z M 464.99,85.724 c -0.026,3.353 -0.017,6.917 -0.273,10.441 -0.131,1.762 -0.328,3.513 -0.635,5.209 -0.308,1.697 -0.72,3.339 -1.242,4.879 -0.524,1.539 -1.142,2.984 -1.86,4.28 -0.17,0.329 -0.37,0.636 -0.549,0.947 -0.089,0.148 -0.176,0.296 -0.264,0.441 -0.101,0.153 -0.202,0.305 -0.302,0.456 -0.201,0.295 -0.394,0.608 -0.592,0.874 -0.196,0.265 -0.389,0.525 -0.578,0.779 -0.181,0.26 -0.4,0.489 -0.593,0.725 -0.201,0.229 -0.378,0.474 -0.586,0.674 -0.41,0.407 -0.773,0.822 -1.172,1.142 -0.192,0.168 -0.38,0.33 -0.56,0.486 -0.003,0.003 -0.006,0.004 -0.008,0.006 0.027,-0.075 0.056,-0.15 0.085,-0.228 0.254,-0.61 0.417,-1.301 0.626,-2.019 0.111,-0.357 0.162,-0.736 0.249,-1.117 0.071,-0.383 0.173,-0.771 0.217,-1.172 0.056,-0.399 0.112,-0.805 0.169,-1.216 0.055,-0.41 0.075,-0.827 0.113,-1.246 0.088,-0.839 0.085,-1.69 0.118,-2.54 -0.012,-0.85 -0.001,-1.698 -0.054,-2.529 -0.027,-0.834 -0.099,-1.648 -0.163,-2.438 -0.014,-0.145 -0.028,-0.283 -0.043,-0.425 0.052,-0.285 0.102,-0.535 0.252,-0.778 0.267,-0.43 0.726,-0.784 1.213,-1.159 0.348,-0.268 0.708,-0.546 1.014,-0.867 1.087,-1.144 1.605,-2.21 1.582,-3.261 -0.003,-0.096 -0.042,-0.187 -0.112,-0.252 -0.069,-0.066 -0.16,-0.099 -0.257,-0.099 -0.338,0.011 -0.654,0.097 -0.948,0.208 0.416,-0.737 0.739,-1.422 0.981,-2.186 0.04,-0.125 0.007,-0.263 -0.084,-0.356 -0.092,-0.095 -0.229,-0.132 -0.354,-0.096 -0.164,0.046 -0.325,0.095 -0.48,0.154 -0.058,-0.612 -0.08,-1.23 0.197,-1.776 0.104,-0.206 0.298,-0.396 0.503,-0.599 0.214,-0.211 0.436,-0.43 0.587,-0.697 0.065,-0.116 0.06,-0.26 -0.014,-0.371 -0.072,-0.112 -0.2,-0.173 -0.336,-0.16 -0.136,0.015 -0.489,0.13 -0.824,0.292 0.065,-0.254 0.129,-0.473 0.189,-0.679 0.045,-0.152 0.089,-0.3 0.13,-0.451 0.036,-0.095 0.071,-0.188 0.106,-0.282 0.09,-0.244 0.176,-0.475 0.294,-0.695 0.195,-0.423 0.429,-0.814 0.652,-1.192 0.104,-0.173 0.203,-0.34 0.292,-0.5 0.289,-0.498 0.516,-0.98 0.642,-1.368 0.068,-0.233 0.228,-0.778 -0.144,-1.001 -0.237,-0.142 -0.529,-0.063 -0.932,0.306 -0.276,0.237 -0.618,0.594 -1.006,1.001 -0.2,0.212 -0.425,0.469 -0.669,0.755 l -0.108,0.14 c -0.029,0.039 -0.063,0.084 -0.093,0.124 0.075,-0.247 0.146,-0.487 0.208,-0.718 l 0.012,-0.03 c 0.103,-0.267 0.201,-0.518 0.286,-0.759 0.05,-0.152 0.101,-0.298 0.148,-0.435 0.109,-0.314 0.203,-0.585 0.249,-0.81 0.045,-0.199 0.166,-0.729 -0.199,-0.938 -0.236,-0.136 -0.525,-0.058 -0.916,0.311 -0.218,0.213 -0.544,0.555 -0.877,1.062 -0.158,0.234 -0.33,0.495 -0.52,0.813 -0.035,0.074 -0.073,0.155 -0.108,0.232 0.013,-0.102 0.023,-0.204 0.037,-0.305 0.035,-0.267 0.067,-0.519 0.081,-0.741 0.146,-1.499 0.037,-2.064 -0.415,-2.162 l -0.098,-0.011 c -0.295,0 -0.647,0.215 -1.232,1.777 l -0.095,0.273 c -0.08,0.23 -0.166,0.477 -0.245,0.745 l -0.088,-0.864 c -0.068,-0.614 -0.179,-1.125 -0.315,-1.469 -0.166,-0.445 -0.411,-0.69 -0.69,-0.69 l -0.093,0.01 c -0.344,0.073 -0.416,0.425 -0.494,0.807 -0.056,0.306 -0.119,0.729 -0.197,1.334 -0.035,0.271 -0.064,0.576 -0.092,0.936 -0.065,-0.188 -0.129,-0.367 -0.188,-0.528 -0.533,-1.504 -0.82,-1.963 -1.229,-1.963 l -0.08,0.008 c -0.218,0.038 -0.67,0.119 -0.434,2.36 0.066,0.595 0.19,1.286 0.341,2.019 -0.312,-0.497 -0.628,-0.934 -0.907,-1.316 -0.94,-1.238 -1.312,-1.408 -1.575,-1.408 -0.082,0 -0.162,0.021 -0.231,0.06 -0.34,0.192 -0.415,0.635 0.257,2.239 0.034,0.089 0.079,0.186 0.118,0.278 -0.168,-0.134 -0.32,-0.251 -0.465,-0.355 -0.27,-0.185 -0.525,-0.352 -0.769,-0.503 -1.227,-0.718 -1.605,-0.718 -1.73,-0.718 -0.234,0 -0.363,0.104 -0.431,0.191 -0.279,0.361 -0.002,0.867 1.053,1.929 0.183,0.194 0.386,0.4 0.598,0.608 l 0.643,0.672 0.13,0.152 c 0.386,0.451 0.784,0.918 1.117,1.49 0.139,0.199 0.248,0.415 0.364,0.643 0.045,0.089 0.09,0.178 0.135,0.262 l 0.153,0.305 c -0.298,-0.062 -0.57,-0.09 -0.66,-0.09 -0.031,0 -0.06,0.002 -0.083,0.004 -0.133,0.014 -0.246,0.101 -0.296,0.225 -0.049,0.125 -0.024,0.266 0.064,0.366 0.201,0.231 0.463,0.399 0.716,0.563 0.242,0.156 0.472,0.303 0.616,0.482 0.384,0.478 0.487,1.088 0.556,1.698 -0.163,-0.026 -0.331,-0.04 -0.501,-0.052 -0.132,-0.009 -0.257,0.055 -0.327,0.166 -0.069,0.111 -0.073,0.252 -0.009,0.367 0.394,0.697 0.85,1.301 1.409,1.938 -0.317,-0.05 -0.664,-0.063 -0.971,-0.008 -0.095,0.017 -0.178,0.069 -0.232,0.149 -0.055,0.078 -0.074,0.175 -0.057,0.269 0.193,1.035 0.918,1.973 2.216,2.868 0.365,0.251 0.775,0.449 1.17,0.641 0.553,0.267 1.076,0.52 1.425,0.886 0.058,0.06 0.103,0.122 0.146,0.185 0.02,0.301 0.039,0.603 0.055,0.914 0.028,0.772 0.065,1.57 0.056,2.38 0.017,0.809 -0.03,1.629 -0.054,2.447 -0.031,0.408 -0.061,0.815 -0.093,1.222 -0.023,0.406 -0.071,0.808 -0.126,1.204 -0.055,0.396 -0.091,0.793 -0.161,1.178 -0.071,0.384 -0.141,0.763 -0.21,1.136 -0.058,0.376 -0.171,0.73 -0.254,1.083 -0.095,0.349 -0.157,0.701 -0.276,1.023 -0.222,0.648 -0.396,1.275 -0.651,1.811 -0.116,0.272 -0.227,0.533 -0.333,0.782 -0.112,0.243 -0.245,0.461 -0.355,0.672 -0.108,0.202 -0.209,0.392 -0.306,0.565 -0.047,-0.521 -0.1,-1.11 -0.158,-1.769 -0.079,-0.69 -0.207,-1.421 -0.328,-2.233 -0.14,-0.795 -0.313,-1.628 -0.531,-2.509 -0.468,-1.709 -1.032,-3.613 -1.697,-5.54 -0.081,-0.238 -0.163,-0.479 -0.246,-0.723 -0.094,-0.233 -0.188,-0.47 -0.283,-0.708 -0.095,-0.233 -0.189,-0.47 -0.286,-0.707 -0.09,-0.24 -0.171,-0.487 -0.258,-0.734 -0.343,-0.991 -0.698,-2.016 -1.062,-3.069 -0.736,-2.128 -1.514,-4.377 -2.314,-6.69 -0.807,-2.354 -1.639,-4.785 -2.484,-7.256 -0.529,-1.493 -0.989,-3.027 -1.427,-4.577 0.214,-1.445 0.715,-3.146 1.463,-4.499 0.398,-0.759 1.228,-2.031 2.302,-2.031 0.698,0 1.443,0.519 2.215,1.543 0.078,0.104 0.204,0.162 0.332,0.158 0.13,-0.005 0.25,-0.072 0.321,-0.181 0.367,-0.563 0.714,-0.629 0.942,-0.629 0.661,0 1.511,0.631 2.332,1.242 0.817,0.606 1.662,1.234 2.483,1.373 0.194,0.033 0.387,-0.084 0.445,-0.274 0.822,-2.605 2.164,-3.515 4.079,-4.14 -0.56,0.938 -0.548,1.251 -0.316,1.445 0.073,0.062 0.166,0.094 0.268,0.094 0.469,0 1.579,-1.04 2.609,-2.124 -0.212,0.423 -0.404,0.824 -0.567,1.189 -0.73,1.636 -0.697,2.046 -0.381,2.23 0.061,0.035 0.131,0.054 0.203,0.054 0.494,0 1.515,-1.361 2.424,-2.742 -0.163,0.543 -0.305,1.05 -0.416,1.503 -0.43,1.74 -0.324,2.138 0.021,2.264 l 0.079,0.024 h 0.056 c 0.478,0 1.213,-1.386 1.87,-2.894 -0.053,0.462 -0.095,0.897 -0.123,1.289 -0.127,1.788 0.044,2.162 0.405,2.228 l 0.069,0.006 c 0.077,0 0.155,-0.04 0.232,-0.106 -0.059,0.101 -0.115,0.202 -0.18,0.298 -0.104,2.092 -0.145,4.375 -0.16,6.764 z M 453.346,97.08 c -0.668,-0.704 -1.203,-1.313 -1.651,-1.966 0.022,0.009 0.044,0.017 0.065,0.027 0.117,0.055 0.255,0.042 0.36,-0.033 0.104,-0.075 0.161,-0.202 0.147,-0.331 l -0.028,-0.267 c -0.065,-0.627 -0.138,-1.323 -0.482,-1.946 1.063,0.424 2.329,0.585 3.681,0.469 1.468,-0.128 2.795,-0.563 3.852,-1.265 -0.21,0.68 -0.138,1.377 -0.073,2.004 l 0.027,0.268 c 0.012,0.129 0.092,0.241 0.211,0.294 0.118,0.052 0.255,0.036 0.359,-0.041 0.019,-0.014 0.039,-0.027 0.059,-0.041 -0.304,0.732 -0.704,1.437 -1.214,2.263 -0.08,0.132 -0.067,0.3 0.031,0.419 0.101,0.117 0.264,0.158 0.408,0.101 0.151,-0.062 0.305,-0.132 0.459,-0.203 0.292,-0.136 0.572,-0.265 0.858,-0.337 -0.107,0.734 -0.547,1.49 -1.359,2.345 -0.267,0.281 -0.605,0.542 -0.933,0.794 -0.516,0.397 -1.049,0.809 -1.384,1.349 -0.119,0.193 -0.194,0.386 -0.247,0.571 -0.088,-0.165 -0.198,-0.332 -0.351,-0.493 -0.439,-0.461 -1.046,-0.754 -1.632,-1.037 -0.372,-0.18 -0.756,-0.365 -1.075,-0.585 -0.969,-0.67 -1.555,-1.319 -1.811,-2.017 0.299,0.013 0.608,0.084 0.91,0.153 0.165,0.038 0.329,0.076 0.491,0.106 0.151,0.027 0.304,-0.047 0.378,-0.184 0.073,-0.138 0.05,-0.306 -0.056,-0.417 z m 1.911,-8.322 c 0.005,0.1 0.008,0.199 0.011,0.302 0.012,0.379 0.029,0.748 0.052,1.105 0.048,0.747 0.136,1.401 0.262,1.942 0.014,0.064 0.03,0.123 0.046,0.183 -0.053,0.006 -0.104,0.013 -0.155,0.018 -0.05,-0.434 -0.102,-0.85 -0.159,-1.251 -0.11,-0.722 -0.247,-1.619 -0.45,-2.524 -0.116,-0.501 -0.242,-0.981 -0.371,-1.44 -0.004,-0.024 -0.008,-0.048 -0.011,-0.072 l -0.026,-0.2 c -0.02,-0.138 -0.038,-0.274 -0.047,-0.399 l -0.021,-0.623 c -0.016,-0.283 0.004,-0.548 0.022,-0.803 0.007,-0.09 0.013,-0.178 0.018,-0.26 0.025,-0.35 0.056,-0.66 0.09,-0.922 0.063,-0.481 0.114,-0.844 0.159,-1.115 0.087,0.283 0.16,0.668 0.209,1.108 l 0.096,0.927 c 0.012,0.118 0.02,0.241 0.029,0.366 0.016,0.225 0.031,0.455 0.067,0.672 l 0.066,0.546 c 0.016,0.115 0.04,0.233 0.063,0.352 0.015,0.074 0.029,0.148 0.042,0.222 0.009,0.053 0.021,0.109 0.03,0.164 -0.012,0.266 -0.022,0.534 -0.029,0.807 -0.015,0.33 -0.004,0.617 0.007,0.895 z m -0.653,2.404 c 0.056,0.382 0.105,0.776 0.151,1.187 -0.187,0.004 -0.369,10e-4 -0.551,-0.008 -0.09,-0.313 -0.183,-0.661 -0.281,-1.058 -0.141,-0.55 -0.265,-1.114 -0.395,-1.711 l -0.152,-0.694 c -0.367,-1.585 -0.746,-3.226 -0.883,-4.422 -0.054,-0.516 -0.066,-0.892 -0.059,-1.156 0.103,0.228 0.24,0.566 0.419,1.07 0.367,1.013 0.903,2.563 1.312,4.321 0.197,0.878 0.332,1.763 0.439,2.471 z m -1.858,-1.819 0.084,0.382 c 0.132,0.604 0.256,1.174 0.4,1.734 0.073,0.295 0.143,0.562 0.213,0.811 -0.004,0 -0.008,-10e-4 -0.011,-0.002 -0.126,-0.333 -0.267,-0.68 -0.424,-1.049 l -0.155,-0.368 c -0.064,-0.15 -0.129,-0.304 -0.189,-0.465 l -0.293,-0.684 c -0.156,-0.344 -0.318,-0.699 -0.539,-1.021 -0.188,-0.321 -0.403,-0.608 -0.627,-0.879 -0.033,-0.077 -0.07,-0.153 -0.103,-0.23 -0.1,-0.22 -0.198,-0.432 -0.293,-0.637 -0.18,-0.386 -0.349,-0.75 -0.48,-1.079 -0.193,-0.463 -0.307,-0.788 -0.371,-1.013 0.164,0.171 0.393,0.435 0.703,0.845 0.324,0.443 0.691,0.946 1.045,1.548 l 0.079,0.142 c 0.343,0.609 0.695,1.24 0.961,1.965 z m -1.518,-0.279 c 0.2,0.291 0.348,0.618 0.491,0.934 l 0.276,0.645 c 0.064,0.167 0.132,0.331 0.2,0.489 l 0.154,0.365 c 0.087,0.206 0.168,0.402 0.245,0.594 -0.255,-0.071 -0.5,-0.156 -0.732,-0.257 -0.032,-0.014 -0.057,-0.033 -0.086,-0.05 -0.068,-0.115 -0.136,-0.229 -0.205,-0.353 -0.086,-0.149 -0.17,-0.307 -0.25,-0.478 l -0.257,-0.512 c -0.044,-0.083 -0.086,-0.166 -0.13,-0.251 -0.121,-0.24 -0.247,-0.488 -0.398,-0.703 -0.349,-0.604 -0.789,-1.118 -1.178,-1.572 l -0.808,-0.862 c -0.214,-0.208 -0.41,-0.408 -0.592,-0.602 -0.347,-0.349 -0.566,-0.599 -0.707,-0.776 0.209,0.089 0.509,0.236 0.931,0.484 0.228,0.141 0.474,0.302 0.726,0.474 0.224,0.163 0.472,0.358 0.786,0.618 0.515,0.479 1.097,1.065 1.534,1.813 z m 4.737,-1.178 c 0.011,-0.417 0.027,-0.825 0.049,-1.219 0.013,-0.25 0.063,-0.503 0.112,-0.747 0.022,-0.116 0.045,-0.229 0.063,-0.344 0.094,-0.569 0.266,-1.06 0.416,-1.491 l 0.094,-0.27 c 0.169,-0.452 0.307,-0.754 0.413,-0.954 0.003,0.227 -0.008,0.563 -0.055,1.052 -0.015,0.22 -0.046,0.456 -0.078,0.707 -0.044,0.33 -0.093,0.706 -0.109,1.088 -0.006,0.126 -0.021,0.253 -0.034,0.382 -0.024,0.214 -0.049,0.435 -0.046,0.67 10e-4,0.356 -0.003,0.724 -0.015,1.091 -0.011,0.217 -0.011,0.454 -0.01,0.689 0.001,0.166 0.002,0.331 -0.003,0.485 l -0.116,2.881 c -0.004,0.074 -0.005,0.137 -0.007,0.206 -0.1,0.023 -0.2,0.048 -0.302,0.068 -0.021,-0.075 -0.041,-0.147 -0.06,-0.231 -0.117,-0.506 -0.199,-1.121 -0.245,-1.83 -0.022,-0.35 -0.039,-0.711 -0.05,-1.08 -0.003,-0.104 -0.007,-0.206 -0.011,-0.31 -0.009,-0.274 -0.02,-0.535 -0.006,-0.843 z m 3.231,-3.335 c -0.08,0.229 -0.175,0.472 -0.274,0.731 l -0.031,0.084 c -0.076,0.282 -0.163,0.579 -0.26,0.886 l -0.489,2.193 c -0.044,0.187 -0.087,0.365 -0.13,0.545 -0.067,0.213 -0.127,0.416 -0.174,0.601 -0.097,0.361 -0.201,0.72 -0.303,1.072 -0.05,0.169 -0.096,0.331 -0.143,0.494 l 0.086,-2.109 c 0.004,-0.164 0.004,-0.337 0.003,-0.511 -10e-4,-0.222 -0.003,-0.443 0.01,-0.656 0.002,-0.075 0.001,-0.146 0.003,-0.22 0.043,-0.171 0.089,-0.351 0.14,-0.542 l 0.229,-0.82 0.104,-0.243 c 0.149,-0.343 0.296,-0.665 0.422,-0.932 0.167,-0.276 0.332,-0.526 0.487,-0.757 0.239,-0.366 0.47,-0.629 0.657,-0.822 -0.045,0.16 -0.112,0.353 -0.187,0.566 -0.048,0.141 -0.1,0.289 -0.15,0.44 z m 0.29,2.825 c 0.164,-0.287 0.355,-0.534 0.541,-0.773 l 0.098,-0.128 c 0.224,-0.262 0.439,-0.51 0.633,-0.713 0.305,-0.32 0.579,-0.607 0.812,-0.822 -0.117,0.3 -0.297,0.666 -0.513,1.039 -0.089,0.158 -0.185,0.32 -0.286,0.488 -0.223,0.375 -0.475,0.801 -0.677,1.237 -0.133,0.246 -0.23,0.511 -0.325,0.768 -0.036,0.095 -0.071,0.191 -0.109,0.288 l -0.012,0.037 c -0.042,0.153 -0.085,0.301 -0.131,0.454 -0.065,0.225 -0.135,0.463 -0.206,0.74 -0.106,0.396 -0.227,0.769 -0.35,1.131 -0.293,0.201 -0.616,0.379 -0.964,0.534 0.072,-0.259 0.146,-0.521 0.226,-0.793 0.104,-0.358 0.21,-0.722 0.309,-1.093 0.093,-0.366 0.24,-0.812 0.384,-1.244 l 0.055,-0.125 c 0.158,-0.368 0.309,-0.714 0.515,-1.025 z m 6.66,-10.42 c 0.152,-0.488 0.299,-1.039 0.434,-1.606 0.001,0.035 0.005,0.068 0.006,0.104 -0.075,0.504 -0.242,1.015 -0.44,1.502 z m 8.845,-10.686 h 0.22 c 0.088,0 0.173,-10e-4 0.26,-10e-4 2.351,0.438 4.036,0.901 4.816,1.209 -0.065,0.003 -0.139,0.004 -0.221,0.004 -1.092,0 -3.011,-0.218 -5.047,-0.568 -0.063,-0.023 -0.125,-0.047 -0.189,-0.071 -0.438,-0.161 -0.861,-0.309 -1.277,-0.45 -0.064,0.289 -0.151,0.57 -0.257,0.844 0.451,0.091 0.911,0.18 1.387,0.264 0.059,0.011 0.115,0.02 0.174,0.029 2.384,0.89 4.064,1.691 4.807,2.149 -0.848,-0.125 -2.524,-0.57 -4.794,-1.383 -0.145,-0.087 -0.293,-0.173 -0.442,-0.259 -0.387,-0.224 -0.783,-0.444 -1.182,-0.662 -0.118,0.288 -0.262,0.562 -0.421,0.825 0.428,0.17 0.866,0.339 1.319,0.507 0.153,0.056 0.305,0.111 0.456,0.165 2.062,1.217 3.487,2.23 4.112,2.785 -0.874,-0.288 -2.629,-1.115 -4.759,-2.333 -0.052,-0.045 -0.103,-0.09 -0.156,-0.134 -0.309,-0.262 -0.667,-0.557 -1.049,-0.864 -0.159,0.249 -0.335,0.485 -0.528,0.708 0.393,0.239 0.796,0.481 1.215,0.723 0.049,0.029 0.099,0.058 0.148,0.086 1.942,1.656 3.253,2.987 3.791,3.672 -0.736,-0.402 -2.188,-1.414 -4.043,-2.954 -0.107,-0.128 -0.213,-0.257 -0.321,-0.387 -0.107,-0.126 -0.441,-0.523 -0.889,-1.03 -0.208,0.229 -0.431,0.443 -0.671,0.639 0.344,0.305 0.696,0.613 1.064,0.925 0.115,0.097 0.237,0.199 0.364,0.304 1.523,1.851 2.523,3.298 2.921,4.033 -0.685,-0.543 -2.02,-1.866 -3.678,-3.827 -0.032,-0.059 -0.066,-0.116 -0.099,-0.175 -0.158,-0.276 -0.4,-0.693 -0.689,-1.173 -0.233,0.18 -0.479,0.345 -0.736,0.489 0.286,0.359 0.581,0.723 0.892,1.093 0.025,0.029 0.064,0.077 0.114,0.136 1.258,2.22 2.03,3.915 2.303,4.742 -0.555,-0.63 -1.57,-2.068 -2.787,-4.15 -0.057,-0.159 -0.113,-0.319 -0.172,-0.481 -0.127,-0.348 -0.29,-0.788 -0.478,-1.269 -0.272,0.144 -0.559,0.265 -0.854,0.366 0.218,0.404 0.444,0.814 0.684,1.234 0.067,0.116 0.149,0.259 0.243,0.419 0.798,2.26 1.238,3.953 1.36,4.779 -0.457,-0.744 -1.258,-2.439 -2.146,-4.849 -0.012,-0.067 -0.021,-0.135 -0.033,-0.203 -0.071,-0.406 -0.152,-0.859 -0.244,-1.331 -0.279,0.088 -0.568,0.151 -0.864,0.198 0.147,0.437 0.3,0.88 0.465,1.334 0.021,0.055 0.04,0.111 0.061,0.17 0.423,2.515 0.569,4.371 0.542,5.24 -0.306,-0.78 -0.768,-2.479 -1.199,-4.852 0.002,-0.17 0.004,-0.34 0.004,-0.512 0,-0.464 -0.008,-0.915 -0.019,-1.358 -0.266,0.036 -0.536,0.062 -0.813,0.062 -0.038,0 -0.074,-0.005 -0.112,-0.006 0.067,0.454 0.139,0.917 0.222,1.393 0.026,0.153 0.054,0.314 0.083,0.479 -0.022,2.395 -0.188,4.136 -0.355,4.954 -0.176,-0.855 -0.348,-2.72 -0.358,-5.285 0.014,-0.07 0.026,-0.14 0.038,-0.207 0.083,-0.457 0.155,-0.903 0.223,-1.342 -0.297,-0.012 -0.591,-0.043 -0.876,-0.098 -0.012,0.459 -0.019,0.927 -0.019,1.408 0,0.06 10e-4,0.118 10e-4,0.178 -0.463,2.509 -0.961,4.305 -1.284,5.113 -0.021,-0.839 0.127,-2.593 0.532,-4.968 0.065,-0.174 0.125,-0.337 0.178,-0.482 0.158,-0.435 0.306,-0.859 0.447,-1.278 -0.307,-0.066 -0.604,-0.159 -0.891,-0.271 -0.1,0.492 -0.189,0.965 -0.265,1.387 -0.029,0.159 -0.057,0.317 -0.083,0.475 -0.842,2.245 -1.594,3.826 -2.031,4.538 0.128,-0.863 0.604,-2.676 1.472,-5.09 0.038,-0.064 0.075,-0.126 0.107,-0.181 0.232,-0.4 0.453,-0.792 0.665,-1.179 -0.273,-0.114 -0.535,-0.252 -0.788,-0.403 -0.195,0.502 -0.367,0.962 -0.499,1.323 -0.021,0.056 -0.039,0.111 -0.06,0.167 -1.294,2.2 -2.376,3.717 -2.956,4.366 0.269,-0.796 1.007,-2.395 2.201,-4.49 0.159,-0.186 0.276,-0.323 0.33,-0.389 0.299,-0.356 0.584,-0.706 0.86,-1.053 -0.263,-0.166 -0.511,-0.352 -0.744,-0.555 -0.306,0.496 -0.561,0.929 -0.726,1.213 -0.08,0.138 -0.158,0.273 -0.237,0.41 -1.558,1.822 -2.809,3.059 -3.464,3.577 0.415,-0.768 1.486,-2.312 3.129,-4.284 0.052,-0.043 0.106,-0.088 0.156,-0.129 0.357,-0.298 0.7,-0.593 1.035,-0.885 -0.218,-0.198 -0.423,-0.409 -0.609,-0.638 -0.463,0.524 -0.813,0.938 -0.921,1.066 -0.037,0.044 -0.073,0.088 -0.109,0.132 -1.969,1.625 -3.509,2.686 -4.275,3.097 0.523,-0.655 1.771,-1.909 3.61,-3.469 0.147,-0.083 0.293,-0.166 0.438,-0.25 0.402,-0.231 0.79,-0.464 1.169,-0.695 -0.189,-0.243 -0.362,-0.499 -0.514,-0.771 -0.399,0.316 -0.774,0.619 -1.094,0.887 -0.125,0.104 -0.246,0.206 -0.368,0.31 -2,1.129 -3.637,1.896 -4.472,2.17 0.654,-0.58 2.184,-1.662 4.399,-2.953 0.065,-0.023 0.13,-0.046 0.195,-0.068 0.436,-0.157 0.857,-0.317 1.271,-0.477 -0.136,-0.259 -0.251,-0.53 -0.349,-0.811 -0.414,0.227 -0.829,0.456 -1.232,0.688 -0.052,0.03 -0.102,0.06 -0.154,0.09 -2.124,0.754 -4.073,1.306 -5.066,1.441 0.72,-0.438 2.312,-1.187 4.571,-2.022 0.166,-0.027 0.331,-0.055 0.5,-0.084 0.455,-0.081 0.896,-0.166 1.329,-0.253 -0.093,-0.291 -0.159,-0.594 -0.208,-0.902 -0.435,0.145 -0.878,0.296 -1.335,0.46 -0.15,0.055 -0.299,0.109 -0.447,0.164 -1.913,0.317 -3.69,0.513 -4.723,0.513 -0.082,0 -0.155,-0.002 -0.221,-0.004 0.815,-0.321 2.621,-0.813 5.139,-1.268 0.069,0 0.138,0.001 0.208,0.002 h 0.217 c 0.389,0 0.768,-0.006 1.14,-0.013 -0.034,-0.26 -0.058,-0.522 -0.058,-0.79 0,-0.03 0.004,-0.061 0.004,-0.091 -0.452,0.068 -0.913,0.142 -1.39,0.226 -0.059,0.011 -0.117,0.021 -0.175,0.031 -2.553,-0.021 -4.408,-0.199 -5.26,-0.377 0.798,-0.162 2.498,-0.324 4.989,-0.338 0.166,0.031 0.333,0.062 0.502,0.091 0.459,0.082 0.904,0.152 1.341,0.219 0.013,-0.313 0.045,-0.621 0.103,-0.92 -0.457,-0.013 -0.926,-0.022 -1.406,-0.024 h -0.218 c -0.088,0 -0.175,10e-4 -0.264,10e-4 -2.349,-0.438 -4.034,-0.901 -4.815,-1.209 0.065,-0.002 0.139,-0.003 0.22,-0.003 1.093,0 3.012,0.217 5.047,0.567 0.064,0.024 0.126,0.048 0.19,0.071 0.438,0.161 0.861,0.309 1.277,0.451 0.065,-0.29 0.152,-0.571 0.256,-0.844 -0.45,-0.092 -0.91,-0.181 -1.386,-0.265 -0.059,-0.01 -0.115,-0.019 -0.174,-0.029 -2.385,-0.89 -4.063,-1.689 -4.808,-2.148 0.85,0.124 2.526,0.57 4.796,1.383 0.147,0.086 0.293,0.172 0.441,0.258 0.387,0.224 0.784,0.444 1.182,0.661 0.118,-0.287 0.262,-0.561 0.42,-0.824 -0.427,-0.17 -0.865,-0.339 -1.318,-0.507 -0.152,-0.056 -0.305,-0.11 -0.454,-0.164 -2.063,-1.217 -3.488,-2.231 -4.114,-2.786 0.875,0.288 2.629,1.115 4.758,2.333 0.053,0.045 0.105,0.09 0.157,0.135 0.309,0.261 0.666,0.556 1.049,0.863 0.159,-0.249 0.335,-0.485 0.528,-0.708 -0.394,-0.239 -0.795,-0.481 -1.214,-0.723 -0.05,-0.029 -0.101,-0.058 -0.15,-0.086 -1.941,-1.655 -3.252,-2.987 -3.79,-3.671 0.736,0.402 2.188,1.413 4.044,2.954 0.105,0.128 0.212,0.257 0.32,0.386 0.105,0.126 0.442,0.523 0.889,1.03 0.208,-0.229 0.431,-0.443 0.671,-0.638 -0.343,-0.305 -0.696,-0.613 -1.064,-0.925 -0.113,-0.097 -0.237,-0.199 -0.363,-0.304 -1.523,-1.852 -2.523,-3.299 -2.921,-4.033 0.685,0.543 2.018,1.866 3.676,3.825 0.033,0.058 0.065,0.117 0.1,0.176 0.158,0.277 0.4,0.694 0.69,1.173 0.232,-0.18 0.477,-0.345 0.736,-0.489 -0.286,-0.359 -0.581,-0.723 -0.891,-1.092 -0.025,-0.03 -0.065,-0.078 -0.116,-0.138 -1.258,-2.219 -2.029,-3.914 -2.301,-4.74 0.554,0.629 1.568,2.067 2.785,4.149 0.057,0.159 0.113,0.32 0.173,0.482 0.127,0.348 0.291,0.788 0.478,1.268 0.272,-0.143 0.559,-0.265 0.854,-0.366 -0.219,-0.404 -0.444,-0.814 -0.685,-1.233 -0.066,-0.117 -0.148,-0.259 -0.241,-0.42 -0.799,-2.259 -1.239,-3.952 -1.361,-4.779 0.458,0.744 1.259,2.44 2.146,4.849 0.012,0.068 0.022,0.135 0.034,0.203 0.07,0.406 0.151,0.859 0.243,1.331 0.279,-0.088 0.568,-0.151 0.863,-0.198 -0.146,-0.436 -0.299,-0.88 -0.464,-1.333 -0.021,-0.055 -0.041,-0.111 -0.063,-0.17 -0.423,-2.515 -0.568,-4.372 -0.541,-5.241 0.307,0.781 0.768,2.48 1.199,4.854 -0.002,0.169 -0.003,0.339 -0.003,0.51 0,0.464 0.007,0.916 0.018,1.358 0.267,-0.036 0.536,-0.061 0.812,-0.061 0.038,0 0.075,0.005 0.113,0.006 -0.067,-0.454 -0.14,-0.917 -0.222,-1.392 -0.026,-0.153 -0.054,-0.313 -0.084,-0.479 0.022,-2.394 0.189,-4.136 0.355,-4.955 0.176,0.855 0.349,2.722 0.358,5.287 -0.013,0.069 -0.025,0.139 -0.037,0.205 -0.082,0.457 -0.155,0.903 -0.224,1.342 0.298,0.013 0.591,0.043 0.876,0.098 0.012,-0.458 0.02,-0.926 0.02,-1.408 0,-0.059 0,-0.116 0,-0.175 0.463,-2.512 0.961,-4.308 1.285,-5.116 0.02,0.838 -0.128,2.592 -0.533,4.967 -0.064,0.174 -0.125,0.337 -0.178,0.483 -0.158,0.435 -0.307,0.859 -0.447,1.278 0.307,0.066 0.603,0.159 0.891,0.271 0.1,-0.492 0.189,-0.965 0.265,-1.387 0.029,-0.16 0.057,-0.318 0.084,-0.476 0.841,-2.244 1.593,-3.825 2.03,-4.537 -0.128,0.863 -0.604,2.676 -1.472,5.089 -0.039,0.065 -0.074,0.127 -0.107,0.182 -0.232,0.399 -0.453,0.792 -0.666,1.179 0.275,0.114 0.537,0.252 0.789,0.403 0.195,-0.502 0.367,-0.962 0.499,-1.323 0.02,-0.056 0.039,-0.111 0.06,-0.167 1.294,-2.2 2.376,-3.717 2.956,-4.366 -0.268,0.796 -1.007,2.395 -2.202,4.49 -0.159,0.186 -0.275,0.323 -0.329,0.389 -0.299,0.355 -0.584,0.706 -0.86,1.053 0.263,0.166 0.511,0.352 0.744,0.555 0.305,-0.496 0.562,-0.929 0.726,-1.213 0.081,-0.137 0.158,-0.273 0.236,-0.41 1.572,-1.837 2.83,-3.078 3.472,-3.59 -0.411,0.765 -1.485,2.315 -3.136,4.297 -0.052,0.043 -0.106,0.088 -0.155,0.129 -0.357,0.298 -0.701,0.593 -1.035,0.885 0.217,0.199 0.423,0.409 0.609,0.638 0.463,-0.524 0.813,-0.938 0.921,-1.066 0.036,-0.044 0.072,-0.088 0.109,-0.132 1.969,-1.626 3.508,-2.685 4.274,-3.097 -0.523,0.655 -1.772,1.909 -3.61,3.469 -0.146,0.083 -0.292,0.166 -0.436,0.25 -0.402,0.231 -0.791,0.464 -1.169,0.695 0.19,0.243 0.362,0.5 0.513,0.771 0.399,-0.315 0.773,-0.619 1.095,-0.887 0.124,-0.104 0.246,-0.206 0.367,-0.31 1.991,-1.124 3.623,-1.889 4.468,-2.166 -0.657,0.581 -2.185,1.661 -4.397,2.949 -0.064,0.024 -0.129,0.046 -0.193,0.069 -0.437,0.156 -0.857,0.316 -1.271,0.476 0.136,0.26 0.251,0.53 0.349,0.81 0.414,-0.226 0.828,-0.456 1.23,-0.688 0.052,-0.03 0.103,-0.059 0.153,-0.09 2.125,-0.754 4.074,-1.306 5.067,-1.441 -0.719,0.438 -2.313,1.187 -4.571,2.022 -0.166,0.027 -0.331,0.055 -0.5,0.084 -0.454,0.081 -0.896,0.166 -1.329,0.253 0.094,0.291 0.16,0.594 0.208,0.901 0.434,-0.144 0.878,-0.295 1.335,-0.459 0.15,-0.055 0.299,-0.109 0.447,-0.164 1.913,-0.317 3.689,-0.513 4.724,-0.513 0.081,0 0.154,0.002 0.22,0.004 -0.815,0.321 -2.62,0.813 -5.14,1.268 -0.068,0 -0.136,-0.001 -0.206,-0.002 h -0.221 c -0.388,0 -0.765,0.006 -1.138,0.013 0.035,0.26 0.059,0.522 0.059,0.791 0,0.03 -0.004,0.06 -0.004,0.09 0.452,-0.068 0.913,-0.142 1.39,-0.226 0.06,-0.01 0.117,-0.021 0.176,-0.031 2.552,0.021 4.408,0.199 5.26,0.377 -0.799,0.162 -2.499,0.324 -4.991,0.338 -0.165,-0.03 -0.332,-0.062 -0.501,-0.091 -0.459,-0.081 -0.904,-0.152 -1.341,-0.219 -0.013,0.313 -0.044,0.621 -0.102,0.92 0.457,0.012 0.924,0.022 1.406,0.024 z"
   id="path619" />

	<path
   style="fill:#261414"
   d="m 467.658,59.61 c -3.02,0 -5.476,2.457 -5.476,5.476 0,3.019 2.456,5.476 5.476,5.476 3.02,0 5.477,-2.457 5.477,-5.476 0,-3.019 -2.456,-5.476 -5.477,-5.476 z m 0,10.319 c -2.669,0 -4.842,-2.173 -4.842,-4.842 0,-2.67 2.173,-4.843 4.842,-4.843 2.671,0 4.843,2.173 4.843,4.843 0,2.669 -2.172,4.842 -4.843,4.842 z"
   id="path620" />

	<path
   style="fill:#261414"
   d="m 468.194,65.309 c -0.043,0.102 0.009,0.302 0.158,0.472 0.14,0.164 0.452,0.125 0.582,-0.165 0.049,-0.142 0.046,-0.287 -0.025,-0.384 -0.063,-0.1 -0.159,-0.146 -0.27,-0.145 -0.226,0.015 -0.403,0.119 -0.445,0.222 z"
   id="path621" />

	<path
   style="fill:#261414"
   d="m 467.881,65.623 c -0.103,0.041 -0.207,0.218 -0.223,0.444 0,0.11 0.047,0.207 0.145,0.27 0.099,0.071 0.242,0.074 0.385,0.025 0.29,-0.13 0.328,-0.442 0.165,-0.582 -0.17,-0.149 -0.371,-0.201 -0.472,-0.157 z"
   id="path622" />

	<path
   style="fill:#261414"
   d="m 467.438,65.623 c -0.103,-0.044 -0.302,0.009 -0.472,0.157 -0.165,0.14 -0.126,0.452 0.164,0.582 0.143,0.049 0.286,0.046 0.385,-0.025 0.099,-0.063 0.146,-0.159 0.144,-0.27 -0.015,-0.226 -0.12,-0.402 -0.221,-0.444 z"
   id="path623" />

	<path
   style="fill:#261414"
   d="m 467.123,65.309 c -0.042,-0.103 -0.218,-0.207 -0.444,-0.222 -0.111,-0.001 -0.207,0.046 -0.27,0.145 -0.07,0.098 -0.073,0.241 -0.024,0.384 0.129,0.29 0.442,0.329 0.582,0.165 0.147,-0.171 0.2,-0.371 0.156,-0.472 z"
   id="path624" />

	<path
   style="fill:#261414"
   d="m 467.123,64.865 c 0.044,-0.101 -0.009,-0.302 -0.157,-0.472 -0.14,-0.165 -0.453,-0.125 -0.582,0.165 -0.049,0.143 -0.046,0.286 0.024,0.384 0.063,0.099 0.159,0.146 0.27,0.145 0.227,-0.016 0.403,-0.12 0.445,-0.222 z"
   id="path625" />

	<path
   style="fill:#261414"
   d="m 467.438,64.551 c 0.102,-0.042 0.206,-0.218 0.221,-0.444 0.001,-0.111 -0.045,-0.207 -0.144,-0.271 -0.099,-0.07 -0.242,-0.074 -0.385,-0.024 -0.29,0.129 -0.329,0.442 -0.164,0.582 0.17,0.148 0.369,0.201 0.472,0.157 z"
   id="path626" />

	<path
   style="fill:#261414"
   d="m 467.881,64.551 c 0.102,0.044 0.302,-0.009 0.472,-0.157 0.163,-0.141 0.125,-0.453 -0.165,-0.582 -0.143,-0.05 -0.287,-0.046 -0.385,0.024 -0.099,0.063 -0.145,0.159 -0.145,0.271 0.016,0.226 0.12,0.402 0.223,0.444 z"
   id="path627" />

	<path
   style="fill:#261414"
   d="m 468.935,64.558 c -0.13,-0.29 -0.442,-0.329 -0.582,-0.164 -0.149,0.17 -0.201,0.37 -0.158,0.471 0.042,0.102 0.219,0.207 0.445,0.223 0.11,0 0.207,-0.046 0.27,-0.145 0.07,-0.098 0.073,-0.242 0.025,-0.385 z"
   id="path628" />

	<path
   style="fill:#261414"
   d="m 469.373,65.407 c -0.041,0.165 0.076,0.365 0.284,0.453 0.199,0.087 0.443,-0.047 0.503,-0.307 0.029,-0.265 -0.133,-0.475 -0.354,-0.467 -0.221,0.008 -0.419,0.151 -0.433,0.321 z"
   id="path629" />

	<path
   style="fill:#261414"
   d="m 469.139,66.003 c -0.086,0.146 -0.063,0.367 0.102,0.525 0.152,0.15 0.439,0.124 0.579,-0.104 0.132,-0.232 0.056,-0.487 -0.162,-0.564 -0.201,-0.068 -0.436,-0.006 -0.519,0.143 z"
   id="path630" />

	<path
   style="fill:#261414"
   d="m 468.706,66.475 c -0.063,0.064 -0.113,0.132 -0.132,0.226 -0.018,0.092 -0.011,0.202 0.038,0.301 0.049,0.1 0.134,0.167 0.241,0.191 0.107,0.023 0.24,0.01 0.335,-0.079 0.103,-0.082 0.163,-0.192 0.174,-0.296 0.007,-0.109 -0.041,-0.216 -0.122,-0.289 -0.083,-0.075 -0.181,-0.106 -0.274,-0.114 -0.1,-0.014 -0.193,0.003 -0.26,0.06 z"
   id="path631" />

	<path
   style="fill:#261414"
   d="m 468.397,66.797 c -0.086,-0.042 -0.18,-0.067 -0.263,-0.039 -0.043,0.014 -0.08,0.037 -0.113,0.069 -0.035,0.025 -0.065,0.056 -0.092,0.095 -0.051,0.078 -0.083,0.183 -0.074,0.292 0.011,0.11 0.065,0.205 0.157,0.269 0.045,0.031 0.1,0.056 0.159,0.067 0.057,0.004 0.119,-0.003 0.182,-0.021 0.124,-0.04 0.224,-0.114 0.269,-0.212 0.044,-0.104 0.04,-0.216 -0.01,-0.315 -0.051,-0.1 -0.132,-0.169 -0.215,-0.205 z"
   id="path632" />

	<path
   style="fill:#261414"
   d="m 467.499,66.815 c -0.173,-0.003 -0.358,0.118 -0.425,0.327 -0.068,0.212 0.082,0.457 0.351,0.47 0.266,0.042 0.459,-0.185 0.431,-0.398 -0.028,-0.225 -0.188,-0.364 -0.357,-0.399 z"
   id="path633" />

	<path
   style="fill:#261414"
   d="m 467.055,66.841 c -0.037,-0.084 -0.096,-0.148 -0.171,-0.197 -0.077,-0.044 -0.171,-0.041 -0.266,-0.011 -0.089,0.021 -0.181,0.073 -0.249,0.161 -0.066,0.088 -0.091,0.197 -0.067,0.309 0.029,0.1 0.11,0.195 0.225,0.257 0.111,0.068 0.242,0.063 0.344,0.017 0.102,-0.044 0.173,-0.127 0.203,-0.233 0.029,-0.108 0.017,-0.216 -0.019,-0.303 z"
   id="path634" />

	<path
   style="fill:#261414"
   d="m 466.373,66.259 c -0.056,-0.069 -0.142,-0.102 -0.241,-0.108 -0.099,-0.006 -0.196,0.004 -0.294,0.063 -0.092,0.057 -0.161,0.155 -0.171,0.261 -0.009,0.104 0.03,0.224 0.114,0.323 0.176,0.201 0.468,0.171 0.588,-0.004 0.134,-0.187 0.113,-0.404 0.004,-0.535 z"
   id="path635" />

	<path
   style="fill:#261414"
   d="m 466.034,65.716 c -0.046,-0.163 -0.276,-0.266 -0.483,-0.235 -0.229,0.036 -0.344,0.27 -0.263,0.524 0.099,0.247 0.372,0.33 0.55,0.209 0.189,-0.125 0.26,-0.341 0.196,-0.498 z"
   id="path636" />

	<path
   style="fill:#261414"
   d="m 465.912,65.087 c 0.021,-0.17 -0.145,-0.347 -0.361,-0.395 -0.216,-0.048 -0.417,0.128 -0.439,0.395 0.022,0.266 0.224,0.441 0.439,0.394 0.217,-0.048 0.382,-0.224 0.361,-0.394 z"
   id="path637" />

	<path
   style="fill:#261414"
   d="m 466.034,64.457 c 0.064,-0.157 -0.007,-0.373 -0.196,-0.498 -0.178,-0.12 -0.451,-0.038 -0.55,0.209 -0.081,0.255 0.033,0.489 0.263,0.524 0.207,0.031 0.437,-0.072 0.483,-0.235 z"
   id="path638" />

	<path
   style="fill:#261414"
   d="m 466.373,63.914 c 0.109,-0.131 0.13,-0.349 -0.004,-0.535 -0.121,-0.175 -0.412,-0.205 -0.588,-0.004 -0.084,0.1 -0.123,0.22 -0.114,0.323 0.01,0.106 0.079,0.205 0.171,0.261 0.098,0.06 0.195,0.07 0.294,0.063 0.098,-0.005 0.185,-0.039 0.241,-0.108 z"
   id="path639" />

	<path
   style="fill:#261414"
   d="m 466.884,63.53 c 0.075,-0.05 0.134,-0.113 0.171,-0.198 0.036,-0.086 0.048,-0.195 0.018,-0.302 -0.029,-0.106 -0.1,-0.189 -0.202,-0.233 -0.102,-0.047 -0.232,-0.052 -0.344,0.017 -0.115,0.062 -0.196,0.158 -0.225,0.257 -0.023,0.111 10e-4,0.221 0.067,0.309 0.067,0.088 0.16,0.141 0.249,0.161 0.095,0.03 0.189,0.032 0.266,-0.011 z"
   id="path640" />

	<path
   style="fill:#261414"
   d="m 467.499,63.357 c 0.169,-0.034 0.329,-0.173 0.357,-0.398 0.028,-0.213 -0.165,-0.44 -0.431,-0.398 -0.269,0.014 -0.419,0.258 -0.352,0.47 0.068,0.208 0.253,0.329 0.426,0.326 z"
   id="path641" />

	<path
   style="fill:#261414"
   d="m 468.021,63.346 c 0.033,0.032 0.071,0.056 0.113,0.069 0.083,0.028 0.177,0.004 0.263,-0.039 0.083,-0.036 0.164,-0.105 0.214,-0.204 0.051,-0.099 0.055,-0.211 0.011,-0.316 -0.045,-0.098 -0.145,-0.172 -0.269,-0.211 -0.063,-0.02 -0.125,-0.026 -0.182,-0.022 -0.06,0.012 -0.114,0.037 -0.159,0.068 -0.092,0.063 -0.147,0.158 -0.157,0.268 -0.009,0.11 0.023,0.214 0.074,0.292 0.027,0.039 0.057,0.069 0.092,0.095 z"
   id="path642" />

	<path
   style="fill:#261414"
   d="m 468.574,63.473 c 0.019,0.094 0.069,0.162 0.132,0.226 0.068,0.058 0.16,0.073 0.26,0.061 0.094,-0.008 0.191,-0.039 0.274,-0.114 0.08,-0.073 0.129,-0.18 0.122,-0.289 -0.011,-0.104 -0.071,-0.214 -0.174,-0.296 -0.095,-0.089 -0.228,-0.103 -0.335,-0.078 -0.107,0.024 -0.192,0.091 -0.242,0.191 -0.048,0.097 -0.055,0.207 -0.037,0.299 z"
   id="path643" />

	<path
   style="fill:#261414"
   d="m 469.139,64.17 c 0.083,0.149 0.318,0.211 0.518,0.143 0.218,-0.077 0.294,-0.331 0.162,-0.564 -0.14,-0.228 -0.427,-0.254 -0.579,-0.104 -0.164,0.158 -0.187,0.379 -0.101,0.525 z"
   id="path644" />

	<path
   style="fill:#261414"
   d="m 470.16,64.619 c -0.06,-0.26 -0.304,-0.394 -0.503,-0.307 -0.208,0.088 -0.325,0.288 -0.284,0.453 0.014,0.17 0.212,0.313 0.433,0.321 0.221,0.008 0.383,-0.201 0.354,-0.467 z"
   id="path645" />

	<path
   style="fill:#261414"
   d="m 470.401,65.434 c -0.023,0.186 0.109,0.38 0.321,0.439 0.214,0.06 0.441,-0.089 0.473,-0.34 0.029,-0.251 -0.151,-0.452 -0.37,-0.446 -0.223,0.004 -0.401,0.161 -0.424,0.347 z"
   id="path646" />

	<path
   style="fill:#261414"
   d="m 470.229,66.104 c -0.07,0.172 0.013,0.397 0.204,0.507 0.191,0.112 0.444,0.021 0.54,-0.212 0.094,-0.235 -0.035,-0.476 -0.251,-0.526 -0.214,-0.05 -0.422,0.058 -0.493,0.231 z"
   id="path647" />

	<path
   style="fill:#261414"
   d="m 469.895,66.711 c -0.105,0.154 -0.09,0.384 0.07,0.541 0.155,0.152 0.433,0.137 0.577,-0.07 0.15,-0.202 0.084,-0.471 -0.108,-0.57 -0.2,-0.105 -0.426,-0.05 -0.539,0.099 z"
   id="path648" />

	<path
   style="fill:#261414"
   d="m 469.422,67.218 c -0.147,0.115 -0.18,0.355 -0.067,0.54 0.117,0.193 0.379,0.232 0.578,0.077 0.19,-0.166 0.2,-0.432 0.032,-0.583 -0.161,-0.145 -0.402,-0.157 -0.543,-0.034 z"
   id="path649" />

	<path
   style="fill:#261414"
   d="m 468.835,67.587 c -0.167,0.085 -0.264,0.294 -0.198,0.511 0.061,0.206 0.314,0.326 0.54,0.214 0.231,-0.103 0.299,-0.374 0.178,-0.554 -0.126,-0.188 -0.348,-0.244 -0.52,-0.171 z"
   id="path650" />

	<path
   style="fill:#261414"
   d="m 468.178,67.803 c -0.185,0.033 -0.328,0.224 -0.32,0.441 0.009,0.225 0.221,0.392 0.47,0.346 0.246,-0.053 0.385,-0.279 0.31,-0.491 -0.073,-0.206 -0.279,-0.336 -0.46,-0.296 z"
   id="path651" />

	<path
   style="fill:#261414"
   d="m 467.484,67.844 c -0.188,-0.006 -0.372,0.13 -0.419,0.352 -0.046,0.21 0.117,0.437 0.37,0.446 0.252,0.021 0.441,-0.182 0.422,-0.399 -0.018,-0.222 -0.185,-0.382 -0.373,-0.399 z"
   id="path652" />

	<path
   style="fill:#261414"
   d="m 466.805,67.717 c -0.178,-0.059 -0.396,0.038 -0.493,0.232 -0.101,0.201 0.005,0.449 0.245,0.528 0.242,0.072 0.472,-0.06 0.509,-0.281 0.036,-0.214 -0.084,-0.427 -0.261,-0.479 z"
   id="path653" />

	<path
   style="fill:#261414"
   d="m 466.178,67.42 c -0.157,-0.1 -0.392,-0.063 -0.537,0.106 -0.143,0.165 -0.105,0.434 0.108,0.569 0.212,0.138 0.474,0.055 0.563,-0.146 0.09,-0.203 0.023,-0.426 -0.134,-0.529 z"
   id="path654" />

	<path
   style="fill:#261414"
   d="m 465.645,66.978 c -0.132,-0.134 -0.362,-0.159 -0.545,-0.031 -0.181,0.124 -0.215,0.398 -0.039,0.579 0.172,0.186 0.445,0.172 0.58,0.001 0.139,-0.177 0.13,-0.412 0.004,-0.549 z"
   id="path655" />

	<path
   style="fill:#261414"
   d="m 465.234,66.419 c -0.085,-0.167 -0.315,-0.242 -0.519,-0.167 -0.211,0.078 -0.299,0.329 -0.183,0.553 0.126,0.22 0.387,0.277 0.566,0.142 0.173,-0.133 0.229,-0.366 0.136,-0.528 z"
   id="path656" />

	<path
   style="fill:#261414"
   d="m 464.982,65.774 c -0.056,-0.18 -0.236,-0.315 -0.463,-0.291 -0.213,0.021 -0.384,0.245 -0.313,0.489 0.055,0.247 0.312,0.363 0.509,0.279 0.211,-0.088 0.305,-0.293 0.267,-0.477 z"
   id="path657" />

	<path
   style="fill:#261414"
   d="m 464.893,65.087 c 0.008,-0.188 -0.159,-0.365 -0.373,-0.397 -0.225,-0.032 -0.419,0.145 -0.429,0.397 0.01,0.252 0.204,0.429 0.429,0.396 0.213,-0.032 0.38,-0.21 0.373,-0.396 z"
   id="path658" />

	<path
   style="fill:#261414"
   d="m 464.982,64.398 c 0.038,-0.183 -0.057,-0.389 -0.267,-0.478 -0.197,-0.084 -0.454,0.032 -0.509,0.279 -0.071,0.243 0.1,0.469 0.313,0.489 0.227,0.026 0.408,-0.11 0.463,-0.29 z"
   id="path659" />

	<path
   style="fill:#261414"
   d="m 465.234,63.754 c 0.093,-0.162 0.037,-0.396 -0.135,-0.527 -0.18,-0.136 -0.44,-0.078 -0.566,0.142 -0.116,0.224 -0.028,0.475 0.183,0.553 0.203,0.074 0.433,-10e-4 0.518,-0.168 z"
   id="path660" />

	<path
   style="fill:#261414"
   d="m 465.645,63.195 c 0.127,-0.138 0.136,-0.372 -0.004,-0.549 -0.135,-0.171 -0.408,-0.185 -0.579,0 -0.177,0.183 -0.143,0.456 0.038,0.58 0.182,0.128 0.413,0.102 0.545,-0.031 z"
   id="path661" />

	<path
   style="fill:#261414"
   d="m 466.178,62.753 c 0.157,-0.104 0.225,-0.326 0.134,-0.529 -0.089,-0.201 -0.351,-0.284 -0.563,-0.146 -0.214,0.136 -0.252,0.404 -0.108,0.569 0.145,0.168 0.379,0.206 0.537,0.106 z"
   id="path662" />

	<path
   style="fill:#261414"
   d="m 466.805,62.456 c 0.178,-0.052 0.297,-0.266 0.261,-0.479 -0.037,-0.222 -0.267,-0.354 -0.509,-0.282 -0.24,0.08 -0.346,0.328 -0.245,0.529 0.097,0.194 0.315,0.292 0.493,0.232 z"
   id="path663" />

	<path
   style="fill:#261414"
   d="m 467.484,62.329 c 0.188,-0.018 0.355,-0.177 0.373,-0.399 0.019,-0.218 -0.17,-0.42 -0.422,-0.399 -0.252,0.01 -0.416,0.236 -0.37,0.446 0.047,0.222 0.233,0.358 0.419,0.352 z"
   id="path664" />

	<path
   style="fill:#261414"
   d="m 468.178,62.37 c 0.182,0.04 0.388,-0.09 0.459,-0.295 0.075,-0.212 -0.064,-0.438 -0.31,-0.491 -0.249,-0.046 -0.461,0.121 -0.47,0.346 -0.007,0.216 0.136,0.407 0.321,0.44 z"
   id="path665" />

	<path
   style="fill:#261414"
   d="m 468.835,62.586 c 0.172,0.073 0.395,0.017 0.52,-0.171 0.121,-0.18 0.054,-0.451 -0.178,-0.554 -0.227,-0.111 -0.479,0.008 -0.54,0.214 -0.066,0.217 0.032,0.426 0.198,0.511 z"
   id="path666" />

	<path
   style="fill:#261414"
   d="m 469.422,62.955 c 0.141,0.123 0.382,0.11 0.543,-0.034 0.168,-0.151 0.158,-0.417 -0.032,-0.582 -0.199,-0.156 -0.461,-0.117 -0.578,0.076 -0.113,0.186 -0.081,0.425 0.067,0.54 z"
   id="path667" />

	<path
   style="fill:#261414"
   d="m 469.895,63.463 c 0.113,0.148 0.34,0.203 0.539,0.099 0.192,-0.1 0.259,-0.367 0.108,-0.57 -0.145,-0.207 -0.422,-0.223 -0.577,-0.07 -0.16,0.156 -0.176,0.386 -0.07,0.541 z"
   id="path668" />

	<path
   style="fill:#261414"
   d="m 470.434,63.562 c -0.191,0.11 -0.274,0.335 -0.204,0.507 0.07,0.174 0.278,0.281 0.493,0.231 0.216,-0.05 0.345,-0.291 0.251,-0.526 -0.096,-0.234 -0.349,-0.325 -0.54,-0.212 z"
   id="path669" />

	<path
   style="fill:#261414"
   d="m 470.401,64.74 c 0.022,0.185 0.2,0.342 0.424,0.347 0.219,0.005 0.399,-0.196 0.37,-0.446 -0.031,-0.251 -0.259,-0.4 -0.473,-0.341 -0.211,0.059 -0.343,0.254 -0.321,0.44 z"
   id="path670" />

	<path
   style="fill:#261414"
   d="m 471.436,65.447 c -0.023,0.194 0.125,0.388 0.342,0.434 0.215,0.045 0.426,-0.114 0.456,-0.357 0.014,-0.245 -0.157,-0.44 -0.378,-0.437 -0.221,0.003 -0.41,0.165 -0.42,0.36 z"
   id="path671" />

	<path
   style="fill:#261414"
   d="m 471.3,66.156 c -0.056,0.186 0.047,0.402 0.254,0.489 0.2,0.085 0.444,-0.029 0.515,-0.265 0.063,-0.237 -0.066,-0.461 -0.29,-0.5 -0.213,-0.036 -0.43,0.087 -0.479,0.276 z"
   id="path672" />

	<path
   style="fill:#261414"
   d="m 471.031,66.825 c -0.088,0.175 -0.031,0.404 0.156,0.528 0.181,0.121 0.444,0.058 0.555,-0.161 0.11,-0.22 0.023,-0.466 -0.189,-0.547 -0.201,-0.076 -0.434,0.004 -0.522,0.18 z"
   id="path673" />

	<path
   style="fill:#261414"
   d="m 470.641,67.432 c -0.118,0.155 -0.107,0.391 0.054,0.549 0.153,0.152 0.426,0.141 0.576,-0.054 0.15,-0.194 0.109,-0.454 -0.083,-0.573 -0.185,-0.114 -0.427,-0.078 -0.547,0.078 z"
   id="path674" />

	<path
   style="fill:#261414"
   d="m 470.143,67.953 c -0.145,0.132 -0.18,0.364 -0.051,0.55 0.122,0.179 0.393,0.219 0.575,0.056 0.185,-0.162 0.192,-0.425 0.027,-0.578 -0.16,-0.147 -0.403,-0.157 -0.551,-0.028 z"
   id="path675" />

	<path
   style="fill:#261414"
   d="m 469.555,68.372 c -0.166,0.103 -0.245,0.323 -0.153,0.529 0.085,0.198 0.345,0.291 0.554,0.164 0.214,-0.123 0.27,-0.382 0.137,-0.563 -0.13,-0.174 -0.368,-0.228 -0.538,-0.13 z"
   id="path676" />

	<path
   style="fill:#261414"
   d="m 468.899,68.672 c -0.183,0.071 -0.302,0.269 -0.251,0.49 0.045,0.21 0.283,0.354 0.513,0.266 0.233,-0.078 0.337,-0.323 0.24,-0.526 -0.093,-0.196 -0.315,-0.293 -0.502,-0.23 z"
   id="path677" />

	<path
   style="fill:#261414"
   d="m 468.198,68.84 c -0.192,0.039 -0.348,0.207 -0.34,0.434 0.006,0.216 0.212,0.404 0.453,0.359 0.244,-0.03 0.392,-0.256 0.337,-0.471 -0.056,-0.213 -0.253,-0.345 -0.45,-0.322 z"
   id="path678" />

	<path
   style="fill:#261414"
   d="m 467.478,68.874 c -0.197,-0.003 -0.381,0.145 -0.416,0.362 -0.035,0.219 0.133,0.432 0.378,0.438 0.245,0.02 0.433,-0.183 0.418,-0.4 -0.014,-0.224 -0.184,-0.382 -0.38,-0.4 z"
   id="path679" />

	<path
   style="fill:#261414"
   d="m 466.765,68.772 c -0.191,-0.043 -0.402,0.072 -0.478,0.277 -0.076,0.21 0.049,0.446 0.289,0.501 0.236,0.068 0.46,-0.102 0.486,-0.314 0.029,-0.225 -0.11,-0.407 -0.297,-0.464 z"
   id="path680" />

	<path
   style="fill:#261414"
   d="m 466.083,68.538 c -0.179,-0.081 -0.409,-0.005 -0.522,0.181 -0.115,0.193 -0.035,0.445 0.189,0.547 0.222,0.107 0.471,-0.011 0.537,-0.216 0.071,-0.215 -0.028,-0.425 -0.204,-0.512 z"
   id="path681" />

	<path
   style="fill:#261414"
   d="m 465.459,68.177 c -0.159,-0.114 -0.401,-0.082 -0.546,0.079 -0.15,0.168 -0.119,0.43 0.081,0.573 0.197,0.146 0.463,0.079 0.567,-0.11 0.111,-0.198 0.054,-0.425 -0.102,-0.542 z"
   id="path682" />

	<path
   style="fill:#261414"
   d="m 464.914,67.704 c -0.135,-0.143 -0.38,-0.156 -0.552,-0.025 -0.18,0.137 -0.196,0.399 -0.028,0.578 0.167,0.18 0.44,0.166 0.579,-0.001 0.145,-0.173 0.133,-0.407 10e-4,-0.552 z"
   id="path683" />

	<path
   style="fill:#261414"
   d="m 464.467,67.138 c -0.104,-0.166 -0.343,-0.225 -0.536,-0.129 -0.202,0.101 -0.268,0.354 -0.137,0.563 0.131,0.207 0.4,0.245 0.568,0.107 0.175,-0.142 0.209,-0.376 0.105,-0.541 z"
   id="path684" />

	<path
   style="fill:#261414"
   d="m 464.136,66.497 c -0.068,-0.184 -0.294,-0.285 -0.502,-0.229 -0.219,0.061 -0.328,0.296 -0.241,0.526 0.091,0.228 0.347,0.317 0.538,0.214 0.198,-0.106 0.277,-0.329 0.205,-0.511 z"
   id="path685" />

	<path
   style="fill:#261414"
   d="m 463.933,65.806 c -0.027,-0.194 -0.236,-0.336 -0.45,-0.32 -0.227,0.018 -0.373,0.229 -0.336,0.471 0.049,0.24 0.278,0.378 0.487,0.313 0.213,-0.068 0.338,-0.273 0.299,-0.464 z"
   id="path686" />

	<path
   style="fill:#261414"
   d="m 463.861,65.087 c 0.012,-0.196 -0.16,-0.374 -0.379,-0.399 -0.221,-0.024 -0.41,0.154 -0.421,0.399 0.012,0.245 0.2,0.423 0.421,0.398 0.219,-0.024 0.391,-0.203 0.379,-0.398 z"
   id="path687" />

	<path
   style="fill:#261414"
   d="m 463.933,64.368 c 0.039,-0.191 -0.086,-0.398 -0.299,-0.464 -0.209,-0.065 -0.439,0.072 -0.487,0.312 -0.037,0.243 0.109,0.453 0.336,0.471 0.213,0.017 0.422,-0.125 0.45,-0.319 z"
   id="path688" />

	<path
   style="fill:#261414"
   d="m 464.136,63.677 c 0.072,-0.182 -0.007,-0.406 -0.206,-0.512 -0.19,-0.104 -0.446,-0.015 -0.537,0.214 -0.087,0.229 0.022,0.466 0.241,0.525 0.208,0.058 0.433,-0.045 0.502,-0.227 z"
   id="path689" />

	<path
   style="fill:#261414"
   d="m 464.467,63.036 c 0.104,-0.166 0.07,-0.4 -0.104,-0.542 -0.168,-0.138 -0.438,-0.1 -0.568,0.108 -0.131,0.207 -0.066,0.462 0.136,0.563 0.193,0.095 0.432,0.036 0.536,-0.129 z"
   id="path690" />

	<path
   style="fill:#261414"
   d="m 464.913,62.469 c 0.133,-0.144 0.145,-0.379 -0.001,-0.552 -0.138,-0.166 -0.411,-0.18 -0.578,-0.001 -0.168,0.18 -0.151,0.441 0.028,0.578 0.172,0.131 0.417,0.117 0.551,-0.025 z"
   id="path691" />

	<path
   style="fill:#261414"
   d="m 465.459,61.996 c 0.156,-0.117 0.213,-0.344 0.102,-0.541 -0.104,-0.191 -0.37,-0.257 -0.567,-0.11 -0.2,0.143 -0.231,0.405 -0.082,0.572 0.146,0.161 0.388,0.193 0.547,0.079 z"
   id="path692" />

	<path
   style="fill:#261414"
   d="m 466.083,61.636 c 0.175,-0.088 0.275,-0.298 0.204,-0.513 -0.066,-0.205 -0.316,-0.323 -0.537,-0.216 -0.224,0.102 -0.304,0.354 -0.189,0.548 0.113,0.186 0.343,0.261 0.522,0.181 z"
   id="path693" />

	<path
   style="fill:#261414"
   d="m 466.765,61.4 c 0.188,-0.057 0.326,-0.238 0.297,-0.464 -0.025,-0.212 -0.249,-0.382 -0.485,-0.314 -0.24,0.056 -0.365,0.291 -0.289,0.501 0.074,0.205 0.285,0.32 0.477,0.277 z"
   id="path694" />

	<path
   style="fill:#261414"
   d="m 467.478,61.3 c 0.195,-0.019 0.365,-0.177 0.38,-0.4 0.014,-0.217 -0.173,-0.42 -0.418,-0.399 -0.245,0.005 -0.413,0.219 -0.379,0.437 0.036,0.217 0.22,0.364 0.417,0.362 z"
   id="path695" />

	<path
   style="fill:#261414"
   d="m 468.198,61.333 c 0.196,0.023 0.394,-0.109 0.449,-0.321 0.056,-0.216 -0.092,-0.44 -0.336,-0.471 -0.241,-0.046 -0.447,0.144 -0.453,0.358 -0.007,0.227 0.148,0.396 0.34,0.434 z"
   id="path696" />

	<path
   style="fill:#261414"
   d="m 468.899,61.502 c 0.186,0.062 0.407,-0.035 0.501,-0.23 0.098,-0.203 -0.006,-0.447 -0.239,-0.526 -0.23,-0.088 -0.468,0.057 -0.514,0.267 -0.049,0.219 0.07,0.417 0.252,0.489 z"
   id="path697" />

	<path
   style="fill:#261414"
   d="m 469.555,61.801 c 0.17,0.098 0.408,0.044 0.537,-0.13 0.133,-0.182 0.077,-0.44 -0.137,-0.563 -0.209,-0.127 -0.469,-0.034 -0.555,0.164 -0.09,0.207 -0.011,0.426 0.155,0.529 z"
   id="path698" />

	<path
   style="fill:#261414"
   d="m 470.143,62.22 c 0.148,0.129 0.392,0.119 0.552,-0.027 0.165,-0.153 0.157,-0.416 -0.027,-0.577 -0.183,-0.164 -0.454,-0.124 -0.575,0.056 -0.13,0.183 -0.096,0.416 0.05,0.548 z"
   id="path699" />

	<path
   style="fill:#261414"
   d="m 470.694,62.192 c -0.161,0.158 -0.172,0.393 -0.054,0.55 0.12,0.154 0.362,0.19 0.547,0.077 0.192,-0.119 0.233,-0.379 0.083,-0.572 -0.15,-0.194 -0.422,-0.207 -0.576,-0.055 z"
   id="path700" />

	<path
   style="fill:#261414"
   d="m 471.031,63.349 c 0.088,0.175 0.32,0.255 0.522,0.179 0.212,-0.081 0.299,-0.326 0.189,-0.547 -0.11,-0.218 -0.374,-0.282 -0.555,-0.161 -0.187,0.124 -0.244,0.354 -0.156,0.529 z"
   id="path701" />

	<path
   style="fill:#261414"
   d="m 471.3,64.018 c 0.049,0.188 0.267,0.312 0.478,0.274 0.224,-0.039 0.353,-0.263 0.29,-0.5 -0.07,-0.235 -0.315,-0.35 -0.515,-0.265 -0.206,0.087 -0.309,0.303 -0.253,0.491 z"
   id="path702" />

	<path
   style="fill:#261414"
   d="m 471.436,64.726 c 0.01,0.195 0.198,0.357 0.42,0.361 0.221,0.003 0.392,-0.192 0.378,-0.437 -0.03,-0.244 -0.241,-0.403 -0.456,-0.358 -0.217,0.046 -0.365,0.239 -0.342,0.434 z"
   id="path703" />

</g>
</svg>
