<?xml version="1.0" encoding="UTF-8" standalone="no"?>
<!-- Created with Inkscape (http://www.inkscape.org/) -->

<svg
   width="512"
   height="512"
   viewBox="0 0 512 512"
   version="1.1"
   id="svg1"
   xmlns="http://www.w3.org/2000/svg"
   xmlns:svg="http://www.w3.org/2000/svg">
  <defs
     id="defs1" />
  <g
     id="layer1">
    <path
       d="m 393.95273,509.08704 c -6.81859,-1.3235 -12.31027,-4.23764 -15.06021,-7.9916 -1.50312,-2.05184 -8.71016,-16.13971 -13.38969,-26.17323 -1.13215,-2.42744 -3.86882,-8.08662 -6.08155,-12.57597 -2.2127,-4.48929 -4.69982,-9.62955 -5.52694,-11.4228 -0.82712,-1.79323 -4.08113,-8.5161 -7.23108,-14.93968 -3.15,-6.42361 -7.66324,-15.75078 -10.02948,-20.72705 -2.36623,-4.97628 -4.98035,-10.30539 -5.80916,-11.84245 -0.8288,-1.53706 -2.91561,-5.83384 -4.63731,-9.54841 -1.7217,-3.71457 -6.5668,-13.69663 -10.76679,-22.18237 -4.20005,-8.48573 -7.6364,-15.55448 -7.6364,-15.70834 0,-0.15387 -1.49245,-3.37656 -3.31657,-7.16155 -1.82412,-3.785 -3.81005,-7.97625 -4.41314,-9.31388 -0.74743,-1.65773 -1.65644,-2.78781 -2.85498,-3.54936 -3.24566,-2.06228 -4.32109,-4.02244 -4.31728,-7.8691 0,-1.75282 0.29652,-3.47521 0.73844,-4.31475 0.58609,-1.11328 0.67258,-2.20213 0.42549,-5.35643 -0.43196,-5.51372 -0.99787,-7.60032 -3.20598,-11.82058 -2.08034,-3.97608 -4.3035,-6.23215 -7.11581,-7.22124 -2.53602,-0.8919 -4.12863,-2.55884 -5.74507,-6.01307 -1.61033,-3.44118 -0.69489,-3.33453 -8.85455,-1.03151 -7.53309,2.12618 -10.3563,2.69384 -18.60502,3.74087 -13.87371,1.76104 -33.85636,0.81106 -45.905,-2.18235 -2.56177,-0.63644 -5.91536,-1.46263 -7.45243,-1.83594 -6.43275,-1.56236 -18.75263,-6.11991 -24.45325,-9.04609 -0.89662,-0.46024 -3.39701,-1.71954 -5.55643,-2.79843 -6.29996,-3.14761 -17.77334,-10.69012 -22.41242,-14.73377 -1.42122,-1.23881 -3.62201,-3.08581 -4.89066,-4.10445 -5.14734,-4.13298 -15.6259,-15.23999 -20.73599,-21.97959 -8.03808,-10.60127 -12.84764,-18.58742 -18.18656,-30.1984 -1.698965,-3.69485 -4.19506,-10.52725 -5.564257,-15.23055 -0.768158,-2.63883 -1.603248,-5.42663 -1.855745,-6.19516 -0.252498,-0.76853 -1.333659,-6.21812 -2.402615,-12.11019 l -1.943591,-10.71286 -0.0075,-12.57596 c -0.0075,-12.39735 0.01723,-12.7248 1.748432,-23.05593 2.323013,-13.86421 3.997805,-20.02084 8.679416,-31.905687 1.92915,-4.897396 6.80173,-14.999312 9.21119,-19.096823 6.34523,-10.790608 14.91835,-21.333626 25.56558,-31.439906 7.49318,-7.112433 8.65454,-8.071164 18.55569,-15.317763 6.43787,-4.711841 20.47152,-12.040827 28.64525,-14.959801 1.66515,-0.594647 3.24371,-1.244284 3.50794,-1.443627 0.43486,-0.328062 2.1757,-0.874142 11.84358,-3.715209 6.16455,-1.8115588 22.16676,-4.0387946 31.87271,-4.4361534 16.25378,-0.6654213 38.11713,2.7873827 53.02119,8.3734394 14.76114,5.53252 27.96586,12.995253 39.90725,22.553901 15.29781,12.24535 29.12323,28.441354 36.85958,43.179779 1.07575,2.049413 2.24556,4.057107 2.59954,4.461551 0.35405,0.404435 0.64366,0.884771 0.64366,1.067415 0,0.182646 0.6288,1.676994 1.39734,3.320783 0.76853,1.643784 1.39732,3.157745 1.39732,3.364354 0,0.206608 0.39876,1.119666 0.88614,2.029021 0.48739,0.909351 1.3339,3.107041 1.88113,4.883756 0.54719,1.77671 1.37562,4.06878 1.84093,5.09349 0.46527,1.02471 1.22034,3.1207 1.67788,4.65776 0.45752,1.53706 0.99313,3.31865 1.19019,3.9591 3.45005,11.21112 5.99585,37.99893 4.62577,48.67363 -2.42772,18.91443 -3.25337,23.03477 -6.90686,34.46745 -3.07209,9.6132 -9.36019,23.19095 -12.96302,27.99054 -0.59503,0.79272 -1.08191,1.57465 -1.08191,1.73763 0,0.57881 -3.46812,5.74743 -7.39928,11.02727 -7.09075,9.5234 -17.12608,20.26159 -23.57485,25.22592 -1.53706,1.18325 -3.30072,2.69646 -3.91928,3.36268 -1.01343,1.09158 -1.05567,1.29238 -0.42748,2.0313 0.38342,0.451 1.17352,1.95804 1.75579,3.34897 1.07021,2.55671 1.11902,4.6615 0.22892,9.87525 -0.45804,2.68303 0.5832,6.4292 2.95331,10.62573 2.96406,5.24811 8.41676,10.73883 10.66447,10.73883 4.35444,0 8.25341,5.53341 7.20058,10.21911 -0.40175,1.78795 -0.24161,2.27055 2.75342,8.29914 4.42027,8.89749 14.97918,30.48656 23.97468,49.01932 4.16553,8.58194 10.08489,20.7387 13.15422,27.01504 19.18136,39.22345 23.99563,49.1122 26.98461,55.42739 1.3943,2.94602 4.62517,9.5484 7.17967,14.67194 4.55911,9.14423 5.33369,11.372 5.85969,16.85236 0.22521,2.34658 -1.25,9.76011 -2.06344,10.36944 -0.19207,0.14388 -0.85162,1.20421 -1.4656,2.35631 -0.61403,1.1521 -1.71433,2.85833 -2.44515,3.79164 -2.03687,2.60147 -7.28832,5.95506 -10.94555,6.98991 -3.158,0.89365 -10.02341,1.47303 -12.27508,1.03599 z m 5.92827,-1.44591 c -0.96639,-0.10085 -2.43359,-0.0991 -3.26044,0.005 -0.82684,0.10289 -0.0364,0.18538 1.75705,0.18333 1.79324,0 2.46978,-0.0863 1.50339,-0.1871 z m 3.17613,-1.69491 c 7.784,-1.67158 13.37994,-6.50327 16.07659,-13.88102 1.312,-3.58955 1.25965,-10.34202 -0.11048,-14.24316 -0.56233,-1.60111 -1.15983,-2.9111 -1.32779,-2.9111 -0.16795,0 -1.87437,1.43025 -3.79207,3.17835 -3.18549,2.9038 -10.16594,7.84139 -12.14889,8.59345 -0.44831,0.17005 -0.81511,0.10614 -0.81511,-0.14203 0,-0.65614 -0.62525,-0.55366 -1.65765,0.27166 -0.87869,0.70242 -0.87462,0.71463 0.14388,0.43437 1.96832,-0.54165 1.05223,0.28953 -1.63021,1.47912 -5.84285,2.59116 -12.22594,4.53568 -16.53508,5.03723 -1.473,0.17146 -2.67821,0.5146 -2.67821,0.76253 0,1.12699 2.08361,4.34228 4.08743,6.30757 4.69592,4.60562 13.02418,6.69424 20.38759,5.11303 z M 377.9902,492.32901 c -0.15477,-0.15477 -0.5565,-0.17131 -0.89274,-0.0369 -0.37156,0.14867 -0.26121,0.25905 0.28142,0.28141 0.49098,0.02 0.76611,-0.0899 0.61132,-0.24467 z m 6.64701,-2.05273 c 10.03627,-2.43712 22.88429,-9.46167 29.31117,-16.02564 l 2.0632,-2.10726 -1.98788,-4.32198 c -3.52709,-7.6685 -5.39406,-11.56463 -10.99894,-22.95305 -3.02593,-6.14824 -6.9044,-14.11301 -8.61887,-17.6995 -3.54912,-7.42442 -10.58761,-21.8652 -18.61573,-38.19366 -3.02289,-6.14824 -7.95429,-16.20901 -10.95869,-22.35727 -16.59636,-33.96284 -24.44563,-49.60518 -24.89174,-49.60518 -0.44636,0 -7.9713,3.61536 -11.8208,5.67928 -0.80896,0.43373 -1.89007,0.682 -2.40244,0.5517 -0.63251,-0.16086 -0.74146,-0.10419 -0.33944,0.17651 0.40624,0.2837 -2.07853,1.75358 -7.91821,4.68398 -4.68068,2.34881 -8.8247,4.477 -9.20895,4.72934 -0.38427,0.25233 -1.43226,0.78387 -2.32889,1.1812 -1.72896,0.76617 -3.57329,1.78663 -3.99962,2.21298 -0.14132,0.14129 -0.0396,0.64412 0.22613,1.11737 0.26569,0.47326 1.72273,3.48046 3.2378,6.68268 1.51513,3.2022 3.64792,7.7086 4.73957,10.01419 1.09158,2.30559 4.07614,8.48877 6.63232,13.7404 2.55613,5.25163 5.64129,11.64441 6.85595,14.20617 3.28544,6.92921 15.72266,32.61301 21.20163,43.78299 2.6388,5.37971 5.77963,11.8773 6.97965,14.43906 1.20003,2.56177 4.54952,9.47855 7.44334,15.37062 2.89386,5.89208 6.15058,12.59926 7.23723,14.90484 1.08662,2.3056 3.86935,8.02506 6.18384,12.70983 l 4.2082,8.51789 2.13841,-0.29461 c 1.17614,-0.16203 3.71043,-0.67635 5.63176,-1.14288 z M 319.21264,323.7665 c 10.46487,-5.25163 19.26726,-9.54841 19.56088,-9.54841 0.69377,0 1.61493,-2.04016 1.61493,-3.57671 0,-0.66219 -0.43191,-1.90282 -0.95977,-2.75693 -1.3257,-2.14505 -3.54949,-2.55297 -6.19125,-1.13568 -1.06239,0.56997 -4.86601,2.50628 -8.45248,4.30289 -3.58647,1.79662 -7.14967,3.60513 -7.9182,4.01893 -0.76853,0.4138 -5.79892,2.95886 -11.17863,5.65569 l -9.78131,4.90334 -0.15361,2.09598 c -0.0985,1.34431 0.13186,2.6301 0.64235,3.58525 0.70272,1.31473 1.35536,1.70077 3.28088,1.94064 0.28003,0.035 9.07132,-4.23336 19.53621,-9.48499 z m -20.27828,-3.02755 c 0.64044,-0.50095 1.30874,-0.91549 1.48509,-0.92118 0.56507,-0.0182 29.05037,-14.27577 30.61748,-15.32473 0.5245,-0.3511 0.11309,-0.94588 -1.97327,-2.8527 -2.52656,-2.30915 -7.30314,-8.80173 -7.30914,-9.93499 0,-0.29875 -0.27625,-1.06719 -0.61045,-1.70764 -0.33415,-0.64043 -0.8855,-2.47443 -1.22523,-4.07554 -0.33968,-1.60111 -0.68422,-2.9111 -0.7656,-2.9111 -0.0814,0 -2.20116,1.33094 -4.71058,2.95763 -2.50941,1.62671 -6.13456,3.73894 -8.05588,4.69384 -1.92132,0.95493 -3.86827,1.93644 -4.3265,2.18115 -2.51957,1.34548 -8.25216,4.14563 -9.7698,4.77215 -0.96426,0.39809 -1.87149,1.03204 -2.01607,1.40877 -0.14453,0.37674 0.44682,1.801 1.31424,3.16504 3.39695,5.34201 4.86825,9.56693 5.28354,15.17243 0.17558,2.36963 0.44937,4.30376 0.60848,4.29806 0.15907,-0.005 0.81325,-0.42022 1.45369,-0.92119 z m -6.19505,-26.56683 c 8.76204,-4.13291 15.23126,-7.50625 19.27503,-10.05092 1.17384,-0.73866 3.14059,-1.97181 4.37057,-2.74035 3.39783,-2.1231 3.97516,-2.89873 3.97516,-5.34063 0,-1.17557 -0.28315,-2.55084 -0.62917,-3.05615 -0.34602,-0.50531 -0.77151,-1.50411 -0.94543,-2.21957 -0.46648,-1.91872 -1.40166,-1.98975 -3.6419,-0.27664 -4.41594,3.3769 -5.39006,4.0573 -8.52391,5.95368 -5.31375,3.21554 -18.79817,9.78755 -24.61851,11.99853 -1.24371,0.47243 -2.36413,1.11477 -2.48985,1.4274 -0.31766,0.78988 2.88763,5.7902 4.16716,6.50087 1.77387,0.98521 2.88912,0.71488 9.06085,-2.19622 z m -42.71147,-0.86648 c 14.02667,-1.51027 29.91444,-6.35126 44.01586,-13.41161 7.86763,-3.93917 17.98707,-10.191 21.8915,-13.52466 0.25618,-0.21873 1.40896,-1.05576 2.56177,-1.86007 1.15279,-0.8043 3.01329,-2.31524 4.13441,-3.3576 1.12113,-1.04237 2.18361,-1.89522 2.36103,-1.89522 0.17746,0 2.16856,-1.88639 4.42468,-4.19199 2.25618,-2.3056 4.23288,-4.20216 4.39273,-4.2146 0.15986,-0.0124 1.23385,-1.18482 2.38665,-2.60524 1.15279,-1.42046 2.62866,-3.13948 3.27967,-3.82005 1.57134,-1.64263 4.01081,-4.76613 6.53666,-8.36962 1.13352,-1.61711 2.52892,-3.60831 3.1009,-4.42487 0.57198,-0.81656 1.244,-1.72802 1.49342,-2.02545 0.69336,-0.82679 4.23657,-6.62453 5.64722,-9.24051 0.6907,-1.28089 1.99845,-3.69128 2.90612,-5.35643 1.87652,-3.44266 5.70128,-12.24846 6.19463,-14.26188 0.18082,-0.73789 0.4791,-1.44643 0.66286,-1.57451 0.39991,-0.27875 4.5577,-15.54699 5.13695,-18.86395 2.48141,-14.20922 3.23457,-20.73577 3.22,-27.90303 -0.008,-4.12279 -0.20401,-8.85837 -0.4347,-10.52352 -0.23071,-1.66515 -0.75768,-5.54274 -1.17116,-8.61686 -1.33356,-9.91597 -2.96346,-16.7566 -6.55362,-27.50571 -3.25479,-9.745072 -6.24829,-16.545652 -10.44545,-23.72969 -0.59865,-1.024707 -1.31763,-2.289363 -1.59771,-2.810338 -4.34289,-8.078767 -14.0581,-20.744905 -21.19469,-27.632517 -7.06283,-6.816456 -16.86007,-15.031222 -19.96303,-16.738591 -0.79317,-0.436437 -2.1373,-1.350067 -2.98697,-2.030291 -3.35974,-2.689803 -19.24411,-11.246479 -22.73762,-12.248442 -0.64044,-0.183684 -2.84124,-1.039469 -4.89065,-1.901742 -2.04941,-0.862277 -4.87902,-1.867744 -6.28798,-2.234375 -1.40897,-0.366633 -4.02897,-1.103192 -5.8222,-1.636805 -3.88883,-1.157192 -10.58212,-2.460616 -19.7955,-3.854913 -8.12999,-1.2303395 -24.56504,-1.4803732 -31.43991,-0.478311 -6.4694,0.942964 -17.51557,2.828278 -19.32971,3.299122 -4.4737,1.161082 -10.21457,2.821553 -11.87731,3.435334 -4.2455,1.567179 -9.47551,3.692936 -11.87729,4.827534 -1.40898,0.665603 -3.61876,1.683875 -4.91064,2.26282 -6.25728,2.804152 -21.64383,12.822488 -28.30281,18.428219 -6.97988,5.875928 -22.67971,22.732216 -22.67971,24.350351 0,0.373528 -0.16861,0.749001 -0.37463,0.834399 -0.36209,0.150037 -6.14625,7.704611 -6.14625,8.027452 0,0.08771 -1.14348,2.178616 -2.54108,4.646471 -5.90977,10.435343 -10.88715,21.560373 -12.135806,27.124933 -0.39591,1.76431 -0.917627,3.62702 -1.159364,4.13938 -0.64375,1.36433 -2.623114,9.70044 -3.262578,13.7404 -0.304151,1.92132 -0.859124,5.24953 -1.233283,7.39598 -1.912245,10.96935 -1.893659,28.6144 0.04052,38.48298 0.602481,3.07414 1.34083,6.95173 1.640744,8.61688 1.206453,6.69867 3.908422,16.40331 5.680187,20.40175 0.48828,1.102 1.18843,2.88908 1.55588,3.9713 0.85424,2.51617 4.37658,9.84517 6.75409,14.05349 1.01311,1.79324 2.26577,4.09884 2.78367,5.12355 0.85744,1.69658 3.43575,5.34851 10.68737,15.13772 4.71767,6.36858 13.02767,15.28148 18.87564,20.24516 11.04672,9.37626 28.27686,20.21841 37.01669,23.29288 1.13067,0.39776 2.30601,0.93086 2.61184,1.18469 0.30584,0.25383 1.68634,0.86271 3.06775,1.35306 1.38144,0.49036 4.05765,1.44059 5.94712,2.11163 5.7808,2.05303 17.41664,4.85732 23.20949,5.5936 3.02149,0.38405 6.85604,0.89223 8.52119,1.12931 3.88277,0.55281 22.04893,0.31816 28.41236,-0.367 z m -28.87813,-9.36318 c -16.06323,-1.66476 -33.65034,-6.96064 -46.95581,-14.1395 -3.15404,-1.70174 -5.93123,-3.09407 -6.17154,-3.09407 -0.24033,0 -0.43717,-0.1572 -0.4374,-0.34933 -2.8e-4,-0.19213 -1.07483,-0.97812 -2.38794,-1.74666 -4.88697,-2.86022 -5.59259,-3.34131 -10.24694,-6.98664 -6.82694,-5.34687 -11.73277,-9.74939 -16.69651,-14.98352 -6.00916,-6.33647 -13.44118,-15.9448 -17.59269,-22.74436 -3.23095,-5.29179 -4.31086,-7.25228 -4.31086,-7.82599 0,-0.37225 -0.31439,-0.93775 -0.69866,-1.25666 -0.38426,-0.31891 -0.69866,-0.75117 -0.69866,-0.96058 0,-0.20941 -0.9126,-2.33213 -2.02804,-4.71718 -3.10743,-6.64449 -4.66959,-11.1902 -7.49285,-21.80304 -4.11509,-15.46879 -4.81655,-36.26809 -1.83004,-54.26296 1.3182,-7.94268 5.70646,-22.90572 8.38822,-28.60221 0.41094,-0.872947 1.32811,-2.968953 2.03805,-4.657767 0.70998,-1.68881 1.78485,-3.939103 2.38864,-5.000639 5.94619,-10.454232 6.88324,-11.888025 7.51455,-11.497835 0.26629,0.164569 0.34184,0.07216 0.16926,-0.207081 -0.36987,-0.598451 1.4719,-3.456211 5.92152,-9.188053 3.67399,-4.732746 18.32709,-19.795496 19.2571,-19.795496 0.33372,0 0.60682,-0.169175 0.60682,-0.375943 0,-0.206767 1.41479,-1.40426 3.14398,-2.661091 1.7292,-1.256833 3.25247,-2.435997 3.38507,-2.620365 0.65638,-0.912736 8.25301,-5.632565 14.198,-8.821307 12.49062,-6.699661 24.00484,-10.931241 36.56344,-13.437373 22.13918,-4.417992 47.71277,-2.884898 67.04883,4.019484 3.21484,1.147927 6.44798,2.271227 7.18469,2.49621 0.73677,0.224985 4.50955,1.974385 8.38397,3.887556 13.0907,6.464087 24.7918,14.67652 34.30285,24.075496 4.57314,4.519266 12.75664,13.652693 13.67567,15.263143 0.28603,0.501232 1.10807,1.716656 1.82682,2.700941 4.70718,6.4463 9.9664,15.404539 12.39882,21.119335 0.81776,1.921325 1.67474,3.912525 1.90443,4.424875 1.08414,2.41897 2.00157,4.85877 2.62711,6.98665 0.37653,1.28088 0.97091,2.95768 1.3209,3.7262 0.76164,1.67256 2.34276,7.55818 2.81371,10.47382 0.18565,1.14941 0.61775,2.88405 0.96024,3.85476 1.11884,3.17108 2.98782,20.95017 2.97939,28.34194 -0.005,4.01634 -0.73771,12.0869 -1.83572,20.20929 -0.4273,3.16095 -3.77038,16.28148 -4.62843,18.16528 -0.23339,0.51236 -0.98954,2.60835 -1.68037,4.65776 -6.03418,17.90109 -16.81332,34.57803 -32.36326,50.07097 -2.69973,2.68985 -5.95482,5.72678 -7.23342,6.74873 -1.27864,1.02196 -3.47758,2.81642 -4.88656,3.98769 -2.60107,2.16229 -2.91747,2.39192 -7.45241,5.40866 -5.19132,3.45335 -11.20393,6.86846 -16.69777,9.48416 -2.13888,1.01835 -3.98629,1.85156 -4.10538,1.85156 -0.11906,0 -1.30344,0.49655 -2.63196,1.10346 -5.04004,2.30247 -20.387,6.58532 -28.73185,8.01816 -4.77305,0.81955 -25.44704,1.25647 -31.20701,0.65952 z m 23.44155,-2.82299 c 13.72149,-1.19625 31.87186,-6.1992 42.4658,-11.70523 12.29152,-6.38832 18.13011,-10.22111 27.24792,-17.88714 7.49914,-6.30509 15.04863,-14.02287 19.32972,-19.76061 0.51235,-0.68668 1.93288,-2.58993 3.15671,-4.22943 1.22382,-1.63951 2.58622,-3.46559 3.02755,-4.05798 2.53139,-3.39784 8.66421,-14.58412 10.90279,-19.88677 2.04732,-4.84954 4.25947,-11.09687 5.27637,-14.90095 0.61631,-2.3056 1.52597,-5.45947 2.02142,-7.00863 2.06287,-6.44985 4.03422,-24.49572 3.55937,-32.58237 -0.70081,-11.93406 -1.76051,-20.64942 -3.00161,-24.68614 -0.47257,-1.53706 -1.08955,-3.90151 -1.3711,-5.25433 -0.85428,-4.10494 -5.1187,-16.14036 -7.67879,-21.671781 -2.74561,-5.932283 -5.12238,-10.287627 -8.18239,-14.993764 -1.16598,-1.793239 -2.22497,-3.488001 -2.35338,-3.766145 -0.12836,-0.278145 -1.69426,-2.557913 -3.47977,-5.06615 -3.86665,-5.431707 -16.20296,-18.303044 -21.00926,-21.920375 -1.87861,-1.413881 -3.54726,-2.7836 -3.70809,-3.04382 -0.71525,-1.157337 -19.86094,-13.014034 -21.01449,-13.014034 -0.0906,0 -2.10316,-0.924137 -4.47238,-2.053636 -8.3985,-4.00399 -21.86433,-8.009328 -32.48515,-9.662554 -5.73422,-0.892586 -8.65217,-1.054406 -19.32971,-1.07197 -11.92295,-0.0196 -14.74429,0.177535 -23.7546,1.659935 -4.78619,0.787431 -15.68046,3.933909 -22.12438,6.389923 -9.7964,3.733767 -17.01579,7.520953 -27.94659,14.660312 -1.19164,0.778307 -5.28898,3.87655 -8.61686,6.515689 -2.95339,2.342181 -14.14324,13.756315 -17.46661,17.816711 -3.41419,4.171346 -6.52087,8.375883 -6.52087,8.825187 0,0.164862 -0.51137,0.970189 -1.13635,1.789612 -0.93761,1.229247 -3.11241,4.898187 -6.67271,11.256841 -1.40101,2.502247 -5.03212,10.727649 -6.4695,14.655229 -5.76454,15.75111 -7.83543,27.95353 -7.82854,46.12858 0.005,8.31338 0.22241,12.92898 0.80766,17.00085 2.16307,15.05013 7.32102,30.73436 14.24545,43.3172 9.45251,17.17683 25.13236,34.691 40.12411,44.81805 2.17751,1.47092 4.12673,2.94016 4.33159,3.265 0.20485,0.32481 0.5817,0.59058 0.83746,0.59058 0.25576,0 1.64106,0.75231 3.07845,1.6718 9.36234,5.98902 27.59144,13.4367 36.93281,15.08927 1.66515,0.29458 4.07555,0.82003 5.35643,1.16766 1.99832,0.54233 7.30426,1.26303 13.27462,1.8031 4.01044,0.36278 15.47733,0.25297 20.6469,-0.19772 z m -24.60599,-15.58029 c -9.7085,-1.22504 -22.32713,-4.86044 -30.88056,-8.89662 -2.38221,-1.12411 -4.43684,-2.04385 -4.56586,-2.04385 -0.55097,0 -10.49967,-5.92418 -13.79449,-8.21427 -1.97713,-1.37422 -3.71968,-2.49858 -3.87236,-2.49858 -0.15264,0 -0.84059,-0.51701 -1.52872,-1.14888 -0.68814,-0.63189 -2.82317,-2.46541 -4.7445,-4.0745 -7.96943,-6.67429 -15.93444,-15.62124 -21.05859,-23.65476 -0.89872,-1.40897 -2.60657,-4.0746 -3.79524,-5.92363 -1.18866,-1.84901 -2.1612,-3.46419 -2.1612,-3.58926 0,-0.12508 -0.65637,-1.33704 -1.45853,-2.69323 -1.94462,-3.28754 -5.24953,-11.51991 -7.16048,-17.83645 -4.32427,-14.2936 -5.70557,-31.72897 -3.79617,-47.91715 1.66338,-14.10279 7.53692,-31.65632 14.15672,-42.308753 8.82316,-14.197923 15.59149,-22.054605 27.36948,-31.770497 5.57363,-4.597772 17.10866,-12.380085 18.34996,-12.380085 0.17733,0 1.98989,-0.821708 4.02794,-1.826016 4.84464,-2.387328 12.49558,-5.624804 13.31058,-5.632355 0.35316,-0.0033 2.31888,-0.542019 4.36829,-1.197222 7.17413,-2.29358 14.77941,-3.399952 25.85059,-3.760575 7.30687,-0.238011 18.16784,0.227457 22.12437,0.948176 0.51236,0.09334 1.96232,0.319532 3.22211,0.502671 3.82672,0.556281 15.0871,3.890537 20.76538,6.148728 11.9412,4.748878 19.63801,9.454178 30.67906,18.754969 2.9118,2.452885 5.80702,4.853672 6.43372,5.335094 1.49709,1.15 9.75243,11.022272 13.02072,15.571038 10.97645,15.276867 18.3761,34.570247 20.44028,53.294527 0.94935,8.61156 0.75498,23.0119 -0.42218,31.28223 -0.72722,5.10914 -3.86697,17.05741 -5.39596,20.5341 -0.45316,1.03044 -1.62324,3.86473 -2.6002,6.29842 -5.90089,14.70004 -18.97802,31.93478 -33.04442,43.55028 -8.54201,7.05365 -23.67685,15.85936 -32.37146,18.83424 -1.66515,0.56973 -3.36034,1.20918 -3.76705,1.421 -0.40676,0.2118 -2.50276,0.83592 -4.65777,1.38693 -2.15506,0.55101 -5.07105,1.29566 -6.48002,1.65478 -1.40897,0.35913 -5.49616,1.07942 -9.08264,1.60067 -7.55634,1.09821 -19.86601,1.20967 -27.4808,0.24883 z m -5.61261,-2.50341 c -0.55544,-0.51802 -6.16609,-1.21107 -5.6629,-0.6995 0.20288,0.20628 1.35568,0.5129 2.56176,0.68139 3.36593,0.47021 3.58727,0.4715 3.10114,0.0181 z m 27.04163,-0.0584 c 0.50299,-0.81393 1.61796,-14.75532 1.91797,-23.98216 0.34933,-10.74575 -0.19786,-18.10536 -2.45889,-33.07013 -1.17897,-7.80295 -2.09039,-11.4706 -2.72059,-10.9476 -0.30457,0.25276 -0.72526,0.30417 -0.93486,0.11425 -0.20964,-0.1899 -0.22744,-0.0784 -0.0396,0.24765 0.49125,0.85251 -5.05055,7.85182 -9.58651,12.10777 -5.64838,5.29968 -11.95262,8.35871 -18.2222,8.84198 -4.77048,0.36773 -10.18299,-1.29657 -14.76926,-4.54145 -4.74099,-3.35438 -7.47124,-4.42307 -16.53506,-6.47233 -3.3303,-0.75296 -6.85883,-1.71102 -7.84125,-2.12905 -2.53662,-1.0794 -5.77791,-4.61085 -7.45564,-8.12319 -1.46001,-3.05647 -2.38756,-4.15088 -7.7351,-9.12641 -8.44546,-7.85794 -11.44403,-17.40551 -8.29087,-26.39828 1.1814,-3.36935 1.24763,-3.99972 1.15047,-10.94574 -0.0955,-6.82581 -0.0237,-7.54262 0.96793,-9.69939 2.0877,-4.53985 6.57816,-8.04715 13.00247,-10.15566 2.10452,-0.69073 4.05826,-1.25586 4.34169,-1.25586 1.36561,0 2.07285,-1.5624 1.91867,-4.23863 -0.16842,-2.92424 0.56662,-7.19285 1.66875,-9.69049 0.38492,-0.87233 1.61456,-3.00005 2.73256,-4.72828 1.11802,-1.72822 2.59768,-4.68249 3.2882,-6.56504 2.18621,-5.960127 4.96005,-9.717742 9.22451,-12.496173 2.83393,-1.846356 6.72964,-3.247425 14.9191,-5.365567 2.46083,-0.636477 5.82425,-1.97288 8.14461,-3.236136 2.17392,-1.183552 5.21311,-2.494448 6.75376,-2.913103 3.67213,-0.997881 10.78142,-0.997957 14.44554,-1.5e-4 5.26463,1.433657 11.04477,4.879919 14.68495,8.755522 l 1.64317,1.749464 3.85714,-1.813016 c 5.14287,-2.417362 8.34373,-2.971254 13.24942,-2.292744 8.72232,1.206397 12.14363,2.555816 16.01688,6.317284 1.36543,1.325981 1.73726,1.465364 2.96789,1.11242 1.59477,-0.457361 7.65284,-0.132034 9.06303,0.486701 0.51236,0.224801 1.66515,0.707505 2.56177,1.072687 2.34151,0.953651 5.58931,3.451611 5.58931,4.298852 0,0.397787 0.17854,0.612888 0.39676,0.478033 0.49987,-0.30893 5.48056,5.790946 5.27021,6.454386 -0.0854,0.26927 -0.007,0.34067 0.17569,0.15865 0.91744,-0.91746 9.28167,6.45072 10.90442,9.60591 1.01177,1.96714 1.06347,2.42195 0.70542,6.20518 -0.66912,7.07049 -0.42874,9.21933 1.65076,14.75555 2.55227,6.79488 3.23897,9.96917 3.24712,15.00979 0.0148,9.22114 -4.21104,23.53286 -8.00661,27.11526 -0.71613,0.6759 -1.30203,1.38973 -1.30203,1.58631 0,0.75537 -3.2751,3.3459 -9.54841,7.55251 -4.84892,3.25149 -7.99347,5.8215 -12.26417,10.02352 -8.23237,8.09999 -12.1318,10.24905 -18.59668,10.24905 -7.17729,0 -16.79302,-4.8868 -21.43238,-10.89211 -0.96871,-1.25393 -1.03807,-1.27563 -1.03807,-0.32483 0,0.56037 0.30066,2.42262 0.6682,4.13836 0.70355,3.28477 1.64898,9.32492 2.67542,17.09278 1.18042,8.93327 0.60575,37.56789 -0.87314,43.50637 -0.27197,1.09207 -0.22362,1.11313 1.88854,0.82363 2.2225,-0.30463 3.2016,-0.56899 11.24449,-3.03599 5.20589,-1.59681 13.28702,-4.90389 16.65151,-6.81435 1.21684,-0.69097 2.21243,-1.09704 2.21243,-0.90241 0,0.19466 0.4716,-0.0713 1.048,-0.59116 0.57639,-0.5198 1.99119,-1.44001 3.14399,-2.04491 1.15279,-0.60491 2.51519,-1.43893 3.02755,-1.85337 0.51235,-0.41445 1.94251,-1.33023 3.17812,-2.03505 2.17705,-1.24178 12.84034,-9.86937 15.24002,-12.33049 11.2234,-11.51096 16.64667,-18.97739 22.53458,-31.02444 3.76618,-7.7057 5.19263,-11.19881 6.55236,-16.04529 0.67911,-2.42048 1.4087,-4.72606 1.62137,-5.12352 0.21268,-0.39749 0.81911,-3.23787 1.34758,-6.312 3.77936,-21.98383 1.87178,-42.24389 -5.87493,-62.39632 -6.00572,-15.623379 -17.76168,-32.507664 -29.97769,-43.054936 -5.84563,-5.047133 -6.58114,-5.617183 -9.49788,-7.361487 -1.53706,-0.91921 -3.00426,-1.907127 -3.26043,-2.195368 -1.17283,-1.319626 -9.76156,-5.83349 -19.49894,-10.247782 -3.35052,-1.518888 -13.1007,-4.195463 -19.69991,-5.407906 -15.68302,-2.881386 -34.46508,-2.236873 -47.85024,1.641996 -2.20671,0.639484 -4.99438,1.382802 -6.19477,1.65182 -1.99186,0.446382 -3.63846,1.101054 -11.32295,4.501902 -6.94252,3.072489 -16.68796,8.969795 -21.71177,13.138545 -0.79778,0.662004 -2.14962,1.727638 -3.00408,2.36808 -1.97387,1.47952 -7.69537,6.791341 -9.25828,8.595384 -0.65558,0.756711 -2.79285,3.194301 -4.74948,5.416854 -4.72078,5.362363 -10.30101,13.786972 -14.47446,21.852548 -2.16592,4.18581 -6.12604,13.84351 -6.87565,16.76795 -0.29554,1.15279 -0.72447,2.72478 -0.95326,3.49332 -2.3191,7.79084 -3.69408,19.02523 -3.70535,30.27546 -0.0218,21.84324 5.46366,41.20178 16.30026,57.52338 0.25516,0.38426 0.71236,1.22266 1.01609,1.86311 1.35686,2.86126 8.62935,11.93497 14.31452,17.85985 4.22101,4.39899 12.51746,11.31717 17.63895,14.70862 2.35097,1.55679 4.37206,2.83052 4.49139,2.83052 0.11929,0 0.93384,0.48654 1.81011,1.08118 2.02114,1.37158 12.99004,6.82061 14.1983,7.05331 0.49969,0.0963 1.82365,0.61708 2.94208,1.15746 4.61253,2.22853 18.61517,5.6875 26.30947,6.49904 5.43957,0.57372 18.69882,0.60163 19.04588,0.0401 z m 14.20287,-0.28189 c 0,-0.0982 -0.4192,-0.17857 -0.93156,-0.17857 -0.51235,0 -0.93155,0.18997 -0.93155,0.42218 0,0.23219 0.4192,0.31255 0.93155,0.17855 0.51236,-0.13398 0.93156,-0.32396 0.93156,-0.42216 z m -6.93499,-0.45264 c 0.1565,-0.0916 0.40602,-1.48226 0.55446,-3.09026 0.14844,-1.60801 0.52153,-4.81004 0.82908,-7.11563 0.88316,-6.62081 0.74613,-28.07854 -0.22758,-35.6319 -0.94022,-7.29354 -2.45367,-16.69478 -3.09308,-19.21327 -1.45588,-5.73458 -1.32425,-5.47288 -2.75219,-5.47288 -2.32122,0 -2.81476,0.41616 -2.81476,2.37351 0,0.99445 0.39265,3.33002 0.87253,5.19017 3.93687,15.25937 4.9784,41.2207 2.42944,60.55563 -0.19413,1.47277 -0.23727,2.79348 -0.0959,2.93492 0.24533,0.2453 3.70167,-0.18115 4.29796,-0.53029 z m 8.91454,-0.0345 c -0.32022,-0.12921 -0.84423,-0.12921 -1.16445,0 -0.32022,0.12921 -0.0583,0.23493 0.58223,0.23493 0.64044,0 0.90245,-0.10572 0.58222,-0.23493 z m 32.4879,-14.13058 c 0,-0.25618 -0.0925,-0.46577 -0.20541,-0.46577 -0.11295,0 -0.33494,0.20959 -0.49325,0.46577 -0.15832,0.25619 -0.0659,0.46578 0.2054,0.46578 0.27127,0 0.49326,-0.20959 0.49326,-0.46578 z m -76.17223,-35.18717 c 5.19796,-1.52477 11.30402,-6.07761 17.01728,-12.68862 2.91501,-3.37302 5.37031,-6.99569 4.99545,-7.37054 -0.14159,-0.14158 -2.36713,-0.44068 -4.94566,-0.66464 -8.32365,-0.72302 -13.47906,-2.5068 -28.32898,-9.80197 -5.29555,-2.60149 -10.53079,-5.11682 -11.63379,-5.58964 -1.10305,-0.47281 -2.00554,-0.97929 -2.00554,-1.1255 0,-0.71868 1.65672,-2.64627 2.97431,-3.46057 2.2162,-1.36971 5.40393,-1.95002 12.6292,-2.2991 l 6.52087,-0.31504 -2.56178,-1.13055 c -11.14742,-4.91954 -17.52358,-9.18476 -24.74007,-16.5495 -5.25877,-5.36677 -6.54086,-6.90715 -9.88589,-11.87729 -2.54597,-3.78288 -3.22559,-5.13735 -4.26487,-8.50043 -0.79471,-2.57148 -1.40156,-3.15524 -2.35366,-2.26399 -0.24337,0.2278 -1.70009,0.7704 -3.23715,1.20575 -4.15095,1.1757 -7.84106,3.31865 -10.4319,6.05807 -2.80001,2.96062 -3.42923,4.97973 -3.25373,10.44138 0.24137,7.51245 0,10.55704 -1.02829,12.92575 -2.11793,4.88271 -1.6692,9.68862 1.53278,16.4147 1.627,3.41778 2.54691,4.59001 7.31036,9.31553 4.22361,4.18999 5.81954,6.13469 7.09633,8.64696 2.45535,4.83136 4.79549,6.61157 10.5163,7.99998 2.50816,0.60874 5.92272,1.33731 7.58787,1.61906 1.66515,0.28174 3.90325,1.01423 4.97361,1.62776 1.0703,0.61352 2.22311,1.11677 2.56176,1.11833 0.33863,0.001 1.97811,0.95358 3.64326,2.11559 7.25247,5.06108 12.41811,6.17074 19.31193,4.14852 z m 61.9579,-8.84615 c 3.88262,-1.01131 5.30584,-2.01283 11.88545,-8.3639 3.20221,-3.091 6.7654,-6.34186 7.91819,-7.22415 1.1528,-0.88229 2.20079,-1.74304 2.32888,-1.91277 0.12809,-0.16972 1.28089,-0.88248 2.56177,-1.58392 8.8608,-4.85232 13.26336,-10.52885 15.8576,-20.44619 1.23169,-4.70865 2.58794,-13.98294 2.31094,-15.80247 -0.0844,-0.55445 -0.28622,-2.0561 -0.4484,-3.33699 -0.27513,-2.17251 -0.72246,-3.79511 -1.66938,-6.05509 -0.21468,-0.51235 -1.05374,-2.92275 -1.8645,-5.35642 -1.34717,-4.04368 -1.44411,-4.72582 -1.12509,-7.91821 0.19195,-1.92132 0.35044,-4.87633 0.35222,-6.56667 0.005,-2.67255 -0.18244,-3.34073 -1.42038,-5.12355 -0.78298,-1.12759 -1.88742,-2.36458 -2.45433,-2.74885 -2.06608,-1.40043 -8.84002,-7.06079 -8.84002,-7.3868 0,-0.96884 -6.43278,-7.232268 -8.40496,-8.183682 -2.46331,-1.188338 -10.69186,-2.15077 -10.69186,-1.250551 0,0.484056 3.09308,4.452138 5.17589,6.640143 3.1065,3.26332 5.40687,6.54473 7.11446,10.1485 1.29472,2.73239 1.44828,3.50866 1.43454,7.25194 -0.0116,3.24057 -0.26842,4.87909 -1.13034,7.21952 -2.14776,5.83167 -5.11661,10.38386 -9.29378,14.25034 l -2.06055,1.90726 7.41451,0.2656 c 7.91168,0.28341 9.04477,0.48955 9.04477,1.64545 0,0.78196 -1.76142,2.8913 -2.41439,2.8913 -0.63193,0 -7.9223,4.95124 -9.74261,6.61671 -2.30918,2.11275 -4.41309,4.84724 -8.34783,10.8499 -4.75865,7.25963 -9.73398,13.24095 -13.91408,16.72745 -3.4984,2.91794 -11.53333,7.52654 -15.06983,8.64364 -0.96066,0.30346 -1.74666,0.74127 -1.74666,0.97291 0,0.23166 1.6244,2.05878 3.60977,4.06025 7.86365,7.92745 16.11101,11.12773 23.63,9.1693 z m -32.07499,-14.88267 c 6.67504,-1.11976 16.90032,-6.69175 22.92946,-12.49477 2.41101,-2.32057 6.96,-8.09496 10.06069,-12.77069 1.22881,-1.85308 2.41584,-3.25699 2.63782,-3.11981 0.22199,0.1372 0.30774,-0.0234 0.19061,-0.35697 -0.65382,-1.86156 8.50357,-11.14741 13.74174,-13.93451 1.25895,-0.66984 2.15585,-1.35103 1.99316,-1.51376 -0.49624,-0.49624 -9.71638,-0.32947 -12.34433,0.22328 -2.81119,0.59129 -7.35889,2.5941 -7.35889,3.24089 0,0.23757 -0.21398,0.43195 -0.47556,0.43195 -0.26155,0 -2.20033,1.32019 -4.30844,2.93375 -2.10806,1.61356 -4.60978,3.38275 -5.55941,3.93151 -2.07905,1.2015 -7.26453,1.98449 -13.14248,1.98449 -5.09844,0 -6.11257,0.30874 -11.66225,3.55055 -6.80976,3.97787 -14.65007,7.8749 -18.64904,9.26952 -3.41139,1.1897 -4.53294,1.32931 -13.27463,1.65231 -9.64697,0.35646 -13.62102,0.89376 -15.20289,2.05548 -0.82583,0.60647 -0.8119,0.65733 0.29806,1.08603 0.64043,0.24738 5.14682,2.38547 10.01418,4.75133 11.89159,5.7801 18.68057,8.26272 25.85059,9.45315 2.79848,0.46464 10.46106,0.26383 14.26161,-0.37373 z M 223.88041,167.2254 c 1.82841,-0.67772 3.3243,-1.36514 3.32416,-1.5276 -1.4e-4,-0.16244 -1.04814,-1.1978 -2.32888,-2.30075 -1.28075,-1.10297 -2.33187,-2.36057 -2.33578,-2.79467 -0.0172,-1.92351 -0.55651,-2.08057 -5.11003,-1.48875 -3.73879,0.48592 -4.39833,0.46627 -5.01409,-0.14948 -1.37428,-1.37426 -0.38082,-2.17858 2.69084,-2.17858 3.89054,0 6.87114,-0.8032 7.235,-1.94971 0.15976,-0.50333 0.21892,-0.96002 0.13149,-1.01488 -0.0874,-0.0549 -1.29789,-0.61547 -2.68996,-1.2458 -1.39202,-0.63031 -3.44935,-2.02488 -4.57187,-3.09902 -1.76981,-1.69353 -1.97284,-2.0803 -1.52821,-2.9111 0.28203,-0.52697 0.71497,-0.95811 0.96215,-0.95811 0.5303,0 0.60351,0.76772 0.1001,1.04927 -0.19214,0.10746 -0.10705,0.13906 0.18909,0.0702 0.2962,-0.0688 0.91107,0.28658 1.36646,0.78977 1.17822,1.30191 5.47706,3.68004 6.65222,3.68004 1.38679,0 1.23956,-0.76525 -0.57319,-2.97959 -1.71658,-2.09686 -4.02482,-6.37369 -4.02482,-7.45742 0,-0.37765 0.19068,-0.8045 0.42376,-0.94854 0.86895,-0.53704 1.79985,0.32293 2.88451,2.66467 1.53507,3.31416 3.4446,5.43437 4.61803,5.1275 1.14967,-0.30065 1.15833,-0.17132 -0.24542,-3.68013 -0.64286,-1.60695 -1.30156,-4.19098 -1.46369,-5.7423 -0.29401,-2.81303 -0.29148,-2.82059 0.93597,-2.82059 1.08516,0 1.23082,0.18431 1.23082,1.55731 0,1.51843 1.26984,5.77935 2.29096,7.68735 0.47118,0.88047 0.63984,0.90583 2.25314,0.33883 1.98882,-0.69897 1.99125,-0.73839 0.34232,-5.47945 -3.44094,-9.8934 -3.50013,-24.52877 -0.13439,-33.21506 1.06412,-2.7462 2.81421,-6.42327 3.21446,-6.753762 0.15516,-0.128088 0.57454,-0.791928 0.93198,-1.475193 0.74295,-1.420132 3.16722,-4.105685 5.73091,-6.348638 0.96825,-0.847099 1.64838,-1.815023 1.51661,-2.158352 -0.33894,-0.883268 -7.77576,-6.785762 -8.5497,-6.785762 -0.35334,0 -1.18461,-0.355259 -1.84731,-0.789458 -1.20953,-0.792536 -3.58182,-1.285634 -8.77654,-1.82427 -3.24655,-0.336628 -9.7867,0.827816 -12.34307,2.197635 -4.85403,2.60103 -8.75115,4.14948 -12.71732,5.053003 -8.03245,1.829869 -11.6554,3.534903 -15.33974,7.219256 -1.97848,1.978461 -2.96131,3.475253 -4.07438,6.204931 -1.6835,4.12868 -3.34307,7.50063 -5.70241,11.5861 -2.40736,4.16876 -2.87734,5.93951 -2.82442,10.64245 0.0708,6.29737 1.32738,9.48316 7.20938,18.27825 2.72041,4.0677 11.7732,13.11688 16.73609,16.72942 4.48943,3.26791 12.73135,7.62974 19.97324,10.57038 1.33006,0.5401 5.94144,-0.14248 9.25157,-1.36943 z m 13.26252,-6.88831 c 2.77608,-1.68006 5.78453,-3.32117 6.68538,-3.64692 1.59268,-0.57593 1.63156,-0.64853 1.40818,-2.63053 -0.2946,-2.61376 -1.41735,-4.08557 -4.24727,-5.5677 -4.17066,-2.18434 -9.02507,-1.86599 -12.69446,0.8325 -2.42991,1.78696 -3.41884,3.8712 -3.41884,7.20533 0,2.97232 0.78474,4.82889 2.6689,6.31412 1.9081,1.50409 3.77707,1.01596 9.59811,-2.5068 z m 24.82066,-6.14556 c 1.63268,-0.45048 3.9884,-1.85319 7.45242,-4.43757 2.78581,-2.07839 5.83064,-4.16993 6.7663,-4.6479 2.69432,-1.37631 9.66061,-8.26457 12.05196,-11.91697 1.20105,-1.83438 2.78432,-4.76877 3.51843,-6.52087 1.16299,-2.77582 1.33626,-3.78489 1.34706,-7.84341 0.0158,-5.8877 -0.61146,-7.21639 -6.85771,-14.52935 -2.5015,-2.92868 -5.73665,-6.936052 -7.18926,-8.905276 -1.45262,-1.969226 -2.97073,-3.840235 -3.37352,-4.157804 -1.92492,-1.517539 -5.80889,-2.889188 -10.10349,-3.568121 -7.86658,-1.243636 -9.96863,-0.993594 -15.90822,1.892329 -4.0898,1.98716 -8.41579,5.100726 -10.02901,7.218289 -2.0141,2.64371 -4.47,6.969303 -5.46149,9.619383 -1.19132,3.18403 -2.77925,12.46943 -2.76304,16.15676 0.0242,5.4872 2.86076,19.84241 4.25217,21.51899 0.27634,0.33296 1.00076,0.60538 1.60981,0.60538 1.10487,0 1.10743,-0.013 1.10743,-5.62025 v -5.62026 l 1.28088,0.14738 1.28089,0.14738 v 5.58932 c 0,5.65954 0.40541,7.62775 1.25751,6.10511 0.23646,-0.42254 0.65907,-0.62669 0.93909,-0.45362 0.27998,0.17305 0.38133,0.10791 0.22516,-0.14476 -0.42841,-0.69318 4.12263,-4.99245 4.82516,-4.55825 0.33871,0.20934 0.46475,0.1697 0.30132,-0.0948 -0.29386,-0.47552 0.8438,-1.65349 2.04033,-2.11263 0.66298,-0.25444 2.67328,0.81462 2.25474,1.19906 -2.14729,1.97223 -6.78986,5.28399 -7.12071,5.07951 -0.2429,-0.15013 -0.29083,-0.0289 -0.10652,0.26929 0.1843,0.29824 -0.10503,1.1018 -0.64301,1.7857 -0.87775,1.11587 -0.905,1.31656 -0.26581,1.95574 0.63918,0.63921 0.89177,0.54068 2.46163,-0.95999 2.42213,-2.31547 3.71469,-2.93643 4.59375,-2.20689 0.58684,0.48705 0.35824,0.86818 -1.54353,2.57321 -1.22787,1.10083 -2.00661,2.01089 -1.73054,2.02237 0.27606,0.0115 1.8264,-0.5173 3.44516,-1.17508 2.59107,-1.05285 3.02531,-1.11393 3.62877,-0.51049 0.377,0.37703 0.55185,0.90164 0.38859,1.16582 -0.37541,0.60745 -5.13056,2.40373 -6.36324,2.40373 -0.99541,0 -1.98262,1.86555 -1.56427,2.95588 0.32074,0.83579 10.54988,0.52413 13.99481,-0.42639 z m -22.33043,-14.26119 c -0.14868,-0.37157 -0.25907,-0.26121 -0.28142,0.2814 -0.02,0.49101 0.0899,0.76611 0.24467,0.61133 0.15477,-0.15477 0.17131,-0.55651 0.0369,-0.89273 z m 75.44608,-17.72861 c -0.1292,-0.32022 -0.23494,-0.0583 -0.23494,0.58221 0,0.64045 0.10574,0.90244 0.23494,0.58221 0.1292,-0.32022 0.1292,-0.8442 0,-1.16442 z M 240.58618,40.060176 c -0.15478,-0.154772 -0.55651,-0.171316 -0.89276,-0.03674 -0.37154,0.148686 -0.26119,0.259056 0.28144,0.281404 0.49097,0.02021 0.7661,-0.08987 0.61132,-0.244635 z m -11.0525,-0.937332 c 0,-0.09822 -0.64118,-0.178589 -1.42481,-0.178589 -0.78367,0 -1.31265,0.181491 -1.17557,0.403311 0.2319,0.375216 2.60038,0.17053 2.60038,-0.224722 z m 41.91987,238.341476 c 0,-0.17671 -0.73359,-0.23564 -1.63022,-0.13097 -0.89662,0.10467 -1.63021,0.3349 -1.63021,0.51161 0,0.17671 0.73359,0.23564 1.63021,0.13098 0.89663,-0.10468 1.63022,-0.33491 1.63022,-0.51162 z M 260.74069,24.039412 c 0,-0.256177 -0.0925,-0.465777 -0.2054,-0.465777 -0.11295,0 -0.33494,0.2096 -0.49326,0.465777 -0.15832,0.256176 -0.0659,0.465776 0.2054,0.465776 0.27127,0 0.49326,-0.2096 0.49326,-0.465776 z M 207.13761,292.62474 c -0.49427,-0.4269 -5.08473,-0.67626 -5.08473,-0.2762 0,0.24411 1.18772,0.44383 2.6394,0.44383 1.45165,0 2.55204,-0.0754 2.44533,-0.16763 z m 58.95951,-0.29815 c 0.79099,-0.33988 0.72071,-0.39823 -0.46577,-0.3866 -0.76853,0.008 -1.92133,0.1815 -2.56177,0.3866 -1.05857,0.33903 -1.01623,0.37417 0.46577,0.38662 0.89662,0.007 2.04942,-0.16644 2.56177,-0.38662 z m 15.405,-275.683987 c -0.33242,-0.537901 -2.59614,-0.965986 -2.59614,-0.490951 0,0.201868 0.36679,0.462888 0.81511,0.580041 1.40724,0.367749 2.04368,0.335913 1.78103,-0.08909 z m -93.08288,-0.802797 c -0.15479,-0.154774 -0.55652,-0.171318 -0.89276,-0.03674 -0.37156,0.148686 -0.26121,0.259056 0.28142,0.281403 0.49098,0.02021 0.7661,-0.08986 0.61134,-0.244635 z m 32.49757,-6.6999229 1.86312,-0.3690254 -1.86312,-0.047721 c -3.10881,-0.079632 -8.15107,0.5192896 -8.15107,0.9681815 0,0.4360788 4.80736,0.1108552 8.15107,-0.5514325 z m 31.90569,0.4425146 c -2.96569,-0.7065262 -7.72579,-1.0598035 -7.21953,-0.5358101 0.57751,0.5977403 2.42767,0.8733674 6.05508,0.9020693 2.46033,0.019465 2.59965,-0.024359 1.16445,-0.3662592 z"
       style="fill:#4a6741;fill-opacity:1;stroke-width:0.465777"
       id="path1" />
  </g>
</svg>
