<?xml version="1.0" encoding="UTF-8" standalone="no"?>
<!-- Created with Inkscape (http://www.inkscape.org/) -->

<svg
   width="512"
   height="512"
   viewBox="0 0 512 512"
   version="1.1"
   id="svg1"
   xmlns="http://www.w3.org/2000/svg"
   xmlns:svg="http://www.w3.org/2000/svg">
  <defs
     id="defs1" />
  <g
     id="layer1">
    <path
       d="m 288.29001,431.42752 c -1.29495,-0.20798 -3.45401,-0.80894 -4.79794,-1.33549 -2.32392,-0.91055 -2.59877,-0.91426 -5.61658,-0.0752 -3.6292,1.009 -10.66051,1.16063 -14.80449,0.31926 -3.98306,-0.80872 -12.30259,-5.02761 -15.15172,-7.68358 l -2.43818,-2.27281 -2.79389,2.13793 c -1.53665,1.17587 -4.32428,2.8822 -6.19474,3.79195 -2.88318,1.40225 -4.14112,1.68798 -8.26408,1.87712 -7.35238,0.33736 -9.51239,-0.25517 -26.83288,-7.36044 -1.35721,-0.55673 -2.73299,-0.23953 -14.34615,3.308 -7.08351,2.16375 -11.18786,2.68707 -18.31227,2.33479 -14.32442,-0.70826 -17.60564,-1.18207 -21.97474,-3.17314 -3.74621,-1.70717 -9.6366,-5.71804 -10.57934,-7.20357 -0.22439,-0.35365 -1.60194,-1.62687 -3.06118,-2.8294 -2.7131,-2.23582 -6.2418,-3.79425 -8.62195,-3.8078 -0.73378,-0.005 -1.55784,-0.22242 -1.83122,-0.48496 -0.27337,-0.26254 -1.92889,-1.05395 -3.67892,-1.75877 -8.89288,-3.58137 -13.52196,-8.87554 -20.461279,-23.40109 -2.014125,-4.21601 -4.576294,-8.24502 -5.890104,-9.26218 -0.447025,-0.3461 -1.427159,-0.76955 -2.178063,-0.94104 -0.750908,-0.17147 -1.962799,-0.9478 -2.693084,-1.72517 -1.293702,-1.3771 -5.285306,-8.98981 -6.639316,-12.66236 -0.37133,-1.00718 -1.11673,-2.82626 -1.656453,-4.04241 -0.925287,-2.08494 -1.078572,-2.1927 -2.684905,-1.88729 -0.936978,0.17813 -2.880809,0.74535 -4.31963,1.26048 -1.438822,0.51512 -4.263203,1.33972 -6.276402,1.83244 -2.013201,0.49271 -4.01447,1.06965 -4.447262,1.28206 -1.987969,0.9757 -3.735633,1.63471 -8.111809,3.05873 -2.589878,0.84277 -5.415198,1.78934 -6.278491,2.1035 -0.863293,0.31416 -4.748107,1.669 -8.632924,3.01076 -7.373386,2.54667 -23.567051,8.16456 -25.375564,8.80328 -0.575529,0.20327 -1.517302,0.5718 -2.09283,0.81897 -0.57553,0.24718 -2.2045198,0.82514 -3.6199847,1.28437 -2.3345782,0.7574 -2.6495697,0.75895 -3.3919802,0.0165 -1.3408196,-1.34082 -0.1842636,-2.26507 5.1807379,-4.14008 5.120314,-1.78953 12.394828,-4.41239 26.945188,-9.71529 4.604226,-1.67802 9.195372,-3.22103 10.202547,-3.42891 1.007174,-0.20788 2.066669,-0.56454 2.354433,-0.79257 0.287764,-0.22803 2.524477,-0.99535 4.970471,-1.70518 2.445995,-0.70982 5.271316,-1.63513 6.278491,-2.05625 2.470444,-1.03293 12.343059,-3.91944 14.780612,-4.32148 1.496352,-0.24679 1.96203,-0.56907 1.96203,-1.3578 0,-1.40869 -2.624549,-7.08912 -5.642863,-12.21308 -1.371334,-2.32803 -3.061968,-5.29226 -3.756961,-6.5872 -0.694994,-1.29493 -1.923145,-3.41392 -2.72923,-4.70886 -3.295477,-5.29404 -4.613588,-10.04495 -4.613588,-16.62895 0,-5.32749 1.769503,-11.79572 6.257386,-22.87322 0.816084,-2.01435 2.107934,-5.546 2.870777,-7.84812 0.762844,-2.30211 2.65945,-7.59958 4.214683,-11.77216 1.555226,-4.17258 3.313768,-9.4225 3.907863,-11.66648 1.333,-5.03494 4.783455,-13.41797 6.845455,-16.63132 2.008033,-3.12926 2.008697,-3.88659 0.0028,-2.84914 -2.179714,1.12717 -8.151489,3.34403 -11.541686,4.28455 -1.582703,0.43907 -3.113089,0.98736 -3.400852,1.21841 -0.287763,0.23105 -9.352333,2.70695 -20.143488,5.502 -27.995266,7.25117 -28.953928,7.49308 -35.247821,8.89461 -3.127631,0.69644 -6.5069026,1.537 -7.5094991,1.86789 -1.4891951,0.49147 -1.9635611,0.46093 -2.5912898,-0.16678 -0.6757228,-0.67573 -0.6691926,-0.86761 0.05413,-1.59094 1.1246143,-1.1246 2.5368822,-1.5299 28.0286309,-8.0435 8.489041,-2.1691 16.611837,-4.25788 18.05066,-4.64173 1.43882,-0.38385 5.724381,-1.524 9.523468,-2.53366 12.438256,-3.30567 19.321262,-5.67507 26.316246,-9.05912 3.030528,-1.46613 4.626018,-2.68368 7.006829,-5.34711 8.055291,-9.01149 16.915911,-17.973 20.092591,-20.32137 3.11489,-2.30271 5.86792,-3.79401 12.14115,-6.57685 2.14483,-0.95146 8.88042,-2.71326 13.30707,-3.48068 4.38592,-0.76036 9.22189,-0.66624 14.68453,0.28579 10.07315,1.75555 16.96862,4.2934 27.83085,10.243 15.76367,8.63427 24.79962,13.07078 31.51145,15.4716 3.95421,1.41442 11.61457,5.40135 16.26119,8.46332 7.78926,5.1329 15.60588,13.84412 18.71456,20.85636 l 0.8672,1.95614 0.48562,-6.01688 c 0.26709,-3.30929 0.50063,-12.13842 0.51897,-19.62028 l 0.0334,-13.60339 -1.73434,-7.32491 c -1.96181,-8.28559 -4.0596,-15.214 -6.20061,-20.47888 -2.35541,-5.79213 -1.82235,-5.4089 -8.62347,-6.19956 -11.05297,-1.28496 -22.48986,-5.13329 -33.8842,-11.40148 -7.03761,-3.8715 -16.43024,-12.59433 -20.68649,-19.21131 -2.36639,-3.67892 -5.9971,-11.0503 -5.9971,-12.17585 0,-0.38227 -0.18793,-0.91872 -0.41765,-1.19211 -0.75382,-0.89713 -3.84621,-11.14079 -6.70487,-22.21015 -1.75099,-6.78018 -6.89294,-19.423261 -8.60732,-21.163743 -0.67267,-0.68291 -0.61753,-2.773957 0.0792,-3.006224 0.9409,-0.313632 8.46167,0.457786 13.65642,1.400768 10.99435,1.995754 23.69601,5.281027 28.41611,7.349805 0.86331,0.378373 2.80137,1.172058 4.3068,1.763742 6.22426,2.446302 15.80344,7.739122 20.54558,11.352102 3.52744,2.68754 11.15599,10.52914 13.69326,14.07572 2.44858,3.4226 3.66879,5.91525 5.32633,10.88055 3.85271,11.54113 4.10997,24.5566 0.76079,38.48979 -0.97001,4.03538 -0.98889,4.52205 -0.24343,6.27848 2.25698,5.31791 4.55646,11.68443 5.31754,14.72259 0.46855,1.87047 1.4534,5.69559 2.18854,8.50027 0.73512,2.80467 1.61566,7.04264 1.95674,9.41772 l 0.62015,4.31833 0.60983,-3.66245 c 0.72819,-4.37328 4.26581,-15.60474 6.72425,-21.34852 0.96984,-2.26588 1.76335,-4.44451 1.76335,-4.84142 0,-0.3969 -0.96838,-4.67289 -2.15195,-9.50217 -2.00755,-8.19138 -2.1696,-9.41243 -2.41509,-18.19827 -0.28422,-10.17212 0.14327,-13.80092 2.70531,-22.96399 3.38265,-12.09793 12.4749,-25.34192 22.97811,-33.47045 11.46095,-8.869722 24.92581,-15.755259 41.40691,-21.174302 13.11827,-4.313328 35.74703,-9.249316 40.69973,-8.877781 2.85089,0.213862 3.51072,1.354636 2.00588,3.467992 -3.56454,5.00592 -9.6281,23.212121 -14.7545,44.301181 -1.2747,5.24387 -5.19444,16.32917 -7.3077,20.6667 -6.25392,12.83623 -19.59502,26.01905 -33.7236,33.32348 -12.12176,6.26691 -29.63066,11.73346 -42.03699,13.1246 l -3.37985,0.37899 -1.74153,3.13924 c -1.66457,3.00052 -6.07304,15.86463 -7.70995,22.49794 -3.08897,12.51762 -4.22708,20.54525 -4.84005,34.13928 l -0.35979,7.97892 1.78088,0.005 c 0.97948,0.003 2.98179,0.14886 4.44959,0.32523 l 2.66871,0.32068 0.34213,-1.76405 c 0.18818,-0.97023 1.45941,-3.98715 2.82497,-6.70427 2.05655,-4.09202 3.33621,-5.80557 7.4533,-9.98048 6.00421,-6.08852 11.00396,-9.43447 24.06755,-16.10654 5.32364,-2.71898 10.73884,-5.55432 12.03377,-6.30077 1.29494,-0.74644 2.62195,-1.30138 2.94891,-1.23319 0.32697,0.0681 0.71587,-0.19238 0.86425,-0.57904 0.14838,-0.38666 1.99985,-1.73735 4.11439,-3.00156 2.11454,-1.26419 3.96233,-2.42591 4.10622,-2.58158 0.14389,-0.15568 1.55655,-0.93603 3.13925,-1.73411 1.5827,-0.79811 4.05485,-2.14648 5.49369,-2.99644 1.43882,-0.84994 3.20463,-1.81067 3.92405,-2.13492 0.7194,-0.32427 2.71405,-1.30406 4.43252,-2.17735 1.71848,-0.87329 5.42484,-2.24982 8.23634,-3.05897 2.81151,-0.80915 5.5618,-1.71199 6.11177,-2.00633 2.32865,-1.24626 10.97148,-2.29061 19.15191,-2.31425 11.16765,-0.0322 16.94109,1.08069 23.54434,4.53856 0.57553,0.3014 1.52018,0.80052 2.09921,1.10919 0.57905,0.30867 2.69803,1.66093 4.70886,3.00502 6.04387,4.03988 8.16568,6.31778 20.25821,21.7485 4.81449,6.14355 6.28405,7.21723 14.00551,10.23256 4.43459,1.73175 17.50656,5.74829 22.47894,6.90695 2.14778,0.50048 4.61994,1.20489 5.49367,1.56539 0.87374,0.36047 3.82532,1.17311 6.55908,1.80586 2.73376,0.63275 6.38616,1.60555 8.11643,2.1618 1.73029,0.55624 4.67334,1.34131 6.54011,1.74461 1.86677,0.4033 6.57261,1.54855 10.45742,2.545 3.88483,0.99646 8.69598,2.19764 10.6915,2.66929 4.7931,1.1329 6.26853,2.08365 5.49027,3.53786 -0.43092,0.80519 -0.93398,1.01497 -1.97087,0.82198 -2.61495,-0.48671 -30.35849,-7.58794 -30.86283,-7.89963 -0.27663,-0.17095 -6.66995,-1.86103 -14.20741,-3.7557 -7.53745,-1.89468 -15.2197,-4.01521 -17.07168,-4.71228 -1.85195,-0.69708 -3.89157,-1.26887 -4.53247,-1.27064 -0.6409,-0.001 -1.8716,-0.37816 -2.7349,-0.83642 -2.07339,-1.10061 -9.22743,-3.44912 -9.54361,-3.13293 -0.13643,0.1364 0.48678,1.53237 1.38489,3.10211 2.82337,4.93473 5.25651,11.36316 12.3497,32.6283 1.26687,3.79799 3.29038,9.2132 4.49669,12.03377 3.86322,9.03291 5.04958,13.12749 5.43499,18.75834 0.41014,5.99232 0.22212,6.95566 -3.10924,15.93117 -2.50503,6.74912 -3.7819,11.56489 -4.5086,17.00426 -0.38313,2.86767 -1.92701,10.46571 -2.84443,13.99852 -0.33805,1.30175 -0.18738,1.51965 1.55395,2.24721 1.06055,0.44314 5.85411,1.99062 10.65236,3.43885 4.79822,1.44825 9.19494,2.85245 9.77048,3.12048 1.46246,0.68104 10.65487,3.61691 11.32478,3.61691 0.30296,0 1.29275,0.34619 2.19953,0.76928 0.90679,0.42312 3.85043,1.48349 6.54145,2.35638 2.69102,0.87289 5.16316,1.76122 5.49368,1.97406 0.33051,0.21285 1.54269,0.66282 2.69375,0.99994 2.85045,0.83484 10.3041,3.47468 14.1254,5.00276 3.17729,1.27052 4.0477,2.40062 2.90731,3.77469 -0.48166,0.58035 -1.13525,0.52775 -3.81826,-0.30729 -1.78042,-0.55412 -3.36303,-1.20777 -3.5169,-1.45253 -0.15393,-0.24477 -2.16335,-1.04324 -4.46547,-1.7744 -5.18104,-1.6455 -18.9866,-6.4532 -20.4051,-7.10594 -0.57551,-0.26485 -4.93122,-1.70469 -9.67934,-3.19967 -4.74809,-1.49497 -10.7519,-3.41198 -13.34179,-4.26001 -2.58986,-0.84805 -6.23924,-1.91031 -8.1097,-2.36061 -1.87047,-0.45028 -3.70085,-1.0599 -4.06751,-1.35469 -0.84512,-0.67947 -0.87114,-0.64442 -1.84962,2.49077 -3.84455,12.31873 -5.68126,15.98754 -10.04943,20.07376 -1.93243,1.8077 -4.01596,3.49197 -4.63004,3.74286 -8.56762,3.50016 -10.77093,4.13755 -15.50473,4.48525 l -4.97047,0.36507 -9.77783,9.87903 c -8.11232,8.1963 -10.29576,10.11201 -12.81859,11.2468 -1.6724,0.75227 -3.39484,1.67169 -3.82759,2.04323 -0.43277,0.37153 -3.49355,1.4081 -6.8017,2.30357 -3.30818,0.89542 -7.30979,1.98292 -8.8925,2.41659 -1.5827,0.43369 -4.40802,0.98296 -6.27849,1.22059 -1.87045,0.23764 -5.75528,1.09095 -8.63292,1.89622 -4.88618,1.36734 -5.85468,1.46111 -14.64981,1.41794 l -9.41773,-0.0461 -4.77112,3.87347 c -10.40016,8.44352 -19.99629,11.42235 -31.0686,9.64417 z m 14.12099,-3.90956 c 3.67986,-0.99416 9.54703,-4.03541 12.56259,-6.51185 1.29494,-1.06343 3.23735,-2.47022 4.31647,-3.12627 2.01056,-1.22227 2.53848,-2.15383 1.22059,-2.15383 -1.62209,0 -5.77211,-2.2251 -9.60671,-5.15078 -2.22204,-1.69535 -8.27805,-7.08925 -13.4578,-11.98647 -5.17976,-4.89724 -11.18356,-10.34038 -13.34179,-12.09586 -3.65126,-2.96992 -9.72349,-9.47522 -12.77794,-13.68927 -3.73313,-5.15037 -7.62715,-10.98648 -7.62715,-11.43106 0,-0.27677 -0.76681,-1.52187 -1.704,-2.76691 -0.9372,-1.24504 -3.80099,-5.44219 -6.36396,-9.32702 -6.35529,-9.63299 -6.66972,-9.94641 -9.94979,-9.91797 -3.49326,0.0303 -5.71025,0.87629 -9.35795,3.571 -2.19028,1.61806 -3.39282,2.99954 -4.40179,5.05681 -0.76353,1.5568 -1.26014,2.95864 -1.10359,3.11519 0.24518,0.24519 8.37829,-3.49605 12.55669,-5.77609 3.40224,-1.85649 6.14776,-0.0863 9.01708,5.8139 0.83121,1.7092 1.6941,3.22688 1.91754,3.37263 0.22344,0.14574 1.1326,2.36127 2.02037,4.9234 1.25955,3.63516 1.61411,5.5422 1.61411,8.68184 0,3.65827 -0.1454,4.22416 -1.60206,6.23501 -1.67334,2.30997 -3.50661,3.32833 -7.75862,4.30981 -3.25038,0.75028 -4.60231,0.38273 -7.75313,-2.10785 l -2.56472,-2.02729 3.17922,6.34108 c 6.46108,12.88689 13.34741,21.85983 25.39384,33.08824 9.31796,8.68524 16.04376,13.253 21.11407,14.33944 2.88533,0.61822 10.87947,0.18706 14.45843,-0.77983 z m -26.41637,-0.5094 c 0,-0.26929 -2.47216,-2.61751 -5.49368,-5.21821 -9.17818,-7.89991 -18.97736,-18.11727 -22.34327,-23.2967 -1.66775,-2.56635 -3.31441,-5.09527 -3.65922,-5.61985 -0.45595,-0.69364 -0.74423,-0.7843 -1.05706,-0.33246 -0.6346,0.91659 -3.09435,1.73315 -5.22082,1.73315 -2.2605,0 -4.83504,-1.5113 -6.95425,-4.08227 -0.86656,-1.05127 -1.57558,-1.61872 -1.57558,-1.26096 0,1.1819 6.18037,13.00481 9.12405,17.45413 5.5928,8.45337 7.15455,10.38959 10.64071,13.19226 3.93049,3.15992 11.14907,6.98372 14.43911,7.64871 2.8451,0.57501 12.10001,0.40843 12.10001,-0.2178 z m -44.6292,-2.44024 c 3.16793,-0.65748 8.46464,-3.41666 10.28211,-5.35618 l 1.23103,-1.31373 -3.11006,-4.09462 c -4.78777,-6.30351 -7.62528,-11.0204 -11.43336,-19.00609 l -1.87124,-3.92405 -2.51128,5.0679 c -2.89599,5.84429 -8.94793,15.29193 -10.94643,17.08843 -0.75135,0.67534 -2.72837,2.25176 -4.39338,3.50312 -3.52368,2.64822 -3.77926,2.30588 3.95052,5.29115 7.84648,3.0303 13.469,3.85092 18.80209,2.74407 z m -75.97014,-0.98641 c -1.00717,-0.22566 -3.12616,-0.53843 -4.70887,-0.69507 l -2.87764,-0.28484 2.09283,0.70748 c 1.15106,0.38906 3.27006,0.70188 4.70887,0.69509 2.48273,-0.0115 2.52273,-0.0335 0.78481,-0.42266 z m 20.9283,-0.52655 c 4.89343,-0.56204 23.42666,-5.94255 28.44949,-8.2593 5.72876,-2.64241 10.18854,-8.47921 17.86029,-23.37474 1.03054,-2.0009 2.08113,-3.88792 2.33464,-4.1934 0.281,-0.3386 -0.1607,-1.8799 -1.13158,-3.94852 -1.26282,-2.69064 -1.64884,-4.33689 -1.86462,-7.95188 -0.36944,-6.18944 0.56079,-8.10792 5.52712,-11.39906 1.15912,-0.76814 1.16731,-0.8404 0.3857,-3.40085 -0.43922,-1.43883 -0.80113,-3.38123 -0.80424,-4.31647 -0.003,-0.93522 -0.23227,-1.70041 -0.50925,-1.70041 -0.27697,0 -1.81032,-0.48893 -3.40748,-1.08649 -5.4,-2.02041 -7.95242,-7.33769 -6.64179,-13.83643 1.38093,-6.84732 3.92078,-15.77259 4.70654,-16.5393 0.77614,-0.75729 1.66426,-0.79729 7.80099,-0.35133 3.86076,0.28055 8.10331,0.31143 9.58758,0.0698 l 2.66241,-0.4335 -1.47784,-2.80559 c -1.96798,-3.73609 -4.63952,-5.58487 -9.58758,-6.63496 -5.27592,-1.11964 -8.76255,-0.63839 -15.36665,2.12097 l -1.91519,0.80022 1.09888,1.48633 c 0.81461,1.10182 1.17239,2.55862 1.383,5.63128 0.24408,3.56101 0.0792,4.80585 -1.17012,8.83665 -3.09444,9.98355 -10.39725,28.05369 -10.86421,26.88256 -0.16214,-0.40664 -0.2658,-0.15073 -0.23037,0.56868 0.0667,1.35345 -2.39831,7.72169 -4.75925,12.29537 -0.74272,1.43882 -1.36151,2.76458 -1.37508,2.94612 -0.059,0.79006 -5.45693,8.81479 -8.33985,12.39846 -2.88661,3.58827 -9.94642,9.51411 -12.61313,10.58719 -0.57553,0.23158 -4.10719,1.74566 -7.84812,3.36457 -15.12184,6.54417 -24.63493,9.68264 -29.34906,9.68264 -1.31571,0 -2.31371,0.22811 -2.21779,0.50687 0.55866,1.62372 6.7149,7.01329 9.54089,8.3527 4.49247,2.12923 6.8347,2.6558 15.19881,3.41685 9.64131,0.87731 9.76024,0.87956 14.93686,0.28499 z m 10.20255,-0.005 c 0.65958,-0.28343 0.75629,-0.44964 0.2616,-0.44964 -0.43164,0 -1.25569,0.20231 -1.83122,0.44964 -0.65958,0.28342 -0.75629,0.44965 -0.26159,0.44965 0.43163,0 1.25569,-0.20232 1.83121,-0.44965 z m 56.94856,-8.13227 c -0.1704,-0.44404 -0.42203,-0.69517 -0.55917,-0.55805 -0.13715,0.13719 -0.0942,0.5005 0.0955,0.80741 0.51591,0.83473 0.81746,0.67259 0.46366,-0.24936 z m 97.39766,-0.24779 c 2.58988,-0.28829 6.23926,-0.98038 8.10971,-1.53797 1.87047,-0.55758 6.69706,-1.74306 10.72577,-2.6343 10.00386,-2.21316 17.76569,-4.50061 20.91305,-6.16312 1.72486,-0.91112 5.46916,-4.28011 10.86939,-9.77991 4.53097,-4.61449 8.2392,-8.59176 8.24052,-8.83837 0.001,-0.24661 -0.40962,-0.2893 -0.9132,-0.0949 -0.5036,0.19442 -2.79917,0.58195 -5.10128,0.86116 -2.30211,0.27921 -6.06921,0.74487 -8.37131,1.03481 -2.30212,0.28992 -8.1194,0.66378 -12.92729,0.83077 -7.29909,0.25353 -9.41442,0.14929 -12.81859,-0.63167 -2.24233,-0.51444 -4.3124,-1.11183 -4.60017,-1.32755 -0.28777,-0.21572 -1.40611,-0.55723 -2.48523,-0.75888 -1.07912,-0.20165 -1.96204,-0.52513 -1.96204,-0.71882 0,-0.1937 -0.76517,-0.79544 -1.70041,-1.3372 -7.33324,-4.24797 -33.02318,-22.00741 -38.44895,-26.57973 -8.85232,-7.45988 -23.92195,-25.51692 -27.11381,-32.48885 -1.65591,-3.617 -3.31435,-5.10887 -8.31401,-7.47904 -5.71533,-2.70943 -9.28171,-2.71993 -15.04784,-0.0442 -6.2823,2.91516 -9.83081,7.20368 -9.83081,11.88089 0,2.59453 0.68349,3.54755 1.18067,1.6463 0.3491,-1.33494 11.53895,-7.40216 15.70877,-8.51742 1.94152,-0.51927 2.55342,-0.45512 4.69518,0.49229 2.08628,0.92286 2.88944,1.75433 5.25448,5.43972 5.60061,8.72729 7.04374,14.95294 4.58626,19.78498 -2.53593,4.98632 -5.75606,7.03551 -11.02887,7.01846 -1.8752,-0.006 -3.87648,-0.20031 -4.44727,-0.43166 -1.03296,-0.41866 -1.03292,-0.42284 0.008,-0.89572 0.85965,-0.39029 0.79541,-0.42664 -0.35996,-0.20363 -1.20631,0.23286 -1.79773,-0.17313 -4.15758,-2.85407 -1.51317,-1.71904 -2.85112,-3.02564 -2.97321,-2.90354 -0.1221,0.12208 0.83448,1.70434 2.12572,3.51612 1.29123,1.81177 4.00476,5.93057 6.03007,9.15289 6.90513,10.98622 13.64113,18.94598 21.83288,25.79933 2.30211,1.92598 8.1882,7.32435 13.08019,11.99636 12.99238,12.40823 17.0581,15.04049 25.37564,16.42908 5.59724,0.9344 7.98048,0.99242 13.86492,0.33742 z m -195.2769,-8.61349 c 3.22726,-1.04734 10.79335,-3.95284 17.38635,-6.67662 14.16688,-5.8528 17.86523,-8.43847 25.35296,-17.72516 3.64991,-4.52685 4.96701,-6.6852 7.18003,-11.76603 10.43992,-23.96886 9.64393,-21.91956 7.57237,-19.49526 -1.90913,2.23421 -4.77334,3.49974 -8.88519,3.92584 -3.74919,0.3885 -6.61194,-0.38296 -9.12557,-2.45917 -2.59222,-2.14115 -3.49851,-4.00809 -3.86382,-7.95949 -0.52155,-5.64142 3.54968,-18.6139 6.82974,-21.76203 1.5783,-1.51485 1.70239,-1.54319 4.5007,-1.02773 1.5827,0.29154 3.11308,0.72065 3.40084,0.95357 0.28777,0.23293 2.87764,0.5746 5.75529,0.75928 2.87765,0.18466 6.35044,0.46621 7.71732,0.62566 l 2.48523,0.2899 v -2.10468 c 0,-1.68105 -0.36347,-2.49005 -1.8058,-4.01936 -0.99318,-1.05309 -1.46406,-1.78357 -1.04641,-1.6233 0.41767,0.16027 0.7533,0.12221 0.74588,-0.0847 -0.0199,-0.55183 -3.37062,-1.96928 -7.76766,-3.28585 -3.53646,-1.0589 -4.21535,-1.10478 -8.1664,-0.55206 -6.34101,0.88706 -10.03081,2.31629 -13.35207,5.17188 -3.16786,2.7237 -5.59623,5.11209 -6.80168,6.68971 -0.43165,0.56489 -1.86402,2.32 -3.18305,3.90022 -3.38901,4.0601 -8.15471,11.51344 -9.98131,15.61031 -3.79681,8.51582 -5.41193,10.44555 -11.23467,13.42321 -1.68816,0.86328 -4.01844,2.21996 -5.17842,3.01483 -2.53282,1.73563 -7.5363,8.00624 -8.31793,10.42446 -0.43669,1.35106 -0.84908,1.73372 -1.8684,1.73372 -2.11809,0 -1.93969,-1.91167 0.55056,-5.89987 1.2081,-1.93484 2.679,-4.04761 3.26864,-4.69508 l 1.07207,-1.17723 -1.79163,-0.0115 c -4.09058,-0.0262 -8.47367,-3.44108 -9.16812,-7.14282 -0.75484,-4.02365 2.554,-12.42942 6.30898,-16.02733 1.90375,-1.82411 2.45305,-2.81069 3.18309,-5.71697 0.99766,-3.97172 2.68841,-6.28431 6.23216,-8.52429 1.41236,-0.89275 2.55424,-2.10098 2.91267,-3.08188 1.44745,-3.96138 3.07812,-6.52284 5.88846,-9.24954 l 3.02226,-2.93231 -0.33482,-2.84883 c -0.66149,-5.62826 1.69924,-11.91845 5.37884,-14.33196 0.84661,-0.5553 2.89092,-1.08751 4.82762,-1.2568 l 3.35917,-0.29362 1.55835,-4.68084 c 1.28989,-3.87444 1.98383,-5.10633 4.02814,-7.15062 2.50368,-2.50368 4.97613,-3.59455 8.15996,-3.60024 1.43849,-0.003 1.73065,-0.26815 2.49401,-2.26699 1.60281,-4.19692 4.63209,-6.37104 12.14912,-8.7195 2.06903,-0.64642 4.71139,-1.94888 5.96295,-2.93928 4.96306,-3.92742 14.33189,-4.52811 17.17389,-1.10109 0.58155,0.70126 1.54153,0.78815 6.01689,0.54463 2.92872,-0.15937 6.54718,-0.0621 8.041,0.21606 2.24943,0.41891 3.46293,0.30826 7.06331,-0.64408 2.69622,-0.71317 4.40375,-1.43857 4.49603,-1.91002 0.20288,-1.03647 -2.19448,-6.34478 -4.19452,-9.28765 -2.41393,-3.55186 -6.82468,-8.44525 -9.39551,-10.42358 -5.72801,-4.40786 -8.18295,-6.07818 -10.3647,-7.05199 -1.29494,-0.578 -3.17849,-1.55628 -4.18568,-2.17395 -1.00717,-0.61767 -4.53882,-2.25406 -7.8481,-3.63639 -8.9338,-3.73178 -15.17804,-6.60779 -17.50089,-8.06065 -1.13643,-0.71081 -3.1377,-1.79413 -4.44725,-2.40739 -1.30955,-0.61324 -4.68822,-2.47878 -7.50813,-4.14562 -2.81993,-1.66684 -5.99841,-3.34954 -7.0633,-3.73934 -1.0649,-0.38978 -2.92435,-1.19876 -4.13213,-1.79774 -3.28957,-1.63136 -11.35518,-4.13627 -16.37792,-5.0864 -10.20765,-1.93095 -23.39891,0.79323 -34.25755,7.0747 -4.33682,2.50873 -9.46999,7.27885 -18.932872,17.59377 -11.087511,12.08587 -14.077189,17.53455 -20.666194,37.66423 -2.260645,6.90633 -4.326873,13.02787 -4.591628,13.60339 -0.264755,0.57553 -0.885821,2.34136 -1.38015,3.92406 -0.494329,1.58271 -1.425615,4.05486 -2.069536,5.49368 -0.643915,1.43882 -1.690446,4.14641 -2.325628,6.01689 -0.635176,1.87046 -1.467562,3.99367 -1.849743,4.71825 -1.527562,2.89612 -3.045225,10.21695 -3.089288,14.90203 -0.03903,4.15077 0.150066,5.17393 1.5956,8.63291 0.901943,2.15823 2.886324,6.04306 4.409747,8.63293 3.469282,5.89794 7.039813,12.47839 8.161844,15.04222 0.472256,1.07912 0.999528,1.96218 1.171696,1.96235 0.172175,1.8e-4 0.229337,-1.20851 0.127026,-2.68598 -0.294776,-4.25696 1.924626,-9.2718 5.785947,-13.07364 3.276468,-3.22601 5.267842,-4.11459 9.23241,-4.11967 2.957132,-0.003 5.355027,1.17092 7.709169,3.77666 3.20687,3.54964 7.01971,12.90763 7.01971,17.22874 0,2.15389 -1.89688,4.93692 -4.35062,6.38305 -3.89279,2.29425 -9.051327,7.89151 -11.066616,12.00779 -2.644684,5.40182 -2.623292,6.12277 0.22429,7.55872 1.664684,0.83946 3.256039,1.1772 5.546406,1.1772 4.06143,0 5.90433,-0.62835 10.2888,-3.50811 2.87922,-1.89109 4.08934,-3.1632 6.64829,-6.98889 3.99694,-5.9755 5.53042,-10.70657 6.32719,-19.52063 0.68059,-7.52885 0.20919,-13.00228 -1.83074,-21.25669 -1.77391,-7.17798 -3.22393,-10.73575 -6.18395,-15.17302 -3.99209,-5.98439 -5.78758,-7.96888 -9.49815,-10.4979 -1.8727,-1.27638 -3.4105,-2.58616 -3.41735,-2.91064 -0.022,-1.04968 1.41924,-1.81904 2.7719,-1.47954 1.38659,0.34801 7.57882,6.06021 11.26409,10.39087 1.20101,1.41136 2.2595,2.47086 2.35217,2.35444 0.0927,-0.11641 2.13544,-3.1547 4.53946,-6.75175 5.83253,-8.72701 8.8964,-16.42498 9.26677,-23.28274 0.15443,-2.85956 0.56021,-5.19494 1.03322,-5.94654 2.58459,-4.10673 3.32122,6.78666 0.92398,13.66385 -0.67709,1.94241 -1.09307,3.53165 -0.9244,3.53165 0.16864,0 1.31041,-0.82253 2.53724,-1.82781 2.94147,-2.41032 6.70949,-7.48021 8.9408,-12.02988 2.18951,-4.46447 3.11973,-5.32535 4.45171,-4.11993 0.89587,0.81075 0.84013,1.03101 -1.2238,4.83547 -1.18933,2.19231 -3.0392,5.28096 -4.11081,6.86366 -2.08531,3.07985 -7.60339,8.61202 -10.18071,10.20675 -1.93441,1.19691 -4.44728,3.45291 -4.44728,3.99267 0,0.22013 -1.0595,1.91588 -2.35443,3.7683 -1.29495,1.85243 -2.35443,3.61783 -2.35443,3.92314 0,0.30528 -0.295,0.74334 -0.65553,0.97346 -1.02028,0.65121 -3.53014,4.56382 -3.53014,5.50311 0,0.46353 0.6942,2.68758 1.54266,4.94234 3.4024,9.04179 4.4503,15.21808 4.42388,26.07428 -0.0217,8.93266 -0.79682,13.37562 -3.50161,20.072 -1.46423,3.62507 -6.2868,10.19063 -9.08631,12.37031 -3.62456,2.82207 -8.93796,5.15196 -12.30458,5.39548 -2.808193,0.20313 -3.024845,0.30247 -2.344248,1.07489 0.412452,0.4681 1.710848,2.77485 2.885338,5.12611 6.73746,13.48798 11.09057,18.59449 18.60182,21.8213 7.53263,3.236 19.21572,4.22649 25.56133,2.16715 z m 235.82549,0.25136 c 0.43164,-0.27895 0.54936,-0.50719 0.26161,-0.50719 -0.28777,0 -0.87638,0.22824 -1.30803,0.50719 -0.43164,0.27897 -0.54937,0.5072 -0.2616,0.5072 0.28776,0 0.87636,-0.22823 1.30802,-0.5072 z m -210.10608,-8.42579 c -1.57962,-0.61881 -1.97383,-0.53202 -1.29557,0.28522 0.34404,0.41454 1.00312,0.60882 1.46463,0.43173 0.72352,-0.27766 0.70024,-0.37641 -0.16906,-0.71695 z m 70.29122,-7.40099 c 0.37997,-0.46632 -0.0896,-1.93028 -1.63636,-5.10127 l -2.16925,-4.44727 -3.90868,0.1416 c -2.14979,0.0778 -4.07539,0.31332 -4.27916,0.5232 -0.42969,0.44262 2.18545,4.44371 4.87449,7.45782 1.64516,1.84406 2.12383,2.07993 4.22083,2.07993 1.30089,0 2.60505,-0.2943 2.89813,-0.65401 z m 117.17523,-4.89417 c -0.17386,-0.17386 -0.62512,-0.19244 -1.00281,-0.0412 -0.41738,0.16702 -0.29341,0.29099 0.3161,0.3161 0.55155,0.0226 0.86057,-0.10094 0.68671,-0.2748 z m 24.20926,-1.26058 c 2.44598,-0.27249 6.33081,-0.72328 8.63291,-1.00178 2.30212,-0.27848 8.18821,-0.75291 13.08019,-1.05426 10.77033,-0.6635 10.72913,-0.65523 16.30483,-3.2681 7.6387,-3.57961 10.61929,-7.19864 14.13833,-17.16671 3.95236,-11.19548 7.9774,-29.29963 6.51409,-29.29963 -0.32688,0 -0.59433,0.32758 -0.59433,0.72795 0,0.40036 -1.0595,2.87269 -2.35443,5.49403 -1.29493,2.62134 -2.35444,4.85371 -2.35444,4.96082 0,0.10711 -0.49606,1.31619 -1.10236,2.68683 -0.8264,1.86823 -1.22331,2.31055 -1.58552,1.76694 -0.3294,-0.49441 -0.38399,-0.29598 -0.17154,0.62359 0.20093,0.86966 -0.1433,2.35639 -0.96913,4.18566 -0.70441,1.5603 -1.45807,3.42552 -1.67481,4.14494 -1.21463,4.03154 -4.42075,9.85088 -6.26463,11.37076 -7.79047,6.42158 -22.3983,0.73867 -29.99003,-11.66704 -3.7247,-6.08657 -5.92094,-13.10259 -6.66323,-21.28604 -0.31583,-3.48209 -0.34182,-3.53166 -1.85066,-3.53166 -3.94082,0 -18.06165,4.71939 -16.92109,5.65527 0.26623,0.21845 1.8012,1.27553 3.41105,2.34906 5.12719,3.41907 8.02584,8.21512 4.96508,8.21512 -0.84801,0 -1.80535,-0.68343 -2.9086,-2.07642 -1.71266,-2.1624 -7.9189,-6.18668 -14.3298,-9.29179 -8.44787,-4.09171 -13.10679,-7.19517 -18.67165,-12.43774 -9.68526,-9.12438 -15.8379,-14.3882 -16.81772,-14.3882 -0.28911,0 -1.88719,-0.8404 -3.5513,-1.86754 -4.0315,-2.48839 -9.52689,-3.86752 -15.45565,-3.87878 -6.52334,-0.0123 -10.64057,1.20751 -14.68206,4.3502 -4.16615,3.2396 -5.69856,5.93194 -5.61527,9.86558 0.0823,3.88221 0.49185,4.47847 1.87162,2.72437 1.47925,-1.88056 8.7687,-6.59269 9.66596,-6.24838 0.39364,0.15104 0.58778,0.0677 0.43141,-0.18534 -0.41637,-0.67371 1.69733,-1.90293 5.63555,-3.27739 3.4507,-1.20429 3.47451,-1.20524 5.32326,-0.20962 2.47105,1.33075 9.39169,8.61086 12.21882,12.85351 2.19161,3.28889 2.25981,3.51489 2.07212,6.86565 -0.15569,2.77895 -0.4949,3.89887 -1.71368,5.65756 -1.81949,2.62552 -4.78242,4.43208 -8.55127,5.21389 -5.5934,1.16029 -8.28602,0.62667 -12.91784,-2.56012 -1.29813,-0.89313 -2.36023,-1.47475 -2.36023,-1.29251 0,0.36219 4.21994,5.23436 9.15614,10.57135 2.83721,3.06756 7.24469,6.88618 12.32696,10.68001 1.02337,0.76392 6.67353,4.62078 12.55591,8.57078 5.88238,3.95002 12.14475,8.21539 13.91635,9.47862 4.10938,2.93014 11.34386,6.32546 15.51262,7.28046 3.47034,0.79499 13.72609,0.65547 22.33807,-0.3039 z m -150.5456,-6.13901 c 3.38325,-0.93255 3.47354,-1.30479 1.18086,-4.86735 -0.65739,-1.0215 -1.81897,-3.0881 -2.58126,-4.59241 l -1.386,-2.73513 -1.79461,1.36882 c -0.98705,0.75285 -1.90179,1.75994 -2.03276,2.23798 -0.61616,2.24883 -0.89271,6.12717 -0.5722,8.02423 0.35234,2.08557 0.36493,2.09528 2.26224,1.74618 1.04935,-0.19306 3.26503,-0.72511 4.92373,-1.18232 z m 18.64614,-3.24557 c 5.27649,-2.69187 4.86654,-9.37694 -1.33312,-21.73921 -1.01019,-2.01434 -2.17597,-4.12561 -2.59061,-4.69168 -0.7384,-1.00806 -0.79076,-1.00938 -2.54652,-0.0638 -0.98596,0.53097 -2.1467,0.82954 -2.57945,0.66348 -0.48019,-0.18426 -0.69405,-0.0575 -0.54879,0.32544 0.14336,0.37794 -1.17783,1.20718 -3.32314,2.08573 -1.95863,0.80212 -4.22213,2.0713 -5.03003,2.82042 -1.23362,1.14389 -1.42152,1.65398 -1.17315,3.18458 0.16267,1.00241 0.63494,2.20537 1.0495,2.67327 0.41455,0.46789 1.54298,2.30404 2.50759,4.08034 2.34505,4.31823 6.3538,9.37838 8.43505,10.64737 2.1457,1.30827 4.58643,1.31309 7.13267,0.0141 z m 169.88373,-8.19542 c 2.20089,-1.0444 2.32584,-2.58145 0.48433,-5.95727 -0.70639,-1.29494 -1.62496,-3.06237 -2.04128,-3.92763 -0.78649,-1.63462 -5.51748,-6.36419 -9.9552,-9.95222 -3.4356,-2.7778 -4.05279,-4.36671 -3.42314,-8.81274 0.74338,-5.24931 4.24019,-12.92471 7.50787,-16.47956 4.25797,-4.63219 10.35116,-4.18378 15.68957,1.15463 3.33078,3.33078 6.05348,9.17863 6.06866,13.03435 0.007,1.92293 0.63041,1.81735 1.54329,-0.2616 0.41066,-0.93523 1.82423,-3.58398 3.14127,-5.88609 3.39591,-5.93592 4.98941,-9.23204 7.20884,-14.91141 1.86653,-4.77629 1.9431,-5.22598 1.95983,-11.51056 l 0.0174,-6.54009 -2.5289,-6.54011 c -1.3909,-3.59704 -2.85634,-7.24641 -3.25655,-8.1097 -1.1206,-2.41728 -5.29943,-14.04084 -6.45477,-17.95419 -4.55025,-15.41253 -12.42529,-31.54268 -18.4619,-37.81485 -1.29955,-1.35025 -6.96492,-8.56265 -7.97691,-10.15511 -1.64082,-2.58202 -8.18914,-9.09105 -11.54889,-11.47964 -4.49424,-3.1951 -10.52491,-6.36378 -13.86502,-7.28504 -1.58269,-0.43653 -5.4675,-1.06662 -8.63291,-1.40017 -8.02332,-0.84546 -20.47177,0.36081 -27.20249,2.63593 -2.56711,0.86775 -4.90142,1.81167 -5.18737,2.09762 -0.28593,0.28593 -0.83502,0.51988 -1.22017,0.51988 -2.66843,0 -30.17567,14.973 -30.9189,16.83007 -0.096,0.23969 -0.57858,0.43578 -1.07257,0.43578 -0.494,0 -1.12184,0.20831 -1.39522,0.4629 -0.52095,0.48519 -7.16584,4.0298 -16.45488,8.77762 -7.53847,3.85305 -7.93586,4.09987 -13.865,8.61094 -8.07877,6.1466 -13.39936,13.16875 -15.08429,19.90842 -0.32794,1.31168 -0.18161,1.45179 2.39705,2.29534 3.94853,1.2917 6.65172,2.73459 8.89549,4.74816 1.07996,0.96915 2.20839,1.76209 2.50766,1.76209 0.29927,0 1.66371,-1.04726 3.0321,-2.32722 2.81639,-2.63441 4.5174,-3.42807 7.34722,-3.42807 2.77742,0 7.0408,1.36761 8.17691,2.62299 0.52948,0.58508 2.2455,1.4367 3.81335,1.89249 1.56783,0.45578 3.63606,1.29211 4.59603,1.85849 1.95415,1.153 5.24034,5.42977 5.75854,7.4944 0.23893,0.95201 1.13073,1.74515 3.02329,2.68887 1.47641,0.73622 3.62616,2.23308 4.77722,3.32635 2.07257,1.96854 2.14093,1.98989 7.0633,2.20523 4.05627,0.17748 5.45162,0.46712 7.5865,1.57482 3.17192,1.64577 7.06332,4.9174 7.06332,5.93836 0,0.77488 0.19044,0.80928 5.75527,1.04019 4.14092,0.17181 5.50212,0.66692 9.06031,3.29552 1.91879,1.41748 3.27182,2.99693 4.43193,5.17352 1.49088,2.79717 1.88089,3.16812 3.6374,3.45964 2.63272,0.43695 7.19499,2.61659 9.79413,4.67921 1.16285,0.92279 3.17375,2.23781 4.46869,2.92226 4.85383,2.56558 10.46414,9.77677 10.46414,13.45008 0,0.65646 0.23544,1.33907 0.52322,1.51692 0.31583,0.1952 0.52319,-0.51487 0.52319,-1.79161 0,-2.08872 2.18511,-10.84368 4.19694,-16.81571 l 1.03576,-3.07458 -1.2567,-2.84163 c -0.6912,-1.56289 -1.69197,-3.2871 -2.22394,-3.83156 -1.51335,-1.54885 -4.8913,-6.04094 -4.8913,-6.50457 0,-0.22982 -1.3538,-1.34081 -3.00844,-2.46888 -4.87495,-3.32351 -10.84789,-9.96819 -13.53389,-15.05592 -0.7411,-1.40378 -1.66978,-3.14881 -2.0637,-3.87785 -0.39394,-0.72904 -1.09929,-2.82072 -1.56748,-4.64819 -0.92986,-3.6296 -0.56378,-4.51154 1.54839,-3.7302 0.7581,0.28044 1.20035,1.05736 1.45673,2.55907 0.46919,2.74846 1.52205,4.99778 4.97211,10.62234 2.63975,4.30353 8.55402,10.58858 8.9228,9.48221 0.0928,-0.27846 -0.43797,-2.18825 -1.17952,-4.24401 -1.07627,-2.98368 -1.31725,-4.50262 -1.19448,-7.52918 0.12537,-3.09044 0.31965,-3.8231 1.05073,-3.96257 0.5892,-0.1124 0.98432,0.24469 1.15171,1.04087 0.14012,0.66658 0.63777,3.20955 1.10587,5.65102 1.20338,6.27657 3.42064,11.63872 6.81831,16.48926 1.61258,2.3021 3.51415,5.32179 4.22572,6.71042 l 1.29377,2.52475 2.70116,-4.01526 c 2.76471,-4.10966 7.74017,-9.14396 9.03708,-9.14396 0.39833,0 0.97929,0.47656 1.29102,1.05902 0.48127,0.89927 0.31125,1.27402 -1.12709,2.48431 -3.54389,2.98197 -8.82061,9.55117 -8.82061,10.98109 0,0.36454 -0.21857,1.07162 -0.48572,1.5713 -2.63558,4.92967 -5.36136,14.56322 -6.35559,22.46214 -1.17524,9.33678 0.256,20.51958 3.43386,26.82995 3.35478,6.66171 7.97029,11.56779 13.5495,14.40247 3.01352,1.53113 4.15449,1.83008 6.98422,1.83008 2.02874,0 4.09442,-0.33792 5.16178,-0.84442 z M 89.112445,364.59336 c 0.164806,-0.79734 1.904968,-3.68642 3.867001,-6.42018 2.882297,-4.01596 4.319736,-5.47897 7.485244,-7.61839 5.84845,-3.95271 6.04608,-4.73637 3.14941,-12.48814 -3.88159,-10.38753 -8.449731,-12.9665 -15.190832,-8.57604 -4.84,3.15226 -7.375361,10.69846 -6.041236,17.981 1.205801,6.58211 5.280343,19.28245 6.036315,18.81522 0.21694,-0.13407 0.529284,-0.89614 0.694098,-1.69347 z M 427.79592,355.7372 c 2.11591,-5.96674 3.65298,-12.17073 4.13841,-16.7036 0.36989,-3.45399 -0.83617,-9.09731 -2.18313,-10.21518 -0.39511,-0.32791 -0.71838,-0.86806 -0.71838,-1.20034 0,-1.87449 -5.89885,-6.06943 -8.53471,-6.06943 -2.99443,0 -7.49143,4.77414 -8.97009,9.52294 -0.47481,1.52483 -1.07006,3.15548 -1.32278,3.62364 -0.58215,1.07839 -1.30177,4.65573 -1.14439,5.68889 0.377,2.47496 0.89769,3.18593 4.00276,5.46559 4.72633,3.46995 8.77993,8.0069 10.77538,12.06023 0.92684,1.8827 1.78538,3.3229 1.90783,3.20044 0.12245,-0.12245 1.04455,-2.54038 2.0491,-5.37318 z m 29.72555,1.44469 c -0.27337,-0.25746 -1.32109,-0.60137 -2.32827,-0.76426 -1.81789,-0.29403 -1.81597,-0.29092 0.26161,0.42787 2.5985,0.89899 2.6778,0.9119 2.06666,0.33639 z m -310.6389,-2.93796 c 2.52377,-1.35633 5.02739,-2.8518 5.56361,-3.32326 0.53622,-0.47146 2.50301,-3.9044 4.37064,-7.62874 6.51167,-12.98528 16.65443,-26.18915 22.43923,-29.21148 0.97702,-0.51047 1.77642,-1.12894 1.77642,-1.3744 0,-0.71948 4.63992,-2.48738 9.10432,-3.46892 6.97746,-1.53405 14.54565,-0.30738 18.84799,3.05494 l 2.05353,1.60484 3.13073,-1.73429 c 5.58323,-3.09289 11.92663,-3.93244 17.53403,-2.32065 4.13596,1.18885 5.76153,2.0787 8.33809,4.56434 3.79581,3.66185 4.80147,10.18938 2.773,17.9989 -1.09868,4.22981 -1.12468,4.19267 2.4362,3.48049 l 1.56379,-0.31276 0.36517,-5.83492 c 0.43084,-6.88397 1.3096,-8.82843 5.67545,-12.55831 4.10326,-3.50551 9.5945,-5.23556 15.69406,-4.9445 4.15257,0.19814 4.98833,0.42703 8.80621,2.41175 2.32002,1.20605 4.28602,2.19283 4.36889,2.19283 0.0829,0 0.28332,-0.81742 0.44545,-1.81647 0.86777,-5.34749 8.60885,-11.88739 16.08286,-13.58733 8.63174,-1.96325 19.90515,0.14444 26.74306,4.9999 0.76383,0.54239 1.61791,0.98615 1.89796,0.98615 0.28006,0 0.82211,0.37707 1.20458,0.83791 0.38246,0.46084 1.88281,1.61631 3.3341,2.56771 1.4513,0.95139 5.93493,4.84394 9.96363,8.65011 7.30715,6.90352 14.02402,12.00981 15.8034,12.01407 0.51658,10e-4 1.99874,0.70675 3.29367,1.56782 3.72777,2.47877 4.93888,2.48865 9.71472,0.0792 3.23403,-1.63156 5.39201,-2.29268 9.77476,-2.99459 3.81529,-0.61103 5.62448,-1.1203 5.62448,-1.58321 0,-1.66485 -1.26613,-6.40942 -2.22038,-8.32044 -1.69654,-3.39756 -4.45281,-6.41874 -7.08773,-7.76899 -3.96411,-2.03137 -4.99821,-2.62594 -6.74988,-3.88095 -2.60162,-1.86396 -6.00759,-3.23745 -8.05926,-3.24999 -2.1917,-0.0134 -3.06558,-0.8618 -4.32309,-4.19715 -1.15795,-3.07123 -1.62955,-3.63315 -4.97284,-5.92493 -2.90387,-1.99057 -3.6735,-2.14817 -10.61582,-2.17385 l -2.95723,-0.0109 -1.75165,-2.60425 c -2.61654,-3.89016 -6.22892,-5.57073 -12.70202,-5.90932 l -4.9767,-0.26032 -2.239,-2.29441 c -1.23145,-1.26191 -3.68959,-2.98582 -5.46252,-3.83091 -2.63558,-1.25627 -3.28607,-1.8214 -3.56657,-3.09849 -0.79617,-3.62494 -5.67887,-7.90106 -9.02183,-7.90106 -0.60133,0 -2.07423,-0.81951 -3.2731,-1.82114 -4.92714,-4.1165 -11.58365,-3.52145 -14.95017,1.33644 -1.90249,2.74531 -3.40404,2.73242 -5.91911,-0.0508 -2.5817,-2.85698 -9.00788,-5.40176 -15.82483,-6.26669 -3.9695,-0.50364 -5.28084,-0.50262 -6.22907,0.005 l -1.20105,0.6428 0.36697,13.41062 c 0.44882,16.40071 0.64336,17.88557 2.45725,18.75447 1.14493,0.54845 2.19291,0.43789 6.8017,-0.7175 l 5.44823,-1.36585 4.41101,0.8872 c 5.23477,1.05303 6.31474,1.55763 6.31474,2.95062 0,1.58336 -1.04171,1.68476 -5.27044,0.51291 -4.84205,-1.34179 -5.98845,-1.33766 -9.95731,0.0359 -4.33997,1.50194 -7.47432,1.43323 -10.696,-0.23449 -3.48474,-1.80387 -8.8244,-2.66139 -13.77893,-2.2128 -3.88553,0.3518 -7.44637,1.75358 -13.51574,5.32066 -1.60865,0.94544 -1.72305,0.94827 -2.60717,0.0641 -0.69751,-0.69752 -0.79038,-1.13759 -0.37803,-1.79132 0.88745,-1.40691 9.48303,-5.73982 12.6472,-6.37526 3.9894,-0.8012 9.92812,-0.73705 12.83796,0.1387 1.32544,0.39889 2.49173,0.64345 2.59172,0.54346 0.0999,-0.0999 -0.0171,-2.36878 -0.26019,-5.04174 -0.2431,-2.67295 -0.60676,-9.45107 -0.80815,-15.06248 l -0.36614,-10.20255 -2.5848,0.11998 c -1.42165,0.066 -3.62932,0.61095 -4.9059,1.21103 -2.1814,1.02538 -2.5975,1.05194 -6.91292,0.44116 -3.68704,-0.52185 -5.32645,-0.51862 -8.32027,0.0164 -3.37268,0.60274 -3.86429,0.57789 -5.1521,-0.26022 -0.783,-0.50959 -1.68618,-1.27988 -2.00703,-1.71176 -0.43869,-0.59048 -1.61175,-0.77415 -4.72909,-0.74046 -3.74048,0.0404 -4.42496,0.21559 -7.00312,1.79233 -1.57157,0.96115 -3.14829,2.02162 -3.50381,2.35657 -0.35553,0.33497 -1.80839,0.85824 -3.22861,1.16281 -4.22305,0.90569 -9.77581,4.04497 -10.73679,6.07009 -0.45256,0.95369 -0.82283,1.94799 -0.82283,2.20959 0,0.26159 -0.71794,1.20995 -1.59545,2.10747 -1.34476,1.37546 -1.87393,1.58666 -3.3678,1.34425 -3.55477,-0.57685 -7.60943,3.16932 -9.54903,8.82249 -1.76241,5.13673 -3.47747,6.71229 -7.30658,6.71229 -2.87467,0 -5.59093,2.00423 -6.71883,4.95755 -0.73315,1.91977 -0.84075,3.28915 -0.56632,7.20835 l 0.33877,4.83835 -3.59025,2.99085 c -2.65737,2.21374 -3.79776,3.5732 -4.38897,5.23209 -0.43933,1.23266 -1.20014,3.35956 -1.69071,4.72644 -0.49056,1.36688 -1.12083,2.48524 -1.40057,2.48524 -0.27977,0 -1.5014,0.45225 -2.71475,1.005 -2.62609,1.19632 -4.37867,3.95753 -4.88951,7.7035 -0.30321,2.2234 -0.7272,2.90432 -3.3973,5.45599 -3.61961,3.45904 -5.66912,7.81097 -5.66912,12.03782 0,2.34021 0.2212,2.89994 1.75028,4.42901 1.70485,1.70486 1.8471,1.74561 5.48307,1.5705 3.27314,-0.15761 4.29786,-0.48342 8.32148,-2.64579 z m -82.52538,1.83641 c 0,-0.28776 -0.221548,-0.52321 -0.492331,-0.52321 -0.270781,0 -0.637842,0.23545 -0.815691,0.52321 -0.177849,0.28777 0.04369,0.52321 0.492328,0.52321 0.448629,0 0.815694,-0.23544 0.815694,-0.52321 z m 83.45159,0 c 0.17785,-0.28776 -0.16141,-0.52321 -0.75393,-0.52321 -0.59251,0 -1.07729,0.23545 -1.07729,0.52321 0,0.28777 0.33926,0.52321 0.75394,0.52321 0.41466,0 0.89944,-0.23544 1.07728,-0.52321 z M 275.664,349.92743 c 3.92247,-3.1521 4.59371,-6.87853 2.3337,-12.95575 -1.76593,-4.74863 -6.21412,-11.29869 -8.13076,-11.97275 -1.17963,-0.41484 -2.04896,-0.17139 -5.23006,1.46473 -2.09841,1.07925 -5.38196,2.75532 -7.29681,3.7246 -1.91484,0.96926 -3.63403,2.00904 -3.8204,2.31061 -0.49232,0.79657 1.28525,4.4937 4.07007,8.46522 2.85968,4.0783 9.19237,10.21737 10.91578,10.58199 2.50885,0.53083 5.25692,-0.0906 7.15848,-1.61865 z m -78.08152,0.59144 c 2.20716,-1.04737 5.56924,-4.88457 7.04615,-8.04191 0.60573,-1.29494 1.42801,-2.72342 1.82728,-3.17438 1.01752,-1.14926 4.92258,-10.63262 4.92258,-11.95437 0,-1.02609 -0.28662,-1.0913 -4.83966,-1.10107 -5.46421,-0.0117 -11.88708,-0.81087 -12.65025,-1.57403 -0.94599,-0.94599 -3.28355,-0.56219 -4.07326,0.66879 -1.92863,3.00628 -4.53126,10.36856 -5.1015,14.43101 -0.58278,4.15199 -0.55425,4.47534 0.60022,6.80093 1.65332,3.33051 3.98346,4.79764 7.61969,4.79764 1.56861,0 3.66053,-0.38368 4.64875,-0.85261 z m 29.49225,0.32369 c 0,-2.5205 5.10556,-9.33222 8.80817,-11.75165 1.9842,-1.29655 2.52264,-1.98542 2.87835,-3.6825 0.24066,-1.14817 0.77041,-3.23299 1.17723,-4.6329 0.40679,-1.39993 0.73964,-3.1069 0.73964,-3.79326 v -1.24794 h -8.59766 c -7.73839,0 -8.62418,0.0915 -8.86295,0.91561 -0.14591,0.50359 -0.84991,2.91689 -1.56442,5.36287 -0.71452,2.44601 -1.58134,6.10307 -1.92627,8.1268 -0.58276,3.41914 -0.54492,3.87065 0.53471,6.38032 0.92502,2.15028 1.60453,2.91993 3.33351,3.77577 2.39077,1.18343 3.47969,1.35457 3.47969,0.54688 z m 86.86271,-12.29496 c 0.84034,-0.43457 2.47675,-1.72019 3.63646,-2.85693 1.68327,-1.64993 2.10855,-2.44374 2.10855,-3.93556 0,-3.68599 -2.96585,-8.45988 -9.21672,-14.83536 -3.044,-3.10467 -3.36941,-3.29729 -4.99853,-2.95869 -1.94024,0.40325 -5.72258,2.39674 -11.01444,5.8052 -5.34004,3.43947 -5.3348,4.80528 0.0411,10.74586 3.0802,3.40371 7.47304,6.88258 10.1739,8.05713 2.24409,0.97588 7.36376,0.96393 9.26968,-0.0216 z m 43.67756,-5.48839 c -0.17785,-0.28776 -0.5588,-0.5232 -0.84656,-0.5232 -0.28776,0 -0.3777,0.23544 -0.19985,0.5232 0.17785,0.28777 0.55879,0.52321 0.84658,0.52321 0.28775,0 0.37769,-0.23544 0.19983,-0.52321 z m -114.84405,-2.61603 c 0,-0.28777 -0.23544,-0.52321 -0.52322,-0.52321 -0.28775,0 -0.52318,0.23544 -0.52318,0.52321 0,0.28776 0.23543,0.5232 0.52318,0.5232 0.28778,0 0.52322,-0.23544 0.52322,-0.5232 z m 143.51393,-0.0543 c -0.41383,-0.41385 -0.85113,-0.41834 -1.54346,-0.0159 -0.84688,0.49224 -0.77565,0.56348 0.57742,0.57742 1.12558,0.0116 1.38714,-0.14042 0.96604,-0.56151 z M 263.3168,314.40376 c -0.35423,-0.14331 -1.06055,-0.15203 -1.56962,-0.0195 -0.50907,0.13266 -0.21924,0.24993 0.64406,0.26059 0.86329,0.0107 1.27979,-0.0979 0.92556,-0.2412 z m -27.87075,-1.22643 c 0,-0.28776 -0.10383,-0.52321 -0.23072,-0.52321 -0.12691,0 -0.37624,0.23545 -0.5541,0.52321 -0.17785,0.28777 -0.074,0.52321 0.23073,0.52321 0.30475,0 0.55409,-0.23544 0.55409,-0.52321 z m -130.27867,-19.5894 c 0,-0.1269 -0.23545,-0.37624 -0.52321,-0.55409 -0.28777,-0.17784 -0.52321,-0.074 -0.52321,0.23072 0,0.30476 0.23544,0.55408 0.52321,0.55408 0.28776,0 0.52321,-0.10382 0.52321,-0.23071 z m 39.96939,-18.90914 c 0.42147,-1.09833 0.40239,-1.26523 -0.1446,-1.26523 -0.25421,0 -0.58533,0.47088 -0.73583,1.04641 -0.32312,1.23559 0.41943,1.42013 0.88043,0.21882 z M 77.960581,261.14907 c 0,-0.12691 -0.235439,-0.37625 -0.523209,-0.5541 -0.287763,-0.17785 -0.523203,-0.074 -0.523203,0.23072 0,0.30475 0.23544,0.5541 0.523203,0.5541 0.28777,0 0.523209,-0.10383 0.523209,-0.23072 z M 40.081954,247.34042 c -0.254881,-0.41241 -3.454766,-0.19589 -3.454766,0.23376 0,0.11121 0.837948,0.20221 1.862107,0.20221 1.024157,0 1.740852,-0.19618 1.592659,-0.43597 z M 275.20981,236.26583 c 0,-0.28777 -0.10382,-0.52321 -0.23071,-0.52321 -0.1269,0 -0.37624,0.23544 -0.55409,0.52321 -0.17785,0.28776 -0.074,0.5232 0.23071,0.5232 0.30476,0 0.55409,-0.23544 0.55409,-0.5232 z m -21.75286,-11.37978 c -0.19182,-1.07911 -0.59031,-2.19746 -0.88553,-2.48523 -0.36408,-0.3549 -0.42782,-0.2149 -0.19814,0.43521 0.18624,0.52712 0.33862,1.64547 0.33862,2.48524 0,0.83974 0.2461,1.52682 0.54691,1.52682 0.3452,0 0.41828,-0.72367 0.19814,-1.96204 z m -43.90967,-2.74683 c -0.17786,-0.28777 -0.7215,-0.50666 -1.2081,-0.48643 -0.72123,0.03 -0.69136,0.11986 0.16167,0.48643 1.40007,0.60164 1.41824,0.60164 1.04643,0 z m -17.00425,-8.57695 c 0,-0.11309 -0.35316,-0.34114 -0.78482,-0.50679 -0.43165,-0.16564 -0.7848,-0.073 -0.7848,0.20563 0,0.27873 0.35315,0.50679 0.7848,0.50679 0.43166,0 0.78482,-0.0925 0.78482,-0.20563 z m -10.46415,-5.54965 c 0,-0.28776 -0.41203,-0.51961 -0.91561,-0.51519 -0.78249,0.007 -0.80151,0.0817 -0.1308,0.51519 0.98739,0.63811 1.04641,0.63811 1.04641,0 z m 148.85254,-3.13924 c 0.17785,-0.28778 0.074,-0.52321 -0.23073,-0.52321 -0.30474,0 -0.55409,0.23543 -0.55409,0.52321 0,0.28776 0.10383,0.5232 0.23074,0.5232 0.12689,0 0.37624,-0.23544 0.55408,-0.5232 z m 59.07994,-7.3151 c -0.28237,-0.28238 -1.33009,-0.63856 -2.32828,-0.79152 l -1.81487,-0.27814 1.83122,0.75173 c 2.22041,0.91146 3.0147,1.02071 2.31193,0.31793 z M 276.51783,183.9717 c 11.72898,-2.27904 21.57036,-5.67222 32.96208,-11.36485 10.01128,-5.0028 19.92064,-13.39485 27.0782,-22.93201 7.06308,-9.41125 8.94098,-14.28877 16.31662,-42.37967 2.94091,-11.2008 5.40826,-18.720647 8.1144,-24.730591 1.16576,-2.588983 2.11955,-4.935956 2.11955,-5.215494 0,-0.310221 -1.57992,-0.225745 -4.05486,0.216806 -2.23018,0.398788 -5.23207,0.934062 -6.67089,1.189507 -4.46785,0.793198 -10.40332,2.108296 -11.77217,2.60831 -0.71941,0.262781 -4.01562,1.22093 -7.32491,2.129213 -3.30929,0.908283 -8.51222,2.561253 -11.56207,3.673263 -3.45676,1.260364 -5.99554,1.904062 -6.74096,1.709135 -0.87804,-0.22962 -1.131,-0.118454 -0.95204,0.418399 0.17098,0.512932 -1.64265,1.565286 -6.07764,3.526529 -3.47675,1.537487 -6.69304,3.12774 -7.14735,3.5339 -0.45431,0.406161 -1.0194,0.738477 -1.25576,0.738477 -0.69876,0 -8.5391,5.134266 -13.61446,8.915436 -5.54667,4.13233 -7.33984,5.96343 -12.02021,12.27447 -4.63659,6.25202 -7.63753,11.89996 -9.86887,18.57387 -2.98294,8.92182 -3.21523,10.43154 -3.22025,20.9283 -0.003,8.10838 0.19186,10.62133 1.20604,15.48338 0.66586,3.19222 1.52235,6.71065 1.90328,7.81875 l 0.69263,2.01471 1.57093,-3.10988 c 3.07616,-6.08979 13.38954,-22.59056 18.87345,-30.19641 8.79268,-12.19491 9.28264,-12.84855 11.40869,-15.21988 1.10621,-1.23384 3.98122,-4.65391 6.38892,-7.60017 2.7841,-3.40688 4.64102,-5.25576 5.10127,-5.07915 0.45632,0.17511 0.72365,-0.082 0.72365,-0.69612 0,-0.87908 14.1735,-14.66279 17.06132,-16.59212 1.31744,-0.88016 2.82057,-0.43767 2.82057,0.83031 0,0.49975 -2.76647,3.46938 -6.1477,6.59917 -3.38121,3.12979 -7.21317,6.75711 -8.51543,8.06071 -5.60258,5.60833 -17.46547,19.45535 -20.40832,23.82169 -0.96974,1.43883 -2.8578,4.0287 -4.1957,5.75529 -4.31787,5.57231 -9.99888,14.41498 -15.77879,24.56024 -3.10538,5.45071 -5.64615,10.10073 -5.64615,10.33333 0,0.69486 3.08165,0.48181 8.63293,-0.59685 z m 20.6667,-3.57775 c 0,-0.22652 -0.47088,-0.44732 -1.04641,-0.49068 -0.57552,-0.0434 -1.04641,0.14199 -1.04641,0.41186 0,0.26989 0.47089,0.4907 1.04641,0.4907 0.57553,0 1.04641,-0.18534 1.04641,-0.41188 z m -60.16887,-4.04484 c 0,-0.14907 -0.97502,-1.85605 -2.16674,-3.79326 -1.19171,-1.9372 -2.42779,-3.99332 -2.74684,-4.56912 -2.82975,-5.10705 -7.9351,-13.12588 -11.65858,-18.31175 -4.75715,-6.62555 -14.53535,-18.29994 -17.50607,-20.9009 -5.1915,-4.54529 -13.52805,-12.66231 -13.53065,-13.17433 -0.001,-0.32447 0.34962,-0.88258 0.78058,-1.24025 0.97869,-0.81225 2.15262,0.0419 9.42754,6.85977 9.09943,8.52773 19.50972,20.45383 24.58219,28.16156 0.57553,0.87452 2.45034,3.65291 4.16626,6.17417 1.71591,2.52128 3.48175,5.22948 3.92405,6.01827 2.68643,4.79062 7.51807,12.4315 7.72814,12.22144 0.37286,-0.37287 1.5499,-6.88601 1.98797,-11.00043 0.34428,-3.23353 0.4626,-3.5183 1.09983,-2.64685 0.66687,0.912 0.71402,0.88147 0.71402,-0.46238 0,-0.82603 -0.22284,-1.30118 -0.5232,-1.11554 -0.32095,0.19836 -0.5244,-0.64927 -0.52629,-2.19275 -0.008,-6.99012 -2.60582,-18.50081 -5.44787,-24.1444 -4.48352,-8.90307 -14.57044,-18.79451 -25.13894,-24.65177 -4.1481,-2.29895 -13.90427,-6.4541 -17.81208,-7.586164 -1.72368,-0.499333 -3.36941,-1.087806 -3.65718,-1.307715 -1.2755,-0.974735 -14.18902,-3.793276 -24.27002,-5.297246 -1.83797,-0.274202 -3.8981,-0.638182 -4.57808,-0.808848 -1.56013,-0.391568 -1.61715,0.539925 -0.16409,2.680779 2.15456,3.174432 5.78654,13.135584 6.8008,18.652034 0.33601,1.82748 0.78238,3.67585 0.99194,4.10749 0.20956,0.43165 1.13429,3.25697 2.05496,6.2785 3.31316,10.87328 3.75792,12.10805 6.07893,16.87623 3.03591,6.2369 6.05982,10.31921 11.2846,15.2343 8.97329,8.44143 20.45383,14.37716 35.02464,18.10865 5.66828,1.4516 13.08018,2.48886 13.08018,1.83051 z"
       style="fill:#4a6741;fill-opacity:1;stroke-width:0.523207"
       id="path1" />
  </g>
</svg>
